G04 start of page 11 for group -4015 idx -4015 *
G04 Title: Power Board, toppaste *
G04 Creator: pcb 1.99z *
G04 CreationDate: Sun 28 Jul 2013 20:14:53 GMT UTC *
G04 For: rbarlow *
G04 Format: Gerber/RS-274X *
G04 PCB-Dimensions (mm): 166.00 100.00 *
G04 PCB-Coordinate-Origin: lower left *
%MOMM*%
%FSLAX43Y43*%
%LNTOPPASTE*%
%ADD267R,0.719X0.719*%
%ADD266R,0.700X0.700*%
%ADD265R,1.100X1.100*%
%ADD264R,0.500X0.500*%
%ADD263R,1.753X1.753*%
%ADD262R,0.381X0.381*%
%ADD261R,0.610X0.610*%
%ADD260R,1.800X1.800*%
%ADD259C,0.002*%
%ADD258R,1.400X1.400*%
%ADD257R,0.508X0.508*%
%ADD256R,4.300X4.300*%
%ADD255R,3.099X3.099*%
%ADD254R,1.422X1.422*%
%ADD253R,1.100X1.100*%
%ADD252R,6.230X6.230*%
%ADD251R,0.737X0.737*%
%ADD250R,1.524X1.524*%
%ADD249R,0.864X0.864*%
%ADD248R,1.600X1.600*%
%ADD247R,0.800X0.800*%
%ADD246R,0.300X0.300*%
%ADD245R,0.330X0.330*%
%ADD244R,0.280X0.280*%
%ADD243R,1.300X1.300*%
%ADD242R,0.719X0.719*%
G54D242*X52077Y89118D02*X52323D01*
X52077Y90600D02*X52323D01*
X123577Y41159D02*X123823D01*
X123577Y42641D02*X123823D01*
X26459Y44223D02*Y43977D01*
X27941Y44223D02*Y43977D01*
X92077Y78182D02*X92323D01*
X92077Y76700D02*X92323D01*
X10400Y30223D02*Y29977D01*
X11882Y30223D02*Y29977D01*
G54D243*X36800Y75100D02*Y74900D01*
X38600Y75100D02*Y74900D01*
G54D242*X40477Y30741D02*X40723D01*
X40477Y29259D02*X40723D01*
X108177Y72100D02*X108423D01*
X108177Y70618D02*X108423D01*
X6577Y53200D02*X6823D01*
X6577Y54682D02*X6823D01*
X151282Y30423D02*Y30177D01*
X149800Y30423D02*Y30177D01*
G54D244*X92620Y75342D02*Y74098D01*
X92120Y75342D02*Y74098D01*
X91620Y75342D02*Y74098D01*
X91120Y75342D02*Y74098D01*
X90620Y75342D02*Y74098D01*
X90120Y75342D02*Y74098D01*
X89620Y75342D02*Y74098D01*
X89120Y75342D02*Y74098D01*
X88620Y75342D02*Y74098D01*
X88120Y75342D02*Y74098D01*
X87620Y75342D02*Y74098D01*
X87120Y75342D02*Y74098D01*
X86620Y75342D02*Y74098D01*
X86120Y75342D02*Y74098D01*
X85620Y75342D02*Y74098D01*
X85120Y75342D02*Y74098D01*
X81978Y72200D02*X83222D01*
X81978Y71700D02*X83222D01*
X81978Y71200D02*X83222D01*
X81978Y70700D02*X83222D01*
X81978Y70200D02*X83222D01*
X81978Y69700D02*X83222D01*
X81978Y69200D02*X83222D01*
X81978Y68700D02*X83222D01*
X81978Y68200D02*X83222D01*
X81978Y67700D02*X83222D01*
X81978Y67200D02*X83222D01*
X81978Y66700D02*X83222D01*
X81978Y66200D02*X83222D01*
X81978Y65700D02*X83222D01*
X81978Y65200D02*X83222D01*
X81978Y64700D02*X83222D01*
X85120Y62802D02*Y61558D01*
X85620Y62802D02*Y61558D01*
X86120Y62802D02*Y61558D01*
X86620Y62802D02*Y61558D01*
X87120Y62802D02*Y61558D01*
X87620Y62802D02*Y61558D01*
X88120Y62802D02*Y61558D01*
X88620Y62802D02*Y61558D01*
X89120Y62802D02*Y61558D01*
X89620Y62802D02*Y61558D01*
X90120Y62802D02*Y61558D01*
X90620Y62802D02*Y61558D01*
X91120Y62802D02*Y61558D01*
X91620Y62802D02*Y61558D01*
X92120Y62802D02*Y61558D01*
X92620Y62802D02*Y61558D01*
X94518Y64701D02*X95762D01*
X94518Y65200D02*X95762D01*
X94518Y65700D02*X95762D01*
X94518Y66200D02*X95762D01*
X94518Y66700D02*X95762D01*
X94518Y67200D02*X95762D01*
X94518Y67700D02*X95762D01*
X94518Y68200D02*X95762D01*
X94518Y68700D02*X95762D01*
X94518Y69200D02*X95762D01*
X94518Y69700D02*X95762D01*
X94518Y70200D02*X95762D01*
X94518Y70700D02*X95762D01*
X94518Y71200D02*X95762D01*
X94518Y71700D02*X95762D01*
X94518Y72200D02*X95762D01*
G54D242*X58577Y30682D02*X58823D01*
X58577Y29200D02*X58823D01*
G54D245*X44015Y31000D02*X45185D01*
X44015Y30350D02*X45185D01*
X44015Y29701D02*X45185D01*
X44015Y29051D02*X45185D01*
X48515D02*X49685D01*
X48515Y29701D02*X49685D01*
X48515Y30350D02*X49685D01*
X48515Y31000D02*X49685D01*
G54D242*X113700Y40223D02*Y39977D01*
X115182Y40223D02*Y39977D01*
X9577Y48200D02*X9823D01*
X9577Y46718D02*X9823D01*
X70877Y63659D02*X71123D01*
X70877Y65141D02*X71123D01*
X71718Y82023D02*Y81777D01*
X73200Y82023D02*Y81777D01*
G54D246*X34600Y69475D02*Y68525D01*
X35100Y69475D02*Y68525D01*
X35600Y69475D02*Y68525D01*
X36100Y69475D02*Y68525D01*
X36600Y69475D02*Y68525D01*
X37100Y69475D02*Y68525D01*
X37600Y69475D02*Y68525D01*
X38100Y69475D02*Y68525D01*
X38600Y69475D02*Y68525D01*
X39100Y69475D02*Y68525D01*
X39600Y69475D02*Y68525D01*
X40100Y69475D02*Y68525D01*
X40600Y69475D02*Y68525D01*
X41100Y69475D02*Y68525D01*
X41600Y69475D02*Y68525D01*
X42100Y69475D02*Y68525D01*
X42600Y69475D02*Y68525D01*
X43100Y69475D02*Y68525D01*
X43600Y69475D02*Y68525D01*
X44100Y69475D02*Y68525D01*
X44600Y69475D02*Y68525D01*
X45100Y69475D02*Y68525D01*
X45600Y69475D02*Y68525D01*
X46100Y69475D02*Y68525D01*
X46600Y69475D02*Y68525D01*
X47100Y69475D02*Y68525D01*
X47600Y69475D02*Y68525D01*
X48100Y69475D02*Y68525D01*
X48600Y69475D02*Y68525D01*
X49100Y69475D02*Y68525D01*
X49600Y69475D02*Y68525D01*
X50100Y69475D02*Y68525D01*
X50600Y69475D02*Y68525D01*
X51100Y69475D02*Y68525D01*
X51600Y69475D02*Y68525D01*
X52100Y69475D02*Y68525D01*
X52600Y69475D02*Y68525D01*
X53100Y69475D02*Y68525D01*
X53600Y69475D02*Y68525D01*
X54100Y69475D02*Y68525D01*
G54D247*X32400Y67075D02*X33270D01*
G54D248*X32020Y65965D02*X32870D01*
G54D247*X55500Y67075D02*X56350D01*
G54D248*X55900Y65965D02*X56730D01*
G54D249*X60524Y69000D02*X60676D01*
X60524Y70981D02*X60676D01*
X58441Y69991D02*X58594D01*
G54D250*X159989Y62138D02*Y61062D01*
X157012Y62138D02*Y61062D01*
G54D243*X90300Y77000D02*X90500D01*
X90300Y78800D02*X90500D01*
G54D251*X75746Y91461D02*X75898D01*
X75746Y90165D02*X75898D01*
X77524Y90800D02*X77676D01*
G54D250*X130570Y14911D02*Y13399D01*
X135130Y14911D02*Y13399D01*
G54D252*X132595Y21300D02*X133105D01*
G54D242*X94518Y60623D02*Y60377D01*
X96000Y60623D02*Y60377D01*
X36659Y12923D02*Y12677D01*
X38141Y12923D02*Y12677D01*
X41959Y12923D02*Y12677D01*
X43441Y12923D02*Y12677D01*
X123177Y26182D02*X123423D01*
X123177Y24700D02*X123423D01*
X112277Y41482D02*X112523D01*
X112277Y40000D02*X112523D01*
X117477Y34318D02*X117723D01*
X117477Y35800D02*X117723D01*
G54D243*X26800Y74800D02*Y74600D01*
X28600Y74800D02*Y74600D01*
G54D242*X36800Y32623D02*Y32377D01*
X38282Y32623D02*Y32377D01*
X8600Y60123D02*Y59877D01*
X7118Y60123D02*Y59877D01*
X5077Y59200D02*X5323D01*
X5077Y60682D02*X5323D01*
G54D253*X34600Y78200D02*Y77000D01*
X32000Y78200D02*Y77000D01*
G54D242*X107177Y73318D02*X107423D01*
X107177Y74800D02*X107423D01*
X105377D02*X105623D01*
X105377Y73318D02*X105623D01*
X138350Y34923D02*Y34677D01*
X139832Y34923D02*Y34677D01*
X74977Y78182D02*X75223D01*
X74977Y76700D02*X75223D01*
X68677Y77600D02*X68923D01*
X68677Y79082D02*X68923D01*
X70077Y83500D02*X70323D01*
X70077Y82018D02*X70323D01*
G54D254*X110103Y77138D02*Y75462D01*
X112389Y77138D02*Y75462D01*
X114700Y77138D02*Y75462D01*
G54D255*X111246Y82498D02*X113532D01*
G54D243*X97800Y62500D02*Y62300D01*
X96000Y62500D02*Y62300D01*
G54D242*X123177Y29182D02*X123423D01*
X123177Y27700D02*X123423D01*
G54D249*X121424Y27719D02*X121576D01*
X121424Y29700D02*X121576D01*
X119341Y28710D02*X119494D01*
G54D256*X97450Y88800D02*X98850D01*
X82150D02*X83551D01*
G54D250*X72300Y15738D02*Y14662D01*
X69323Y15738D02*Y14662D01*
G54D242*X67077Y15941D02*X67323D01*
X67077Y14459D02*X67323D01*
X77959Y59223D02*Y58977D01*
X79441Y59223D02*Y58977D01*
G54D250*X47462Y17689D02*X48538D01*
X47462Y14712D02*X48538D01*
G54D242*X47259Y12923D02*Y12677D01*
X48741Y12923D02*Y12677D01*
G54D257*X112400Y33319D02*Y31668D01*
X113670Y33319D02*Y31668D01*
X114940Y33319D02*Y31668D01*
X116210Y33319D02*Y31668D01*
Y38526D02*Y36875D01*
X114940Y38526D02*Y36875D01*
X113670Y38526D02*Y36875D01*
X112400Y38526D02*Y36875D01*
G54D258*X122200Y45300D02*X122900D01*
X122200Y49800D02*X122900D01*
X131300Y45300D02*X132000D01*
X131300Y49800D02*X132000D01*
G54D242*X33200Y71023D02*Y70777D01*
X31718Y71023D02*Y70777D01*
X110877Y32500D02*X111123D01*
X110877Y33982D02*X111123D01*
G54D259*G36*
X59376Y52037D02*X60437Y50976D01*
X60224Y50764D01*
X59164Y51824D01*
X59376Y52037D01*
G37*
G36*
X59023Y51683D02*X60083Y50623D01*
X59871Y50410D01*
X58810Y51471D01*
X59023Y51683D01*
G37*
G36*
X58669Y51329D02*X59729Y50269D01*
X59517Y50057D01*
X58457Y51117D01*
X58669Y51329D01*
G37*
G36*
X58315Y50976D02*X59376Y49915D01*
X59164Y49703D01*
X58103Y50764D01*
X58315Y50976D01*
G37*
G36*
X57962Y50622D02*X59022Y49562D01*
X58810Y49350D01*
X57750Y50410D01*
X57962Y50622D01*
G37*
G36*
X57608Y50269D02*X58669Y49208D01*
X58457Y48996D01*
X57396Y50057D01*
X57608Y50269D01*
G37*
G36*
X57255Y49915D02*X58315Y48855D01*
X58103Y48643D01*
X57043Y49703D01*
X57255Y49915D01*
G37*
G36*
X56901Y49562D02*X57962Y48501D01*
X57750Y48289D01*
X56689Y49350D01*
X56901Y49562D01*
G37*
G36*
X56548Y49208D02*X57608Y48148D01*
X57396Y47935D01*
X56335Y48996D01*
X56548Y49208D01*
G37*
G36*
X56194Y48855D02*X57255Y47794D01*
X57043Y47582D01*
X55982Y48643D01*
X56194Y48855D01*
G37*
G36*
X55840Y48501D02*X56901Y47440D01*
X56689Y47228D01*
X55628Y48289D01*
X55840Y48501D01*
G37*
G36*
X55487Y48148D02*X56548Y47087D01*
X56335Y46875D01*
X55275Y47935D01*
X55487Y48148D01*
G37*
G36*
X55134Y47794D02*X56194Y46734D01*
X55982Y46521D01*
X54921Y47582D01*
X55134Y47794D01*
G37*
G36*
X54780Y47441D02*X55841Y46380D01*
X55629Y46168D01*
X54568Y47229D01*
X54780Y47441D01*
G37*
G36*
X54426Y47087D02*X55487Y46026D01*
X55275Y45814D01*
X54214Y46875D01*
X54426Y47087D01*
G37*
G36*
X54073Y46734D02*X55134Y45673D01*
X54921Y45461D01*
X53861Y46521D01*
X54073Y46734D01*
G37*
G36*
X53719Y46380D02*X54780Y45319D01*
X54568Y45107D01*
X53507Y46168D01*
X53719Y46380D01*
G37*
G36*
X53366Y46026D02*X54426Y44966D01*
X54214Y44754D01*
X53154Y45814D01*
X53366Y46026D01*
G37*
G36*
X53012Y45673D02*X54073Y44612D01*
X53861Y44400D01*
X52800Y45461D01*
X53012Y45673D01*
G37*
G36*
X52659Y45319D02*X53719Y44259D01*
X53507Y44047D01*
X52447Y45107D01*
X52659Y45319D01*
G37*
G36*
X52305Y44966D02*X53366Y43905D01*
X53154Y43693D01*
X52093Y44754D01*
X52305Y44966D01*
G37*
G36*
X51952Y44612D02*X53012Y43552D01*
X52800Y43340D01*
X51740Y44400D01*
X51952Y44612D01*
G37*
G36*
X51598Y44259D02*X52659Y43198D01*
X52446Y42986D01*
X51386Y44046D01*
X51598Y44259D01*
G37*
G36*
X51245Y43905D02*X52305Y42845D01*
X52093Y42632D01*
X51032Y43693D01*
X51245Y43905D01*
G37*
G36*
X56618Y38531D02*X57679Y37471D01*
X57467Y37259D01*
X56406Y38319D01*
X56618Y38531D01*
G37*
G36*
X56972Y38885D02*X58032Y37824D01*
X57820Y37612D01*
X56760Y38673D01*
X56972Y38885D01*
G37*
G36*
X57325Y39239D02*X58386Y38178D01*
X58174Y37966D01*
X57113Y39026D01*
X57325Y39239D01*
G37*
G36*
X57679Y39592D02*X58739Y38531D01*
X58527Y38319D01*
X57467Y39380D01*
X57679Y39592D01*
G37*
G36*
X58032Y39945D02*X59093Y38885D01*
X58881Y38673D01*
X57820Y39733D01*
X58032Y39945D01*
G37*
G36*
X58386Y40299D02*X59446Y39239D01*
X59234Y39026D01*
X58174Y40087D01*
X58386Y40299D01*
G37*
G36*
X58740Y40653D02*X59800Y39592D01*
X59588Y39380D01*
X58527Y40440D01*
X58740Y40653D01*
G37*
G36*
X59093Y41006D02*X60154Y39946D01*
X59941Y39734D01*
X58881Y40794D01*
X59093Y41006D01*
G37*
G36*
X59447Y41360D02*X60507Y40299D01*
X60295Y40087D01*
X59235Y41148D01*
X59447Y41360D01*
G37*
G36*
X59800Y41713D02*X60861Y40653D01*
X60649Y40440D01*
X59588Y41501D01*
X59800Y41713D01*
G37*
G36*
X60154Y42067D02*X61214Y41006D01*
X61002Y40794D01*
X59942Y41855D01*
X60154Y42067D01*
G37*
G36*
X60507Y42420D02*X61568Y41360D01*
X61356Y41148D01*
X60295Y42208D01*
X60507Y42420D01*
G37*
G36*
X60861Y42774D02*X61921Y41713D01*
X61709Y41501D01*
X60649Y42562D01*
X60861Y42774D01*
G37*
G36*
X61214Y43127D02*X62275Y42067D01*
X62063Y41854D01*
X61002Y42915D01*
X61214Y43127D01*
G37*
G36*
X61568Y43481D02*X62628Y42420D01*
X62416Y42208D01*
X61356Y43269D01*
X61568Y43481D01*
G37*
G36*
X61921Y43834D02*X62982Y42774D01*
X62770Y42562D01*
X61709Y43622D01*
X61921Y43834D01*
G37*
G36*
X62275Y44188D02*X63335Y43128D01*
X63123Y42915D01*
X62063Y43976D01*
X62275Y44188D01*
G37*
G36*
X62628Y44542D02*X63689Y43481D01*
X63477Y43269D01*
X62416Y44329D01*
X62628Y44542D01*
G37*
G36*
X62982Y44895D02*X64043Y43835D01*
X63830Y43623D01*
X62770Y44683D01*
X62982Y44895D01*
G37*
G36*
X63335Y45249D02*X64396Y44188D01*
X64184Y43976D01*
X63123Y45037D01*
X63335Y45249D01*
G37*
G36*
X63689Y45602D02*X64750Y44541D01*
X64538Y44329D01*
X63477Y45390D01*
X63689Y45602D01*
G37*
G36*
X64043Y45956D02*X65103Y44895D01*
X64891Y44683D01*
X63830Y45743D01*
X64043Y45956D01*
G37*
G36*
X64396Y46309D02*X65457Y45249D01*
X65245Y45037D01*
X64184Y46097D01*
X64396Y46309D01*
G37*
G36*
X64750Y46663D02*X65810Y45602D01*
X65598Y45390D01*
X64538Y46451D01*
X64750Y46663D01*
G37*
G54D242*X114577Y71218D02*X114823D01*
X114577Y72700D02*X114823D01*
X110877Y36218D02*X111123D01*
X110877Y37700D02*X111123D01*
X65177Y65700D02*X65423D01*
X65177Y67182D02*X65423D01*
X77959Y60723D02*Y60477D01*
X79441Y60723D02*Y60477D01*
Y62223D02*Y61977D01*
X77959Y62223D02*Y61977D01*
X71718Y78423D02*Y78177D01*
X73200Y78423D02*Y78177D01*
G54D260*X142650Y31950D02*Y30150D01*
X136100Y31950D02*Y30150D01*
G54D242*X37982Y73123D02*Y72877D01*
X36500Y73123D02*Y72877D01*
X140082Y40173D02*Y39927D01*
X138600Y40173D02*Y39927D01*
G54D250*X159989Y53138D02*Y52062D01*
X157012Y53138D02*Y52062D01*
X36862Y17689D02*X37938D01*
X36862Y14712D02*X37938D01*
G54D258*X6350Y72700D02*Y72000D01*
X10850Y72700D02*Y72000D01*
X6350Y63600D02*Y62900D01*
X10850Y63600D02*Y62900D01*
G54D250*X158880Y15451D02*Y13939D01*
X154320Y15451D02*Y13939D01*
G54D252*X156345Y7550D02*X156855D01*
G54D242*X146859Y30423D02*Y30177D01*
X148341Y30423D02*Y30177D01*
G54D249*X119324Y25700D02*X119476D01*
X119324Y23719D02*X119476D01*
X121407Y24710D02*X121559D01*
G54D250*X42162Y17689D02*X43238D01*
X42162Y14712D02*X43238D01*
G54D261*X49690Y39986D02*Y39580D01*
X47709Y39986D02*Y39580D01*
Y37903D02*Y37497D01*
X48700Y37903D02*Y37497D01*
X49690Y37903D02*Y37497D01*
G54D242*X48218Y41723D02*Y41477D01*
X49700Y41723D02*Y41477D01*
G54D243*X47800Y35500D02*Y35300D01*
X49600Y35500D02*Y35300D01*
X45500Y39800D02*X45700D01*
X45500Y38000D02*X45700D01*
G54D259*G36*
X73352Y57966D02*X74035Y58648D01*
X74543Y58139D01*
X73861Y57457D01*
X73352Y57966D01*
G37*
G36*
X72305Y59013D02*X72987Y59696D01*
X73495Y59187D01*
X72813Y58505D01*
X72305Y59013D01*
G37*
G36*
X73689Y51872D02*X74372Y51189D01*
X73863Y50681D01*
X73181Y51363D01*
X73689Y51872D01*
G37*
G36*
X74737Y52920D02*X75419Y52237D01*
X74911Y51729D01*
X74228Y52411D01*
X74737Y52920D01*
G37*
G54D243*X62400Y70900D02*Y70700D01*
X64200Y70900D02*Y70700D01*
X63300Y65700D02*X63500D01*
X63300Y67500D02*X63500D01*
G54D242*X46118Y32623D02*Y32377D01*
X47600Y32623D02*Y32377D01*
X62100Y69223D02*Y68977D01*
X63582Y69223D02*Y68977D01*
G54D251*X61002Y65740D02*X61154D01*
X61002Y67035D02*X61154D01*
X59224Y66400D02*X59376D01*
G54D259*G36*
X53652Y38266D02*X54335Y38948D01*
X54843Y38439D01*
X54161Y37757D01*
X53652Y38266D01*
G37*
G36*
X52605Y39313D02*X53287Y39996D01*
X53796Y39487D01*
X53113Y38805D01*
X52605Y39313D01*
G37*
G54D242*X141318Y37423D02*Y37177D01*
X142800Y37423D02*Y37177D01*
X117477Y25182D02*X117723D01*
X117477Y23700D02*X117723D01*
X154977Y51859D02*X155223D01*
X154977Y53341D02*X155223D01*
X34600Y71023D02*Y70777D01*
X36082Y71023D02*Y70777D01*
G54D262*X139896Y38804D02*Y38296D01*
X139235Y38804D02*Y38296D01*
X138600Y38804D02*Y38296D01*
Y37026D02*Y36518D01*
X139235Y37026D02*Y36518D01*
X139896Y37026D02*Y36518D01*
G54D242*X137091Y34923D02*Y34677D01*
X135609Y34923D02*Y34677D01*
G54D243*X112200Y72400D02*Y72200D01*
X110400Y72400D02*Y72200D01*
G54D259*G36*
X68607Y61268D02*X69668Y60207D01*
X69456Y59995D01*
X68395Y61056D01*
X68607Y61268D01*
G37*
G36*
X68254Y60915D02*X69315Y59854D01*
X69102Y59642D01*
X68042Y60702D01*
X68254Y60915D01*
G37*
G36*
X67900Y60561D02*X68961Y59500D01*
X68749Y59288D01*
X67688Y60349D01*
X67900Y60561D01*
G37*
G36*
X67547Y60207D02*X68607Y59147D01*
X68395Y58935D01*
X67335Y59995D01*
X67547Y60207D01*
G37*
G36*
X67193Y59854D02*X68254Y58793D01*
X68041Y58581D01*
X66981Y59642D01*
X67193Y59854D01*
G37*
G36*
X66840Y59500D02*X67900Y58440D01*
X67688Y58228D01*
X66627Y59288D01*
X66840Y59500D01*
G37*
G36*
X66486Y59147D02*X67547Y58086D01*
X67335Y57874D01*
X66274Y58935D01*
X66486Y59147D01*
G37*
G36*
X66133Y58793D02*X67193Y57733D01*
X66981Y57521D01*
X65921Y58581D01*
X66133Y58793D01*
G37*
G36*
X65779Y58440D02*X66840Y57379D01*
X66628Y57167D01*
X65567Y58227D01*
X65779Y58440D01*
G37*
G36*
X65426Y58086D02*X66486Y57026D01*
X66274Y56813D01*
X65213Y57874D01*
X65426Y58086D01*
G37*
G36*
X65072Y57732D02*X66132Y56672D01*
X65920Y56460D01*
X64860Y57520D01*
X65072Y57732D01*
G37*
G36*
X64718Y57379D02*X65779Y56318D01*
X65567Y56106D01*
X64506Y57167D01*
X64718Y57379D01*
G37*
G36*
X64365Y57026D02*X65426Y55965D01*
X65213Y55753D01*
X64153Y56813D01*
X64365Y57026D01*
G37*
G36*
X64012Y56672D02*X65072Y55612D01*
X64860Y55399D01*
X63799Y56460D01*
X64012Y56672D01*
G37*
G36*
X63658Y56318D02*X64718Y55258D01*
X64506Y55046D01*
X63446Y56106D01*
X63658Y56318D01*
G37*
G36*
X63304Y55965D02*X64365Y54904D01*
X64153Y54692D01*
X63092Y55753D01*
X63304Y55965D01*
G37*
G36*
X62951Y55611D02*X64011Y54551D01*
X63799Y54339D01*
X62738Y55399D01*
X62951Y55611D01*
G37*
G36*
X62597Y55258D02*X63658Y54197D01*
X63446Y53985D01*
X62385Y55046D01*
X62597Y55258D01*
G37*
G36*
X62244Y54904D02*X63304Y53844D01*
X63092Y53632D01*
X62032Y54692D01*
X62244Y54904D01*
G37*
G36*
X61890Y54551D02*X62951Y53490D01*
X62738Y53278D01*
X61678Y54339D01*
X61890Y54551D01*
G37*
G36*
X61537Y54197D02*X62597Y53137D01*
X62385Y52924D01*
X61324Y53985D01*
X61537Y54197D01*
G37*
G36*
X61183Y53844D02*X62244Y52783D01*
X62032Y52571D01*
X60971Y53632D01*
X61183Y53844D01*
G37*
G36*
X60829Y53490D02*X61890Y52429D01*
X61678Y52217D01*
X60617Y53278D01*
X60829Y53490D01*
G37*
G36*
X60476Y53137D02*X61537Y52076D01*
X61324Y51864D01*
X60264Y52924D01*
X60476Y53137D01*
G37*
G36*
X65850Y47763D02*X66910Y46702D01*
X66698Y46490D01*
X65638Y47551D01*
X65850Y47763D01*
G37*
G36*
X66203Y48116D02*X67264Y47056D01*
X67052Y46843D01*
X65991Y47904D01*
X66203Y48116D01*
G37*
G36*
X66557Y48470D02*X67617Y47409D01*
X67405Y47197D01*
X66345Y48258D01*
X66557Y48470D01*
G37*
G36*
X66910Y48823D02*X67971Y47763D01*
X67759Y47551D01*
X66698Y48611D01*
X66910Y48823D01*
G37*
G36*
X67264Y49177D02*X68324Y48116D01*
X68112Y47904D01*
X67052Y48965D01*
X67264Y49177D01*
G37*
G36*
X67617Y49531D02*X68678Y48470D01*
X68466Y48258D01*
X67405Y49318D01*
X67617Y49531D01*
G37*
G36*
X67971Y49884D02*X69032Y48823D01*
X68819Y48611D01*
X67759Y49672D01*
X67971Y49884D01*
G37*
G36*
X68324Y50237D02*X69385Y49177D01*
X69173Y48965D01*
X68112Y50025D01*
X68324Y50237D01*
G37*
G36*
X68678Y50591D02*X69739Y49531D01*
X69527Y49318D01*
X68466Y50379D01*
X68678Y50591D01*
G37*
G36*
X69032Y50945D02*X70092Y49884D01*
X69880Y49672D01*
X68819Y50732D01*
X69032Y50945D01*
G37*
G36*
X69385Y51298D02*X70446Y50238D01*
X70234Y50026D01*
X69173Y51086D01*
X69385Y51298D01*
G37*
G36*
X69739Y51652D02*X70799Y50591D01*
X70587Y50379D01*
X69527Y51440D01*
X69739Y51652D01*
G37*
G36*
X70092Y52005D02*X71153Y50945D01*
X70941Y50732D01*
X69880Y51793D01*
X70092Y52005D01*
G37*
G36*
X70446Y52359D02*X71506Y51298D01*
X71294Y51086D01*
X70234Y52146D01*
X70446Y52359D01*
G37*
G36*
X70799Y52712D02*X71860Y51652D01*
X71648Y51440D01*
X70587Y52500D01*
X70799Y52712D01*
G37*
G36*
X71153Y53066D02*X72213Y52005D01*
X72001Y51793D01*
X70941Y52854D01*
X71153Y53066D01*
G37*
G36*
X71506Y53420D02*X72567Y52359D01*
X72355Y52147D01*
X71294Y53207D01*
X71506Y53420D01*
G37*
G36*
X71860Y53773D02*X72920Y52712D01*
X72708Y52500D01*
X71648Y53561D01*
X71860Y53773D01*
G37*
G36*
X72213Y54126D02*X73274Y53066D01*
X73062Y52854D01*
X72001Y53914D01*
X72213Y54126D01*
G37*
G36*
X72567Y54480D02*X73628Y53420D01*
X73415Y53207D01*
X72355Y54268D01*
X72567Y54480D01*
G37*
G36*
X72921Y54834D02*X73981Y53773D01*
X73769Y53561D01*
X72708Y54621D01*
X72921Y54834D01*
G37*
G36*
X73274Y55187D02*X74335Y54126D01*
X74123Y53914D01*
X73062Y54975D01*
X73274Y55187D01*
G37*
G36*
X73628Y55541D02*X74688Y54480D01*
X74476Y54268D01*
X73416Y55329D01*
X73628Y55541D01*
G37*
G36*
X73981Y55894D02*X75042Y54834D01*
X74830Y54621D01*
X73769Y55682D01*
X73981Y55894D01*
G37*
G54D242*X141109Y34923D02*Y34677D01*
X142591Y34923D02*Y34677D01*
X117782Y40223D02*Y39977D01*
X116300Y40223D02*Y39977D01*
G54D258*X122200Y34300D02*X122900D01*
X122200Y38800D02*X122900D01*
X131300Y34300D02*X132000D01*
X131300Y38800D02*X132000D01*
G54D242*X113700Y41523D02*Y41277D01*
X115182Y41523D02*Y41277D01*
G54D243*X115900Y29900D02*Y29700D01*
X114100Y29900D02*Y29700D01*
G54D242*X10400Y52023D02*Y51777D01*
X11882Y52023D02*Y51777D01*
X5882Y52023D02*Y51777D01*
X4400Y52023D02*Y51777D01*
X11177Y48200D02*X11423D01*
X11177Y46718D02*X11423D01*
G54D250*X159989Y57638D02*Y56562D01*
X157012Y57638D02*Y56562D01*
G54D245*X24750Y42385D02*Y41215D01*
X24100Y42385D02*Y41215D01*
X23450Y42385D02*Y41215D01*
X22800Y42385D02*Y41215D01*
X22150Y42385D02*Y41215D01*
X21500Y42385D02*Y41215D01*
X20850Y42385D02*Y41215D01*
X20200Y42385D02*Y41215D01*
Y36485D02*Y35315D01*
X20850Y36485D02*Y35315D01*
X21500Y36485D02*Y35315D01*
X22150Y36485D02*Y35315D01*
X22800Y36485D02*Y35315D01*
X23450Y36485D02*Y35315D01*
X24100Y36485D02*Y35315D01*
X24750Y36485D02*Y35315D01*
G54D242*X70877Y68641D02*X71123D01*
X70877Y67159D02*X71123D01*
G54D249*X15041Y45291D02*X15194D01*
X15041Y43310D02*X15194D01*
X17124Y44300D02*X17276D01*
X12407Y43310D02*X12559D01*
X12407Y45291D02*X12559D01*
X10324Y44300D02*X10476D01*
G54D242*X106477Y70618D02*X106723D01*
X106477Y72100D02*X106723D01*
G54D250*X7377Y42738D02*Y41662D01*
X4400Y42738D02*Y41662D01*
G54D242*X69077Y68341D02*X69323D01*
X69077Y66859D02*X69323D01*
X72677Y68341D02*X72923D01*
X72677Y66859D02*X72923D01*
G54D249*X110309Y27794D02*Y27641D01*
X112291Y27794D02*Y27641D01*
X111300Y29876D02*Y29724D01*
G54D242*X82477Y20841D02*X82723D01*
X82477Y19359D02*X82723D01*
G54D251*X80402Y19440D02*X80554D01*
X80402Y20735D02*X80554D01*
X78624Y20100D02*X78776D01*
G54D242*X72677Y65541D02*X72923D01*
X72677Y64059D02*X72923D01*
X93977Y76282D02*X94223D01*
X93977Y74800D02*X94223D01*
X95577Y74782D02*X95823D01*
X95577Y73300D02*X95823D01*
X52577Y29259D02*X52823D01*
X52577Y30741D02*X52823D01*
G54D251*X56402Y29340D02*X56554D01*
X56402Y30635D02*X56554D01*
X54624Y30000D02*X54776D01*
G54D242*X8977Y41459D02*X9223D01*
X8977Y42941D02*X9223D01*
X71718Y83623D02*Y83377D01*
X73200Y83623D02*Y83377D01*
X23318Y32123D02*Y31877D01*
X24800Y32123D02*Y31877D01*
X23318Y33623D02*Y33377D01*
X24800Y33623D02*Y33377D01*
G54D243*X9300Y34800D02*X9900D01*
X9300Y31800D02*X9900D01*
X6400Y34800D02*X7000D01*
X6400Y31800D02*X7000D01*
G54D242*X11282Y49723D02*Y49477D01*
X9800Y49723D02*Y49477D01*
G54D249*X14641Y60291D02*X14793D01*
X14641Y58310D02*X14793D01*
X16724Y59300D02*X16876D01*
G54D242*X8982Y52023D02*Y51777D01*
X7500Y52023D02*Y51777D01*
X5900Y30223D02*Y29977D01*
X4418Y30223D02*Y29977D01*
X71718Y80023D02*Y79777D01*
X73200Y80023D02*Y79777D01*
X8941Y30223D02*Y29977D01*
X7459Y30223D02*Y29977D01*
X42177Y30741D02*X42423D01*
X42177Y29259D02*X42423D01*
G54D263*X26806Y77752D02*Y77448D01*
X29600Y77752D02*Y77448D01*
G54D251*X7124Y49005D02*X7276D01*
X7124Y50300D02*X7276D01*
X5346Y49665D02*X5498D01*
G54D249*X19009Y28094D02*Y27941D01*
X20991Y28094D02*Y27941D01*
X20000Y30176D02*Y30024D01*
G54D242*X9377Y53200D02*X9623D01*
X9377Y54682D02*X9623D01*
G54D249*X20991Y25559D02*Y25407D01*
X19009Y25559D02*Y25407D01*
X20000Y23476D02*Y23324D01*
X12407Y39010D02*X12559D01*
X12407Y40991D02*X12559D01*
X10324Y40000D02*X10476D01*
X15041Y40991D02*X15194D01*
X15041Y39010D02*X15194D01*
X17124Y40000D02*X17276D01*
G54D242*X70077Y78300D02*X70323D01*
X70077Y79782D02*X70323D01*
X154977Y56359D02*X155223D01*
X154977Y57841D02*X155223D01*
G54D243*X13200Y26100D02*Y25500D01*
X10200Y26100D02*Y25500D01*
G54D249*X12207Y58310D02*X12359D01*
X12207Y60291D02*X12359D01*
X10124Y59300D02*X10276D01*
G54D242*X52077Y92359D02*X52323D01*
X52077Y93841D02*X52323D01*
X80777Y75059D02*X81023D01*
X80777Y76541D02*X81023D01*
G54D250*X7111Y79538D02*Y78462D01*
X10088Y79538D02*Y78462D01*
X128589Y42438D02*Y41362D01*
X125612Y42438D02*Y41362D01*
G54D242*X73877Y90059D02*X74123D01*
X73877Y91541D02*X74123D01*
X63382Y18123D02*Y17877D01*
X61900Y18123D02*Y17877D01*
X63382Y20023D02*Y19777D01*
X61900Y20023D02*Y19777D01*
G54D257*X53268Y19900D02*X54919D01*
X53268Y18630D02*X54919D01*
X53268Y17360D02*X54919D01*
X53268Y16090D02*X54919D01*
X58475D02*X60126D01*
X58475Y17360D02*X60126D01*
X58475Y18630D02*X60126D01*
X58475Y19900D02*X60126D01*
G54D242*X154977Y60859D02*X155223D01*
X154977Y62341D02*X155223D01*
X83177Y77959D02*X83423D01*
X83177Y79441D02*X83423D01*
X11777Y78259D02*X12023D01*
X11777Y79741D02*X12023D01*
X83177Y75059D02*X83423D01*
X83177Y76541D02*X83423D01*
X55959Y14523D02*Y14277D01*
X57441Y14523D02*Y14277D01*
G54D251*X38502Y29440D02*X38654D01*
X38502Y30735D02*X38654D01*
X36724Y30100D02*X36876D01*
G54D242*X123577Y52159D02*X123823D01*
X123577Y53641D02*X123823D01*
X73182Y76823D02*Y76577D01*
X71700Y76823D02*Y76577D01*
X74041Y61723D02*Y61477D01*
X72559Y61723D02*Y61477D01*
X80777Y77959D02*X81023D01*
X80777Y79441D02*X81023D01*
X63382Y16223D02*Y15977D01*
X61900Y16223D02*Y15977D01*
X96977Y71818D02*X97223D01*
X96977Y73300D02*X97223D01*
X69077Y64059D02*X69323D01*
X69077Y65541D02*X69323D01*
G54D250*X128577Y53438D02*Y52362D01*
X125600Y53438D02*Y52362D01*
G54D243*X80700Y94500D02*Y93900D01*
X77700Y94500D02*Y93900D01*
G54D249*X27824Y11900D02*X27976D01*
X27824Y13881D02*X27976D01*
X25741Y12891D02*X25894D01*
X29924Y13881D02*X30076D01*
X29924Y11900D02*X30076D01*
X32007Y12891D02*X32159D01*
G54D242*X33977Y10600D02*X34223D01*
X33977Y9118D02*X34223D01*
X33977Y13382D02*X34223D01*
X33977Y11900D02*X34223D01*
X27900Y10023D02*Y9777D01*
X29382Y10023D02*Y9777D01*
G54D246*X25600Y72430D02*Y71300D01*
X26100Y72430D02*Y71300D01*
X26600Y72430D02*Y71300D01*
X27100Y72430D02*Y71300D01*
G54D264*X23460Y71400D02*X24900D01*
G54D265*X23050Y70600D02*X24600D01*
G54D266*X24250Y69710D02*X24800D01*
G54D264*X27800Y71400D02*X29250D01*
G54D265*X28100Y70600D02*X29650D01*
G54D266*X27900Y69710D02*X28450D01*
G54D243*X13200Y23400D02*Y22800D01*
X10200Y23400D02*Y22800D01*
X32000Y7000D02*Y5600D01*
X35000Y7000D02*Y5600D01*
G54D261*X34097Y73019D02*X34503D01*
X34097Y74010D02*X34503D01*
X34097Y75000D02*X34503D01*
X32014D02*X32421D01*
X32014Y74010D02*X32421D01*
X32014Y73019D02*X32421D01*
X141908Y39610D02*Y39203D01*
X143890Y39610D02*Y39203D01*
Y41692D02*Y41286D01*
X142899Y41692D02*Y41286D01*
X141908Y41692D02*Y41286D01*
G54D243*X137911Y58483D02*Y58283D01*
X136111Y58483D02*Y58283D01*
G54D242*X133020Y58416D02*Y58170D01*
X134502Y58416D02*Y58170D01*
X130427Y58423D02*Y58177D01*
X131909Y58423D02*Y58177D01*
G54D267*X79109Y8973D02*Y8727D01*
X80591Y8973D02*Y8727D01*
M02*
