G04 start of page 7 for group -4063 idx -4063 *
G04 Title: Power Board, componentmask *
G04 Creator: pcb 1.99z *
G04 CreationDate: Sun 28 Jul 2013 20:14:53 GMT UTC *
G04 For: rbarlow *
G04 Format: Gerber/RS-274X *
G04 PCB-Dimensions (mm): 166.00 100.00 *
G04 PCB-Coordinate-Origin: lower left *
%MOMM*%
%FSLAX43Y43*%
%LNTOPMASK*%
%ADD190R,1.452X1.452*%
%ADD189R,0.584X0.584*%
%ADD188R,1.016X1.016*%
%ADD187R,6.480X6.480*%
%ADD186R,1.774X1.774*%
%ADD185R,0.635X0.635*%
%ADD184R,2.054X2.054*%
%ADD183R,0.762X0.762*%
%ADD182R,0.969X0.969*%
%ADD181C,2.250*%
%ADD180R,0.991X0.991*%
%ADD179R,4.550X4.550*%
%ADD178R,3.353X3.353*%
%ADD177R,1.676X1.676*%
%ADD176R,0.559X0.559*%
%ADD175R,0.950X0.950*%
%ADD174R,1.350X1.350*%
%ADD173R,0.750X0.750*%
%ADD172R,1.778X1.778*%
%ADD171R,1.118X1.118*%
%ADD170R,1.650X1.650*%
%ADD169R,0.550X0.550*%
%ADD168R,1.850X1.850*%
%ADD167R,0.969X0.969*%
%ADD166R,1.050X1.050*%
%ADD165R,0.864X0.864*%
%ADD164R,2.007X2.007*%
%ADD163R,1.354X1.354*%
%ADD162R,1.554X1.554*%
%ADD161C,1.750*%
%ADD160C,3.950*%
%ADD159C,1.100*%
%ADD158C,1.676*%
%ADD157C,2.450*%
%ADD156C,2.750*%
%ADD155C,2.650*%
%ADD154C,1.321*%
%ADD153C,3.454*%
%ADD152C,3.450*%
%ADD151C,5.766*%
%ADD150C,3.750*%
%ADD149C,1.850*%
%ADD148C,3.251*%
%ADD147C,0.002*%
%ADD146C,1.778*%
%ADD145C,4.064*%
G54D145*X109290Y93730D03*
X40710D03*
G54D146*X47695Y25785D03*
X50235D03*
X52775D03*
X50235Y23245D03*
X52775D03*
X55315D03*
X57855D03*
X60395D03*
X62935D03*
X65475D03*
Y25785D03*
X68015D03*
X70555D03*
G54D145*X40710Y22610D03*
G54D147*G36*
X46806Y24134D02*Y22356D01*
X48584D01*
Y24134D01*
X46806D01*
G37*
G54D146*X55315Y25785D03*
X57855D03*
X60395D03*
X62935D03*
G54D147*G36*
X29915Y40095D02*Y38245D01*
X31765D01*
Y40095D01*
X29915D01*
G37*
G54D148*X7160Y38281D03*
G54D149*X28300Y39170D03*
Y36630D03*
Y34090D03*
X30840Y36630D03*
Y34090D03*
Y31550D03*
Y29010D03*
Y26470D03*
Y23930D03*
X28300Y31550D03*
Y29010D03*
Y26470D03*
Y23930D03*
G54D146*X13510Y35741D03*
Y30661D03*
Y33201D03*
G54D147*G36*
X12621Y29010D02*Y27232D01*
X14399D01*
Y29010D01*
X12621D01*
G37*
G54D148*X7160Y46140D03*
G54D147*G36*
X20311Y50069D02*Y48291D01*
X22089D01*
Y50069D01*
X20311D01*
G37*
G54D146*X21200Y51720D03*
Y54260D03*
Y56800D03*
X16050Y37011D03*
Y31931D03*
Y29391D03*
Y34471D03*
X13510Y55030D03*
Y49950D03*
Y52490D03*
G54D147*G36*
X12621Y48299D02*Y46521D01*
X14399D01*
Y48299D01*
X12621D01*
G37*
G54D146*X16050Y56300D03*
Y51220D03*
Y48680D03*
Y53760D03*
G54D148*X7160Y57570D03*
G54D150*X9700Y75430D03*
Y88570D03*
G54D151*X6500Y94200D03*
G54D152*X139790Y17110D03*
X147410D03*
X139790Y9490D03*
X147410D03*
G54D150*X154600Y25300D03*
X149600D03*
G54D153*X101600Y8850D03*
G54D145*X109290Y22610D03*
G54D149*X120350Y20800D03*
X122850D03*
X117850D03*
X122850Y6300D03*
X117850D03*
G54D150*X125950Y13300D03*
X114750D03*
G54D147*G36*
X84881Y23778D02*Y22458D01*
X86202D01*
Y23778D01*
X84881D01*
G37*
G54D154*X86811Y23118D03*
X88081D03*
G54D147*G36*
X84881Y28224D02*Y26903D01*
X86202D01*
Y28224D01*
X84881D01*
G37*
G54D154*X85541Y26293D03*
X86811Y27563D03*
Y26293D03*
G54D153*X83600Y8850D03*
X76100D03*
G54D154*X89351Y23118D03*
X90621D03*
X91891D03*
X93161D03*
X89351Y21848D03*
X90621D03*
X91891D03*
X93161D03*
X94431Y23118D03*
X95701D03*
X96971D03*
X94431Y21848D03*
X95701D03*
X96971D03*
G54D153*X94100Y8850D03*
G54D154*X88081Y27563D03*
Y26293D03*
X89351D03*
X90621D03*
X89351Y27563D03*
X90621D03*
X91891D03*
X93161D03*
X94431D03*
X95701D03*
X91891Y26293D03*
X93161D03*
X94431D03*
X95701D03*
G54D148*X7160Y26851D03*
G54D154*X85541Y21848D03*
X86811D03*
X88081D03*
G54D149*X15350Y20800D03*
X17851D03*
X12850D03*
G54D153*X65601Y8850D03*
X58100D03*
X47601Y8851D03*
X40101D03*
G54D149*X17851Y6300D03*
X12850D03*
G54D150*X20950Y13300D03*
G54D155*X28900Y6900D03*
X25090D03*
G54D150*X9751Y13300D03*
G54D151*X6500Y5900D03*
G54D146*X68015Y23245D03*
X70555D03*
X73095D03*
X75635D03*
X78175D03*
X80715D03*
X73095Y25785D03*
X75635D03*
X78175D03*
X80715D03*
G54D154*X96971Y27563D03*
Y26293D03*
G54D151*X127600Y30100D03*
G54D156*X137380Y55050D03*
G54D157*X146680Y56300D03*
G54D150*X145600Y25300D03*
G54D147*G36*
X146502Y40418D02*Y38742D01*
X148178D01*
Y40418D01*
X146502D01*
G37*
G54D158*X147340Y44660D03*
G54D157*X141600Y56300D03*
G54D150*X140600Y25300D03*
G54D156*X133420Y55050D03*
G54D159*X136300Y72850D03*
Y77350D03*
G54D160*Y69250D03*
Y80950D03*
G54D151*X123200Y72100D03*
G54D161*X134200Y71600D03*
Y74100D03*
Y76100D03*
Y78600D03*
G54D147*G36*
X129362Y79718D02*Y78042D01*
X131038D01*
Y79718D01*
X129362D01*
G37*
G54D158*X130200Y76340D03*
Y73800D03*
Y71260D03*
G54D162*X36800Y75100D02*Y74900D01*
X38600Y75100D02*Y74900D01*
G54D163*X34600Y78200D02*Y77000D01*
X32000Y78200D02*Y77000D01*
G54D164*X29600Y77752D02*Y77448D01*
G54D165*X34097Y75000D02*X34503D01*
X32014D02*X32421D01*
X32014Y74010D02*X32421D01*
G54D166*X32400Y67075D02*X33270D01*
G54D167*X33200Y71023D02*Y70777D01*
X31718Y71023D02*Y70777D01*
G54D168*X32020Y65965D02*X32870D01*
G54D165*X32014Y73019D02*X32421D01*
G54D169*X39600Y69475D02*Y68525D01*
X40100Y69475D02*Y68525D01*
X40600Y69475D02*Y68525D01*
X41100Y69475D02*Y68525D01*
X41600Y69475D02*Y68525D01*
X42100Y69475D02*Y68525D01*
X42600Y69475D02*Y68525D01*
X43100Y69475D02*Y68525D01*
X43600Y69475D02*Y68525D01*
X44100Y69475D02*Y68525D01*
G54D170*X6350Y63600D02*Y62900D01*
X10850Y63600D02*Y62900D01*
G54D171*X14641Y60291D02*X14793D01*
X16724Y59300D02*X16876D01*
X12207Y60291D02*X12359D01*
X10124Y59300D02*X10276D01*
G54D169*X34600Y69475D02*Y68525D01*
X35100Y69475D02*Y68525D01*
X35600Y69475D02*Y68525D01*
X37100Y69475D02*Y68525D01*
X37600Y69475D02*Y68525D01*
G54D167*X37982Y73123D02*Y72877D01*
X36500Y73123D02*Y72877D01*
G54D169*X38100Y69475D02*Y68525D01*
X38600Y69475D02*Y68525D01*
X39100Y69475D02*Y68525D01*
X36100Y69475D02*Y68525D01*
X36600Y69475D02*Y68525D01*
G54D167*X34600Y71023D02*Y70777D01*
X36082Y71023D02*Y70777D01*
G54D165*X34097Y73019D02*X34503D01*
X34097Y74010D02*X34503D01*
G54D170*X6350Y72700D02*Y72000D01*
X10850Y72700D02*Y72000D01*
G54D172*X7111Y79538D02*Y78462D01*
X10088Y79538D02*Y78462D01*
G54D167*X11777Y78259D02*X12023D01*
X11777Y79741D02*X12023D01*
G54D162*X26800Y74800D02*Y74600D01*
G54D164*X26806Y77752D02*Y77448D01*
G54D162*X28600Y74800D02*Y74600D01*
G54D169*X25600Y72430D02*Y71300D01*
X26100Y72430D02*Y71300D01*
X26600Y72430D02*Y71300D01*
X27100Y72430D02*Y71300D01*
G54D173*X23460Y71400D02*X24900D01*
G54D174*X23050Y70600D02*X24600D01*
G54D175*X24250Y69710D02*X24800D01*
G54D173*X27800Y71400D02*X29250D01*
G54D174*X28100Y70600D02*X29650D01*
G54D175*X27900Y69710D02*X28450D01*
G54D167*X92077Y78182D02*X92323D01*
X92077Y76700D02*X92323D01*
G54D176*X92620Y75342D02*Y74098D01*
X92120Y75342D02*Y74098D01*
X94518Y70700D02*X95762D01*
X94518Y71200D02*X95762D01*
X94518Y71700D02*X95762D01*
G54D167*X94518Y60623D02*Y60377D01*
X96000Y60623D02*Y60377D01*
G54D176*X94518Y72200D02*X95762D01*
G54D167*X95577Y73300D02*X95823D01*
X96977Y71818D02*X97223D01*
X96977Y73300D02*X97223D01*
G54D162*X97800Y62500D02*Y62300D01*
X96000Y62500D02*Y62300D01*
G54D167*X93977Y76282D02*X94223D01*
X93977Y74800D02*X94223D01*
X95577Y74782D02*X95823D01*
G54D172*X159989Y62138D02*Y61062D01*
G54D167*X107177Y74800D02*X107423D01*
G54D177*X110103Y77138D02*Y75462D01*
X112389Y77138D02*Y75462D01*
G54D178*X111246Y82498D02*X113532D01*
G54D177*X114700Y77138D02*Y75462D01*
G54D167*X114577Y71218D02*X114823D01*
X114577Y72700D02*X114823D01*
G54D162*X112200Y72400D02*Y72200D01*
G54D167*X154977Y60859D02*X155223D01*
X154977Y62341D02*X155223D01*
X108177Y72100D02*X108423D01*
X108177Y70618D02*X108423D01*
G54D162*X110400Y72400D02*Y72200D01*
G54D172*X157012Y62138D02*Y61062D01*
G54D167*X107177Y73318D02*X107423D01*
X105377Y74800D02*X105623D01*
X105377Y73318D02*X105623D01*
X106477Y70618D02*X106723D01*
X106477Y72100D02*X106723D01*
G54D176*X91620Y75342D02*Y74098D01*
X91120Y75342D02*Y74098D01*
X90620Y75342D02*Y74098D01*
X90120Y75342D02*Y74098D01*
X89620Y75342D02*Y74098D01*
X89120Y75342D02*Y74098D01*
X88620Y75342D02*Y74098D01*
X88120Y75342D02*Y74098D01*
X87620Y75342D02*Y74098D01*
G54D162*X90300Y77000D02*X90500D01*
X90300Y78800D02*X90500D01*
G54D179*X97450Y88800D02*X98850D01*
G54D176*X91120Y62802D02*Y61558D01*
X91620Y62802D02*Y61558D01*
X92120Y62802D02*Y61558D01*
X92620Y62802D02*Y61558D01*
X94518Y64701D02*X95762D01*
X94518Y65200D02*X95762D01*
X94518Y65700D02*X95762D01*
X94518Y66200D02*X95762D01*
X94518Y66700D02*X95762D01*
X94518Y67200D02*X95762D01*
X94518Y67700D02*X95762D01*
X94518Y68200D02*X95762D01*
X94518Y68700D02*X95762D01*
X94518Y69200D02*X95762D01*
X94518Y69700D02*X95762D01*
X94518Y70200D02*X95762D01*
G54D167*X52077Y89118D02*X52323D01*
X52077Y90600D02*X52323D01*
X52077Y92359D02*X52323D01*
X52077Y93841D02*X52323D01*
G54D169*X44600Y69475D02*Y68525D01*
X45100Y69475D02*Y68525D01*
X45600Y69475D02*Y68525D01*
X46100Y69475D02*Y68525D01*
X46600Y69475D02*Y68525D01*
X47100Y69475D02*Y68525D01*
X47600Y69475D02*Y68525D01*
X48100Y69475D02*Y68525D01*
X48600Y69475D02*Y68525D01*
X49100Y69475D02*Y68525D01*
X49600Y69475D02*Y68525D01*
X50100Y69475D02*Y68525D01*
X50600Y69475D02*Y68525D01*
X51100Y69475D02*Y68525D01*
X51600Y69475D02*Y68525D01*
X52100Y69475D02*Y68525D01*
X52600Y69475D02*Y68525D01*
X53100Y69475D02*Y68525D01*
G54D171*X60524Y69000D02*X60676D01*
X60524Y70981D02*X60676D01*
X58441Y69991D02*X58594D01*
G54D162*X62400Y70900D02*Y70700D01*
G54D167*X62100Y69223D02*Y68977D01*
G54D169*X53600Y69475D02*Y68525D01*
X54100Y69475D02*Y68525D01*
G54D166*X55500Y67075D02*X56350D01*
G54D168*X55900Y65965D02*X56730D01*
G54D180*X61002Y65740D02*X61154D01*
X61002Y67035D02*X61154D01*
X59224Y66400D02*X59376D01*
G54D176*X87120Y75342D02*Y74098D01*
X86620Y75342D02*Y74098D01*
X86120Y75342D02*Y74098D01*
X85620Y75342D02*Y74098D01*
X85120Y75342D02*Y74098D01*
X81978Y72200D02*X83222D01*
X81978Y71700D02*X83222D01*
X81978Y71200D02*X83222D01*
G54D167*X80777Y75059D02*X81023D01*
X83177D02*X83423D01*
G54D176*X81978Y70700D02*X83222D01*
X81978Y70200D02*X83222D01*
X81978Y69700D02*X83222D01*
X81978Y69200D02*X83222D01*
X81978Y68700D02*X83222D01*
X81978Y68200D02*X83222D01*
X81978Y67700D02*X83222D01*
X81978Y67200D02*X83222D01*
X81978Y66700D02*X83222D01*
X81978Y66200D02*X83222D01*
X81978Y65700D02*X83222D01*
X81978Y65200D02*X83222D01*
X81978Y64700D02*X83222D01*
X85120Y62802D02*Y61558D01*
X85620Y62802D02*Y61558D01*
X86120Y62802D02*Y61558D01*
G54D167*X77959Y59223D02*Y58977D01*
X79441Y59223D02*Y58977D01*
X77959Y60723D02*Y60477D01*
Y62223D02*Y61977D01*
X79441Y60723D02*Y60477D01*
Y62223D02*Y61977D01*
G54D176*X86620Y62802D02*Y61558D01*
X87120Y62802D02*Y61558D01*
X87620Y62802D02*Y61558D01*
X88120Y62802D02*Y61558D01*
X88620Y62802D02*Y61558D01*
X89120Y62802D02*Y61558D01*
X89620Y62802D02*Y61558D01*
X90120Y62802D02*Y61558D01*
X90620Y62802D02*Y61558D01*
G54D167*X70877Y63659D02*X71123D01*
X74041Y61723D02*Y61477D01*
X72559Y61723D02*Y61477D01*
X70877Y65141D02*X71123D01*
X72677Y65541D02*X72923D01*
X72677Y64059D02*X72923D01*
X69077D02*X69323D01*
X69077Y65541D02*X69323D01*
G54D147*G36*
X68607Y61447D02*X69848Y60207D01*
X69456Y59816D01*
X68216Y61056D01*
X68607Y61447D01*
G37*
G36*
X68254Y61094D02*X69494Y59854D01*
X69102Y59462D01*
X67862Y60702D01*
X68254Y61094D01*
G37*
G36*
X67900Y60740D02*X69140Y59500D01*
X68749Y59109D01*
X67509Y60349D01*
X67900Y60740D01*
G37*
G36*
X67547Y60387D02*X68787Y59147D01*
X68395Y58755D01*
X67155Y59995D01*
X67547Y60387D01*
G37*
G54D167*X65177Y65700D02*X65423D01*
X65177Y67182D02*X65423D01*
G54D162*X63300Y65700D02*X63500D01*
X64200Y70900D02*Y70700D01*
X63300Y67500D02*X63500D01*
G54D167*X63582Y69223D02*Y68977D01*
X70877Y68641D02*X71123D01*
X70877Y67159D02*X71123D01*
X69077Y68341D02*X69323D01*
X69077Y66859D02*X69323D01*
X72677Y68341D02*X72923D01*
X72677Y66859D02*X72923D01*
X68677Y77600D02*X68923D01*
X68677Y79082D02*X68923D01*
X71718Y78423D02*Y78177D01*
Y80023D02*Y79777D01*
X70077Y78300D02*X70323D01*
X70077Y79782D02*X70323D01*
X73200Y82023D02*Y81777D01*
X74977Y78182D02*X75223D01*
X74977Y76700D02*X75223D01*
X73200Y78423D02*Y78177D01*
Y80023D02*Y79777D01*
X71718Y82023D02*Y81777D01*
X70077Y83500D02*X70323D01*
X70077Y82018D02*X70323D01*
X71718Y83623D02*Y83377D01*
X73200Y83623D02*Y83377D01*
X73182Y76823D02*Y76577D01*
X71700Y76823D02*Y76577D01*
G54D180*X75746Y91461D02*X75898D01*
G54D167*X73877Y90059D02*X74123D01*
X73877Y91541D02*X74123D01*
G54D180*X75746Y90165D02*X75898D01*
X77524Y90800D02*X77676D01*
G54D179*X82150Y88800D02*X83551D01*
G54D167*X80777Y76541D02*X81023D01*
X83177Y77959D02*X83423D01*
X83177Y76541D02*X83423D01*
X80777Y77959D02*X81023D01*
X83177Y79441D02*X83423D01*
X80777D02*X81023D01*
G54D162*X80700Y94500D02*Y93900D01*
X77700Y94500D02*Y93900D01*
G54D172*X72300Y15738D02*Y14662D01*
X69323Y15738D02*Y14662D01*
G54D167*X67077Y15941D02*X67323D01*
X67077Y14459D02*X67323D01*
X82477Y20841D02*X82723D01*
X82477Y19359D02*X82723D01*
G54D180*X80402Y19440D02*X80554D01*
X80402Y20735D02*X80554D01*
X78624Y20100D02*X78776D01*
G54D181*X66100Y20700D03*
G54D182*X79109Y8973D02*Y8727D01*
X80591Y8973D02*Y8727D01*
G54D167*X63382Y18123D02*Y17877D01*
Y20023D02*Y19777D01*
Y16223D02*Y15977D01*
X61900Y18123D02*Y17877D01*
Y20023D02*Y19777D01*
G54D183*X58475Y18630D02*X60126D01*
X58475Y19900D02*X60126D01*
X53268D02*X54919D01*
X53268Y18630D02*X54919D01*
X53268Y17360D02*X54919D01*
X53268Y16090D02*X54919D01*
G54D167*X55959Y14523D02*Y14277D01*
X57441Y14523D02*Y14277D01*
G54D183*X58475Y16090D02*X60126D01*
X58475Y17360D02*X60126D01*
G54D167*X61900Y16223D02*Y15977D01*
G54D147*G36*
X59376Y52216D02*X60616Y50976D01*
X60225Y50584D01*
X58984Y51824D01*
X59376Y52216D01*
G37*
G36*
X59023Y51863D02*X60263Y50623D01*
X59871Y50231D01*
X58631Y51471D01*
X59023Y51863D01*
G37*
G36*
X58669Y51509D02*X59909Y50269D01*
X59517Y49877D01*
X58277Y51117D01*
X58669Y51509D01*
G37*
G36*
X58315Y51155D02*X59555Y49915D01*
X59164Y49524D01*
X57924Y50764D01*
X58315Y51155D01*
G37*
G36*
X57962Y50802D02*X59202Y49562D01*
X58810Y49170D01*
X57570Y50410D01*
X57962Y50802D01*
G37*
G36*
X57608Y50449D02*X58848Y49208D01*
X58457Y48817D01*
X57217Y50057D01*
X57608Y50449D01*
G37*
G36*
X57255Y50095D02*X58495Y48855D01*
X58103Y48463D01*
X56863Y49703D01*
X57255Y50095D01*
G37*
G36*
X62244Y55084D02*X63484Y53844D01*
X63092Y53452D01*
X61852Y54692D01*
X62244Y55084D01*
G37*
G36*
X61890Y54730D02*X63130Y53490D01*
X62738Y53098D01*
X61498Y54339D01*
X61890Y54730D01*
G37*
G36*
X61537Y54377D02*X62777Y53137D01*
X62385Y52745D01*
X61145Y53985D01*
X61537Y54377D01*
G37*
G36*
X61183Y54023D02*X62423Y52783D01*
X62032Y52391D01*
X60791Y53632D01*
X61183Y54023D01*
G37*
G36*
X60829Y53670D02*X62070Y52429D01*
X61678Y52038D01*
X60438Y53278D01*
X60829Y53670D01*
G37*
G36*
X60476Y53316D02*X61716Y52076D01*
X61324Y51684D01*
X60084Y52924D01*
X60476Y53316D01*
G37*
G36*
X56901Y49741D02*X58141Y48501D01*
X57750Y48109D01*
X56509Y49350D01*
X56901Y49741D01*
G37*
G36*
X56548Y49388D02*X57788Y48148D01*
X57396Y47756D01*
X56156Y48996D01*
X56548Y49388D01*
G37*
G36*
X56194Y49034D02*X57434Y47794D01*
X57043Y47402D01*
X55802Y48643D01*
X56194Y49034D01*
G37*
G36*
X55840Y48681D02*X57080Y47440D01*
X56689Y47049D01*
X55449Y48289D01*
X55840Y48681D01*
G37*
G36*
X55487Y48327D02*X56727Y47087D01*
X56336Y46695D01*
X55095Y47935D01*
X55487Y48327D01*
G37*
G36*
X55134Y47974D02*X56374Y46734D01*
X55982Y46342D01*
X54742Y47582D01*
X55134Y47974D01*
G37*
G36*
X62628Y44721D02*X63869Y43481D01*
X63477Y43089D01*
X62237Y44329D01*
X62628Y44721D01*
G37*
G36*
X62982Y45075D02*X64222Y43835D01*
X63830Y43443D01*
X62590Y44683D01*
X62982Y45075D01*
G37*
G36*
X63335Y45428D02*X64576Y44188D01*
X64184Y43796D01*
X62944Y45037D01*
X63335Y45428D01*
G37*
G36*
X63689Y45782D02*X64929Y44541D01*
X64538Y44150D01*
X63298Y45390D01*
X63689Y45782D01*
G37*
G36*
X64043Y46135D02*X65283Y44895D01*
X64891Y44503D01*
X63651Y45743D01*
X64043Y46135D01*
G37*
G36*
X64396Y46489D02*X65636Y45249D01*
X65245Y44857D01*
X64004Y46097D01*
X64396Y46489D01*
G37*
G36*
X64750Y46842D02*X65990Y45602D01*
X65598Y45211D01*
X64358Y46451D01*
X64750Y46842D01*
G37*
G36*
X65850Y47942D02*X67090Y46702D01*
X66698Y46311D01*
X65458Y47551D01*
X65850Y47942D01*
G37*
G36*
X66203Y48296D02*X67443Y47056D01*
X67052Y46664D01*
X65811Y47904D01*
X66203Y48296D01*
G37*
G36*
X66557Y48649D02*X67797Y47409D01*
X67405Y47018D01*
X66165Y48258D01*
X66557Y48649D01*
G37*
G36*
X66910Y49003D02*X68151Y47763D01*
X67759Y47371D01*
X66518Y48611D01*
X66910Y49003D01*
G37*
G36*
X67264Y49357D02*X68504Y48116D01*
X68112Y47725D01*
X66872Y48965D01*
X67264Y49357D01*
G37*
G36*
X67617Y49710D02*X68858Y48470D01*
X68466Y48078D01*
X67226Y49318D01*
X67617Y49710D01*
G37*
G36*
X67971Y50064D02*X69211Y48823D01*
X68819Y48432D01*
X67579Y49672D01*
X67971Y50064D01*
G37*
G36*
X68324Y50417D02*X69565Y49177D01*
X69173Y48785D01*
X67933Y50025D01*
X68324Y50417D01*
G37*
G36*
X68678Y50771D02*X69918Y49531D01*
X69527Y49139D01*
X68286Y50379D01*
X68678Y50771D01*
G37*
G36*
X69032Y51124D02*X70272Y49884D01*
X69880Y49492D01*
X68640Y50732D01*
X69032Y51124D01*
G37*
G36*
X69385Y51478D02*X70626Y50238D01*
X70234Y49846D01*
X68993Y51086D01*
X69385Y51478D01*
G37*
G36*
X67193Y60033D02*X68433Y58793D01*
X68041Y58401D01*
X66801Y59642D01*
X67193Y60033D01*
G37*
G36*
X66840Y59680D02*X68080Y58440D01*
X67688Y58048D01*
X66448Y59288D01*
X66840Y59680D01*
G37*
G36*
X66486Y59326D02*X67726Y58086D01*
X67335Y57694D01*
X66094Y58935D01*
X66486Y59326D01*
G37*
G36*
X66133Y58973D02*X67373Y57733D01*
X66981Y57341D01*
X65741Y58581D01*
X66133Y58973D01*
G37*
G36*
X65779Y58619D02*X67019Y57379D01*
X66628Y56987D01*
X65387Y58227D01*
X65779Y58619D01*
G37*
G36*
X65426Y58266D02*X66666Y57026D01*
X66274Y56634D01*
X65034Y57874D01*
X65426Y58266D01*
G37*
G36*
X65072Y57912D02*X66312Y56672D01*
X65920Y56280D01*
X64680Y57520D01*
X65072Y57912D01*
G37*
G36*
X64718Y57558D02*X65959Y56318D01*
X65567Y55927D01*
X64327Y57167D01*
X64718Y57558D01*
G37*
G36*
X64365Y57205D02*X65605Y55965D01*
X65213Y55573D01*
X63973Y56813D01*
X64365Y57205D01*
G37*
G36*
X64012Y56852D02*X65252Y55612D01*
X64860Y55220D01*
X63620Y56460D01*
X64012Y56852D01*
G37*
G36*
X63658Y56498D02*X64898Y55258D01*
X64506Y54866D01*
X63266Y56106D01*
X63658Y56498D01*
G37*
G36*
X63304Y56144D02*X64544Y54904D01*
X64153Y54513D01*
X62913Y55753D01*
X63304Y56144D01*
G37*
G36*
X62951Y55791D02*X64191Y54551D01*
X63799Y54159D01*
X62559Y55399D01*
X62951Y55791D01*
G37*
G36*
X62597Y55437D02*X63837Y54197D01*
X63446Y53806D01*
X62206Y55046D01*
X62597Y55437D01*
G37*
G36*
X73176Y57966D02*X74035Y58825D01*
X74720Y58139D01*
X73861Y57280D01*
X73176Y57966D01*
G37*
G36*
X73689Y52049D02*X74548Y51189D01*
X73863Y50504D01*
X73004Y51363D01*
X73689Y52049D01*
G37*
G36*
X74737Y53096D02*X75596Y52237D01*
X74911Y51552D01*
X74052Y52411D01*
X74737Y53096D01*
G37*
G36*
X73628Y55720D02*X74868Y54480D01*
X74476Y54088D01*
X73236Y55329D01*
X73628Y55720D01*
G37*
G36*
X73981Y56074D02*X75221Y54834D01*
X74830Y54442D01*
X73589Y55682D01*
X73981Y56074D01*
G37*
G36*
X72128Y59013D02*X72987Y59872D01*
X73672Y59187D01*
X72813Y58328D01*
X72128Y59013D01*
G37*
G36*
X71860Y53952D02*X73100Y52712D01*
X72708Y52321D01*
X71468Y53561D01*
X71860Y53952D01*
G37*
G36*
X72213Y54306D02*X73454Y53066D01*
X73062Y52674D01*
X71822Y53914D01*
X72213Y54306D01*
G37*
G36*
X72567Y54660D02*X73807Y53420D01*
X73415Y53028D01*
X72175Y54268D01*
X72567Y54660D01*
G37*
G36*
X72921Y55013D02*X74161Y53773D01*
X73769Y53381D01*
X72529Y54621D01*
X72921Y55013D01*
G37*
G36*
X73274Y55367D02*X74514Y54126D01*
X74122Y53735D01*
X72882Y54975D01*
X73274Y55367D01*
G37*
G36*
X69739Y51831D02*X70979Y50591D01*
X70587Y50200D01*
X69347Y51440D01*
X69739Y51831D01*
G37*
G36*
X70092Y52185D02*X71332Y50945D01*
X70941Y50553D01*
X69700Y51793D01*
X70092Y52185D01*
G37*
G36*
X70446Y52538D02*X71686Y51298D01*
X71294Y50906D01*
X70054Y52146D01*
X70446Y52538D01*
G37*
G36*
X70799Y52892D02*X72040Y51652D01*
X71648Y51260D01*
X70407Y52500D01*
X70799Y52892D01*
G37*
G36*
X71153Y53245D02*X72393Y52005D01*
X72001Y51614D01*
X70761Y52854D01*
X71153Y53245D01*
G37*
G36*
X71506Y53599D02*X72747Y52359D01*
X72355Y51967D01*
X71115Y53207D01*
X71506Y53599D01*
G37*
G36*
X54780Y47620D02*X56020Y46380D01*
X55629Y45988D01*
X54388Y47229D01*
X54780Y47620D01*
G37*
G36*
X54426Y47266D02*X55666Y46026D01*
X55275Y45635D01*
X54035Y46875D01*
X54426Y47266D01*
G37*
G36*
X54073Y46913D02*X55313Y45673D01*
X54921Y45281D01*
X53681Y46521D01*
X54073Y46913D01*
G37*
G36*
X53719Y46560D02*X54959Y45319D01*
X54568Y44928D01*
X53328Y46168D01*
X53719Y46560D01*
G37*
G36*
X53366Y46206D02*X54606Y44966D01*
X54214Y44574D01*
X52974Y45814D01*
X53366Y46206D01*
G37*
G36*
X53012Y45852D02*X54252Y44612D01*
X53861Y44220D01*
X52620Y45461D01*
X53012Y45852D01*
G37*
G36*
X52659Y45499D02*X53899Y44259D01*
X53507Y43867D01*
X52267Y45107D01*
X52659Y45499D01*
G37*
G36*
X52305Y45145D02*X53545Y43905D01*
X53154Y43513D01*
X51913Y44754D01*
X52305Y45145D01*
G37*
G36*
X51952Y44792D02*X53192Y43552D01*
X52800Y43160D01*
X51560Y44400D01*
X51952Y44792D01*
G37*
G36*
X51598Y44438D02*X52838Y43198D01*
X52447Y42806D01*
X51206Y44046D01*
X51598Y44438D01*
G37*
G36*
X51245Y44085D02*X52485Y42845D01*
X52093Y42453D01*
X50853Y43693D01*
X51245Y44085D01*
G37*
G36*
X56618Y38711D02*X57858Y37471D01*
X57467Y37079D01*
X56226Y38319D01*
X56618Y38711D01*
G37*
G36*
X53476Y38266D02*X54335Y39124D01*
X55020Y38439D01*
X54160Y37580D01*
X53476Y38266D01*
G37*
G36*
X52428Y39313D02*X53287Y40172D01*
X53972Y39487D01*
X53113Y38628D01*
X52428Y39313D01*
G37*
G36*
X56972Y39064D02*X58212Y37824D01*
X57820Y37433D01*
X56580Y38673D01*
X56972Y39064D01*
G37*
G36*
X57325Y39418D02*X58566Y38178D01*
X58174Y37786D01*
X56934Y39026D01*
X57325Y39418D01*
G37*
G36*
X57679Y39771D02*X58919Y38531D01*
X58527Y38140D01*
X57287Y39380D01*
X57679Y39771D01*
G37*
G36*
X58032Y40125D02*X59273Y38885D01*
X58881Y38493D01*
X57641Y39733D01*
X58032Y40125D01*
G37*
G36*
X58386Y40479D02*X59626Y39239D01*
X59234Y38847D01*
X57994Y40087D01*
X58386Y40479D01*
G37*
G36*
X58740Y40832D02*X59980Y39592D01*
X59588Y39200D01*
X58348Y40440D01*
X58740Y40832D01*
G37*
G36*
X59093Y41186D02*X60333Y39946D01*
X59941Y39554D01*
X58701Y40794D01*
X59093Y41186D01*
G37*
G54D165*X49690Y39986D02*Y39580D01*
G54D167*X49700Y41723D02*Y41477D01*
G54D165*X47709Y39986D02*Y39580D01*
G54D167*X48218Y41723D02*Y41477D01*
G54D162*X45500Y39800D02*X45700D01*
X45500Y38000D02*X45700D01*
G54D165*X47709Y37903D02*Y37497D01*
X48700Y37903D02*Y37497D01*
X49690Y37903D02*Y37497D01*
G54D162*X47800Y35500D02*Y35300D01*
X49600Y35500D02*Y35300D01*
G54D147*G36*
X59447Y41539D02*X60687Y40299D01*
X60295Y39908D01*
X59055Y41148D01*
X59447Y41539D01*
G37*
G36*
X59800Y41893D02*X61040Y40652D01*
X60649Y40261D01*
X59409Y41501D01*
X59800Y41893D01*
G37*
G36*
X60154Y42246D02*X61394Y41006D01*
X61002Y40615D01*
X59762Y41855D01*
X60154Y42246D01*
G37*
G36*
X60507Y42600D02*X61747Y41360D01*
X61356Y40968D01*
X60115Y42208D01*
X60507Y42600D01*
G37*
G36*
X60861Y42953D02*X62101Y41713D01*
X61709Y41322D01*
X60469Y42562D01*
X60861Y42953D01*
G37*
G36*
X61214Y43307D02*X62454Y42066D01*
X62063Y41675D01*
X60823Y42915D01*
X61214Y43307D01*
G37*
G36*
X61568Y43660D02*X62808Y42420D01*
X62416Y42029D01*
X61176Y43269D01*
X61568Y43660D01*
G37*
G36*
X61921Y44014D02*X63161Y42774D01*
X62770Y42382D01*
X61530Y43622D01*
X61921Y44014D01*
G37*
G36*
X62275Y44368D02*X63515Y43128D01*
X63123Y42736D01*
X61883Y43976D01*
X62275Y44368D01*
G37*
G54D172*X159989Y53138D02*Y52062D01*
X157012Y53138D02*Y52062D01*
G54D167*X123577Y52159D02*X123823D01*
X123577Y53641D02*X123823D01*
G54D172*X128577Y53438D02*Y52362D01*
X125600Y53438D02*Y52362D01*
G54D167*X154977Y51859D02*X155223D01*
X154977Y53341D02*X155223D01*
X154977Y56359D02*X155223D01*
X154977Y57841D02*X155223D01*
G54D172*X159989Y57638D02*Y56562D01*
X157012Y57638D02*Y56562D01*
G54D162*X137911Y58483D02*Y58283D01*
X136111Y58483D02*Y58283D01*
G54D167*X133020Y58416D02*Y58170D01*
X134502Y58416D02*Y58170D01*
X130427Y58423D02*Y58177D01*
X131909Y58423D02*Y58177D01*
X151282Y30423D02*Y30177D01*
X149800Y30423D02*Y30177D01*
X146859Y30423D02*Y30177D01*
X148341Y30423D02*Y30177D01*
G54D184*X142650Y31950D02*Y30150D01*
G54D167*X141109Y34923D02*Y34677D01*
X142591Y34923D02*Y34677D01*
X140082Y40173D02*Y39927D01*
G54D185*X138600Y38804D02*Y38296D01*
Y37026D02*Y36518D01*
X139235Y37026D02*Y36518D01*
X139896Y37026D02*Y36518D01*
G54D165*X141908Y39610D02*Y39203D01*
X143890Y39610D02*Y39203D01*
G54D150*X149600Y26400D02*Y24200D01*
X145600Y26400D02*Y24200D01*
X140600Y26400D02*Y24200D01*
G54D186*X158880Y15451D02*Y13939D01*
X154320Y15451D02*Y13939D01*
G54D187*X156345Y7550D02*X156855D01*
G54D150*X154600Y26400D02*Y24200D01*
G54D167*X141318Y37423D02*Y37177D01*
X142800Y37423D02*Y37177D01*
X138350Y34923D02*Y34677D01*
X139832Y34923D02*Y34677D01*
X138600Y40173D02*Y39927D01*
G54D185*X139896Y38804D02*Y38296D01*
X139235Y38804D02*Y38296D01*
G54D165*X143890Y41692D02*Y41286D01*
X142899Y41692D02*Y41286D01*
X141908Y41692D02*Y41286D01*
G54D186*X135130Y14911D02*Y13399D01*
G54D184*X136100Y31950D02*Y30150D01*
G54D167*X137091Y34923D02*Y34677D01*
X135609Y34923D02*Y34677D01*
G54D186*X130570Y14911D02*Y13399D01*
G54D167*X123177Y27700D02*X123423D01*
G54D172*X128589Y42438D02*Y41362D01*
X125612Y42438D02*Y41362D01*
G54D187*X132595Y21300D02*X133105D01*
G54D167*X123177Y26182D02*X123423D01*
X123177Y24700D02*X123423D01*
G54D170*X131300Y45300D02*X132000D01*
X131300Y38800D02*X132000D01*
X131300Y49800D02*X132000D01*
X131300Y34300D02*X132000D01*
G54D167*X123577Y41159D02*X123823D01*
X123577Y42641D02*X123823D01*
X123177Y29182D02*X123423D01*
G54D170*X122200Y34300D02*X122900D01*
X122200Y38800D02*X122900D01*
G54D188*X121424Y27719D02*X121576D01*
X119341Y28710D02*X119494D01*
X121424Y29700D02*X121576D01*
G54D170*X122200Y45300D02*X122900D01*
G54D167*X117782Y40223D02*Y39977D01*
G54D170*X122200Y49800D02*X122900D01*
G54D188*X119324Y25700D02*X119476D01*
X119324Y23719D02*X119476D01*
X121407Y24710D02*X121559D01*
G54D167*X117477Y25182D02*X117723D01*
X117477Y23700D02*X117723D01*
X113700Y40223D02*Y39977D01*
X112277Y41482D02*X112523D01*
X112277Y40000D02*X112523D01*
X113700Y41523D02*Y41277D01*
X115182Y40223D02*Y39977D01*
G54D183*X116210Y38526D02*Y36875D01*
X114940Y38526D02*Y36875D01*
G54D167*X116300Y40223D02*Y39977D01*
X115182Y41523D02*Y41277D01*
X117477Y34318D02*X117723D01*
X117477Y35800D02*X117723D01*
G54D183*X114940Y33319D02*Y31668D01*
X116210Y33319D02*Y31668D01*
G54D162*X115900Y29900D02*Y29700D01*
X114100Y29900D02*Y29700D01*
G54D183*X112400Y33319D02*Y31668D01*
X113670Y33319D02*Y31668D01*
Y38526D02*Y36875D01*
X112400Y38526D02*Y36875D01*
G54D167*X110877Y33982D02*X111123D01*
X110877Y36218D02*X111123D01*
X110877Y37700D02*X111123D01*
X110877Y32500D02*X111123D01*
G54D171*X110309Y27794D02*Y27641D01*
X112291Y27794D02*Y27641D01*
X111300Y29876D02*Y29724D01*
G54D167*X6577Y53200D02*X6823D01*
X6577Y54682D02*X6823D01*
X5882Y52023D02*Y51777D01*
X4400Y52023D02*Y51777D01*
X10400Y52023D02*Y51777D01*
X11882Y52023D02*Y51777D01*
X11282Y49723D02*Y49477D01*
X9800Y49723D02*Y49477D01*
X8982Y52023D02*Y51777D01*
X9377Y53200D02*X9623D01*
X9377Y54682D02*X9623D01*
X7500Y52023D02*Y51777D01*
G54D180*X7124Y49005D02*X7276D01*
X7124Y50300D02*X7276D01*
X5346Y49665D02*X5498D01*
G54D167*X9577Y48200D02*X9823D01*
X9577Y46718D02*X9823D01*
G54D162*X9300Y34800D02*X9900D01*
X9300Y31800D02*X9900D01*
X6400Y34800D02*X7000D01*
X6400Y31800D02*X7000D01*
G54D172*X7377Y42738D02*Y41662D01*
X4400Y42738D02*Y41662D01*
G54D167*X8977Y41459D02*X9223D01*
X8977Y42941D02*X9223D01*
X8600Y60123D02*Y59877D01*
X7118Y60123D02*Y59877D01*
X5077Y59200D02*X5323D01*
X5077Y60682D02*X5323D01*
G54D171*X14641Y58310D02*X14793D01*
X12207D02*X12359D01*
G54D167*X11177Y48200D02*X11423D01*
X11177Y46718D02*X11423D01*
G54D171*X10324Y44300D02*X10476D01*
X12407Y39010D02*X12559D01*
X12407Y40991D02*X12559D01*
X10324Y40000D02*X10476D01*
X15041Y45291D02*X15194D01*
X12407D02*X12559D01*
X15041Y43310D02*X15194D01*
X12407D02*X12559D01*
X15041Y40991D02*X15194D01*
X17124Y44300D02*X17276D01*
X15041Y39010D02*X15194D01*
X17124Y40000D02*X17276D01*
G54D167*X11882Y30223D02*Y29977D01*
X10400Y30223D02*Y29977D01*
X8941Y30223D02*Y29977D01*
X7459Y30223D02*Y29977D01*
X5900Y30223D02*Y29977D01*
X4418Y30223D02*Y29977D01*
X26459Y44223D02*Y43977D01*
X27941Y44223D02*Y43977D01*
G54D189*X24750Y42385D02*Y41215D01*
X24100Y42385D02*Y41215D01*
X23450Y42385D02*Y41215D01*
X22800Y42385D02*Y41215D01*
X22150Y42385D02*Y41215D01*
X21500Y42385D02*Y41215D01*
X20850Y42385D02*Y41215D01*
X20200Y42385D02*Y41215D01*
Y36485D02*Y35315D01*
X20850Y36485D02*Y35315D01*
X21500Y36485D02*Y35315D01*
X22150Y36485D02*Y35315D01*
X22800Y36485D02*Y35315D01*
X23450Y36485D02*Y35315D01*
X24100Y36485D02*Y35315D01*
X24750Y36485D02*Y35315D01*
G54D167*X23318Y32123D02*Y31877D01*
Y33623D02*Y33377D01*
X24800Y32123D02*Y31877D01*
Y33623D02*Y33377D01*
X40477Y29259D02*X40723D01*
G54D171*X19009Y28094D02*Y27941D01*
X20991Y28094D02*Y27941D01*
X20000Y30176D02*Y30024D01*
X20991Y25559D02*Y25407D01*
X19009Y25559D02*Y25407D01*
X20000Y23476D02*Y23324D01*
G54D162*X13200Y26100D02*Y25500D01*
Y23400D02*Y22800D01*
X10200Y26100D02*Y25500D01*
Y23400D02*Y22800D01*
G54D167*X40477Y30741D02*X40723D01*
G54D189*X44015Y30350D02*X45185D01*
G54D167*X42177Y30741D02*X42423D01*
G54D189*X44015Y31000D02*X45185D01*
G54D167*X36800Y32623D02*Y32377D01*
X38282Y32623D02*Y32377D01*
G54D189*X44015Y29701D02*X45185D01*
X48515D02*X49685D01*
G54D167*X46118Y32623D02*Y32377D01*
X47600Y32623D02*Y32377D01*
G54D180*X38502Y29440D02*X38654D01*
X38502Y30735D02*X38654D01*
X36724Y30100D02*X36876D01*
G54D167*X36659Y12923D02*Y12677D01*
X38141Y12923D02*Y12677D01*
X41959Y12923D02*Y12677D01*
X43441Y12923D02*Y12677D01*
G54D172*X36862Y14712D02*X37938D01*
X42162D02*X43238D01*
X47462Y17689D02*X48538D01*
X36862D02*X37938D01*
X42162D02*X43238D01*
X47462Y14712D02*X48538D01*
G54D167*X47259Y12923D02*Y12677D01*
X48741Y12923D02*Y12677D01*
X58577Y29200D02*X58823D01*
G54D180*X56402Y29340D02*X56554D01*
G54D189*X44015Y29051D02*X45185D01*
X48515D02*X49685D01*
G54D167*X52577Y29259D02*X52823D01*
X58577Y30682D02*X58823D01*
G54D189*X48515Y30350D02*X49685D01*
X48515Y31000D02*X49685D01*
G54D167*X52577Y30741D02*X52823D01*
G54D180*X56402Y30635D02*X56554D01*
X54624Y30000D02*X54776D01*
G54D167*X42177Y29259D02*X42423D01*
G54D171*X27824Y11900D02*X27976D01*
X27824Y13881D02*X27976D01*
X25741Y12891D02*X25894D01*
X29924Y13881D02*X30076D01*
X29924Y11900D02*X30076D01*
X32007Y12891D02*X32159D01*
G54D167*X33977Y10600D02*X34223D01*
X33977Y13382D02*X34223D01*
X33977Y11900D02*X34223D01*
X33977Y9118D02*X34223D01*
X27900Y10023D02*Y9777D01*
X29382Y10023D02*Y9777D01*
G54D190*X32000Y7000D02*Y5600D01*
X35000Y7000D02*Y5600D01*
M02*
