G04 start of page 8 for group -4062 idx -4062 *
G04 Title: Power Board, soldermask *
G04 Creator: pcb 1.99z *
G04 CreationDate: Sun 28 Jul 2013 20:14:53 GMT UTC *
G04 For: rbarlow *
G04 Format: Gerber/RS-274X *
G04 PCB-Dimensions (mm): 166.00 100.00 *
G04 PCB-Coordinate-Origin: lower left *
%MOMM*%
%FSLAX43Y43*%
%LNBOTTOMMASK*%
%ADD221R,1.676X1.676*%
%ADD220R,3.353X3.353*%
%ADD219R,2.550X2.550*%
%ADD218R,0.969X0.969*%
%ADD217R,1.902X1.902*%
%ADD216R,0.991X0.991*%
%ADD215R,2.004X2.004*%
%ADD214R,1.118X1.118*%
%ADD213R,0.584X0.584*%
%ADD212R,2.050X2.050*%
%ADD211R,0.969X0.969*%
%ADD210R,2.300X2.300*%
%ADD209R,1.554X1.554*%
%ADD208R,1.370X1.370*%
%ADD207C,1.750*%
%ADD206C,3.950*%
%ADD205C,1.100*%
%ADD204C,1.676*%
%ADD203C,2.450*%
%ADD202C,2.750*%
%ADD201C,2.650*%
%ADD200C,1.321*%
%ADD199C,3.454*%
%ADD198C,3.450*%
%ADD197C,5.766*%
%ADD196C,3.750*%
%ADD195C,1.850*%
%ADD194C,3.251*%
%ADD193C,0.002*%
%ADD192C,1.778*%
%ADD191C,4.064*%
G54D191*X109290Y93730D03*
X40710D03*
G54D192*X47695Y25785D03*
X50235D03*
X52775D03*
X50235Y23245D03*
X52775D03*
X55315D03*
X57855D03*
X60395D03*
X62935D03*
X65475D03*
Y25785D03*
X68015D03*
X70555D03*
G54D191*X40710Y22610D03*
G54D193*G36*
X46806Y24134D02*Y22356D01*
X48584D01*
Y24134D01*
X46806D01*
G37*
G54D192*X55315Y25785D03*
X57855D03*
X60395D03*
X62935D03*
G54D193*G36*
X29915Y40095D02*Y38245D01*
X31765D01*
Y40095D01*
X29915D01*
G37*
G54D194*X7160Y38281D03*
G54D195*X28300Y39170D03*
Y36630D03*
Y34090D03*
X30840Y36630D03*
Y34090D03*
Y31550D03*
Y29010D03*
Y26470D03*
Y23930D03*
X28300Y31550D03*
Y29010D03*
Y26470D03*
Y23930D03*
G54D192*X13510Y35741D03*
Y30661D03*
Y33201D03*
G54D193*G36*
X12621Y29010D02*Y27232D01*
X14399D01*
Y29010D01*
X12621D01*
G37*
G54D194*X7160Y46140D03*
G54D193*G36*
X20311Y50069D02*Y48291D01*
X22089D01*
Y50069D01*
X20311D01*
G37*
G54D192*X21200Y51720D03*
Y54260D03*
Y56800D03*
X16050Y37011D03*
Y31931D03*
Y29391D03*
Y34471D03*
X13510Y55030D03*
Y49950D03*
Y52490D03*
G54D193*G36*
X12621Y48299D02*Y46521D01*
X14399D01*
Y48299D01*
X12621D01*
G37*
G54D192*X16050Y56300D03*
Y51220D03*
Y48680D03*
Y53760D03*
G54D194*X7160Y57570D03*
G54D196*X9700Y75430D03*
Y88570D03*
G54D197*X6500Y94200D03*
G54D198*X139790Y17110D03*
X147410D03*
X139790Y9490D03*
X147410D03*
G54D196*X154600Y25300D03*
X149600D03*
G54D199*X101600Y8850D03*
G54D191*X109290Y22610D03*
G54D195*X120350Y20800D03*
X122850D03*
X117850D03*
X122850Y6300D03*
X117850D03*
G54D196*X125950Y13300D03*
X114750D03*
G54D193*G36*
X84881Y23778D02*Y22458D01*
X86202D01*
Y23778D01*
X84881D01*
G37*
G54D200*X86811Y23118D03*
X88081D03*
G54D193*G36*
X84881Y28224D02*Y26903D01*
X86202D01*
Y28224D01*
X84881D01*
G37*
G54D200*X85541Y26293D03*
X86811Y27563D03*
Y26293D03*
G54D199*X83600Y8850D03*
X76100D03*
G54D200*X89351Y23118D03*
X90621D03*
X91891D03*
X93161D03*
X89351Y21848D03*
X90621D03*
X91891D03*
X93161D03*
X94431Y23118D03*
X95701D03*
X96971D03*
X94431Y21848D03*
X95701D03*
X96971D03*
G54D199*X94100Y8850D03*
G54D200*X88081Y27563D03*
Y26293D03*
X89351D03*
X90621D03*
X89351Y27563D03*
X90621D03*
X91891D03*
X93161D03*
X94431D03*
X95701D03*
X91891Y26293D03*
X93161D03*
X94431D03*
X95701D03*
G54D194*X7160Y26851D03*
G54D200*X85541Y21848D03*
X86811D03*
X88081D03*
G54D195*X15350Y20800D03*
X17851D03*
X12850D03*
G54D199*X65601Y8850D03*
X58100D03*
X47601Y8851D03*
X40101D03*
G54D195*X17851Y6300D03*
X12850D03*
G54D196*X20950Y13300D03*
G54D201*X28900Y6900D03*
X25090D03*
G54D196*X9751Y13300D03*
G54D197*X6500Y5900D03*
G54D192*X68015Y23245D03*
X70555D03*
X73095D03*
X75635D03*
X78175D03*
X80715D03*
X73095Y25785D03*
X75635D03*
X78175D03*
X80715D03*
G54D200*X96971Y27563D03*
Y26293D03*
G54D197*X127600Y30100D03*
G54D202*X137380Y55050D03*
G54D203*X146680Y56300D03*
G54D196*X145600Y25300D03*
G54D193*G36*
X146502Y40418D02*Y38742D01*
X148178D01*
Y40418D01*
X146502D01*
G37*
G54D204*X147340Y44660D03*
G54D203*X141600Y56300D03*
G54D196*X140600Y25300D03*
G54D202*X133420Y55050D03*
G54D205*X136300Y72850D03*
Y77350D03*
G54D206*Y69250D03*
Y80950D03*
G54D197*X123200Y72100D03*
G54D207*X134200Y71600D03*
Y74100D03*
Y76100D03*
Y78600D03*
G54D193*G36*
X129362Y79718D02*Y78042D01*
X131038D01*
Y79718D01*
X129362D01*
G37*
G54D204*X130200Y76340D03*
Y73800D03*
Y71260D03*
G54D208*X12400Y78500D02*X14160D01*
X12400Y81000D02*X14160D01*
X12400Y83000D02*X14160D01*
X12400Y85500D02*X14160D01*
G54D209*X15700Y72800D02*Y71400D01*
X12700Y72800D02*Y71400D01*
G54D210*X106200Y78150D02*Y74650D01*
Y68600D02*Y65100D01*
G54D211*X61218Y57123D02*Y56877D01*
X62700Y57123D02*Y56877D01*
X51377Y45800D02*X51623D01*
X51377Y47282D02*X51623D01*
G54D212*X103300Y56500D02*Y54700D01*
X94300Y56500D02*Y54700D01*
G54D211*X105677Y48082D02*X105923D01*
G54D213*X96015Y47900D02*X97185D01*
X100515D02*X101685D01*
G54D214*X105440Y50990D02*X105593D01*
G54D211*X107577Y48082D02*X107823D01*
G54D214*X107523Y51981D02*X107676D01*
X107523Y50000D02*X107676D01*
G54D215*X109150Y55600D02*X110050D01*
X113450D02*X114350D01*
G54D209*X110900Y50600D02*Y49200D01*
X113900Y50600D02*Y49200D01*
G54D213*X96015Y47250D02*X97185D01*
X100515D02*X101685D01*
G54D211*X90127Y47168D02*X90373D01*
X90127Y48650D02*X90373D01*
X92527Y47218D02*X92773D01*
X92527Y48700D02*X92773D01*
X90677Y50118D02*X90923D01*
X92527D02*X92773D01*
X92527Y51600D02*X92773D01*
X90677D02*X90923D01*
G54D209*X88650Y54100D02*X90050D01*
X88650Y57100D02*X90050D01*
G54D216*X88074Y48596D02*X88226D01*
X88074Y47300D02*X88226D01*
X86296Y47935D02*X86448D01*
G54D211*X88150Y50373D02*Y50127D01*
X86668Y50373D02*Y50127D01*
G54D209*X84200Y54100D02*X85600D01*
X84200Y57100D02*X85600D01*
G54D217*X147400Y31300D02*X148300D01*
X151700D02*X152600D01*
G54D196*X149600Y26400D02*Y24200D01*
X145600Y26400D02*Y24200D01*
X140600Y26400D02*Y24200D01*
X154600Y26400D02*Y24200D01*
G54D211*X139041Y43523D02*Y43277D01*
X137559Y45323D02*Y45077D01*
X139041Y45323D02*Y45077D01*
G54D209*X139000Y39600D02*Y39400D01*
G54D211*X137559Y43523D02*Y43277D01*
G54D209*X137200Y39600D02*Y39400D01*
G54D218*X129691Y17273D02*Y17027D01*
X128209Y17273D02*Y17027D01*
X125977Y23241D02*X126223D01*
X125977Y21759D02*X126223D01*
G54D219*X130000Y49450D02*Y46150D01*
Y40850D02*Y37550D01*
X122600Y40850D02*Y37550D01*
Y49450D02*Y46150D01*
G54D209*X113900Y46000D02*Y44600D01*
X110900Y46000D02*Y44600D01*
G54D220*X112700Y38143D02*Y35857D01*
G54D211*X99577Y37000D02*X99823D01*
X99577Y38482D02*X99823D01*
X97977D02*X98223D01*
X97977Y37000D02*X98223D01*
X98877Y39959D02*X99123D01*
X98877Y41441D02*X99123D01*
G54D214*X100641Y33310D02*X100793D01*
X100641Y35291D02*X100793D01*
G54D216*X100946Y40040D02*X101098D01*
X100946Y41335D02*X101098D01*
G54D211*X101077Y37000D02*X101323D01*
X101077Y38482D02*X101323D01*
G54D214*X102724Y34300D02*X102876D01*
G54D221*X105664Y34714D02*X107341D01*
X105664Y37000D02*X107341D01*
X105664Y39312D02*X107341D01*
G54D216*X102724Y40700D02*X102876D01*
G54D211*X102677Y37000D02*X102923D01*
X102677Y38482D02*X102923D01*
X105677Y46600D02*X105923D01*
X107577D02*X107823D01*
X103777Y45118D02*X104023D01*
X103777Y46600D02*X104023D01*
G54D213*X96015Y45950D02*X97185D01*
X96015Y46600D02*X97185D01*
X100515D02*X101685D01*
X100515Y45950D02*X101685D01*
G54D214*X8207Y65891D02*X8359D01*
X6124Y64900D02*X6276D01*
X8207Y63910D02*X8359D01*
X5341Y20510D02*X5494D01*
X7424Y21500D02*X7576D01*
X7424Y19519D02*X7576D01*
M02*
