G04 start of page 10 for group -4078 idx -4078 *
G04 Title: Power Board, bottomsilk *
G04 Creator: pcb 20110918 *
G04 CreationDate: Wed 12 Sep 2012 14:56:25 GMT UTC *
G04 For: rob *
G04 Format: Gerber/RS-274X *
G04 PCB-Dimensions: 653543 393701 *
G04 PCB-Coordinate-Origin: lower left *
%MOIN*%
%FSLAX25Y25*%
%LNBOTTOMSILK*%
%ADD221C,0.0079*%
%ADD220C,0.0200*%
%ADD219C,0.0080*%
%ADD218C,0.0100*%
%ADD217C,0.0098*%
%ADD216C,0.0119*%
%ADD215C,0.0110*%
%ADD214C,0.0079*%
G54D214*X373425Y156299D02*X381299Y148425D01*
X351772Y156299D02*X373425D01*
X382677Y142520D02*X408071D01*
Y154331D01*
X382677D01*
Y142520D01*
X323819Y146063D02*X350591D01*
Y162008D01*
X323819D01*
Y146063D01*
G54D215*X73038Y133859D02*X81318D01*
X73038D02*X71658Y132479D01*
Y129719D02*Y132479D01*
Y129719D02*X73038Y128339D01*
X81318D01*
X82698Y129719D02*X81318Y128339D01*
X82698Y129719D02*Y132479D01*
X81318Y133859D02*X82698Y132479D01*
X71658Y125027D02*X81318D01*
X82698Y123647D01*
Y120887D02*Y123647D01*
Y120887D02*X81318Y119507D01*
X71658D02*X81318D01*
X71658Y110675D02*Y116195D01*
Y113435D02*X82698D01*
G54D216*X42547Y255879D02*Y258859D01*
Y257369D02*X54467D01*
Y255879D02*Y258859D01*
X42547Y252303D02*X54467D01*
X42547D02*X44037D01*
X51487Y244853D01*
X42547D02*X54467D01*
G54D217*X133742Y174273D02*Y74155D01*
X99096Y174273D02*Y74155D01*
Y174273D02*X133742D01*
X99096Y74155D02*X133742D01*
X129214Y132679D02*X133742D01*
X129214Y115749D02*X133742D01*
X129214Y132679D02*Y115749D01*
G54D214*X204264Y184020D02*Y182446D01*
X201248Y184020D02*Y182446D01*
G54D218*X21610Y261912D02*X35510D01*
Y249112D01*
X21610D02*X35510D01*
X21610Y261912D02*Y249112D01*
G54D219*X53938Y278544D02*X57874D01*
X53938Y289172D02*X57874D01*
G54D218*X13415Y236155D02*X68190D01*
Y172155D01*
X13415D02*X68190D01*
X88465Y198623D02*Y188623D01*
X78465Y198623D02*X88465D01*
Y188623D02*X78465D01*
X88465Y228623D02*Y188623D01*
X78465Y228623D02*X88465D01*
X78465Y188623D02*Y228623D01*
G54D217*X13465Y296851D02*X52835D01*
X13465Y348819D02*X52835D01*
Y296851D02*Y348819D01*
G54D218*X18528Y87146D02*X32428D01*
Y74346D01*
X18528D02*X32428D01*
X18528Y87146D02*Y74346D01*
X13415Y160211D02*X68190D01*
Y96211D01*
X13415D02*X68190D01*
G54D217*X88544Y31890D02*X124016D01*
Y11418D01*
X88544Y31890D02*Y11418D01*
X542481Y82325D02*X640906D01*
X542481Y22403D02*X640906D01*
X542481D02*Y82325D01*
G54D220*X574901Y127435D02*Y119023D01*
G54D218*Y127435D02*X581901Y129135D01*
X606201D01*
Y117323D01*
X581901D02*X606201D01*
X574901Y119023D02*X581901Y117323D01*
G54D219*X543307Y152757D02*X544093D01*
X543307Y158267D02*X544093D01*
G54D218*X572796Y151575D02*G75*G03X572796Y151575I17500J0D01*G01*
X284843Y42718D02*Y11222D01*
X343899Y42718D02*Y11222D01*
X284843Y42718D02*X343899D01*
G54D219*X328938Y220865D02*Y216929D01*
X339566Y220865D02*Y216929D01*
X440552Y201771D02*X444488D01*
X440552Y191143D02*X444488D01*
X440552Y183661D02*X444488D01*
X440552Y173033D02*X444488D01*
G54D217*X408661Y230709D02*X400787Y238583D01*
X408661Y230709D02*Y207087D01*
X400787Y199213D02*X408661Y207087D01*
X377165Y199213D02*X400787D01*
X369291Y207087D02*X377165Y199213D01*
X369291Y230709D02*Y207087D01*
X377165Y238583D02*X369291Y230709D01*
X377165Y238583D02*X400787D01*
X427954Y304824D02*Y259154D01*
X408268D02*X427954D01*
X408268Y304824D02*Y259154D01*
Y304824D02*X427954D01*
G54D214*X356823Y189406D02*Y187832D01*
X353807Y189406D02*Y187832D01*
X366272Y189603D02*Y188029D01*
X363256Y189603D02*Y188029D01*
G54D218*X337647Y193421D02*Y184021D01*
X349547D01*
Y193421D02*Y184021D01*
X337647Y193421D02*X349547D01*
G54D214*X343343Y196327D02*X344917D01*
X343343Y199343D02*X344917D01*
X415027Y187169D02*Y185595D01*
X418043Y187169D02*Y185595D01*
X422508Y187169D02*Y185595D01*
X425524Y187169D02*Y185595D01*
X407547Y181335D02*Y179761D01*
X410563Y181335D02*Y179761D01*
G54D218*X401984Y179256D02*X391673D01*
X376362D02*X386673D01*
X401984Y190232D02*Y179256D01*
X376362Y190232D02*X401984D01*
X376362Y179256D02*Y190232D01*
X391673Y179256D02*G75*G03X386673Y179256I-2500J0D01*G01*
X412620Y207150D02*Y194350D01*
X426520D01*
Y207150D02*Y194350D01*
X412620Y207150D02*X426520D01*
G54D214*X358988Y201020D02*Y199446D01*
X355972Y201020D02*Y199446D01*
G54D219*X346458Y220865D02*Y216929D01*
X357086Y220865D02*Y216929D01*
G54D214*X363256Y201020D02*Y199446D01*
X366272Y201020D02*Y199446D01*
X557248Y154398D02*X558822D01*
X557248Y157414D02*X558822D01*
X557248Y161091D02*X558822D01*
X557248Y164107D02*X558822D01*
G54D221*X494949Y89370D02*Y87796D01*
X497965Y89370D02*Y87796D01*
G54D214*X487992Y164961D02*X506496D01*
X487992Y143701D02*X506496D01*
G54D217*X550946Y212993D02*X584016D01*
X550946D02*Y230315D01*
X584016D01*
Y212993D02*Y230315D01*
X517479Y237914D02*X548661D01*
X517479D02*Y290434D01*
X548661Y237914D02*Y290434D01*
X517479Y256103D02*X523716D01*
X529952D02*X536188D01*
X542424D02*X548661D01*
X525275Y222639D02*Y237914D01*
X540865Y222639D02*Y237914D01*
G54D214*X487992Y198820D02*X506496D01*
X487992Y177560D02*X506496D01*
X394028Y149374D02*Y147800D01*
X391012Y149374D02*Y147800D01*
X384712Y149374D02*Y147800D01*
X387728Y149374D02*Y147800D01*
X406232Y149374D02*Y147800D01*
X403216Y149374D02*Y147800D01*
X399933Y149374D02*Y147800D01*
X396917Y149374D02*Y147800D01*
G54D218*X393624Y128640D02*X407524D01*
X393624Y141440D02*Y128640D01*
Y141440D02*X407524D01*
Y128640D01*
X410801Y131470D02*X452201D01*
X410801Y159970D02*Y131470D01*
Y159970D02*X452201D01*
Y131470D01*
X424311Y214692D02*X431311Y212992D01*
X455611D02*X431311D01*
X455611Y224804D02*Y212992D01*
X431311Y224804D02*X455611D01*
X424311Y223104D02*X431311Y224804D01*
G54D220*X424311Y214692D02*Y223104D01*
G54D218*X395224Y155536D02*X407124D01*
X395224Y164936D02*Y155536D01*
Y164936D02*X407124D01*
Y155536D01*
G54D214*X391272Y161023D02*Y159449D01*
X388256Y161023D02*Y159449D01*
G54D218*X445276Y384016D02*Y74016D01*
X145276Y384016D02*X445276D01*
X145276D02*Y74016D01*
X445276D01*
X182776Y106516D02*Y86516D01*
Y106516D02*X322776D01*
Y86516D01*
X182776D02*X322776D01*
X182776Y96516D02*X192776D01*
Y86516D01*
X331776Y96016D02*Y81016D01*
Y96016D02*X386776D01*
Y81016D01*
X331776D02*X386776D01*
X331776Y113516D02*Y98516D01*
Y113516D02*X386776D01*
Y98516D01*
X331776D02*X386776D01*
X213978Y42718D02*Y11222D01*
X273034Y42718D02*Y11222D01*
X213978Y42718D02*X273034D01*
X355707Y42717D02*Y11221D01*
X414763Y42717D02*Y11221D01*
X355707Y42717D02*X414763D01*
X143112Y42719D02*Y11223D01*
X202168Y42719D02*Y11223D01*
X143112Y42719D02*X202168D01*
G54D214*X243147Y225918D02*X244721D01*
X243147Y222902D02*X244721D01*
X353167Y181178D02*Y183178D01*
Y181178D02*X353667Y180678D01*
X354667D01*
X355167Y181178D02*X354667Y180678D01*
X355167Y181178D02*Y182678D01*
X353167D02*X357167D01*
X355167D02*X357167Y180678D01*
X353667Y179478D02*X353167Y178978D01*
Y177978D02*Y178978D01*
Y177978D02*X353667Y177478D01*
X356667D01*
X357167Y177978D02*X356667Y177478D01*
X357167Y177978D02*Y178978D01*
X356667Y179478D02*X357167Y178978D01*
X355167Y177478D02*Y178978D01*
X353667Y176278D02*X353167Y175778D01*
Y174778D02*Y175778D01*
Y174778D02*X353667Y174278D01*
X356667D01*
X357167Y174778D02*X356667Y174278D01*
X357167Y174778D02*Y175778D01*
X356667Y176278D02*X357167Y175778D01*
X355167Y174278D02*Y175778D01*
X353667Y173078D02*X353167Y172578D01*
Y171078D02*Y172578D01*
Y171078D02*X353667Y170578D01*
X354667D01*
X357167Y173078D02*X354667Y170578D01*
X357167D02*Y173078D01*
X337647Y178797D02*Y181797D01*
Y178797D02*X338147Y178297D01*
X339147D01*
X339647Y178797D01*
Y181797D01*
X339147Y182297D02*X339647Y181797D01*
X338147Y182297D02*X339147D01*
X337647Y181797D02*X338147Y182297D01*
X338647Y181297D02*X339647Y182297D01*
X340847Y178797D02*X341347Y178297D01*
X342347D01*
X342847Y178797D01*
Y181797D01*
X342347Y182297D02*X342847Y181797D01*
X341347Y182297D02*X342347D01*
X340847Y181797D02*X341347Y182297D01*
Y180297D02*X342847D01*
X344047Y181797D02*X344547Y182297D01*
X344047Y178797D02*Y181797D01*
Y178797D02*X344547Y178297D01*
X345547D01*
X346047Y178797D01*
Y181797D01*
X345547Y182297D02*X346047Y181797D01*
X344547Y182297D02*X345547D01*
X344047Y181297D02*X346047Y179297D01*
X347247Y181797D02*X347747Y182297D01*
X347247Y180797D02*Y181797D01*
Y180797D02*X347747Y180297D01*
X348747D01*
X349247Y180797D01*
Y181797D01*
X348747Y182297D02*X349247Y181797D01*
X347747Y182297D02*X348747D01*
X347247Y179797D02*X347747Y180297D01*
X347247Y178797D02*Y179797D01*
Y178797D02*X347747Y178297D01*
X348747D01*
X349247Y178797D01*
Y179797D01*
X348747Y180297D02*X349247Y179797D01*
X327827Y199883D02*X329327D01*
X327327Y199383D02*X327827Y199883D01*
X327327Y196383D02*Y199383D01*
Y196383D02*X327827Y195883D01*
X329327D01*
X330527Y196383D02*X331027Y195883D01*
X332027D01*
X332527Y196383D01*
Y199383D01*
X332027Y199883D02*X332527Y199383D01*
X331027Y199883D02*X332027D01*
X330527Y199383D02*X331027Y199883D01*
Y197883D02*X332527D01*
X334227Y199883D02*X335227D01*
X334727Y195883D02*Y199883D01*
X333727Y196883D02*X334727Y195883D01*
X336427Y199883D02*X338427Y197883D01*
Y196383D02*Y197883D01*
X337927Y195883D02*X338427Y196383D01*
X336927Y195883D02*X337927D01*
X336427Y196383D02*X336927Y195883D01*
X336427Y196383D02*Y197383D01*
X336927Y197883D01*
X338427D01*
X332299Y158272D02*Y160272D01*
Y158272D02*X332799Y157772D01*
X333799D01*
X334299Y158272D02*X333799Y157772D01*
X334299Y158272D02*Y159772D01*
X332299D02*X336299D01*
X334299D02*X336299Y157772D01*
X332799Y156572D02*X332299Y156072D01*
Y155072D02*Y156072D01*
Y155072D02*X332799Y154572D01*
X335799D01*
X336299Y155072D02*X335799Y154572D01*
X336299Y155072D02*Y156072D01*
X335799Y156572D02*X336299Y156072D01*
X334299Y154572D02*Y156072D01*
X332799Y153372D02*X332299Y152872D01*
Y151372D02*Y152872D01*
Y151372D02*X332799Y150872D01*
X333799D01*
X336299Y153372D02*X333799Y150872D01*
X336299D02*Y153372D01*
X332299Y148172D02*X332799Y147672D01*
X332299Y148172D02*Y149172D01*
X332799Y149672D02*X332299Y149172D01*
X332799Y149672D02*X335799D01*
X336299Y149172D01*
X334299Y148172D02*X334799Y147672D01*
X334299Y148172D02*Y149672D01*
X336299Y148172D02*Y149172D01*
Y148172D02*X335799Y147672D01*
X334799D02*X335799D01*
X348308Y157681D02*Y159181D01*
X347808Y159681D02*X348308Y159181D01*
X344808Y159681D02*X347808D01*
X344808D02*X344308Y159181D01*
Y157681D02*Y159181D01*
X344808Y156481D02*X344308Y155981D01*
Y154981D02*Y155981D01*
Y154981D02*X344808Y154481D01*
X347808D01*
X348308Y154981D02*X347808Y154481D01*
X348308Y154981D02*Y155981D01*
X347808Y156481D02*X348308Y155981D01*
X346308Y154481D02*Y155981D01*
X348308Y151781D02*Y152781D01*
X344308Y152281D02*X348308D01*
X345308Y153281D02*X344308Y152281D01*
X347808Y150581D02*X348308Y150081D01*
X344808Y150581D02*X347808D01*
X344808D02*X344308Y150081D01*
Y149081D02*Y150081D01*
Y149081D02*X344808Y148581D01*
X347808D01*
X348308Y149081D02*X347808Y148581D01*
X348308Y149081D02*Y150081D01*
X347308Y150581D02*X345308Y148581D01*
X338401Y158271D02*Y160271D01*
Y158271D02*X338901Y157771D01*
X339901D01*
X340401Y158271D02*X339901Y157771D01*
X340401Y158271D02*Y159771D01*
X338401D02*X342401D01*
X340401D02*X342401Y157771D01*
X338901Y156571D02*X338401Y156071D01*
Y155071D02*Y156071D01*
Y155071D02*X338901Y154571D01*
X341901D01*
X342401Y155071D02*X341901Y154571D01*
X342401Y155071D02*Y156071D01*
X341901Y156571D02*X342401Y156071D01*
X340401Y154571D02*Y156071D01*
X338901Y153371D02*X338401Y152871D01*
Y151871D02*Y152871D01*
Y151871D02*X338901Y151371D01*
X341901D01*
X342401Y151871D02*X341901Y151371D01*
X342401Y151871D02*Y152871D01*
X341901Y153371D02*X342401Y152871D01*
X340401Y151371D02*Y152871D01*
X342401Y148671D02*Y149671D01*
X338401Y149171D02*X342401D01*
X339401Y150171D02*X338401Y149171D01*
X326001Y158202D02*Y160202D01*
Y158202D02*X326501Y157702D01*
X327501D01*
X328001Y158202D02*X327501Y157702D01*
X328001Y158202D02*Y159702D01*
X326001D02*X330001D01*
X328001D02*X330001Y157702D01*
X326501Y156502D02*X326001Y156002D01*
Y155002D02*Y156002D01*
Y155002D02*X326501Y154502D01*
X329501D01*
X330001Y155002D02*X329501Y154502D01*
X330001Y155002D02*Y156002D01*
X329501Y156502D02*X330001Y156002D01*
X328001Y154502D02*Y156002D01*
X326501Y153302D02*X326001Y152802D01*
Y151802D02*Y152802D01*
Y151802D02*X326501Y151302D01*
X329501D01*
X330001Y151802D02*X329501Y151302D01*
X330001Y151802D02*Y152802D01*
X329501Y153302D02*X330001Y152802D01*
X328001Y151302D02*Y152802D01*
X329501Y150102D02*X330001Y149602D01*
X326501Y150102D02*X329501D01*
X326501D02*X326001Y149602D01*
Y148602D02*Y149602D01*
Y148602D02*X326501Y148102D01*
X329501D01*
X330001Y148602D02*X329501Y148102D01*
X330001Y148602D02*Y149602D01*
X329001Y150102D02*X327001Y148102D01*
X362614Y181232D02*Y183232D01*
Y181232D02*X363114Y180732D01*
X364114D01*
X364614Y181232D02*X364114Y180732D01*
X364614Y181232D02*Y182732D01*
X362614D02*X366614D01*
X364614D02*X366614Y180732D01*
X363114Y179532D02*X362614Y179032D01*
Y178032D02*Y179032D01*
Y178032D02*X363114Y177532D01*
X366114D01*
X366614Y178032D02*X366114Y177532D01*
X366614Y178032D02*Y179032D01*
X366114Y179532D02*X366614Y179032D01*
X364614Y177532D02*Y179032D01*
X363114Y176332D02*X362614Y175832D01*
Y174332D02*Y175832D01*
Y174332D02*X363114Y173832D01*
X364114D01*
X366614Y176332D02*X364114Y173832D01*
X366614D02*Y176332D01*
Y172632D02*X364614Y170632D01*
X363114D02*X364614D01*
X362614Y171132D02*X363114Y170632D01*
X362614Y171132D02*Y172132D01*
X363114Y172632D02*X362614Y172132D01*
X363114Y172632D02*X364114D01*
X364614Y172132D01*
Y170632D02*Y172132D01*
X370986Y202518D02*Y203853D01*
X370541Y204298D02*X370986Y203853D01*
X367871Y204298D02*X370541D01*
X367871D02*X367426Y203853D01*
Y202518D02*Y203853D01*
X367871Y201450D02*X367426Y201005D01*
Y200115D02*Y201005D01*
Y200115D02*X367871Y199670D01*
X370541D01*
X370986Y200115D02*X370541Y199670D01*
X370986Y200115D02*Y201005D01*
X370541Y201450D02*X370986Y201005D01*
X369206Y199670D02*Y201005D01*
X370541Y198602D02*X370986Y198157D01*
X367871Y198602D02*X370541D01*
X367871D02*X367426Y198157D01*
Y197267D02*Y198157D01*
Y197267D02*X367871Y196822D01*
X370541D01*
X370986Y197267D02*X370541Y196822D01*
X370986Y197267D02*Y198157D01*
X370096Y198602D02*X368316Y196822D01*
X370986Y195754D02*X369206Y193974D01*
X367871D02*X369206D01*
X367426Y194419D02*X367871Y193974D01*
X367426Y194419D02*Y195309D01*
X367871Y195754D02*X367426Y195309D01*
X367871Y195754D02*X368761D01*
X369206Y195309D01*
Y193974D02*Y195309D01*
X351283Y204092D02*Y205872D01*
Y204092D02*X351728Y203647D01*
X352618D01*
X353063Y204092D02*X352618Y203647D01*
X353063Y204092D02*Y205427D01*
X351283D02*X354843D01*
X353063D02*X354843Y203647D01*
X351728Y202579D02*X351283Y202134D01*
Y201244D02*Y202134D01*
Y201244D02*X351728Y200799D01*
X354398D01*
X354843Y201244D02*X354398Y200799D01*
X354843Y201244D02*Y202134D01*
X354398Y202579D02*X354843Y202134D01*
X353063Y200799D02*Y202134D01*
X351728Y199731D02*X351283Y199286D01*
Y197951D02*Y199286D01*
Y197951D02*X351728Y197506D01*
X352618D01*
X354843Y199731D02*X352618Y197506D01*
X354843D02*Y199731D01*
Y196438D02*X352618Y194213D01*
X351283D02*X352618D01*
X351283D02*Y196438D01*
X362283Y232056D02*Y233556D01*
X361783Y234056D02*X362283Y233556D01*
X358783Y234056D02*X361783D01*
X358783D02*X358283Y233556D01*
Y232056D02*Y233556D01*
X358783Y230856D02*X358283Y230356D01*
Y229356D02*Y230356D01*
Y229356D02*X358783Y228856D01*
X361783D01*
X362283Y229356D02*X361783Y228856D01*
X362283Y229356D02*Y230356D01*
X361783Y230856D02*X362283Y230356D01*
X360283Y228856D02*Y230356D01*
X362283Y226156D02*Y227156D01*
X358283Y226656D02*X362283D01*
X359283Y227656D02*X358283Y226656D01*
X360283Y224956D02*X358283Y222956D01*
X360283Y222456D02*Y224956D01*
X358283Y222956D02*X362283D01*
X327638Y232255D02*Y233755D01*
X327138Y234255D02*X327638Y233755D01*
X324138Y234255D02*X327138D01*
X324138D02*X323638Y233755D01*
Y232255D02*Y233755D01*
X324138Y231055D02*X323638Y230555D01*
Y229555D02*Y230555D01*
Y229555D02*X324138Y229055D01*
X327138D01*
X327638Y229555D02*X327138Y229055D01*
X327638Y229555D02*Y230555D01*
X327138Y231055D02*X327638Y230555D01*
X325638Y229055D02*Y230555D01*
X327638Y226355D02*Y227355D01*
X323638Y226855D02*X327638D01*
X324638Y227855D02*X323638Y226855D01*
X324138Y225155D02*X323638Y224655D01*
Y223655D02*Y224655D01*
Y223655D02*X324138Y223155D01*
X327138D01*
X327638Y223655D02*X327138Y223155D01*
X327638Y223655D02*Y224655D01*
X327138Y225155D02*X327638Y224655D01*
X325638Y223155D02*Y224655D01*
X542912Y16749D02*X544412D01*
Y20249D01*
X543912Y20749D02*X544412Y20249D01*
X543412Y20749D02*X543912D01*
X542912Y20249D02*X543412Y20749D01*
X545612Y17249D02*X546112Y16749D01*
X547112D01*
X547612Y17249D01*
Y20249D01*
X547112Y20749D02*X547612Y20249D01*
X546112Y20749D02*X547112D01*
X545612Y20249D02*X546112Y20749D01*
Y18749D02*X547612D01*
X548812Y20249D02*X549312Y20749D01*
X548812Y17249D02*Y20249D01*
Y17249D02*X549312Y16749D01*
X550312D01*
X550812Y17249D01*
Y20249D01*
X550312Y20749D02*X550812Y20249D01*
X549312Y20749D02*X550312D01*
X548812Y19749D02*X550812Y17749D01*
X552012Y17249D02*X552512Y16749D01*
X553512D01*
X554012Y17249D01*
Y20249D01*
X553512Y20749D02*X554012Y20249D01*
X552512Y20749D02*X553512D01*
X552012Y20249D02*X552512Y20749D01*
Y18749D02*X554012D01*
X488402Y94063D02*Y96063D01*
Y94063D02*X488902Y93563D01*
X489902D01*
X490402Y94063D02*X489902Y93563D01*
X490402Y94063D02*Y95563D01*
X488402D02*X492402D01*
X490402D02*X492402Y93563D01*
X488902Y92363D02*X488402Y91863D01*
Y90863D02*Y91863D01*
Y90863D02*X488902Y90363D01*
X491902D01*
X492402Y90863D02*X491902Y90363D01*
X492402Y90863D02*Y91863D01*
X491902Y92363D02*X492402Y91863D01*
X490402Y90363D02*Y91863D01*
X488902Y89163D02*X488402Y88663D01*
Y87663D02*Y88663D01*
Y87663D02*X488902Y87163D01*
X491902D01*
X492402Y87663D02*X491902Y87163D01*
X492402Y87663D02*Y88663D01*
X491902Y89163D02*X492402Y88663D01*
X490402Y87163D02*Y88663D01*
X488902Y85963D02*X488402Y85463D01*
Y84463D02*Y85463D01*
Y84463D02*X488902Y83963D01*
X491902D01*
X492402Y84463D02*X491902Y83963D01*
X492402Y84463D02*Y85463D01*
X491902Y85963D02*X492402Y85463D01*
X490402Y83963D02*Y85463D01*
X433858Y68323D02*Y71823D01*
X434358Y72323D01*
X435358D01*
X435858Y71823D01*
Y68323D02*Y71823D01*
X437558Y72323D02*X438558D01*
X438058Y68323D02*Y72323D01*
X437058Y69323D02*X438058Y68323D01*
X439758Y71823D02*X440258Y72323D01*
X439758Y68823D02*Y71823D01*
Y68823D02*X440258Y68323D01*
X441258D01*
X441758Y68823D01*
Y71823D01*
X441258Y72323D02*X441758Y71823D01*
X440258Y72323D02*X441258D01*
X439758Y71323D02*X441758Y69323D01*
X442958Y68823D02*X443458Y68323D01*
X444458D01*
X444958Y68823D01*
Y71823D01*
X444458Y72323D02*X444958Y71823D01*
X443458Y72323D02*X444458D01*
X442958Y71823D02*X443458Y72323D01*
Y70323D02*X444958D01*
X284842Y44503D02*X286342D01*
Y48003D01*
X285842Y48503D02*X286342Y48003D01*
X285342Y48503D02*X285842D01*
X284842Y48003D02*X285342Y48503D01*
X287542Y45003D02*X288042Y44503D01*
X289042D01*
X289542Y45003D01*
Y48003D01*
X289042Y48503D02*X289542Y48003D01*
X288042Y48503D02*X289042D01*
X287542Y48003D02*X288042Y48503D01*
Y46503D02*X289542D01*
X290742Y48003D02*X291242Y48503D01*
X290742Y45003D02*Y48003D01*
Y45003D02*X291242Y44503D01*
X292242D01*
X292742Y45003D01*
Y48003D01*
X292242Y48503D02*X292742Y48003D01*
X291242Y48503D02*X292242D01*
X290742Y47503D02*X292742Y45503D01*
X293942Y46503D02*X295942Y44503D01*
X293942Y46503D02*X296442D01*
X295942Y44503D02*Y48503D01*
X355710Y44504D02*X357210D01*
Y48004D01*
X356710Y48504D02*X357210Y48004D01*
X356210Y48504D02*X356710D01*
X355710Y48004D02*X356210Y48504D01*
X358410Y45004D02*X358910Y44504D01*
X359910D01*
X360410Y45004D01*
Y48004D01*
X359910Y48504D02*X360410Y48004D01*
X358910Y48504D02*X359910D01*
X358410Y48004D02*X358910Y48504D01*
Y46504D02*X360410D01*
X361610Y48004D02*X362110Y48504D01*
X361610Y45004D02*Y48004D01*
Y45004D02*X362110Y44504D01*
X363110D01*
X363610Y45004D01*
Y48004D01*
X363110Y48504D02*X363610Y48004D01*
X362110Y48504D02*X363110D01*
X361610Y47504D02*X363610Y45504D01*
X364810Y44504D02*X366810D01*
X364810D02*Y46504D01*
X365310Y46004D01*
X366310D01*
X366810Y46504D01*
Y48004D01*
X366310Y48504D02*X366810Y48004D01*
X365310Y48504D02*X366310D01*
X364810Y48004D02*X365310Y48504D01*
X429741Y270966D02*X430241D01*
X432741Y268466D01*
X433741D01*
X432741Y270966D02*X433741D01*
X432741D02*X430241Y268466D01*
X429741D02*X430241D01*
Y267266D02*X429741Y266766D01*
Y265266D02*Y266766D01*
Y265266D02*X430241Y264766D01*
X431241D01*
X433741Y267266D02*X431241Y264766D01*
X433741D02*Y267266D01*
X433241Y263566D02*X433741Y263066D01*
X430241Y263566D02*X433241D01*
X430241D02*X429741Y263066D01*
Y262066D02*Y263066D01*
Y262066D02*X430241Y261566D01*
X433241D01*
X433741Y262066D02*X433241Y261566D01*
X433741Y262066D02*Y263066D01*
X432741Y263566D02*X430741Y261566D01*
X433741Y258866D02*Y259866D01*
X429741Y259366D02*X433741D01*
X430741Y260366D02*X429741Y259366D01*
X377364Y240371D02*Y244371D01*
X379364D01*
X380564Y240871D02*X381064Y240371D01*
X382064D01*
X382564Y240871D01*
Y243871D01*
X382064Y244371D02*X382564Y243871D01*
X381064Y244371D02*X382064D01*
X380564Y243871D02*X381064Y244371D01*
Y242371D02*X382564D01*
X383764Y243871D02*X384264Y244371D01*
X383764Y240871D02*Y243871D01*
Y240871D02*X384264Y240371D01*
X385264D01*
X385764Y240871D01*
Y243871D01*
X385264Y244371D02*X385764Y243871D01*
X384264Y244371D02*X385264D01*
X383764Y243371D02*X385764Y241371D01*
X386964Y243871D02*X387464Y244371D01*
X386964Y240871D02*Y243871D01*
Y240871D02*X387464Y240371D01*
X388464D01*
X388964Y240871D01*
Y243871D01*
X388464Y244371D02*X388964Y243871D01*
X387464Y244371D02*X388464D01*
X386964Y243371D02*X388964Y241371D01*
X490157Y200212D02*Y204212D01*
Y200212D02*X492157D01*
X490157Y202212D02*X491657D01*
X493357Y200712D02*X493857Y200212D01*
X494857D01*
X495357Y200712D01*
Y203712D01*
X494857Y204212D02*X495357Y203712D01*
X493857Y204212D02*X494857D01*
X493357Y203712D02*X493857Y204212D01*
Y202212D02*X495357D01*
X496557Y203712D02*X497057Y204212D01*
X496557Y200712D02*Y203712D01*
Y200712D02*X497057Y200212D01*
X498057D01*
X498557Y200712D01*
Y203712D01*
X498057Y204212D02*X498557Y203712D01*
X497057Y204212D02*X498057D01*
X496557Y203212D02*X498557Y201212D01*
X499757Y200712D02*X500257Y200212D01*
X501257D01*
X501757Y200712D01*
Y203712D01*
X501257Y204212D02*X501757Y203712D01*
X500257Y204212D02*X501257D01*
X499757Y203712D02*X500257Y204212D01*
Y202212D02*X501757D01*
X457442Y224501D02*X461442D01*
X457442Y223001D02*X457942Y222501D01*
X460942D01*
X461442Y223001D02*X460942Y222501D01*
X461442Y223001D02*Y225001D01*
X457442Y223001D02*Y225001D01*
X457942Y221301D02*X457442Y220801D01*
Y219801D02*Y220801D01*
Y219801D02*X457942Y219301D01*
X460942D01*
X461442Y219801D02*X460942Y219301D01*
X461442Y219801D02*Y220801D01*
X460942Y221301D02*X461442Y220801D01*
X459442Y219301D02*Y220801D01*
X460942Y218101D02*X461442Y217601D01*
X457942Y218101D02*X460942D01*
X457942D02*X457442Y217601D01*
Y216601D02*Y217601D01*
Y216601D02*X457942Y216101D01*
X460942D01*
X461442Y216601D02*X460942Y216101D01*
X461442Y216601D02*Y217601D01*
X460442Y218101D02*X458442Y216101D01*
X457942Y214901D02*X457442Y214401D01*
Y212901D02*Y214401D01*
Y212901D02*X457942Y212401D01*
X458942D01*
X461442Y214901D02*X458942Y212401D01*
X461442D02*Y214901D01*
X608428Y128634D02*X612428D01*
X608428Y127134D02*X608928Y126634D01*
X611928D01*
X612428Y127134D02*X611928Y126634D01*
X612428Y127134D02*Y129134D01*
X608428Y127134D02*Y129134D01*
X608928Y125434D02*X608428Y124934D01*
Y123934D02*Y124934D01*
Y123934D02*X608928Y123434D01*
X611928D01*
X612428Y123934D02*X611928Y123434D01*
X612428Y123934D02*Y124934D01*
X611928Y125434D02*X612428Y124934D01*
X610428Y123434D02*Y124934D01*
X611928Y122234D02*X612428Y121734D01*
X608928Y122234D02*X611928D01*
X608928D02*X608428Y121734D01*
Y120734D02*Y121734D01*
Y120734D02*X608928Y120234D01*
X611928D01*
X612428Y120734D02*X611928Y120234D01*
X612428Y120734D02*Y121734D01*
X611428Y122234D02*X609428Y120234D01*
X610428Y119034D02*X608428Y117034D01*
X610428Y116534D02*Y119034D01*
X608428Y117034D02*X612428D01*
X560117Y150059D02*Y151559D01*
X559617Y152059D02*X560117Y151559D01*
X556617Y152059D02*X559617D01*
X556617D02*X556117Y151559D01*
Y150059D02*Y151559D01*
X556617Y148859D02*X556117Y148359D01*
Y147359D02*Y148359D01*
Y147359D02*X556617Y146859D01*
X559617D01*
X560117Y147359D02*X559617Y146859D01*
X560117Y147359D02*Y148359D01*
X559617Y148859D02*X560117Y148359D01*
X558117Y146859D02*Y148359D01*
X559617Y145659D02*X560117Y145159D01*
X556617Y145659D02*X559617D01*
X556617D02*X556117Y145159D01*
Y144159D02*Y145159D01*
Y144159D02*X556617Y143659D01*
X559617D01*
X560117Y144159D02*X559617Y143659D01*
X560117Y144159D02*Y145159D01*
X559117Y145659D02*X557117Y143659D01*
X558117Y142459D02*X556117Y140459D01*
X558117Y139959D02*Y142459D01*
X556117Y140459D02*X560117D01*
X537795Y147458D02*X539795D01*
X540295Y147958D01*
Y148958D01*
X539795Y149458D02*X540295Y148958D01*
X538295Y149458D02*X539795D01*
X538295Y147458D02*Y151458D01*
Y149458D02*X540295Y151458D01*
X541495Y147958D02*X541995Y147458D01*
X542995D01*
X543495Y147958D01*
Y150958D01*
X542995Y151458D02*X543495Y150958D01*
X541995Y151458D02*X542995D01*
X541495Y150958D02*X541995Y151458D01*
Y149458D02*X543495D01*
X545195Y151458D02*X546195D01*
X545695Y147458D02*Y151458D01*
X544695Y148458D02*X545695Y147458D01*
X548895D02*X549395Y147958D01*
X547895Y147458D02*X548895D01*
X547395Y147958D02*X547895Y147458D01*
X547395Y147958D02*Y150958D01*
X547895Y151458D01*
X548895Y149458D02*X549395Y149958D01*
X547395Y149458D02*X548895D01*
X547895Y151458D02*X548895D01*
X549395Y150958D01*
Y149958D02*Y150958D01*
X556046Y176901D02*Y178901D01*
Y176901D02*X556546Y176401D01*
X557546D01*
X558046Y176901D02*X557546Y176401D01*
X558046Y176901D02*Y178401D01*
X556046D02*X560046D01*
X558046D02*X560046Y176401D01*
X556546Y175201D02*X556046Y174701D01*
Y173701D02*Y174701D01*
Y173701D02*X556546Y173201D01*
X559546D01*
X560046Y173701D02*X559546Y173201D01*
X560046Y173701D02*Y174701D01*
X559546Y175201D02*X560046Y174701D01*
X558046Y173201D02*Y174701D01*
X556546Y172001D02*X556046Y171501D01*
Y170001D02*Y171501D01*
Y170001D02*X556546Y169501D01*
X557546D01*
X560046Y172001D02*X557546Y169501D01*
X560046D02*Y172001D01*
X559546Y168301D02*X560046Y167801D01*
X556546Y168301D02*X559546D01*
X556546D02*X556046Y167801D01*
Y166801D02*Y167801D01*
Y166801D02*X556546Y166301D01*
X559546D01*
X560046Y166801D02*X559546Y166301D01*
X560046Y166801D02*Y167801D01*
X559046Y168301D02*X557046Y166301D01*
X605146Y168603D02*X606646D01*
X604646Y168103D02*X605146Y168603D01*
X604646Y165103D02*Y168103D01*
Y165103D02*X605146Y164603D01*
X606646D01*
X607846Y165103D02*X608346Y164603D01*
X609346D01*
X609846Y165103D01*
Y168103D01*
X609346Y168603D02*X609846Y168103D01*
X608346Y168603D02*X609346D01*
X607846Y168103D02*X608346Y168603D01*
Y166603D02*X609846D01*
X611046Y165103D02*X611546Y164603D01*
X613046D01*
X613546Y165103D01*
Y166103D01*
X611046Y168603D02*X613546Y166103D01*
X611046Y168603D02*X613546D01*
X615246D02*X616246D01*
X615746Y164603D02*Y168603D01*
X614746Y165603D02*X615746Y164603D01*
X550605Y247633D02*Y249133D01*
Y247633D02*X554105D01*
X554605Y248133D02*X554105Y247633D01*
X554605Y248133D02*Y248633D01*
X554105Y249133D02*X554605Y248633D01*
X551105Y246433D02*X550605Y245933D01*
Y244933D02*Y245933D01*
Y244933D02*X551105Y244433D01*
X554105D01*
X554605Y244933D02*X554105Y244433D01*
X554605Y244933D02*Y245933D01*
X554105Y246433D02*X554605Y245933D01*
X552605Y244433D02*Y245933D01*
X554105Y243233D02*X554605Y242733D01*
X551105Y243233D02*X554105D01*
X551105D02*X550605Y242733D01*
Y241733D02*Y242733D01*
Y241733D02*X551105Y241233D01*
X554105D01*
X554605Y241733D02*X554105Y241233D01*
X554605Y241733D02*Y242733D01*
X553605Y243233D02*X551605Y241233D01*
X550605Y238533D02*X551105Y238033D01*
X550605Y238533D02*Y239533D01*
X551105Y240033D02*X550605Y239533D01*
X551105Y240033D02*X554105D01*
X554605Y239533D01*
X552605Y238533D02*X553105Y238033D01*
X552605Y238533D02*Y240033D01*
X554605Y238533D02*Y239533D01*
Y238533D02*X554105Y238033D01*
X553105D02*X554105D01*
X571891Y207302D02*Y211302D01*
Y207302D02*X573891D01*
X571891Y209302D02*X573391D01*
X575091Y207802D02*X575591Y207302D01*
X576591D01*
X577091Y207802D01*
Y210802D01*
X576591Y211302D02*X577091Y210802D01*
X575591Y211302D02*X576591D01*
X575091Y210802D02*X575591Y211302D01*
Y209302D02*X577091D01*
X578291Y210802D02*X578791Y211302D01*
X578291Y207802D02*Y210802D01*
Y207802D02*X578791Y207302D01*
X579791D01*
X580291Y207802D01*
Y210802D01*
X579791Y211302D02*X580291Y210802D01*
X578791Y211302D02*X579791D01*
X578291Y210302D02*X580291Y208302D01*
X581491Y209302D02*X583491Y207302D01*
X581491Y209302D02*X583991D01*
X583491Y207302D02*Y211302D01*
X456181Y199378D02*Y200878D01*
X455681Y201378D02*X456181Y200878D01*
X452681Y201378D02*X455681D01*
X452681D02*X452181Y200878D01*
Y199378D02*Y200878D01*
X452681Y198178D02*X452181Y197678D01*
Y196678D02*Y197678D01*
Y196678D02*X452681Y196178D01*
X455681D01*
X456181Y196678D02*X455681Y196178D01*
X456181Y196678D02*Y197678D01*
X455681Y198178D02*X456181Y197678D01*
X454181Y196178D02*Y197678D01*
X455681Y194978D02*X456181Y194478D01*
X452681Y194978D02*X455681D01*
X452681D02*X452181Y194478D01*
Y193478D02*Y194478D01*
Y193478D02*X452681Y192978D01*
X455681D01*
X456181Y193478D02*X455681Y192978D01*
X456181Y193478D02*Y194478D01*
X455181Y194978D02*X453181Y192978D01*
X452181Y190278D02*X452681Y189778D01*
X452181Y190278D02*Y191278D01*
X452681Y191778D02*X452181Y191278D01*
X452681Y191778D02*X455681D01*
X456181Y191278D01*
X454181Y190278D02*X454681Y189778D01*
X454181Y190278D02*Y191778D01*
X456181Y190278D02*Y191278D01*
Y190278D02*X455681Y189778D01*
X454681D02*X455681D01*
X376346Y191752D02*Y195252D01*
X376846Y195752D01*
X377846D01*
X378346Y195252D01*
Y191752D02*Y195252D01*
X379546Y192252D02*X380046Y191752D01*
X381046D01*
X381546Y192252D01*
Y195252D01*
X381046Y195752D02*X381546Y195252D01*
X380046Y195752D02*X381046D01*
X379546Y195252D02*X380046Y195752D01*
Y193752D02*X381546D01*
X382746Y195252D02*X383246Y195752D01*
X382746Y192252D02*Y195252D01*
Y192252D02*X383246Y191752D01*
X384246D01*
X384746Y192252D01*
Y195252D01*
X384246Y195752D02*X384746Y195252D01*
X383246Y195752D02*X384246D01*
X382746Y194752D02*X384746Y192752D01*
X385946Y192252D02*X386446Y191752D01*
X387946D01*
X388446Y192252D01*
Y193252D01*
X385946Y195752D02*X388446Y193252D01*
X385946Y195752D02*X388446D01*
X428496Y207263D02*X431496D01*
X428496D02*X427996Y206763D01*
Y205763D02*Y206763D01*
Y205763D02*X428496Y205263D01*
X431496D01*
X431996Y205763D02*X431496Y205263D01*
X431996Y205763D02*Y206763D01*
X431496Y207263D02*X431996Y206763D01*
X430996Y206263D02*X431996Y205263D01*
X428496Y204063D02*X427996Y203563D01*
Y202563D02*Y203563D01*
Y202563D02*X428496Y202063D01*
X431496D01*
X431996Y202563D02*X431496Y202063D01*
X431996Y202563D02*Y203563D01*
X431496Y204063D02*X431996Y203563D01*
X429996Y202063D02*Y203563D01*
X431496Y200863D02*X431996Y200363D01*
X428496Y200863D02*X431496D01*
X428496D02*X427996Y200363D01*
Y199363D02*Y200363D01*
Y199363D02*X428496Y198863D01*
X431496D01*
X431996Y199363D02*X431496Y198863D01*
X431996Y199363D02*Y200363D01*
X430996Y200863D02*X428996Y198863D01*
X431996Y197663D02*X429496Y195163D01*
X427996D02*X429496D01*
X427996D02*Y197663D01*
X490158Y166354D02*Y170354D01*
Y166354D02*X492158D01*
X490158Y168354D02*X491658D01*
X493358Y166854D02*X493858Y166354D01*
X494858D01*
X495358Y166854D01*
Y169854D01*
X494858Y170354D02*X495358Y169854D01*
X493858Y170354D02*X494858D01*
X493358Y169854D02*X493858Y170354D01*
Y168354D02*X495358D01*
X496558Y169854D02*X497058Y170354D01*
X496558Y166854D02*Y169854D01*
Y166854D02*X497058Y166354D01*
X498058D01*
X498558Y166854D01*
Y169854D01*
X498058Y170354D02*X498558Y169854D01*
X497058Y170354D02*X498058D01*
X496558Y169354D02*X498558Y167354D01*
X499758Y166854D02*X500258Y166354D01*
X501758D01*
X502258Y166854D01*
Y167854D01*
X499758Y170354D02*X502258Y167854D01*
X499758Y170354D02*X502258D01*
X394354Y123111D02*Y127111D01*
X395854Y123111D02*X396354Y123611D01*
Y126611D01*
X395854Y127111D02*X396354Y126611D01*
X393854Y127111D02*X395854D01*
X393854Y123111D02*X395854D01*
X397554Y123611D02*X398054Y123111D01*
X399054D01*
X399554Y123611D01*
Y126611D01*
X399054Y127111D02*X399554Y126611D01*
X398054Y127111D02*X399054D01*
X397554Y126611D02*X398054Y127111D01*
Y125111D02*X399554D01*
X400754Y126611D02*X401254Y127111D01*
X400754Y123611D02*Y126611D01*
Y123611D02*X401254Y123111D01*
X402254D01*
X402754Y123611D01*
Y126611D01*
X402254Y127111D02*X402754Y126611D01*
X401254Y127111D02*X402254D01*
X400754Y126111D02*X402754Y124111D01*
X403954Y123111D02*X405954D01*
X403954D02*Y125111D01*
X404454Y124611D01*
X405454D01*
X405954Y125111D01*
Y126611D01*
X405454Y127111D02*X405954Y126611D01*
X404454Y127111D02*X405454D01*
X403954Y126611D02*X404454Y127111D01*
X454492Y159880D02*X457492D01*
X454492D02*X453992Y159380D01*
Y158380D02*Y159380D01*
Y158380D02*X454492Y157880D01*
X457492D01*
X457992Y158380D02*X457492Y157880D01*
X457992Y158380D02*Y159380D01*
X457492Y159880D02*X457992Y159380D01*
X456992Y158880D02*X457992Y157880D01*
X454492Y156680D02*X453992Y156180D01*
Y155180D02*Y156180D01*
Y155180D02*X454492Y154680D01*
X457492D01*
X457992Y155180D02*X457492Y154680D01*
X457992Y155180D02*Y156180D01*
X457492Y156680D02*X457992Y156180D01*
X455992Y154680D02*Y156180D01*
X457492Y153480D02*X457992Y152980D01*
X454492Y153480D02*X457492D01*
X454492D02*X453992Y152980D01*
Y151980D02*Y152980D01*
Y151980D02*X454492Y151480D01*
X457492D01*
X457992Y151980D02*X457492Y151480D01*
X457992Y151980D02*Y152980D01*
X456992Y153480D02*X454992Y151480D01*
X453992Y148780D02*X454492Y148280D01*
X453992Y148780D02*Y149780D01*
X454492Y150280D02*X453992Y149780D01*
X454492Y150280D02*X457492D01*
X457992Y149780D01*
X455992Y148780D02*X456492Y148280D01*
X455992Y148780D02*Y150280D01*
X457992Y148780D02*Y149780D01*
Y148780D02*X457492Y148280D01*
X456492D02*X457492D01*
X456182Y181465D02*Y182965D01*
X455682Y183465D02*X456182Y182965D01*
X452682Y183465D02*X455682D01*
X452682D02*X452182Y182965D01*
Y181465D02*Y182965D01*
X452682Y180265D02*X452182Y179765D01*
Y178765D02*Y179765D01*
Y178765D02*X452682Y178265D01*
X455682D01*
X456182Y178765D02*X455682Y178265D01*
X456182Y178765D02*Y179765D01*
X455682Y180265D02*X456182Y179765D01*
X454182Y178265D02*Y179765D01*
X455682Y177065D02*X456182Y176565D01*
X452682Y177065D02*X455682D01*
X452682D02*X452182Y176565D01*
Y175565D02*Y176565D01*
Y175565D02*X452682Y175065D01*
X455682D01*
X456182Y175565D02*X455682Y175065D01*
X456182Y175565D02*Y176565D01*
X455182Y177065D02*X453182Y175065D01*
X456182Y173865D02*X453682Y171365D01*
X452182D02*X453682D01*
X452182D02*Y173865D01*
X426457Y178673D02*Y180173D01*
X425957Y180673D02*X426457Y180173D01*
X422957Y180673D02*X425957D01*
X422957D02*X422457Y180173D01*
Y178673D02*Y180173D01*
X422957Y177473D02*X422457Y176973D01*
Y175973D02*Y176973D01*
Y175973D02*X422957Y175473D01*
X425957D01*
X426457Y175973D02*X425957Y175473D01*
X426457Y175973D02*Y176973D01*
X425957Y177473D02*X426457Y176973D01*
X424457Y175473D02*Y176973D01*
X425957Y174273D02*X426457Y173773D01*
X422957Y174273D02*X425957D01*
X422957D02*X422457Y173773D01*
Y172773D02*Y173773D01*
Y172773D02*X422957Y172273D01*
X425957D01*
X426457Y172773D02*X425957Y172273D01*
X426457Y172773D02*Y173773D01*
X425457Y174273D02*X423457Y172273D01*
X425957Y171073D02*X426457Y170573D01*
X424957Y171073D02*X425957D01*
X424957D02*X424457Y170573D01*
Y169573D02*Y170573D01*
Y169573D02*X424957Y169073D01*
X425957D01*
X426457Y169573D02*X425957Y169073D01*
X426457Y169573D02*Y170573D01*
X423957Y171073D02*X424457Y170573D01*
X422957Y171073D02*X423957D01*
X422957D02*X422457Y170573D01*
Y169573D02*Y170573D01*
Y169573D02*X422957Y169073D01*
X423957D01*
X424457Y169573D02*X423957Y169073D01*
X395041Y167045D02*Y170045D01*
Y167045D02*X395541Y166545D01*
X396541D01*
X397041Y167045D01*
Y170045D01*
X396541Y170545D02*X397041Y170045D01*
X395541Y170545D02*X396541D01*
X395041Y170045D02*X395541Y170545D01*
X396041Y169545D02*X397041Y170545D01*
X398241Y167045D02*X398741Y166545D01*
X399741D01*
X400241Y167045D01*
Y170045D01*
X399741Y170545D02*X400241Y170045D01*
X398741Y170545D02*X399741D01*
X398241Y170045D02*X398741Y170545D01*
Y168545D02*X400241D01*
X401441Y170045D02*X401941Y170545D01*
X401441Y167045D02*Y170045D01*
Y167045D02*X401941Y166545D01*
X402941D01*
X403441Y167045D01*
Y170045D01*
X402941Y170545D02*X403441Y170045D01*
X401941Y170545D02*X402941D01*
X401441Y169545D02*X403441Y167545D01*
X404641Y166545D02*X406641D01*
X404641D02*Y168545D01*
X405141Y168045D01*
X406141D01*
X406641Y168545D01*
Y170045D01*
X406141Y170545D02*X406641Y170045D01*
X405141Y170545D02*X406141D01*
X404641Y170045D02*X405141Y170545D01*
X382298Y167292D02*Y169292D01*
Y167292D02*X382798Y166792D01*
X383798D01*
X384298Y167292D02*X383798Y166792D01*
X384298Y167292D02*Y168792D01*
X382298D02*X386298D01*
X384298D02*X386298Y166792D01*
X382798Y165592D02*X382298Y165092D01*
Y164092D02*Y165092D01*
Y164092D02*X382798Y163592D01*
X385798D01*
X386298Y164092D02*X385798Y163592D01*
X386298Y164092D02*Y165092D01*
X385798Y165592D02*X386298Y165092D01*
X384298Y163592D02*Y165092D01*
X382798Y162392D02*X382298Y161892D01*
Y160392D02*Y161892D01*
Y160392D02*X382798Y159892D01*
X383798D01*
X386298Y162392D02*X383798Y159892D01*
X386298D02*Y162392D01*
X384298Y158692D02*X382298Y156692D01*
X384298Y156192D02*Y158692D01*
X382298Y156692D02*X386298D01*
X410118Y195602D02*Y197102D01*
X409618Y197602D02*X410118Y197102D01*
X406618Y197602D02*X409618D01*
X406618D02*X406118Y197102D01*
Y195602D02*Y197102D01*
X406618Y194402D02*X406118Y193902D01*
Y192902D02*Y193902D01*
Y192902D02*X406618Y192402D01*
X409618D01*
X410118Y192902D02*X409618Y192402D01*
X410118Y192902D02*Y193902D01*
X409618Y194402D02*X410118Y193902D01*
X408118Y192402D02*Y193902D01*
X410118Y189702D02*Y190702D01*
X406118Y190202D02*X410118D01*
X407118Y191202D02*X406118Y190202D01*
X410118Y188502D02*X407618Y186002D01*
X406118D02*X407618D01*
X406118D02*Y188502D01*
X414779Y178870D02*Y180870D01*
Y178870D02*X415279Y178370D01*
X416279D01*
X416779Y178870D02*X416279Y178370D01*
X416779Y178870D02*Y180370D01*
X414779D02*X418779D01*
X416779D02*X418779Y178370D01*
X415279Y177170D02*X414779Y176670D01*
Y175670D02*Y176670D01*
Y175670D02*X415279Y175170D01*
X418279D01*
X418779Y175670D02*X418279Y175170D01*
X418779Y175670D02*Y176670D01*
X418279Y177170D02*X418779Y176670D01*
X416779Y175170D02*Y176670D01*
X415279Y173970D02*X414779Y173470D01*
Y171970D02*Y173470D01*
Y171970D02*X415279Y171470D01*
X416279D01*
X418779Y173970D02*X416279Y171470D01*
X418779D02*Y173970D01*
X414779Y168270D02*Y170270D01*
X416779D01*
X416279Y169770D01*
Y168770D02*Y169770D01*
Y168770D02*X416779Y168270D01*
X418279D01*
X418779Y168770D02*X418279Y168270D01*
X418779Y168770D02*Y169770D01*
X418279Y170270D02*X418779Y169770D01*
X78781Y182915D02*X80281D01*
Y186415D01*
X79781Y186915D02*X80281Y186415D01*
X79281Y186915D02*X79781D01*
X78781Y186415D02*X79281Y186915D01*
X81481Y183415D02*X81981Y182915D01*
X83481D01*
X83981Y183415D01*
Y184415D01*
X81481Y186915D02*X83981Y184415D01*
X81481Y186915D02*X83981D01*
X85181Y186415D02*X85681Y186915D01*
X85181Y183415D02*Y186415D01*
Y183415D02*X85681Y182915D01*
X86681D01*
X87181Y183415D01*
Y186415D01*
X86681Y186915D02*X87181Y186415D01*
X85681Y186915D02*X86681D01*
X85181Y185915D02*X87181Y183915D01*
X88381Y184915D02*X90381Y182915D01*
X88381Y184915D02*X90881D01*
X90381Y182915D02*Y186915D01*
X22897Y243781D02*Y247781D01*
X24397Y243781D02*X24897Y244281D01*
Y247281D01*
X24397Y247781D02*X24897Y247281D01*
X22397Y247781D02*X24397D01*
X22397Y243781D02*X24397D01*
X26097Y244281D02*X26597Y243781D01*
X27597D01*
X28097Y244281D01*
Y247281D01*
X27597Y247781D02*X28097Y247281D01*
X26597Y247781D02*X27597D01*
X26097Y247281D02*X26597Y247781D01*
Y245781D02*X28097D01*
X29297Y247281D02*X29797Y247781D01*
X29297Y244281D02*Y247281D01*
Y244281D02*X29797Y243781D01*
X30797D01*
X31297Y244281D01*
Y247281D01*
X30797Y247781D02*X31297Y247281D01*
X29797Y247781D02*X30797D01*
X29297Y246781D02*X31297Y244781D01*
X32997Y247781D02*X33997D01*
X33497Y243781D02*Y247781D01*
X32497Y244781D02*X33497Y243781D01*
X69938Y182199D02*Y183699D01*
Y182199D02*X73438D01*
X73938Y182699D02*X73438Y182199D01*
X73938Y182699D02*Y183199D01*
X73438Y183699D02*X73938Y183199D01*
X70438Y180999D02*X69938Y180499D01*
Y178999D02*Y180499D01*
Y178999D02*X70438Y178499D01*
X71438D01*
X73938Y180999D02*X71438Y178499D01*
X73938D02*Y180999D01*
X73438Y177299D02*X73938Y176799D01*
X70438Y177299D02*X73438D01*
X70438D02*X69938Y176799D01*
Y175799D02*Y176799D01*
Y175799D02*X70438Y175299D01*
X73438D01*
X73938Y175799D02*X73438Y175299D01*
X73938Y175799D02*Y176799D01*
X72938Y177299D02*X70938Y175299D01*
X73438Y174099D02*X73938Y173599D01*
X70438Y174099D02*X73438D01*
X70438D02*X69938Y173599D01*
Y172599D02*Y173599D01*
Y172599D02*X70438Y172099D01*
X73438D01*
X73938Y172599D02*X73438Y172099D01*
X73938Y172599D02*Y173599D01*
X72938Y174099D02*X70938Y172099D01*
X69979Y105427D02*Y106927D01*
Y105427D02*X73479D01*
X73979Y105927D02*X73479Y105427D01*
X73979Y105927D02*Y106427D01*
X73479Y106927D02*X73979Y106427D01*
X70479Y104227D02*X69979Y103727D01*
Y102227D02*Y103727D01*
Y102227D02*X70479Y101727D01*
X71479D01*
X73979Y104227D02*X71479Y101727D01*
X73979D02*Y104227D01*
X73479Y100527D02*X73979Y100027D01*
X70479Y100527D02*X73479D01*
X70479D02*X69979Y100027D01*
Y99027D02*Y100027D01*
Y99027D02*X70479Y98527D01*
X73479D01*
X73979Y99027D02*X73479Y98527D01*
X73979Y99027D02*Y100027D01*
X72979Y100527D02*X70979Y98527D01*
X73979Y95827D02*Y96827D01*
X69979Y96327D02*X73979D01*
X70979Y97327D02*X69979Y96327D01*
X19816Y68621D02*Y72621D01*
X21316Y68621D02*X21816Y69121D01*
Y72121D01*
X21316Y72621D02*X21816Y72121D01*
X19316Y72621D02*X21316D01*
X19316Y68621D02*X21316D01*
X23016Y69121D02*X23516Y68621D01*
X24516D01*
X25016Y69121D01*
Y72121D01*
X24516Y72621D02*X25016Y72121D01*
X23516Y72621D02*X24516D01*
X23016Y72121D02*X23516Y72621D01*
Y70621D02*X25016D01*
X26216Y72121D02*X26716Y72621D01*
X26216Y69121D02*Y72121D01*
Y69121D02*X26716Y68621D01*
X27716D01*
X28216Y69121D01*
Y72121D01*
X27716Y72621D02*X28216Y72121D01*
X26716Y72621D02*X27716D01*
X26216Y71621D02*X28216Y69621D01*
X29416Y69121D02*X29916Y68621D01*
X30916D01*
X31416Y69121D01*
Y72121D01*
X30916Y72621D02*X31416Y72121D01*
X29916Y72621D02*X30916D01*
X29416Y72121D02*X29916Y72621D01*
Y70621D02*X31416D01*
X213975Y44503D02*X215475D01*
Y48003D01*
X214975Y48503D02*X215475Y48003D01*
X214475Y48503D02*X214975D01*
X213975Y48003D02*X214475Y48503D01*
X216675Y45003D02*X217175Y44503D01*
X218175D01*
X218675Y45003D01*
Y48003D01*
X218175Y48503D02*X218675Y48003D01*
X217175Y48503D02*X218175D01*
X216675Y48003D02*X217175Y48503D01*
Y46503D02*X218675D01*
X219875Y48003D02*X220375Y48503D01*
X219875Y45003D02*Y48003D01*
Y45003D02*X220375Y44503D01*
X221375D01*
X221875Y45003D01*
Y48003D01*
X221375Y48503D02*X221875Y48003D01*
X220375Y48503D02*X221375D01*
X219875Y47503D02*X221875Y45503D01*
X223075Y45003D02*X223575Y44503D01*
X225075D01*
X225575Y45003D01*
Y46003D01*
X223075Y48503D02*X225575Y46003D01*
X223075Y48503D02*X225575D01*
X238849Y221142D02*X240349D01*
X238349Y220642D02*X238849Y221142D01*
X238349Y217642D02*Y220642D01*
Y217642D02*X238849Y217142D01*
X240349D01*
X242049Y221142D02*X243049D01*
X242549Y217142D02*Y221142D01*
X241549Y218142D02*X242549Y217142D01*
X244249Y220642D02*X244749Y221142D01*
X244249Y217642D02*Y220642D01*
Y217642D02*X244749Y217142D01*
X245749D01*
X246249Y217642D01*
Y220642D01*
X245749Y221142D02*X246249Y220642D01*
X244749Y221142D02*X245749D01*
X244249Y220142D02*X246249Y218142D01*
X247449Y221142D02*X249449Y219142D01*
Y217642D02*Y219142D01*
X248949Y217142D02*X249449Y217642D01*
X247949Y217142D02*X248949D01*
X247449Y217642D02*X247949Y217142D01*
X247449Y217642D02*Y218642D01*
X247949Y219142D01*
X249449D01*
X210119Y186420D02*Y187920D01*
X209619Y188420D02*X210119Y187920D01*
X206619Y188420D02*X209619D01*
X206619D02*X206119Y187920D01*
Y186420D02*Y187920D01*
X210119Y183720D02*Y184720D01*
X206119Y184220D02*X210119D01*
X207119Y185220D02*X206119Y184220D01*
X210119Y181020D02*Y182020D01*
X206119Y181520D02*X210119D01*
X207119Y182520D02*X206119Y181520D01*
X210119Y178320D02*Y179320D01*
X206119Y178820D02*X210119D01*
X207119Y179820D02*X206119Y178820D01*
X143108Y44503D02*X144608D01*
Y48003D01*
X144108Y48503D02*X144608Y48003D01*
X143608Y48503D02*X144108D01*
X143108Y48003D02*X143608Y48503D01*
X145808Y45003D02*X146308Y44503D01*
X147308D01*
X147808Y45003D01*
Y48003D01*
X147308Y48503D02*X147808Y48003D01*
X146308Y48503D02*X147308D01*
X145808Y48003D02*X146308Y48503D01*
Y46503D02*X147808D01*
X149008Y48003D02*X149508Y48503D01*
X149008Y45003D02*Y48003D01*
Y45003D02*X149508Y44503D01*
X150508D01*
X151008Y45003D01*
Y48003D01*
X150508Y48503D02*X151008Y48003D01*
X149508Y48503D02*X150508D01*
X149008Y47503D02*X151008Y45503D01*
X152208Y48003D02*X152708Y48503D01*
X152208Y45003D02*Y48003D01*
Y45003D02*X152708Y44503D01*
X153708D01*
X154208Y45003D01*
Y48003D01*
X153708Y48503D02*X154208Y48003D01*
X152708Y48503D02*X153708D01*
X152208Y47503D02*X154208Y45503D01*
X99446Y62141D02*X100946D01*
Y65641D01*
X100446Y66141D02*X100946Y65641D01*
X99946Y66141D02*X100446D01*
X99446Y65641D02*X99946Y66141D01*
X102146Y62641D02*X102646Y62141D01*
X104146D01*
X104646Y62641D01*
Y63641D01*
X102146Y66141D02*X104646Y63641D01*
X102146Y66141D02*X104646D01*
X105846Y65641D02*X106346Y66141D01*
X105846Y62641D02*Y65641D01*
Y62641D02*X106346Y62141D01*
X107346D01*
X107846Y62641D01*
Y65641D01*
X107346Y66141D02*X107846Y65641D01*
X106346Y66141D02*X107346D01*
X105846Y65141D02*X107846Y63141D01*
X109046Y62641D02*X109546Y62141D01*
X111046D01*
X111546Y62641D01*
Y63641D01*
X109046Y66141D02*X111546Y63641D01*
X109046Y66141D02*X111546D01*
X88601Y33677D02*X90101D01*
Y37177D01*
X89601Y37677D02*X90101Y37177D01*
X89101Y37677D02*X89601D01*
X88601Y37177D02*X89101Y37677D01*
X91301Y34177D02*X91801Y33677D01*
X93301D01*
X93801Y34177D01*
Y35177D01*
X91301Y37677D02*X93801Y35177D01*
X91301Y37677D02*X93801D01*
X95001Y37177D02*X95501Y37677D01*
X95001Y34177D02*Y37177D01*
Y34177D02*X95501Y33677D01*
X96501D01*
X97001Y34177D01*
Y37177D01*
X96501Y37677D02*X97001Y37177D01*
X95501Y37677D02*X96501D01*
X95001Y36677D02*X97001Y34677D01*
X98201Y34177D02*X98701Y33677D01*
X99701D01*
X100201Y34177D01*
Y37177D01*
X99701Y37677D02*X100201Y37177D01*
X98701Y37677D02*X99701D01*
X98201Y37177D02*X98701Y37677D01*
Y35677D02*X100201D01*
X16537Y291158D02*X18037D01*
Y294658D01*
X17537Y295158D02*X18037Y294658D01*
X17037Y295158D02*X17537D01*
X16537Y294658D02*X17037Y295158D01*
X19237Y291658D02*X19737Y291158D01*
X21237D01*
X21737Y291658D01*
Y292658D01*
X19237Y295158D02*X21737Y292658D01*
X19237Y295158D02*X21737D01*
X22937Y294658D02*X23437Y295158D01*
X22937Y291658D02*Y294658D01*
Y291658D02*X23437Y291158D01*
X24437D01*
X24937Y291658D01*
Y294658D01*
X24437Y295158D02*X24937Y294658D01*
X23437Y295158D02*X24437D01*
X22937Y294158D02*X24937Y292158D01*
X26137Y291158D02*X28137D01*
X26137D02*Y293158D01*
X26637Y292658D01*
X27637D01*
X28137Y293158D01*
Y294658D01*
X27637Y295158D02*X28137Y294658D01*
X26637Y295158D02*X27637D01*
X26137Y294658D02*X26637Y295158D01*
X50893Y277047D02*X52393D01*
X50393Y276547D02*X50893Y277047D01*
X50393Y273547D02*Y276547D01*
Y273547D02*X50893Y273047D01*
X52393D01*
X53593Y273547D02*X54093Y273047D01*
X55593D01*
X56093Y273547D01*
Y274547D01*
X53593Y277047D02*X56093Y274547D01*
X53593Y277047D02*X56093D01*
X57793D02*X58793D01*
X58293Y273047D02*Y277047D01*
X57293Y274047D02*X58293Y273047D01*
X59993Y276547D02*X60493Y277047D01*
X59993Y275547D02*Y276547D01*
Y275547D02*X60493Y275047D01*
X61493D01*
X61993Y275547D01*
Y276547D01*
X61493Y277047D02*X61993Y276547D01*
X60493Y277047D02*X61493D01*
X59993Y274547D02*X60493Y275047D01*
X59993Y273547D02*Y274547D01*
Y273547D02*X60493Y273047D01*
X61493D01*
X61993Y273547D01*
Y274547D01*
X61493Y275047D02*X61993Y274547D01*
M02*
