M48
METRIC,000.000
T140C0.500
T139C0.508
T138C0.920
T137C2.500
T136C0.762
T135C1.700
T134C1.200
T133C0.660
T132C1.524
T131C2.700
T130C1.520
T129C2.300
T128C0.965
T127C0.889
T126C1.000
T125C1.016
%
T140
X035600Y073900
X059600Y033800
X063500Y037900
X065000Y031600
X065800Y039600
X068000Y033500
X068200Y030600
X069300Y029500
X069400Y032600
X069500Y037100
X070500Y031600
X070700Y039000
X071400Y030600
X071900Y041500
X073600Y035200
X074400Y028000
X075600Y040600
X078500Y039800
X081500Y034100
X083100Y035500
X083100Y034400
X084000Y032000
X087600Y030600
X088300Y029100
X089300Y031800
X091500Y038800
X092400Y038000
X093300Y037100
X094200Y036200
X094600Y032300
X094900Y030900
X095100Y035200
X095900Y030200
X096000Y034300
X096900Y033400
X097800Y032300
X099800Y026300
T139
X005400Y022500
X005500Y036400
X006300Y069700
X006300Y066700
X006400Y086200
X006400Y083300
X006400Y076100
X007800Y023600
X008500Y085600
X008500Y017000
X008600Y072800
X008700Y061900
X009600Y069700
X009600Y066700
X010000Y082100
X011200Y061400
X011400Y042200
X011600Y036300
X012000Y009500
X012400Y004000
X013200Y063200
X013500Y056800
X013800Y091500
X014800Y015000
X014900Y011500
X015200Y004000
X015300Y088100
X016000Y061400
X016300Y042200
X017100Y091500
X018100Y059300
X018200Y004000
X019200Y035200
X020100Y043200
X020300Y091500
X020600Y016400
X020800Y020300
X021300Y009600
X021300Y006800
X021300Y004000
X021700Y081100
X022100Y028900
X022100Y024500
X022200Y033500
X022200Y032100
X022400Y046700
X023200Y050500
X023600Y091500
X023600Y016400
X023800Y013400
X023900Y078000
X023900Y075800
X023900Y073600
X023900Y027000
X023900Y023600
X023900Y020300
X024300Y004000
X024900Y055200
X024900Y052100
X024900Y049200
X025500Y044100
X025800Y014400
X026900Y091500
X027000Y025200
X027100Y004000
X027400Y020300
X027900Y015200
X028900Y022200
X030100Y091500
X030100Y004000
X030300Y067600
X030300Y020300
X030400Y074000
X030500Y041500
X030800Y009900
X031500Y015800
X032100Y022200
X032200Y069000
X032800Y025100
X033000Y004000
X033200Y072100
X033900Y091500
X034200Y018200
X034200Y015800
X034400Y063800
X035100Y067600
X037100Y078600
X037100Y026600
X037100Y022100
X037100Y019900
X037200Y071900
X038200Y036000
X039200Y039300
X039500Y032500
X039800Y026800
X040000Y018000
X040000Y016100
X040000Y014200
X040100Y051000
X040100Y047400
X040100Y044100
X040200Y034000
X040400Y072800
X041700Y036600
X042800Y081500
X042800Y076200
X043400Y047400
X043400Y044000
X043400Y040800
X043900Y034500
X043900Y022100
X043900Y019900
X044800Y087800
X044800Y080100
X045300Y072100
X045500Y033800
X045800Y027500
X046200Y087800
X046200Y079100
X047200Y019900
X047300Y094400
X048200Y091900
X048200Y044700
X048200Y043100
X048300Y088500
X048300Y080100
X048600Y070400
X049100Y032500
X049600Y088500
X049600Y077700
X050500Y094400
X050700Y089500
X050900Y019900
X051500Y022300
X051600Y040800
X052600Y076700
X052600Y035700
X053600Y067600
X053800Y043200
X053900Y027500
X054000Y034300
X054900Y044400
X055900Y045400
X056000Y036800
X056000Y018600
X056900Y055400
X057100Y040000
X057700Y047200
X058100Y092300
X058700Y035000
X058700Y048300
X059200Y042100
X059800Y049300
X060400Y079700
X061000Y043900
X061200Y072300
X062600Y021500
X063000Y052500
X063100Y046000
X063300Y073500
X063400Y092300
X063400Y060100
X064100Y053600
X064400Y047900
X065100Y054600
X065300Y069600
X065300Y068400
X066300Y049200
X066900Y056400
X067300Y081800
X067900Y066200
X067900Y057500
X068400Y051400
X068600Y043700
X068900Y090400
X069000Y058500
X069300Y021500
X069800Y080900
X070200Y053100
X070800Y071900
X071000Y080900
X071000Y069600
X071000Y066200
X071500Y061600
X072300Y055300
X072700Y090100
X073200Y072900
X073800Y049200
X074100Y066200
X075200Y020100
X075400Y061000
X075400Y059700
X075900Y013600
X076100Y083200
X076100Y087700
X077000Y063100
X077000Y046600
X077400Y087700
X077400Y081500
X077500Y035700
X078600Y087700
X078600Y080700
X079000Y018600
X079600Y057000
X079800Y077300
X080100Y043600
X080200Y073100
X081000Y067800
X081300Y072800
X082100Y079500
X082100Y075100
X082400Y073100
X082600Y060500
X082600Y022600
X082900Y055950
X083000Y062300
X083300Y058700
X084200Y068900
X084200Y067700
X084300Y020500
X084400Y077300
X084700Y071000
X084800Y034400
X084900Y078800
X085100Y064400
X085400Y068300
X085400Y058700
X085500Y019100
X086950Y051850
X087000Y058500
X087100Y057150
X087500Y019100
X087600Y070500
X087800Y089400
X087900Y082400
X088100Y073100
X088300Y078800
X088500Y065800
X088600Y051850
X088700Y077000
X089200Y071400
X089200Y069300
X089400Y080800
X090100Y040500
X090700Y065000
X091450Y047150
X091650Y060450
X092100Y069200
X092600Y073100
X092700Y089400
X093400Y069200
X093600Y072200
X093600Y071000
X094500Y061800
X094500Y045450
X094800Y052000
X095500Y076200
X096400Y056400
X096400Y054600
X096400Y052900
X096400Y051100
X096700Y070700
X097800Y065700
X098200Y094100
X098200Y085700
X098200Y082100
X099000Y065700
X099400Y044550
X100400Y042800
X101300Y074900
X101300Y073600
X101300Y072300
X101300Y057600
X101300Y055900
X101300Y054200
X102500Y074900
X102700Y042800
X103300Y058700
X103300Y052600
X103900Y043950
X105200Y070800
X105300Y057600
X105300Y055900
X105300Y054200
X105600Y019400
X105800Y026800
X106300Y042800
X106600Y025900
X107400Y029200
X107400Y025000
X108300Y028300
X108550Y041650
X108650Y035800
X108900Y019400
X109100Y027500
X109500Y070600
X109900Y035000
X110100Y073900
X110500Y058700
X110500Y052600
X111300Y070700
X111900Y019400
X112500Y021400
X113500Y060600
X113500Y058200
X113500Y053500
X113500Y052200
X113900Y047600
X114200Y095800
X114800Y023400
X116100Y019200
X116400Y072700
X116400Y058800
X116400Y056100
X116400Y053500
X116400Y050800
X116400Y047700
X116400Y045000
X116500Y027000
X116800Y095800
X116800Y093400
X117900Y042000
X118500Y037500
X119000Y018700
X119400Y095800
X119400Y093400
X119400Y091100
X119400Y054700
X119700Y017200
X120900Y056300
X120900Y023500
X121500Y032700
X121600Y017200
X121900Y095800
X121900Y093400
X121900Y091100
X121900Y088800
X121900Y086300
X121900Y084000
X121900Y081600
X121900Y079200
X121900Y076800
X123200Y066500
X123400Y017200
X124300Y066750
X124400Y026900
X124600Y095800
X124600Y093400
X124600Y091100
X124600Y088800
X124600Y086300
X124600Y084000
X124600Y081600
X124600Y079200
X124600Y076800
X124900Y045300
X124900Y037500
X126100Y024600
X127350Y025300
X127350Y024300
X127350Y023300
X127350Y022300
X127350Y021300
X127350Y020300
X127350Y019300
X127350Y018300
X128200Y016000
X128200Y051000
X128350Y026300
X128350Y025300
X128350Y024300
X128350Y023300
X128350Y022300
X128350Y021300
X128350Y020300
X128350Y019300
X128350Y018300
X129350Y026300
X129350Y025300
X130350Y027300
X130350Y026300
X130350Y025300
X130400Y057200
X131350Y027300
X131350Y026300
X131350Y025300
X132350Y027300
X132350Y026300
X132350Y025300
X133100Y031300
X133100Y030300
X133100Y029300
X133350Y027300
X133350Y026300
X133350Y025300
X134100Y032300
X134100Y031300
X134100Y030300
X134100Y029300
X134300Y038400
X134350Y027300
X134350Y026300
X134350Y025300
X135100Y039600
X135100Y037200
X135350Y027300
X135350Y026300
X135350Y025300
X136350Y027300
X136350Y026300
X136350Y025300
X136900Y036600
X138800Y041500
X143500Y042700
X143700Y038200
X143700Y034800
X149100Y008050
X149100Y007050
X149100Y006050
X149100Y005050
X149100Y004050
X150100Y009050
X150100Y008050
X150100Y007050
X150100Y006050
X150100Y005050
X150100Y004050
X150300Y013000
X150900Y013800
X150900Y012200
X151100Y009050
X151100Y008050
X151100Y007050
X151100Y006050
X151100Y005050
X151100Y004050
X151900Y014800
X151900Y013800
X151900Y012800
X151900Y011800
X152100Y009050
X152100Y008050
X152100Y007050
X152100Y006050
X152100Y005050
X152100Y004050
X152900Y015800
X152900Y014800
X152900Y013800
X152900Y012800
X152900Y011800
X154100Y017000
X154200Y012000
X155700Y017600
X155800Y012000
X156200Y015500
X156200Y013900
X156700Y018600
X156700Y016600
X157000Y014700
X157000Y013100
X157700Y019600
X157700Y017600
X157700Y012000
X158700Y020600
X158700Y018600
X159300Y012000
X159700Y021600
X159700Y019600
X159700Y017600
X160700Y022600
X160700Y020600
X160700Y018600
X160700Y016600
X161300Y014400
X161300Y012400
X161600Y009050
X161600Y008050
X161600Y007050
X161600Y006050
X161600Y005050
X161600Y004050
X161700Y023600
X161700Y021600
X161700Y019600
X161700Y017600
X161900Y039900
X162300Y015300
X162300Y013400
T133
X085541Y027563
X085541Y026293
X085541Y023118
X085541Y021848
X086811Y027563
X086811Y026293
X086811Y023118
X086811Y021848
X088081Y027563
X088081Y026293
X088081Y023118
X088081Y021848
X089351Y027563
X089351Y026293
X089351Y023118
X089351Y021848
X090621Y027563
X090621Y026293
X090621Y023118
X090621Y021848
X091891Y027563
X091891Y026293
X091891Y023118
X091891Y021848
X093161Y027563
X093161Y026293
X093161Y023118
X093161Y021848
X094431Y027563
X094431Y026293
X094431Y023118
X094431Y021848
X095701Y027563
X095701Y026293
X095701Y023118
X095701Y021848
X096971Y027563
X096971Y026293
X096971Y023118
X096971Y021848
T136
X147340Y044660
X147340Y039580
T127
X013510Y055030
X013510Y052490
X013510Y049950
X013510Y047410
X013510Y035741
X013510Y033201
X013510Y030661
X013510Y028121
X016050Y056300
X016050Y053760
X016050Y051220
X016050Y048680
X016050Y037011
X016050Y034471
X016050Y031931
X016050Y029391
T138
X134200Y078600
X134200Y076100
X134200Y074100
X134200Y071600
T128
X021200Y056800
X021200Y054260
X021200Y051720
X021200Y049180
X130200Y078880
X130200Y076340
X130200Y073800
X130200Y071260
T126
X012850Y020800
X012850Y006300
X015350Y020800
X017851Y020800
X017851Y006300
X028300Y039170
X028300Y036630
X028300Y034090
X028300Y031550
X028300Y029010
X028300Y026470
X028300Y023930
X030840Y039170
X030840Y036630
X030840Y034090
X030840Y031550
X030840Y029010
X030840Y026470
X030840Y023930
X117850Y020800
X117850Y006300
X120350Y020800
X122850Y020800
X122850Y006300
X141600Y056300
X146680Y056300
T125
X047695Y025785
X047695Y023245
X050235Y025785
X050235Y023245
X052775Y025785
X052775Y023245
X055315Y025785
X055315Y023245
X057855Y025785
X057855Y023245
X060395Y025785
X060395Y023245
X062935Y025785
X062935Y023245
X065475Y025785
X065475Y023245
X068015Y025785
X068015Y023245
X070555Y025785
X070555Y023245
X073095Y025785
X073095Y023245
X075635Y025785
X075635Y023245
X078175Y025785
X078175Y023245
X080715Y025785
X080715Y023245
T134
X025090Y006900
X028900Y006900
T130
X139790Y017110
X139790Y009490
X147410Y017110
X147410Y009490
T132
X040101Y008851
X047601Y008851
X058100Y008850
X065601Y008850
X076100Y008850
X083600Y008850
X094100Y008850
X101600Y008850
T135
X133420Y055050
X137380Y055050
T129
X009700Y088570
X009700Y075430
X009751Y013300
X020950Y013300
X114750Y013300
X125950Y013300
T137
X136300Y080950
X136300Y069250
T131
X140600Y025300
X145600Y025300
X149600Y025300
X154600Y025300
M30
