G04 start of page 12 for group -4014 idx -4014 *
G04 Title: Power Board, bottompaste *
G04 Creator: pcb 1.99z *
G04 CreationDate: Sun 28 Jul 2013 20:14:53 GMT UTC *
G04 For: rbarlow *
G04 Format: Gerber/RS-274X *
G04 PCB-Dimensions (mm): 166.00 100.00 *
G04 PCB-Coordinate-Origin: lower left *
%MOMM*%
%FSLAX43Y43*%
%LNBOTTOMPASTE*%
%ADD280R,0.719X0.719*%
%ADD279R,0.330X0.330*%
%ADD278R,1.750X1.750*%
%ADD277R,0.737X0.737*%
%ADD276R,3.099X3.099*%
%ADD275R,1.422X1.422*%
%ADD274R,2.050X2.050*%
%ADD273R,1.120X1.120*%
%ADD272R,1.800X1.800*%
%ADD271R,2.300X2.300*%
%ADD270R,1.300X1.300*%
%ADD269R,0.864X0.864*%
%ADD268R,0.719X0.719*%
G54D268*X137559Y43523D02*Y43277D01*
X139041Y43523D02*Y43277D01*
G54D269*X7424Y21500D02*X7576D01*
X7424Y19519D02*X7576D01*
X5341Y20510D02*X5494D01*
X8207Y65891D02*X8359D01*
X8207Y63910D02*X8359D01*
X6124Y64900D02*X6276D01*
G54D268*X62700Y57123D02*Y56877D01*
X61218Y57123D02*Y56877D01*
G54D270*X137200Y39600D02*Y39400D01*
X139000Y39600D02*Y39400D01*
G54D271*X130000Y49450D02*Y46150D01*
X122600Y49450D02*Y46150D01*
G54D268*X51377Y45800D02*X51623D01*
X51377Y47282D02*X51623D01*
G54D271*X130000Y40850D02*Y37550D01*
X122600Y40850D02*Y37550D01*
G54D272*X103300Y56500D02*Y54700D01*
X94300Y56500D02*Y54700D01*
G54D273*X12400Y78500D02*X14160D01*
X12400Y81000D02*X14160D01*
X12400Y83000D02*X14160D01*
X12400Y85500D02*X14160D01*
G54D274*X106200Y78150D02*Y74650D01*
Y68600D02*Y65100D01*
G54D268*X90127Y47168D02*X90373D01*
X90127Y48650D02*X90373D01*
X99577Y37000D02*X99823D01*
X99577Y38482D02*X99823D01*
X97977D02*X98223D01*
X97977Y37000D02*X98223D01*
X92527Y47218D02*X92773D01*
X92527Y48700D02*X92773D01*
X105677Y48082D02*X105923D01*
X105677Y46600D02*X105923D01*
G54D269*X100641Y33310D02*X100793D01*
X100641Y35291D02*X100793D01*
X102724Y34300D02*X102876D01*
G54D275*X105664Y34714D02*X107341D01*
X105664Y37000D02*X107341D01*
X105664Y39312D02*X107341D01*
G54D276*X112700Y38143D02*Y35857D01*
G54D268*X90677Y50118D02*X90923D01*
X90677Y51600D02*X90923D01*
X107577Y48082D02*X107823D01*
X107577Y46600D02*X107823D01*
G54D277*X100946Y40040D02*X101098D01*
X100946Y41335D02*X101098D01*
X102724Y40700D02*X102876D01*
G54D268*X98877Y39959D02*X99123D01*
X98877Y41441D02*X99123D01*
X102677Y37000D02*X102923D01*
X102677Y38482D02*X102923D01*
X101077Y37000D02*X101323D01*
X101077Y38482D02*X101323D01*
G54D270*X15700Y72800D02*Y71400D01*
X12700Y72800D02*Y71400D01*
G54D268*X103777Y45118D02*X104023D01*
X103777Y46600D02*X104023D01*
G54D278*X109150Y55600D02*X110050D01*
X113450D02*X114350D01*
G54D270*X88650Y54100D02*X90050D01*
X88650Y57100D02*X90050D01*
G54D277*X88074Y48596D02*X88226D01*
X88074Y47300D02*X88226D01*
X86296Y47935D02*X86448D01*
G54D270*X110900Y50600D02*Y49200D01*
X113900Y50600D02*Y49200D01*
X110900Y46000D02*Y44600D01*
X113900Y46000D02*Y44600D01*
X84200Y54100D02*X85600D01*
X84200Y57100D02*X85600D01*
G54D279*X96015Y45950D02*X97185D01*
X96015Y46600D02*X97185D01*
X96015Y47250D02*X97185D01*
X96015Y47900D02*X97185D01*
X100515D02*X101685D01*
X100515Y47250D02*X101685D01*
X100515Y46600D02*X101685D01*
X100515Y45950D02*X101685D01*
G54D268*X92527Y50118D02*X92773D01*
X92527Y51600D02*X92773D01*
G54D269*X107523Y51981D02*X107676D01*
X107523Y50000D02*X107676D01*
X105440Y50990D02*X105593D01*
G54D268*X88150Y50373D02*Y50127D01*
X86668Y50373D02*Y50127D01*
G54D280*X125977Y23241D02*X126223D01*
X125977Y21759D02*X126223D01*
G54D278*X147400Y31300D02*X148300D01*
X151700D02*X152600D01*
G54D268*X137559Y45323D02*Y45077D01*
X139041Y45323D02*Y45077D01*
G54D280*X129691Y17273D02*Y17027D01*
X128209Y17273D02*Y17027D01*
M02*
