G04 start of page 13 for group -3984 idx -3984 *
G04 Title: Power Board, fab *
G04 Creator: pcb 1.99z *
G04 CreationDate: Sun 28 Jul 2013 20:14:53 GMT UTC *
G04 For: rbarlow *
G04 Format: Gerber/RS-274X *
G04 PCB-Dimensions (mm): 166.00 100.00 *
G04 PCB-Coordinate-Origin: lower left *
%MOMM*%
%FSLAX43Y43*%
%LNFAB*%
%ADD284C,0.254*%
%ADD283C,0.152*%
%ADD282R,0.203X0.203*%
%ADD281C,0.002*%
G54D281*G36*
X108071Y23973D02*X110653Y21391D01*
X110509Y21247D01*
X107927Y23829D01*
X108071Y23973D01*
G37*
G36*
X107927Y21391D02*X110509Y23973D01*
X110653Y23829D01*
X108071Y21247D01*
X107927Y21391D01*
G37*
G54D282*X108884Y23016D02*X109696D01*
X108884D02*Y22204D01*
X109696D01*
Y23016D02*Y22204D01*
X108477Y23423D02*X110103D01*
X108477D02*Y21797D01*
X110103D01*
Y23423D02*Y21797D01*
X108071Y23829D02*X110509D01*
X108071D02*Y21391D01*
X110509D01*
Y23829D02*Y21391D01*
G54D281*G36*
X108071Y95093D02*X110653Y92511D01*
X110509Y92367D01*
X107927Y94949D01*
X108071Y95093D01*
G37*
G36*
X107927Y92511D02*X110509Y95093D01*
X110653Y94949D01*
X108071Y92367D01*
X107927Y92511D01*
G37*
G54D282*X108884Y94136D02*X109696D01*
X108884D02*Y93324D01*
X109696D01*
Y94136D02*Y93324D01*
X108477Y94543D02*X110103D01*
X108477D02*Y92917D01*
X110103D01*
Y94543D02*Y92917D01*
X108071Y94949D02*X110509D01*
X108071D02*Y92511D01*
X110509D01*
Y94949D02*Y92511D01*
G54D281*G36*
X39491Y95093D02*X42073Y92511D01*
X41929Y92367D01*
X39347Y94949D01*
X39491Y95093D01*
G37*
G36*
X39347Y92511D02*X41929Y95093D01*
X42073Y94949D01*
X39491Y92367D01*
X39347Y92511D01*
G37*
G54D282*X40304Y94136D02*X41116D01*
X40304D02*Y93324D01*
X41116D01*
Y94136D02*Y93324D01*
X39897Y94543D02*X41523D01*
X39897D02*Y92917D01*
X41523D01*
Y94543D02*Y92917D01*
X39491Y94949D02*X41929D01*
X39491D02*Y92511D01*
X41929D01*
Y94949D02*Y92511D01*
G54D281*G36*
X39491Y23973D02*X42073Y21391D01*
X41929Y21247D01*
X39347Y23829D01*
X39491Y23973D01*
G37*
G36*
X39347Y21391D02*X41929Y23973D01*
X42073Y23829D01*
X39491Y21247D01*
X39347Y21391D01*
G37*
G54D282*X40304Y23016D02*X41116D01*
X40304D02*Y22204D01*
X41116D01*
Y23016D02*Y22204D01*
X39897Y23423D02*X41523D01*
X39897D02*Y21797D01*
X41523D01*
Y23423D02*Y21797D01*
X39491Y23829D02*X41929D01*
X39491D02*Y21391D01*
X41929D01*
Y23829D02*Y21391D01*
G54D281*G36*
X2591Y104220D02*X5173Y101638D01*
X5029Y101495D01*
X2447Y104077D01*
X2591Y104220D01*
G37*
G36*
X2447Y101638D02*X5029Y104220D01*
X5173Y104077D01*
X2591Y101495D01*
X2447Y101638D01*
G37*
G54D282*X3404Y103264D02*X4216D01*
X3404D02*Y102451D01*
X4216D01*
Y103264D02*Y102451D01*
X2997Y103670D02*X4623D01*
X2997D02*Y102045D01*
X4623D01*
Y103670D02*Y102045D01*
X2591Y104077D02*X5029D01*
X2591D02*Y101638D01*
X5029D01*
Y104077D02*Y101638D01*
G54D283*X35560Y103429D02*Y101905D01*
Y103429D02*Y103239D01*
X36512Y102286D01*
Y103429D02*Y101905D01*
X36970Y103239D02*Y102096D01*
Y103239D02*X37160Y103429D01*
X37541D01*
X37732Y103239D01*
Y102096D01*
X37541Y101905D02*X37732Y102096D01*
X37160Y101905D02*X37541D01*
X36970Y102096D02*X37160Y101905D01*
X24892Y102667D02*X25654Y103429D01*
X24892Y102667D02*X25844D01*
X25654Y103429D02*Y101905D01*
X11430Y102096D02*X11620Y101905D01*
X11430Y103239D02*Y102096D01*
Y103239D02*X11620Y103429D01*
X12002D01*
X12192Y103239D01*
Y102096D01*
X12002Y101905D02*X12192Y102096D01*
X11620Y101905D02*X12002D01*
X11430Y102286D02*X12192Y103048D01*
X12649Y101905D02*X12840D01*
X13487D02*X13868D01*
X13678Y103429D02*Y101905D01*
X13297Y103048D02*X13678Y103429D01*
X14897D02*X15088Y103239D01*
X14516Y103429D02*X14897D01*
X14326Y103239D02*X14516Y103429D01*
X14326Y103239D02*Y102096D01*
X14516Y101905D01*
X14897Y102667D02*X15088Y102477D01*
X14326Y102667D02*X14897D01*
X14516Y101905D02*X14897D01*
X15088Y102096D01*
Y102477D02*Y102096D01*
X15545D02*X15735Y101905D01*
X15545Y103239D02*Y102096D01*
Y103239D02*X15735Y103429D01*
X16116D01*
X16307Y103239D01*
Y102096D01*
X16116Y101905D02*X16307Y102096D01*
X15735Y101905D02*X16116D01*
X15545Y102286D02*X16307Y103048D01*
X7160Y28476D02*Y25225D01*
X5535Y26851D02*X8786D01*
X6754Y27257D02*X7567D01*
X6754D02*Y26444D01*
X7567D01*
Y27257D02*Y26444D01*
X6347Y27663D02*X7973D01*
X6347D02*Y26038D01*
X7973D01*
Y27663D02*Y26038D01*
X5941Y28070D02*X8379D01*
X5941D02*Y25631D01*
X8379D01*
Y28070D02*Y25631D01*
X7160Y39906D02*Y36655D01*
X5535Y38281D02*X8786D01*
X6754Y38687D02*X7567D01*
X6754D02*Y37874D01*
X7567D01*
Y38687D02*Y37874D01*
X6347Y39093D02*X7973D01*
X6347D02*Y37468D01*
X7973D01*
Y39093D02*Y37468D01*
X5941Y39500D02*X8379D01*
X5941D02*Y37061D01*
X8379D01*
Y39500D02*Y37061D01*
X7160Y47766D02*Y44515D01*
X5535Y46140D02*X8786D01*
X6754Y46547D02*X7567D01*
X6754D02*Y45734D01*
X7567D01*
Y46547D02*Y45734D01*
X6347Y46953D02*X7973D01*
X6347D02*Y45328D01*
X7973D01*
Y46953D02*Y45328D01*
X5941Y47360D02*X8379D01*
X5941D02*Y44921D01*
X8379D01*
Y47360D02*Y44921D01*
X7160Y59196D02*Y55945D01*
X5535Y57570D02*X8786D01*
X6754Y57977D02*X7567D01*
X6754D02*Y57164D01*
X7567D01*
Y57977D02*Y57164D01*
X6347Y58383D02*X7973D01*
X6347D02*Y56758D01*
X7973D01*
Y58383D02*Y56758D01*
X5941Y58790D02*X8379D01*
X5941D02*Y56351D01*
X8379D01*
Y58790D02*Y56351D01*
X3810Y108293D02*Y105042D01*
X2184Y106668D02*X5436D01*
X3404Y107074D02*X4216D01*
X3404D02*Y106261D01*
X4216D01*
Y107074D02*Y106261D01*
X2997Y107480D02*X4623D01*
X2997D02*Y105855D01*
X4623D01*
Y107480D02*Y105855D01*
X2591Y107887D02*X5029D01*
X2591D02*Y105448D01*
X5029D01*
Y107887D02*Y105448D01*
X35560Y107239D02*Y105715D01*
Y107239D02*Y107049D01*
X36512Y106096D01*
Y107239D02*Y105715D01*
X36970Y107049D02*Y105906D01*
Y107049D02*X37160Y107239D01*
X37541D01*
X37732Y107049D01*
Y105906D01*
X37541Y105715D02*X37732Y105906D01*
X37160Y105715D02*X37541D01*
X36970Y105906D02*X37160Y105715D01*
X24892Y106477D02*X25654Y107239D01*
X24892Y106477D02*X25844D01*
X25654Y107239D02*Y105715D01*
X11430Y105906D02*X11620Y105715D01*
X11430Y107049D02*Y105906D01*
Y107049D02*X11620Y107239D01*
X12002D01*
X12192Y107049D01*
Y105906D01*
X12002Y105715D02*X12192Y105906D01*
X11620Y105715D02*X12002D01*
X11430Y106096D02*X12192Y106858D01*
X12649Y105715D02*X12840D01*
X13487D02*X13868D01*
X13678Y107239D02*Y105715D01*
X13297Y106858D02*X13678Y107239D01*
X14326Y107049D02*X14516Y107239D01*
X15088D01*
X15278Y107049D01*
Y106668D01*
X14326Y105715D02*X15278Y106668D01*
X14326Y105715D02*X15278D01*
X15735Y105906D02*X15926Y105715D01*
X15735Y106287D02*Y105906D01*
Y106287D02*X15926Y106477D01*
X16307D01*
X16497Y106287D01*
Y105906D01*
X16307Y105715D02*X16497Y105906D01*
X15926Y105715D02*X16307D01*
X15735Y106668D02*X15926Y106477D01*
X15735Y107049D02*Y106668D01*
Y107049D02*X15926Y107239D01*
X16307D01*
X16497Y107049D01*
Y106668D01*
X16307Y106477D02*X16497Y106668D01*
X6500Y94200D02*Y92574D01*
Y94200D02*X7909Y95013D01*
X6500Y94200D02*X5091Y95013D01*
X6094Y94200D02*G75*G03X6907Y94200I406J0D01*G01*
G75*G03X6094Y94200I-406J0D01*G01*
X5687D02*G75*G03X7313Y94200I813J0D01*G01*
G75*G03X5687Y94200I-813J0D01*G01*
X5281D02*G75*G03X7719Y94200I1219J0D01*G01*
G75*G03X5281Y94200I-1219J0D01*G01*
X6500Y5900D02*Y4275D01*
Y5900D02*X7909Y6713D01*
X6500Y5900D02*X5091Y6713D01*
X6094Y5900D02*G75*G03X6907Y5900I406J0D01*G01*
G75*G03X6094Y5900I-406J0D01*G01*
X5687D02*G75*G03X7313Y5900I813J0D01*G01*
G75*G03X5687Y5900I-813J0D01*G01*
X5281D02*G75*G03X7719Y5900I1219J0D01*G01*
G75*G03X5281Y5900I-1219J0D01*G01*
X123200Y72100D02*Y70474D01*
Y72100D02*X124609Y72913D01*
X123200Y72100D02*X121791Y72913D01*
X122794Y72100D02*G75*G03X123606Y72100I406J0D01*G01*
G75*G03X122794Y72100I-406J0D01*G01*
X122387D02*G75*G03X124013Y72100I813J0D01*G01*
G75*G03X122387Y72100I-813J0D01*G01*
X121981D02*G75*G03X124419Y72100I1219J0D01*G01*
G75*G03X121981Y72100I-1219J0D01*G01*
X127600Y30100D02*Y28474D01*
Y30100D02*X129009Y30913D01*
X127600Y30100D02*X126191Y30913D01*
X127194Y30100D02*G75*G03X128006Y30100I406J0D01*G01*
G75*G03X127194Y30100I-406J0D01*G01*
X126787D02*G75*G03X128413Y30100I813J0D01*G01*
G75*G03X126787Y30100I-813J0D01*G01*
X126381D02*G75*G03X128819Y30100I1219J0D01*G01*
G75*G03X126381Y30100I-1219J0D01*G01*
X3810Y110478D02*Y108852D01*
Y110478D02*X5219Y111290D01*
X3810Y110478D02*X2401Y111290D01*
X3404Y110478D02*G75*G03X4216Y110478I406J0D01*G01*
G75*G03X3404Y110478I-406J0D01*G01*
X2997D02*G75*G03X4623Y110478I813J0D01*G01*
G75*G03X2997Y110478I-813J0D01*G01*
X2591D02*G75*G03X5029Y110478I1219J0D01*G01*
G75*G03X2591Y110478I-1219J0D01*G01*
X35560Y111049D02*Y109525D01*
Y111049D02*Y110859D01*
X36512Y109906D01*
Y111049D02*Y109525D01*
X36970Y110859D02*Y109716D01*
Y110859D02*X37160Y111049D01*
X37541D01*
X37732Y110859D01*
Y109716D01*
X37541Y109525D02*X37732Y109716D01*
X37160Y109525D02*X37541D01*
X36970Y109716D02*X37160Y109525D01*
X24892Y110287D02*X25654Y111049D01*
X24892Y110287D02*X25844D01*
X25654Y111049D02*Y109525D01*
X11430Y109716D02*X11620Y109525D01*
X11430Y110859D02*Y109716D01*
Y110859D02*X11620Y111049D01*
X12002D01*
X12192Y110859D01*
Y109716D01*
X12002Y109525D02*X12192Y109716D01*
X11620Y109525D02*X12002D01*
X11430Y109906D02*X12192Y110668D01*
X12649Y109525D02*X12840D01*
X13487D02*X13868D01*
X13678Y111049D02*Y109525D01*
X13297Y110668D02*X13678Y111049D01*
X14326Y110859D02*X14516Y111049D01*
X15088D01*
X15278Y110859D01*
Y110478D01*
X14326Y109525D02*X15278Y110478D01*
X14326Y109525D02*X15278D01*
X15735Y111049D02*X16497D01*
X15735D02*Y110287D01*
X15926Y110478D01*
X16307D01*
X16497Y110287D01*
Y109716D01*
X16307Y109525D02*X16497Y109716D01*
X15926Y109525D02*X16307D01*
X15735Y109716D02*X15926Y109525D01*
X154193Y25707D02*X155006D01*
X154193D02*Y24894D01*
X155006D01*
Y25707D02*Y24894D01*
X153787Y26113D02*X155413D01*
X153787D02*Y24487D01*
X155413D01*
Y26113D02*Y24487D01*
X153381Y26519D02*X155819D01*
X153381D02*Y24081D01*
X155819D01*
Y26519D02*Y24081D01*
X149194Y25707D02*X150006D01*
X149194D02*Y24894D01*
X150006D01*
Y25707D02*Y24894D01*
X148787Y26113D02*X150413D01*
X148787D02*Y24487D01*
X150413D01*
Y26113D02*Y24487D01*
X148381Y26519D02*X150819D01*
X148381D02*Y24081D01*
X150819D01*
Y26519D02*Y24081D01*
X145194Y25707D02*X146006D01*
X145194D02*Y24894D01*
X146006D01*
Y25707D02*Y24894D01*
X144787Y26113D02*X146413D01*
X144787D02*Y24487D01*
X146413D01*
Y26113D02*Y24487D01*
X144381Y26519D02*X146819D01*
X144381D02*Y24081D01*
X146819D01*
Y26519D02*Y24081D01*
X140194Y25707D02*X141006D01*
X140194D02*Y24894D01*
X141006D01*
Y25707D02*Y24894D01*
X139787Y26113D02*X141413D01*
X139787D02*Y24487D01*
X141413D01*
Y26113D02*Y24487D01*
X139381Y26519D02*X141819D01*
X139381D02*Y24081D01*
X141819D01*
Y26519D02*Y24081D01*
X3404Y114694D02*X4216D01*
X3404D02*Y113881D01*
X4216D01*
Y114694D02*Y113881D01*
X2997Y115100D02*X4623D01*
X2997D02*Y113475D01*
X4623D01*
Y115100D02*Y113475D01*
X2591Y115507D02*X5029D01*
X2591D02*Y113068D01*
X5029D01*
Y115507D02*Y113068D01*
X34290Y114859D02*Y114669D01*
X34671Y114288D01*
X35052Y114669D01*
Y114859D02*Y114669D01*
X34671Y114288D02*Y113335D01*
X35509Y114097D02*X36081D01*
X35509Y113335D02*X36271D01*
X35509Y114859D02*Y113335D01*
Y114859D02*X36271D01*
X37490D02*X37681Y114669D01*
X36919Y114859D02*X37490D01*
X36728Y114669D02*X36919Y114859D01*
X36728Y114669D02*Y114288D01*
X36919Y114097D01*
X37490D01*
X37681Y113907D01*
Y113526D01*
X37490Y113335D02*X37681Y113526D01*
X36919Y113335D02*X37490D01*
X36728Y113526D02*X36919Y113335D01*
X24892Y114097D02*X25654Y114859D01*
X24892Y114097D02*X25844D01*
X25654Y114859D02*Y113335D01*
X11430Y113526D02*X11620Y113335D01*
X11430Y114669D02*Y113526D01*
Y114669D02*X11620Y114859D01*
X12002D01*
X12192Y114669D01*
Y113526D01*
X12002Y113335D02*X12192Y113526D01*
X11620Y113335D02*X12002D01*
X11430Y113716D02*X12192Y114478D01*
X12649Y113335D02*X12840D01*
X13487D02*X13868D01*
X13678Y114859D02*Y113335D01*
X13297Y114478D02*X13678Y114859D01*
X14326Y113526D02*X14516Y113335D01*
X14326Y114669D02*Y113526D01*
Y114669D02*X14516Y114859D01*
X14897D01*
X15088Y114669D01*
Y113526D01*
X14897Y113335D02*X15088Y113526D01*
X14516Y113335D02*X14897D01*
X14326Y113716D02*X15088Y114478D01*
X16116Y114859D02*X16307Y114669D01*
X15735Y114859D02*X16116D01*
X15545Y114669D02*X15735Y114859D01*
X15545Y114669D02*Y113526D01*
X15735Y113335D01*
X16116Y114097D02*X16307Y113907D01*
X15545Y114097D02*X16116D01*
X15735Y113335D02*X16116D01*
X16307Y113526D01*
Y113907D02*Y113526D01*
X136097Y69250D02*G75*G03X136503Y69250I203J0D01*G01*
G75*G03X136097Y69250I-203J0D01*G01*
X135690D02*G75*G03X136910Y69250I610J0D01*G01*
G75*G03X135690Y69250I-610J0D01*G01*
X135284D02*G75*G03X137316Y69250I1016J0D01*G01*
G75*G03X135284Y69250I-1016J0D01*G01*
X136097Y80950D02*G75*G03X136503Y80950I203J0D01*G01*
G75*G03X136097Y80950I-203J0D01*G01*
X135690D02*G75*G03X136910Y80950I610J0D01*G01*
G75*G03X135690Y80950I-610J0D01*G01*
X135284D02*G75*G03X137316Y80950I1016J0D01*G01*
G75*G03X135284Y80950I-1016J0D01*G01*
X3607Y118098D02*G75*G03X4013Y118098I203J0D01*G01*
G75*G03X3607Y118098I-203J0D01*G01*
X3200D02*G75*G03X4420Y118098I610J0D01*G01*
G75*G03X3200Y118098I-610J0D01*G01*
X2794D02*G75*G03X4826Y118098I1016J0D01*G01*
G75*G03X2794Y118098I-1016J0D01*G01*
X34290Y118669D02*Y118479D01*
X34671Y118098D01*
X35052Y118479D01*
Y118669D02*Y118479D01*
X34671Y118098D02*Y117145D01*
X35509Y117907D02*X36081D01*
X35509Y117145D02*X36271D01*
X35509Y118669D02*Y117145D01*
Y118669D02*X36271D01*
X37490D02*X37681Y118479D01*
X36919Y118669D02*X37490D01*
X36728Y118479D02*X36919Y118669D01*
X36728Y118479D02*Y118098D01*
X36919Y117907D01*
X37490D01*
X37681Y117717D01*
Y117336D01*
X37490Y117145D02*X37681Y117336D01*
X36919Y117145D02*X37490D01*
X36728Y117336D02*X36919Y117145D01*
X24892Y118479D02*X25082Y118669D01*
X25654D01*
X25844Y118479D01*
Y118098D01*
X24892Y117145D02*X25844Y118098D01*
X24892Y117145D02*X25844D01*
X11430Y117336D02*X11620Y117145D01*
X11430Y118479D02*Y117336D01*
Y118479D02*X11620Y118669D01*
X12002D01*
X12192Y118479D01*
Y117336D01*
X12002Y117145D02*X12192Y117336D01*
X11620Y117145D02*X12002D01*
X11430Y117526D02*X12192Y118288D01*
X12649Y117145D02*X12840D01*
X13297Y117336D02*X13487Y117145D01*
X13297Y118479D02*Y117336D01*
Y118479D02*X13487Y118669D01*
X13868D01*
X14059Y118479D01*
Y117336D01*
X13868Y117145D02*X14059Y117336D01*
X13487Y117145D02*X13868D01*
X13297Y117526D02*X14059Y118288D01*
X14516Y117145D02*X15278Y117907D01*
Y118479D02*Y117907D01*
X15088Y118669D02*X15278Y118479D01*
X14707Y118669D02*X15088D01*
X14516Y118479D02*X14707Y118669D01*
X14516Y118479D02*Y118098D01*
X14707Y117907D01*
X15278D01*
X15735Y117336D02*X15926Y117145D01*
X15735Y117717D02*Y117336D01*
Y117717D02*X15926Y117907D01*
X16307D01*
X16497Y117717D01*
Y117336D01*
X16307Y117145D02*X16497Y117336D01*
X15926Y117145D02*X16307D01*
X15735Y118098D02*X15926Y117907D01*
X15735Y118479D02*Y118098D01*
Y118479D02*X15926Y118669D01*
X16307D01*
X16497Y118479D01*
Y118098D01*
X16307Y117907D02*X16497Y118098D01*
X125036Y14214D02*X126864Y12385D01*
X125036D02*X126864Y14214D01*
X125544Y13706D02*X126356D01*
X125544D02*Y12893D01*
X126356D01*
Y13706D02*Y12893D01*
X125137Y14112D02*X126763D01*
X125137D02*Y12487D01*
X126763D01*
Y14112D02*Y12487D01*
X113836Y14214D02*X115664Y12385D01*
X113836D02*X115664Y14214D01*
X114344Y13706D02*X115156D01*
X114344D02*Y12893D01*
X115156D01*
Y13706D02*Y12893D01*
X113937Y14112D02*X115563D01*
X113937D02*Y12487D01*
X115563D01*
Y14112D02*Y12487D01*
X20036Y14215D02*X21865Y12386D01*
X20036D02*X21865Y14215D01*
X20544Y13707D02*X21357D01*
X20544D02*Y12894D01*
X21357D01*
Y13707D02*Y12894D01*
X20138Y14113D02*X21763D01*
X20138D02*Y12487D01*
X21763D01*
Y14113D02*Y12487D01*
X8836Y14215D02*X10665Y12386D01*
X8836D02*X10665Y14215D01*
X9344Y13707D02*X10157D01*
X9344D02*Y12894D01*
X10157D01*
Y13707D02*Y12894D01*
X8938Y14113D02*X10563D01*
X8938D02*Y12487D01*
X10563D01*
Y14113D02*Y12487D01*
X8786Y76345D02*X10614Y74516D01*
X8786D02*X10614Y76345D01*
X9294Y75837D02*X10106D01*
X9294D02*Y75024D01*
X10106D01*
Y75837D02*Y75024D01*
X8887Y76243D02*X10513D01*
X8887D02*Y74617D01*
X10513D01*
Y76243D02*Y74617D01*
X8786Y89484D02*X10614Y87656D01*
X8786D02*X10614Y89484D01*
X9294Y88976D02*X10106D01*
X9294D02*Y88164D01*
X10106D01*
Y88976D02*Y88164D01*
X8887Y89383D02*X10513D01*
X8887D02*Y87757D01*
X10513D01*
Y89383D02*Y87757D01*
X2896Y122822D02*X4724Y120993D01*
X2896D02*X4724Y122822D01*
X3404Y122314D02*X4216D01*
X3404D02*Y121501D01*
X4216D01*
Y122314D02*Y121501D01*
X2997Y122720D02*X4623D01*
X2997D02*Y121095D01*
X4623D01*
Y122720D02*Y121095D01*
X34290Y122479D02*Y122289D01*
X34671Y121908D01*
X35052Y122289D01*
Y122479D02*Y122289D01*
X34671Y121908D02*Y120955D01*
X35509Y121717D02*X36081D01*
X35509Y120955D02*X36271D01*
X35509Y122479D02*Y120955D01*
Y122479D02*X36271D01*
X37490D02*X37681Y122289D01*
X36919Y122479D02*X37490D01*
X36728Y122289D02*X36919Y122479D01*
X36728Y122289D02*Y121908D01*
X36919Y121717D01*
X37490D01*
X37681Y121527D01*
Y121146D01*
X37490Y120955D02*X37681Y121146D01*
X36919Y120955D02*X37490D01*
X36728Y121146D02*X36919Y120955D01*
X25464Y122479D02*X25654Y122289D01*
X25082Y122479D02*X25464D01*
X24892Y122289D02*X25082Y122479D01*
X24892Y122289D02*Y121146D01*
X25082Y120955D01*
X25464Y121717D02*X25654Y121527D01*
X24892Y121717D02*X25464D01*
X25082Y120955D02*X25464D01*
X25654Y121146D01*
Y121527D02*Y121146D01*
X11430D02*X11620Y120955D01*
X11430Y122289D02*Y121146D01*
Y122289D02*X11620Y122479D01*
X12002D01*
X12192Y122289D01*
Y121146D01*
X12002Y120955D02*X12192Y121146D01*
X11620Y120955D02*X12002D01*
X11430Y121336D02*X12192Y122098D01*
X12649Y120955D02*X12840D01*
X13297Y121146D02*X13487Y120955D01*
X13297Y122289D02*Y121146D01*
Y122289D02*X13487Y122479D01*
X13868D01*
X14059Y122289D01*
Y121146D01*
X13868Y120955D02*X14059Y121146D01*
X13487Y120955D02*X13868D01*
X13297Y121336D02*X14059Y122098D01*
X14516Y120955D02*X15278Y121717D01*
Y122289D02*Y121717D01*
X15088Y122479D02*X15278Y122289D01*
X14707Y122479D02*X15088D01*
X14516Y122289D02*X14707Y122479D01*
X14516Y122289D02*Y121908D01*
X14707Y121717D01*
X15278D01*
X15926Y120955D02*X16307D01*
X16116Y122479D02*Y120955D01*
X15735Y122098D02*X16116Y122479D01*
X133420Y56269D02*Y53831D01*
X132201Y55050D02*X134639D01*
X133013Y55457D02*X133826D01*
X133013D02*Y54644D01*
X133826D01*
Y55457D02*Y54644D01*
X132607Y55863D02*X134233D01*
X132607D02*Y54237D01*
X134233D01*
Y55863D02*Y54237D01*
X137380Y56269D02*Y53831D01*
X136161Y55050D02*X138599D01*
X136973Y55457D02*X137786D01*
X136973D02*Y54644D01*
X137786D01*
Y55457D02*Y54644D01*
X136567Y55863D02*X138193D01*
X136567D02*Y54237D01*
X138193D01*
Y55863D02*Y54237D01*
X3810Y126937D02*Y124498D01*
X2591Y125718D02*X5029D01*
X3404Y126124D02*X4216D01*
X3404D02*Y125311D01*
X4216D01*
Y126124D02*Y125311D01*
X2997Y126530D02*X4623D01*
X2997D02*Y124905D01*
X4623D01*
Y126530D02*Y124905D01*
X34290Y126289D02*Y126099D01*
X34671Y125718D01*
X35052Y126099D01*
Y126289D02*Y126099D01*
X34671Y125718D02*Y124765D01*
X35509Y125527D02*X36081D01*
X35509Y124765D02*X36271D01*
X35509Y126289D02*Y124765D01*
Y126289D02*X36271D01*
X37490D02*X37681Y126099D01*
X36919Y126289D02*X37490D01*
X36728Y126099D02*X36919Y126289D01*
X36728Y126099D02*Y125718D01*
X36919Y125527D01*
X37490D01*
X37681Y125337D01*
Y124956D01*
X37490Y124765D02*X37681Y124956D01*
X36919Y124765D02*X37490D01*
X36728Y124956D02*X36919Y124765D01*
X24892Y126099D02*X25082Y126289D01*
X25654D01*
X25844Y126099D01*
Y125718D01*
X24892Y124765D02*X25844Y125718D01*
X24892Y124765D02*X25844D01*
X11430Y124956D02*X11620Y124765D01*
X11430Y126099D02*Y124956D01*
Y126099D02*X11620Y126289D01*
X12002D01*
X12192Y126099D01*
Y124956D01*
X12002Y124765D02*X12192Y124956D01*
X11620Y124765D02*X12002D01*
X11430Y125146D02*X12192Y125908D01*
X12649Y124765D02*X12840D01*
X13297Y124956D02*X13487Y124765D01*
X13297Y126099D02*Y124956D01*
Y126099D02*X13487Y126289D01*
X13868D01*
X14059Y126099D01*
Y124956D01*
X13868Y124765D02*X14059Y124956D01*
X13487Y124765D02*X13868D01*
X13297Y125146D02*X14059Y125908D01*
X15088Y126289D02*X15278Y126099D01*
X14707Y126289D02*X15088D01*
X14516Y126099D02*X14707Y126289D01*
X14516Y126099D02*Y124956D01*
X14707Y124765D01*
X15088Y125527D02*X15278Y125337D01*
X14516Y125527D02*X15088D01*
X14707Y124765D02*X15088D01*
X15278Y124956D01*
Y125337D02*Y124956D01*
X15735Y124765D02*X16688Y125718D01*
Y126289D02*Y125718D01*
X15735Y126289D02*X16688D01*
X139790Y17110D02*Y15891D01*
Y17110D02*X140847Y17720D01*
X139790Y17110D02*X138734Y17720D01*
X139384Y17110D02*G75*G03X140197Y17110I406J0D01*G01*
G75*G03X139384Y17110I-406J0D01*G01*
X138977D02*G75*G03X140603Y17110I813J0D01*G01*
G75*G03X138977Y17110I-813J0D01*G01*
X147410D02*Y15891D01*
Y17110D02*X148467Y17720D01*
X147410Y17110D02*X146354Y17720D01*
X147004Y17110D02*G75*G03X147817Y17110I406J0D01*G01*
G75*G03X147004Y17110I-406J0D01*G01*
X146597D02*G75*G03X148223Y17110I813J0D01*G01*
G75*G03X146597Y17110I-813J0D01*G01*
X139790Y9490D02*Y8271D01*
Y9490D02*X140847Y10100D01*
X139790Y9490D02*X138734Y10100D01*
X139384Y9490D02*G75*G03X140197Y9490I406J0D01*G01*
G75*G03X139384Y9490I-406J0D01*G01*
X138977D02*G75*G03X140603Y9490I813J0D01*G01*
G75*G03X138977Y9490I-813J0D01*G01*
X147410D02*Y8271D01*
Y9490D02*X148467Y10100D01*
X147410Y9490D02*X146354Y10100D01*
X147004Y9490D02*G75*G03X147817Y9490I406J0D01*G01*
G75*G03X147004Y9490I-406J0D01*G01*
X146597D02*G75*G03X148223Y9490I813J0D01*G01*
G75*G03X146597Y9490I-813J0D01*G01*
X83600Y8850D02*Y7631D01*
Y8850D02*X84657Y9460D01*
X83600Y8850D02*X82544Y9460D01*
X83194Y8850D02*G75*G03X84007Y8850I406J0D01*G01*
G75*G03X83194Y8850I-406J0D01*G01*
X82787D02*G75*G03X84413Y8850I813J0D01*G01*
G75*G03X82787Y8850I-813J0D01*G01*
X76100D02*Y7631D01*
Y8850D02*X77157Y9460D01*
X76100Y8850D02*X75044Y9460D01*
X75694Y8850D02*G75*G03X76507Y8850I406J0D01*G01*
G75*G03X75694Y8850I-406J0D01*G01*
X75287D02*G75*G03X76913Y8850I813J0D01*G01*
G75*G03X75287Y8850I-813J0D01*G01*
X65601D02*Y7631D01*
Y8850D02*X66657Y9460D01*
X65601Y8850D02*X64544Y9460D01*
X65194Y8850D02*G75*G03X66007Y8850I406J0D01*G01*
G75*G03X65194Y8850I-406J0D01*G01*
X64788D02*G75*G03X66413Y8850I813J0D01*G01*
G75*G03X64788Y8850I-813J0D01*G01*
X58100D02*Y7631D01*
Y8850D02*X59157Y9460D01*
X58100Y8850D02*X57044Y9460D01*
X57694Y8850D02*G75*G03X58507Y8850I406J0D01*G01*
G75*G03X57694Y8850I-406J0D01*G01*
X57288D02*G75*G03X58913Y8850I813J0D01*G01*
G75*G03X57288Y8850I-813J0D01*G01*
X47601Y8851D02*Y7632D01*
Y8851D02*X48657Y9460D01*
X47601Y8851D02*X46544Y9460D01*
X47194Y8851D02*G75*G03X48007Y8851I406J0D01*G01*
G75*G03X47194Y8851I-406J0D01*G01*
X46788D02*G75*G03X48413Y8851I813J0D01*G01*
G75*G03X46788Y8851I-813J0D01*G01*
X40101D02*Y7632D01*
Y8851D02*X41157Y9460D01*
X40101Y8851D02*X39044Y9460D01*
X39694Y8851D02*G75*G03X40507Y8851I406J0D01*G01*
G75*G03X39694Y8851I-406J0D01*G01*
X39288D02*G75*G03X40913Y8851I813J0D01*G01*
G75*G03X39288Y8851I-813J0D01*G01*
X101600Y8850D02*Y7631D01*
Y8850D02*X102656Y9460D01*
X101600Y8850D02*X100543Y9460D01*
X101193Y8850D02*G75*G03X102006Y8850I406J0D01*G01*
G75*G03X101193Y8850I-406J0D01*G01*
X100787D02*G75*G03X102413Y8850I813J0D01*G01*
G75*G03X100787Y8850I-813J0D01*G01*
X94100D02*Y7631D01*
Y8850D02*X95156Y9460D01*
X94100Y8850D02*X93043Y9460D01*
X93693Y8850D02*G75*G03X94506Y8850I406J0D01*G01*
G75*G03X93693Y8850I-406J0D01*G01*
X93287D02*G75*G03X94912Y8850I813J0D01*G01*
G75*G03X93287Y8850I-813J0D01*G01*
X3810Y129528D02*Y128308D01*
Y129528D02*X4867Y130137D01*
X3810Y129528D02*X2753Y130137D01*
X3404Y129528D02*G75*G03X4216Y129528I406J0D01*G01*
G75*G03X3404Y129528I-406J0D01*G01*
X2997D02*G75*G03X4623Y129528I813J0D01*G01*
G75*G03X2997Y129528I-813J0D01*G01*
X34290Y130099D02*Y129909D01*
X34671Y129528D01*
X35052Y129909D01*
Y130099D02*Y129909D01*
X34671Y129528D02*Y128575D01*
X35509Y129337D02*X36081D01*
X35509Y128575D02*X36271D01*
X35509Y130099D02*Y128575D01*
Y130099D02*X36271D01*
X37490D02*X37681Y129909D01*
X36919Y130099D02*X37490D01*
X36728Y129909D02*X36919Y130099D01*
X36728Y129909D02*Y129528D01*
X36919Y129337D01*
X37490D01*
X37681Y129147D01*
Y128766D01*
X37490Y128575D02*X37681Y128766D01*
X36919Y128575D02*X37490D01*
X36728Y128766D02*X36919Y128575D01*
X25082D02*X25464D01*
X25273Y130099D02*Y128575D01*
X24892Y129718D02*X25273Y130099D01*
X25921Y129909D02*X26111Y130099D01*
X26683D01*
X26873Y129909D01*
Y129528D01*
X25921Y128575D02*X26873Y129528D01*
X25921Y128575D02*X26873D01*
X11430Y128766D02*X11620Y128575D01*
X11430Y129909D02*Y128766D01*
Y129909D02*X11620Y130099D01*
X12002D01*
X12192Y129909D01*
Y128766D01*
X12002Y128575D02*X12192Y128766D01*
X11620Y128575D02*X12002D01*
X11430Y128956D02*X12192Y129718D01*
X12649Y128575D02*X12840D01*
X13297Y128766D02*X13487Y128575D01*
X13297Y129909D02*Y128766D01*
Y129909D02*X13487Y130099D01*
X13868D01*
X14059Y129909D01*
Y128766D01*
X13868Y128575D02*X14059Y128766D01*
X13487Y128575D02*X13868D01*
X13297Y128956D02*X14059Y129718D01*
X15088Y130099D02*X15278Y129909D01*
X14707Y130099D02*X15088D01*
X14516Y129909D02*X14707Y130099D01*
X14516Y129909D02*Y128766D01*
X14707Y128575D01*
X15088Y129337D02*X15278Y129147D01*
X14516Y129337D02*X15088D01*
X14707Y128575D02*X15088D01*
X15278Y128766D01*
Y129147D02*Y128766D01*
X15735D02*X15926Y128575D01*
X15735Y129909D02*Y128766D01*
Y129909D02*X15926Y130099D01*
X16307D01*
X16497Y129909D01*
Y128766D01*
X16307Y128575D02*X16497Y128766D01*
X15926Y128575D02*X16307D01*
X15735Y128956D02*X16497Y129718D01*
X28494Y7307D02*X29307D01*
X28494D02*Y6494D01*
X29307D01*
Y7307D02*Y6494D01*
X28087Y7713D02*X29713D01*
X28087D02*Y6087D01*
X29713D01*
Y7713D02*Y6087D01*
X24684Y7307D02*X25497D01*
X24684D02*Y6494D01*
X25497D01*
Y7307D02*Y6494D01*
X24277Y7713D02*X25903D01*
X24277D02*Y6087D01*
X25903D01*
Y7713D02*Y6087D01*
X3404Y133744D02*X4216D01*
X3404D02*Y132931D01*
X4216D01*
Y133744D02*Y132931D01*
X2997Y134150D02*X4623D01*
X2997D02*Y132525D01*
X4623D01*
Y134150D02*Y132525D01*
X34290Y133909D02*Y133719D01*
X34671Y133338D01*
X35052Y133719D01*
Y133909D02*Y133719D01*
X34671Y133338D02*Y132385D01*
X35509Y133147D02*X36081D01*
X35509Y132385D02*X36271D01*
X35509Y133909D02*Y132385D01*
Y133909D02*X36271D01*
X37490D02*X37681Y133719D01*
X36919Y133909D02*X37490D01*
X36728Y133719D02*X36919Y133909D01*
X36728Y133719D02*Y133338D01*
X36919Y133147D01*
X37490D01*
X37681Y132957D01*
Y132576D01*
X37490Y132385D02*X37681Y132576D01*
X36919Y132385D02*X37490D01*
X36728Y132576D02*X36919Y132385D01*
X24892Y133719D02*X25082Y133909D01*
X25654D01*
X25844Y133719D01*
Y133338D01*
X24892Y132385D02*X25844Y133338D01*
X24892Y132385D02*X25844D01*
X11430Y132576D02*X11620Y132385D01*
X11430Y133719D02*Y132576D01*
Y133719D02*X11620Y133909D01*
X12002D01*
X12192Y133719D01*
Y132576D01*
X12002Y132385D02*X12192Y132576D01*
X11620Y132385D02*X12002D01*
X11430Y132766D02*X12192Y133528D01*
X12649Y132385D02*X12840D01*
X13297Y132576D02*X13487Y132385D01*
X13297Y133719D02*Y132576D01*
Y133719D02*X13487Y133909D01*
X13868D01*
X14059Y133719D01*
Y132576D01*
X13868Y132385D02*X14059Y132576D01*
X13487Y132385D02*X13868D01*
X13297Y132766D02*X14059Y133528D01*
X14516Y133147D02*X15278Y133909D01*
X14516Y133147D02*X15469D01*
X15278Y133909D02*Y132385D01*
X15926D02*X16878Y133338D01*
Y133909D02*Y133338D01*
X15926Y133909D02*X16878D01*
X136097Y72850D02*G75*G03X136503Y72850I203J0D01*G01*
G75*G03X136097Y72850I-203J0D01*G01*
X135690D02*G75*G03X136910Y72850I610J0D01*G01*
G75*G03X135690Y72850I-610J0D01*G01*
X136097Y77350D02*G75*G03X136503Y77350I203J0D01*G01*
G75*G03X136097Y77350I-203J0D01*G01*
X135690D02*G75*G03X136910Y77350I610J0D01*G01*
G75*G03X135690Y77350I-610J0D01*G01*
X3607Y137148D02*G75*G03X4013Y137148I203J0D01*G01*
G75*G03X3607Y137148I-203J0D01*G01*
X3200D02*G75*G03X4420Y137148I610J0D01*G01*
G75*G03X3200Y137148I-610J0D01*G01*
X35560Y137719D02*Y136195D01*
Y137719D02*Y137529D01*
X36512Y136576D01*
Y137719D02*Y136195D01*
X36970Y137529D02*Y136386D01*
Y137529D02*X37160Y137719D01*
X37541D01*
X37732Y137529D01*
Y136386D01*
X37541Y136195D02*X37732Y136386D01*
X37160Y136195D02*X37541D01*
X36970Y136386D02*X37160Y136195D01*
X24892Y137529D02*X25082Y137719D01*
X25654D01*
X25844Y137529D01*
Y137148D01*
X24892Y136195D02*X25844Y137148D01*
X24892Y136195D02*X25844D01*
X11430Y136386D02*X11620Y136195D01*
X11430Y137529D02*Y136386D01*
Y137529D02*X11620Y137719D01*
X12002D01*
X12192Y137529D01*
Y136386D01*
X12002Y136195D02*X12192Y136386D01*
X11620Y136195D02*X12002D01*
X11430Y136576D02*X12192Y137338D01*
X12649Y136195D02*X12840D01*
X13297Y136386D02*X13487Y136195D01*
X13297Y137529D02*Y136386D01*
Y137529D02*X13487Y137719D01*
X13868D01*
X14059Y137529D01*
Y136386D01*
X13868Y136195D02*X14059Y136386D01*
X13487Y136195D02*X13868D01*
X13297Y136576D02*X14059Y137338D01*
X14516Y136957D02*X15278Y137719D01*
X14516Y136957D02*X15469D01*
X15278Y137719D02*Y136195D01*
X15926Y137529D02*X16116Y137719D01*
X16497D01*
X16688Y137529D01*
Y136386D01*
X16497Y136195D02*X16688Y136386D01*
X16116Y136195D02*X16497D01*
X15926Y136386D02*X16116Y136195D01*
Y136957D02*X16688D01*
X47086Y23855D02*X48305Y22636D01*
X47086D02*X48305Y23855D01*
X47289Y23652D02*X48102D01*
X47289D02*Y22839D01*
X48102D01*
Y23652D02*Y22839D01*
X47086Y26395D02*X48305Y25176D01*
X47086D02*X48305Y26395D01*
X47289Y26192D02*X48102D01*
X47289D02*Y25379D01*
X48102D01*
Y26192D02*Y25379D01*
X49626Y23855D02*X50845Y22636D01*
X49626D02*X50845Y23855D01*
X49829Y23652D02*X50642D01*
X49829D02*Y22839D01*
X50642D01*
Y23652D02*Y22839D01*
X49626Y26395D02*X50845Y25176D01*
X49626D02*X50845Y26395D01*
X49829Y26192D02*X50642D01*
X49829D02*Y25379D01*
X50642D01*
Y26192D02*Y25379D01*
X52166Y23855D02*X53385Y22636D01*
X52166D02*X53385Y23855D01*
X52369Y23652D02*X53182D01*
X52369D02*Y22839D01*
X53182D01*
Y23652D02*Y22839D01*
X52166Y26395D02*X53385Y25176D01*
X52166D02*X53385Y26395D01*
X52369Y26192D02*X53182D01*
X52369D02*Y25379D01*
X53182D01*
Y26192D02*Y25379D01*
X54706Y23855D02*X55925Y22636D01*
X54706D02*X55925Y23855D01*
X54909Y23652D02*X55722D01*
X54909D02*Y22839D01*
X55722D01*
Y23652D02*Y22839D01*
X54706Y26395D02*X55925Y25176D01*
X54706D02*X55925Y26395D01*
X54909Y26192D02*X55722D01*
X54909D02*Y25379D01*
X55722D01*
Y26192D02*Y25379D01*
X57246Y23855D02*X58465Y22636D01*
X57246D02*X58465Y23855D01*
X57449Y23652D02*X58262D01*
X57449D02*Y22839D01*
X58262D01*
Y23652D02*Y22839D01*
X57246Y26395D02*X58465Y25176D01*
X57246D02*X58465Y26395D01*
X57449Y26192D02*X58262D01*
X57449D02*Y25379D01*
X58262D01*
Y26192D02*Y25379D01*
X59786Y23855D02*X61005Y22636D01*
X59786D02*X61005Y23855D01*
X59989Y23652D02*X60802D01*
X59989D02*Y22839D01*
X60802D01*
Y23652D02*Y22839D01*
X59786Y26395D02*X61005Y25176D01*
X59786D02*X61005Y26395D01*
X59989Y26192D02*X60802D01*
X59989D02*Y25379D01*
X60802D01*
Y26192D02*Y25379D01*
X62326Y23855D02*X63545Y22636D01*
X62326D02*X63545Y23855D01*
X62529Y23652D02*X63342D01*
X62529D02*Y22839D01*
X63342D01*
Y23652D02*Y22839D01*
X62326Y26395D02*X63545Y25176D01*
X62326D02*X63545Y26395D01*
X62529Y26192D02*X63342D01*
X62529D02*Y25379D01*
X63342D01*
Y26192D02*Y25379D01*
X64866Y23855D02*X66085Y22636D01*
X64866D02*X66085Y23855D01*
X65069Y23652D02*X65882D01*
X65069D02*Y22839D01*
X65882D01*
Y23652D02*Y22839D01*
X64866Y26395D02*X66085Y25176D01*
X64866D02*X66085Y26395D01*
X65069Y26192D02*X65882D01*
X65069D02*Y25379D01*
X65882D01*
Y26192D02*Y25379D01*
X67406Y23855D02*X68625Y22636D01*
X67406D02*X68625Y23855D01*
X67609Y23652D02*X68422D01*
X67609D02*Y22839D01*
X68422D01*
Y23652D02*Y22839D01*
X67406Y26395D02*X68625Y25176D01*
X67406D02*X68625Y26395D01*
X67609Y26192D02*X68422D01*
X67609D02*Y25379D01*
X68422D01*
Y26192D02*Y25379D01*
X69946Y23855D02*X71165Y22636D01*
X69946D02*X71165Y23855D01*
X70149Y23652D02*X70962D01*
X70149D02*Y22839D01*
X70962D01*
Y23652D02*Y22839D01*
X69946Y26395D02*X71165Y25176D01*
X69946D02*X71165Y26395D01*
X70149Y26192D02*X70962D01*
X70149D02*Y25379D01*
X70962D01*
Y26192D02*Y25379D01*
X72486Y23855D02*X73705Y22636D01*
X72486D02*X73705Y23855D01*
X72689Y23652D02*X73502D01*
X72689D02*Y22839D01*
X73502D01*
Y23652D02*Y22839D01*
X72486Y26395D02*X73705Y25176D01*
X72486D02*X73705Y26395D01*
X72689Y26192D02*X73502D01*
X72689D02*Y25379D01*
X73502D01*
Y26192D02*Y25379D01*
X75026Y23855D02*X76245Y22636D01*
X75026D02*X76245Y23855D01*
X75229Y23652D02*X76042D01*
X75229D02*Y22839D01*
X76042D01*
Y23652D02*Y22839D01*
X75026Y26395D02*X76245Y25176D01*
X75026D02*X76245Y26395D01*
X75229Y26192D02*X76042D01*
X75229D02*Y25379D01*
X76042D01*
Y26192D02*Y25379D01*
X77566Y23855D02*X78785Y22636D01*
X77566D02*X78785Y23855D01*
X77769Y23652D02*X78582D01*
X77769D02*Y22839D01*
X78582D01*
Y23652D02*Y22839D01*
X77566Y26395D02*X78785Y25176D01*
X77566D02*X78785Y26395D01*
X77769Y26192D02*X78582D01*
X77769D02*Y25379D01*
X78582D01*
Y26192D02*Y25379D01*
X80106Y23855D02*X81325Y22636D01*
X80106D02*X81325Y23855D01*
X80309Y23652D02*X81122D01*
X80309D02*Y22839D01*
X81122D01*
Y23652D02*Y22839D01*
X80106Y26395D02*X81325Y25176D01*
X80106D02*X81325Y26395D01*
X80309Y26192D02*X81122D01*
X80309D02*Y25379D01*
X81122D01*
Y26192D02*Y25379D01*
X3200Y141567D02*X4420Y140348D01*
X3200D02*X4420Y141567D01*
X3404Y141364D02*X4216D01*
X3404D02*Y140551D01*
X4216D01*
Y141364D02*Y140551D01*
X34290Y141529D02*Y141339D01*
X34671Y140958D01*
X35052Y141339D01*
Y141529D02*Y141339D01*
X34671Y140958D02*Y140005D01*
X35509Y140767D02*X36081D01*
X35509Y140005D02*X36271D01*
X35509Y141529D02*Y140005D01*
Y141529D02*X36271D01*
X37490D02*X37681Y141339D01*
X36919Y141529D02*X37490D01*
X36728Y141339D02*X36919Y141529D01*
X36728Y141339D02*Y140958D01*
X36919Y140767D01*
X37490D01*
X37681Y140577D01*
Y140196D01*
X37490Y140005D02*X37681Y140196D01*
X36919Y140005D02*X37490D01*
X36728Y140196D02*X36919Y140005D01*
X24892Y141339D02*X25082Y141529D01*
X25654D01*
X25844Y141339D01*
Y140958D01*
X24892Y140005D02*X25844Y140958D01*
X24892Y140005D02*X25844D01*
X26302Y140196D02*X26492Y140005D01*
X26302Y140577D02*Y140196D01*
Y140577D02*X26492Y140767D01*
X26873D01*
X27064Y140577D01*
Y140196D01*
X26873Y140005D02*X27064Y140196D01*
X26492Y140005D02*X26873D01*
X26302Y140958D02*X26492Y140767D01*
X26302Y141339D02*Y140958D01*
Y141339D02*X26492Y141529D01*
X26873D01*
X27064Y141339D01*
Y140958D01*
X26873Y140767D02*X27064Y140958D01*
X11430Y140196D02*X11620Y140005D01*
X11430Y141339D02*Y140196D01*
Y141339D02*X11620Y141529D01*
X12002D01*
X12192Y141339D01*
Y140196D01*
X12002Y140005D02*X12192Y140196D01*
X11620Y140005D02*X12002D01*
X11430Y140386D02*X12192Y141148D01*
X12649Y140005D02*X12840D01*
X13297Y140196D02*X13487Y140005D01*
X13297Y141339D02*Y140196D01*
Y141339D02*X13487Y141529D01*
X13868D01*
X14059Y141339D01*
Y140196D01*
X13868Y140005D02*X14059Y140196D01*
X13487Y140005D02*X13868D01*
X13297Y140386D02*X14059Y141148D01*
X14516Y140767D02*X15278Y141529D01*
X14516Y140767D02*X15469D01*
X15278Y141529D02*Y140005D01*
X15926Y140196D02*X16116Y140005D01*
X15926Y141339D02*Y140196D01*
Y141339D02*X16116Y141529D01*
X16497D01*
X16688Y141339D01*
Y140196D01*
X16497Y140005D02*X16688Y140196D01*
X16116Y140005D02*X16497D01*
X15926Y140386D02*X16688Y141148D01*
X120350Y21612D02*Y19987D01*
X119537Y20800D02*X121163D01*
X119944Y21206D02*X120756D01*
X119944D02*Y20393D01*
X120756D01*
Y21206D02*Y20393D01*
X122850Y21612D02*Y19987D01*
X122037Y20800D02*X123663D01*
X122444Y21206D02*X123257D01*
X122444D02*Y20393D01*
X123257D01*
Y21206D02*Y20393D01*
X117850Y21612D02*Y19987D01*
X117037Y20800D02*X118663D01*
X117443Y21206D02*X118256D01*
X117443D02*Y20393D01*
X118256D01*
Y21206D02*Y20393D01*
X122850Y7112D02*Y5487D01*
X122037Y6300D02*X123663D01*
X122444Y6706D02*X123257D01*
X122444D02*Y5893D01*
X123257D01*
Y6706D02*Y5893D01*
X117850Y7112D02*Y5487D01*
X117037Y6300D02*X118663D01*
X117443Y6706D02*X118256D01*
X117443D02*Y5893D01*
X118256D01*
Y6706D02*Y5893D01*
X15350Y21613D02*Y19988D01*
X14538Y20800D02*X16163D01*
X14944Y21207D02*X15757D01*
X14944D02*Y20394D01*
X15757D01*
Y21207D02*Y20394D01*
X17851Y21613D02*Y19988D01*
X17038Y20800D02*X18663D01*
X17444Y21207D02*X18257D01*
X17444D02*Y20394D01*
X18257D01*
Y21207D02*Y20394D01*
X12850Y21613D02*Y19988D01*
X12038Y20800D02*X13663D01*
X12444Y21207D02*X13257D01*
X12444D02*Y20394D01*
X13257D01*
Y21207D02*Y20394D01*
X17851Y7113D02*Y5487D01*
X17038Y6300D02*X18663D01*
X17444Y6707D02*X18257D01*
X17444D02*Y5894D01*
X18257D01*
Y6707D02*Y5894D01*
X12850Y7113D02*Y5487D01*
X12038Y6300D02*X13663D01*
X12444Y6707D02*X13257D01*
X12444D02*Y5894D01*
X13257D01*
Y6707D02*Y5894D01*
X30840Y39983D02*Y38358D01*
X30028Y39170D02*X31653D01*
X30434Y39577D02*X31247D01*
X30434D02*Y38764D01*
X31247D01*
Y39577D02*Y38764D01*
X28300Y39983D02*Y38358D01*
X27488Y39170D02*X29113D01*
X27894Y39577D02*X28707D01*
X27894D02*Y38764D01*
X28707D01*
Y39577D02*Y38764D01*
X30840Y37443D02*Y35818D01*
X30028Y36630D02*X31653D01*
X30434Y37037D02*X31247D01*
X30434D02*Y36224D01*
X31247D01*
Y37037D02*Y36224D01*
X28300Y37443D02*Y35818D01*
X27488Y36630D02*X29113D01*
X27894Y37037D02*X28707D01*
X27894D02*Y36224D01*
X28707D01*
Y37037D02*Y36224D01*
X30840Y34903D02*Y33278D01*
X30028Y34090D02*X31653D01*
X30434Y34497D02*X31247D01*
X30434D02*Y33684D01*
X31247D01*
Y34497D02*Y33684D01*
X28300Y34903D02*Y33278D01*
X27488Y34090D02*X29113D01*
X27894Y34497D02*X28707D01*
X27894D02*Y33684D01*
X28707D01*
Y34497D02*Y33684D01*
X30840Y32363D02*Y30738D01*
X30028Y31550D02*X31653D01*
X30434Y31957D02*X31247D01*
X30434D02*Y31144D01*
X31247D01*
Y31957D02*Y31144D01*
X28300Y32363D02*Y30738D01*
X27488Y31550D02*X29113D01*
X27894Y31957D02*X28707D01*
X27894D02*Y31144D01*
X28707D01*
Y31957D02*Y31144D01*
X30840Y29823D02*Y28198D01*
X30028Y29010D02*X31653D01*
X30434Y29417D02*X31247D01*
X30434D02*Y28604D01*
X31247D01*
Y29417D02*Y28604D01*
X28300Y29823D02*Y28198D01*
X27488Y29010D02*X29113D01*
X27894Y29417D02*X28707D01*
X27894D02*Y28604D01*
X28707D01*
Y29417D02*Y28604D01*
X30840Y27283D02*Y25658D01*
X30028Y26470D02*X31653D01*
X30434Y26877D02*X31247D01*
X30434D02*Y26064D01*
X31247D01*
Y26877D02*Y26064D01*
X28300Y27283D02*Y25658D01*
X27488Y26470D02*X29113D01*
X27894Y26877D02*X28707D01*
X27894D02*Y26064D01*
X28707D01*
Y26877D02*Y26064D01*
X30840Y24743D02*Y23118D01*
X30028Y23930D02*X31653D01*
X30434Y24337D02*X31247D01*
X30434D02*Y23524D01*
X31247D01*
Y24337D02*Y23524D01*
X28300Y24743D02*Y23118D01*
X27488Y23930D02*X29113D01*
X27894Y24337D02*X28707D01*
X27894D02*Y23524D01*
X28707D01*
Y24337D02*Y23524D01*
X146680Y57113D02*Y55487D01*
X145867Y56300D02*X147493D01*
X146274Y56707D02*X147087D01*
X146274D02*Y55894D01*
X147087D01*
Y56707D02*Y55894D01*
X141600Y57113D02*Y55487D01*
X140787Y56300D02*X142413D01*
X141194Y56707D02*X142007D01*
X141194D02*Y55894D01*
X142007D01*
Y56707D02*Y55894D01*
X3810Y145580D02*Y143955D01*
X2997Y144768D02*X4623D01*
X3404Y145174D02*X4216D01*
X3404D02*Y144361D01*
X4216D01*
Y145174D02*Y144361D01*
X34290Y145339D02*Y145149D01*
X34671Y144768D01*
X35052Y145149D01*
Y145339D02*Y145149D01*
X34671Y144768D02*Y143815D01*
X35509Y144577D02*X36081D01*
X35509Y143815D02*X36271D01*
X35509Y145339D02*Y143815D01*
Y145339D02*X36271D01*
X37490D02*X37681Y145149D01*
X36919Y145339D02*X37490D01*
X36728Y145149D02*X36919Y145339D01*
X36728Y145149D02*Y144768D01*
X36919Y144577D01*
X37490D01*
X37681Y144387D01*
Y144006D01*
X37490Y143815D02*X37681Y144006D01*
X36919Y143815D02*X37490D01*
X36728Y144006D02*X36919Y143815D01*
X24892Y145149D02*X25082Y145339D01*
X25654D01*
X25844Y145149D01*
Y144768D01*
X24892Y143815D02*X25844Y144768D01*
X24892Y143815D02*X25844D01*
X26873Y145339D02*X27064Y145149D01*
X26492Y145339D02*X26873D01*
X26302Y145149D02*X26492Y145339D01*
X26302Y145149D02*Y144006D01*
X26492Y143815D01*
X26873Y144577D02*X27064Y144387D01*
X26302Y144577D02*X26873D01*
X26492Y143815D02*X26873D01*
X27064Y144006D01*
Y144387D02*Y144006D01*
X11430D02*X11620Y143815D01*
X11430Y145149D02*Y144006D01*
Y145149D02*X11620Y145339D01*
X12002D01*
X12192Y145149D01*
Y144006D01*
X12002Y143815D02*X12192Y144006D01*
X11620Y143815D02*X12002D01*
X11430Y144196D02*X12192Y144958D01*
X12649Y143815D02*X12840D01*
X13297Y144006D02*X13487Y143815D01*
X13297Y145149D02*Y144006D01*
Y145149D02*X13487Y145339D01*
X13868D01*
X14059Y145149D01*
Y144006D01*
X13868Y143815D02*X14059Y144006D01*
X13487Y143815D02*X13868D01*
X13297Y144196D02*X14059Y144958D01*
X14516Y145149D02*X14707Y145339D01*
X15088D01*
X15278Y145149D01*
Y144006D01*
X15088Y143815D02*X15278Y144006D01*
X14707Y143815D02*X15088D01*
X14516Y144006D02*X14707Y143815D01*
Y144577D02*X15278D01*
X15735Y143815D02*X16497Y144577D01*
Y145149D02*Y144577D01*
X16307Y145339D02*X16497Y145149D01*
X15926Y145339D02*X16307D01*
X15735Y145149D02*X15926Y145339D01*
X15735Y145149D02*Y144768D01*
X15926Y144577D01*
X16497D01*
X21200Y49180D02*Y48368D01*
Y49180D02*X21905Y49587D01*
X21200Y49180D02*X20496Y49587D01*
X20794Y49180D02*G75*G03X21607Y49180I406J0D01*G01*
G75*G03X20794Y49180I-406J0D01*G01*
X21200Y51720D02*Y50908D01*
Y51720D02*X21905Y52127D01*
X21200Y51720D02*X20496Y52127D01*
X20794Y51720D02*G75*G03X21607Y51720I406J0D01*G01*
G75*G03X20794Y51720I-406J0D01*G01*
X21200Y54260D02*Y53448D01*
Y54260D02*X21905Y54667D01*
X21200Y54260D02*X20496Y54667D01*
X20794Y54260D02*G75*G03X21607Y54260I406J0D01*G01*
G75*G03X20794Y54260I-406J0D01*G01*
X21200Y56800D02*Y55988D01*
Y56800D02*X21905Y57207D01*
X21200Y56800D02*X20496Y57207D01*
X20794Y56800D02*G75*G03X21607Y56800I406J0D01*G01*
G75*G03X20794Y56800I-406J0D01*G01*
X130200Y78880D02*Y78067D01*
Y78880D02*X130904Y79286D01*
X130200Y78880D02*X129495Y79286D01*
X129793Y78880D02*G75*G03X130606Y78880I406J0D01*G01*
G75*G03X129793Y78880I-406J0D01*G01*
X130200Y76340D02*Y75527D01*
Y76340D02*X130904Y76746D01*
X130200Y76340D02*X129495Y76746D01*
X129793Y76340D02*G75*G03X130606Y76340I406J0D01*G01*
G75*G03X129793Y76340I-406J0D01*G01*
X130200Y73800D02*Y72987D01*
Y73800D02*X130904Y74206D01*
X130200Y73800D02*X129495Y74206D01*
X129793Y73800D02*G75*G03X130606Y73800I406J0D01*G01*
G75*G03X129793Y73800I-406J0D01*G01*
X130200Y71260D02*Y70447D01*
Y71260D02*X130904Y71666D01*
X130200Y71260D02*X129495Y71666D01*
X129793Y71260D02*G75*G03X130606Y71260I406J0D01*G01*
G75*G03X129793Y71260I-406J0D01*G01*
X3810Y148578D02*Y147765D01*
Y148578D02*X4514Y148984D01*
X3810Y148578D02*X3106Y148984D01*
X3404Y148578D02*G75*G03X4216Y148578I406J0D01*G01*
G75*G03X3404Y148578I-406J0D01*G01*
X34290Y149149D02*Y148959D01*
X34671Y148578D01*
X35052Y148959D01*
Y149149D02*Y148959D01*
X34671Y148578D02*Y147625D01*
X35509Y148387D02*X36081D01*
X35509Y147625D02*X36271D01*
X35509Y149149D02*Y147625D01*
Y149149D02*X36271D01*
X37490D02*X37681Y148959D01*
X36919Y149149D02*X37490D01*
X36728Y148959D02*X36919Y149149D01*
X36728Y148959D02*Y148578D01*
X36919Y148387D01*
X37490D01*
X37681Y148197D01*
Y147816D01*
X37490Y147625D02*X37681Y147816D01*
X36919Y147625D02*X37490D01*
X36728Y147816D02*X36919Y147625D01*
X24892Y147816D02*X25082Y147625D01*
X24892Y148197D02*Y147816D01*
Y148197D02*X25082Y148387D01*
X25464D01*
X25654Y148197D01*
Y147816D01*
X25464Y147625D02*X25654Y147816D01*
X25082Y147625D02*X25464D01*
X24892Y148578D02*X25082Y148387D01*
X24892Y148959D02*Y148578D01*
Y148959D02*X25082Y149149D01*
X25464D01*
X25654Y148959D01*
Y148578D01*
X25464Y148387D02*X25654Y148578D01*
X11430Y147816D02*X11620Y147625D01*
X11430Y148959D02*Y147816D01*
Y148959D02*X11620Y149149D01*
X12002D01*
X12192Y148959D01*
Y147816D01*
X12002Y147625D02*X12192Y147816D01*
X11620Y147625D02*X12002D01*
X11430Y148006D02*X12192Y148768D01*
X12649Y147625D02*X12840D01*
X13297Y147816D02*X13487Y147625D01*
X13297Y148959D02*Y147816D01*
Y148959D02*X13487Y149149D01*
X13868D01*
X14059Y148959D01*
Y147816D01*
X13868Y147625D02*X14059Y147816D01*
X13487Y147625D02*X13868D01*
X13297Y148006D02*X14059Y148768D01*
X14516Y148959D02*X14707Y149149D01*
X15088D01*
X15278Y148959D01*
Y147816D01*
X15088Y147625D02*X15278Y147816D01*
X14707Y147625D02*X15088D01*
X14516Y147816D02*X14707Y147625D01*
Y148387D02*X15278D01*
X15735Y147816D02*X15926Y147625D01*
X15735Y148197D02*Y147816D01*
Y148197D02*X15926Y148387D01*
X16307D01*
X16497Y148197D01*
Y147816D01*
X16307Y147625D02*X16497Y147816D01*
X15926Y147625D02*X16307D01*
X15735Y148578D02*X15926Y148387D01*
X15735Y148959D02*Y148578D01*
Y148959D02*X15926Y149149D01*
X16307D01*
X16497Y148959D01*
Y148578D01*
X16307Y148387D02*X16497Y148578D01*
X133793Y72006D02*X134606D01*
X133793D02*Y71194D01*
X134606D01*
Y72006D02*Y71194D01*
X133793Y74507D02*X134606D01*
X133793D02*Y73694D01*
X134606D01*
Y74507D02*Y73694D01*
X133793Y76506D02*X134606D01*
X133793D02*Y75694D01*
X134606D01*
Y76506D02*Y75694D01*
X133793Y79007D02*X134606D01*
X133793D02*Y78194D01*
X134606D01*
Y79007D02*Y78194D01*
X3404Y152794D02*X4216D01*
X3404D02*Y151981D01*
X4216D01*
Y152794D02*Y151981D01*
X34290Y152959D02*Y152769D01*
X34671Y152388D01*
X35052Y152769D01*
Y152959D02*Y152769D01*
X34671Y152388D02*Y151435D01*
X35509Y152197D02*X36081D01*
X35509Y151435D02*X36271D01*
X35509Y152959D02*Y151435D01*
Y152959D02*X36271D01*
X37490D02*X37681Y152769D01*
X36919Y152959D02*X37490D01*
X36728Y152769D02*X36919Y152959D01*
X36728Y152769D02*Y152388D01*
X36919Y152197D01*
X37490D01*
X37681Y152007D01*
Y151626D01*
X37490Y151435D02*X37681Y151626D01*
X36919Y151435D02*X37490D01*
X36728Y151626D02*X36919Y151435D01*
X24892Y152197D02*X25654Y152959D01*
X24892Y152197D02*X25844D01*
X25654Y152959D02*Y151435D01*
X11430Y151626D02*X11620Y151435D01*
X11430Y152769D02*Y151626D01*
Y152769D02*X11620Y152959D01*
X12002D01*
X12192Y152769D01*
Y151626D01*
X12002Y151435D02*X12192Y151626D01*
X11620Y151435D02*X12002D01*
X11430Y151816D02*X12192Y152578D01*
X12649Y151435D02*X12840D01*
X13297Y151626D02*X13487Y151435D01*
X13297Y152769D02*Y151626D01*
Y152769D02*X13487Y152959D01*
X13868D01*
X14059Y152769D01*
Y151626D01*
X13868Y151435D02*X14059Y151626D01*
X13487Y151435D02*X13868D01*
X13297Y151816D02*X14059Y152578D01*
X14516Y152769D02*X14707Y152959D01*
X15088D01*
X15278Y152769D01*
Y151626D01*
X15088Y151435D02*X15278Y151626D01*
X14707Y151435D02*X15088D01*
X14516Y151626D02*X14707Y151435D01*
Y152197D02*X15278D01*
X16307Y152959D02*X16497Y152769D01*
X15926Y152959D02*X16307D01*
X15735Y152769D02*X15926Y152959D01*
X15735Y152769D02*Y151626D01*
X15926Y151435D01*
X16307Y152197D02*X16497Y152007D01*
X15735Y152197D02*X16307D01*
X15926Y151435D02*X16307D01*
X16497Y151626D01*
Y152007D02*Y151626D01*
X15847Y37011D02*G75*G03X16253Y37011I203J0D01*G01*
G75*G03X15847Y37011I-203J0D01*G01*
X13307Y35741D02*G75*G03X13713Y35741I203J0D01*G01*
G75*G03X13307Y35741I-203J0D01*G01*
X15847Y31931D02*G75*G03X16253Y31931I203J0D01*G01*
G75*G03X15847Y31931I-203J0D01*G01*
X13307Y30661D02*G75*G03X13713Y30661I203J0D01*G01*
G75*G03X13307Y30661I-203J0D01*G01*
Y33201D02*G75*G03X13713Y33201I203J0D01*G01*
G75*G03X13307Y33201I-203J0D01*G01*
Y28121D02*G75*G03X13713Y28121I203J0D01*G01*
G75*G03X13307Y28121I-203J0D01*G01*
X15847Y29391D02*G75*G03X16253Y29391I203J0D01*G01*
G75*G03X15847Y29391I-203J0D01*G01*
Y34471D02*G75*G03X16253Y34471I203J0D01*G01*
G75*G03X15847Y34471I-203J0D01*G01*
Y56300D02*G75*G03X16253Y56300I203J0D01*G01*
G75*G03X15847Y56300I-203J0D01*G01*
X13307Y55030D02*G75*G03X13713Y55030I203J0D01*G01*
G75*G03X13307Y55030I-203J0D01*G01*
X15847Y51220D02*G75*G03X16253Y51220I203J0D01*G01*
G75*G03X15847Y51220I-203J0D01*G01*
X13307Y49950D02*G75*G03X13713Y49950I203J0D01*G01*
G75*G03X13307Y49950I-203J0D01*G01*
Y52490D02*G75*G03X13713Y52490I203J0D01*G01*
G75*G03X13307Y52490I-203J0D01*G01*
Y47410D02*G75*G03X13713Y47410I203J0D01*G01*
G75*G03X13307Y47410I-203J0D01*G01*
X15847Y48680D02*G75*G03X16253Y48680I203J0D01*G01*
G75*G03X15847Y48680I-203J0D01*G01*
Y53760D02*G75*G03X16253Y53760I203J0D01*G01*
G75*G03X15847Y53760I-203J0D01*G01*
X3607Y156198D02*G75*G03X4013Y156198I203J0D01*G01*
G75*G03X3607Y156198I-203J0D01*G01*
X34290Y156769D02*Y156579D01*
X34671Y156198D01*
X35052Y156579D01*
Y156769D02*Y156579D01*
X34671Y156198D02*Y155245D01*
X35509Y156007D02*X36081D01*
X35509Y155245D02*X36271D01*
X35509Y156769D02*Y155245D01*
Y156769D02*X36271D01*
X37490D02*X37681Y156579D01*
X36919Y156769D02*X37490D01*
X36728Y156579D02*X36919Y156769D01*
X36728Y156579D02*Y156198D01*
X36919Y156007D01*
X37490D01*
X37681Y155817D01*
Y155436D01*
X37490Y155245D02*X37681Y155436D01*
X36919Y155245D02*X37490D01*
X36728Y155436D02*X36919Y155245D01*
X25082D02*X25464D01*
X25273Y156769D02*Y155245D01*
X24892Y156388D02*X25273Y156769D01*
X26492D02*X26683Y156579D01*
X26111Y156769D02*X26492D01*
X25921Y156579D02*X26111Y156769D01*
X25921Y156579D02*Y155436D01*
X26111Y155245D01*
X26492Y156007D02*X26683Y155817D01*
X25921Y156007D02*X26492D01*
X26111Y155245D02*X26492D01*
X26683Y155436D01*
Y155817D02*Y155436D01*
X11430D02*X11620Y155245D01*
X11430Y156579D02*Y155436D01*
Y156579D02*X11620Y156769D01*
X12002D01*
X12192Y156579D01*
Y155436D01*
X12002Y155245D02*X12192Y155436D01*
X11620Y155245D02*X12002D01*
X11430Y155626D02*X12192Y156388D01*
X12649Y155245D02*X12840D01*
X13297Y155436D02*X13487Y155245D01*
X13297Y156579D02*Y155436D01*
Y156579D02*X13487Y156769D01*
X13868D01*
X14059Y156579D01*
Y155436D01*
X13868Y155245D02*X14059Y155436D01*
X13487Y155245D02*X13868D01*
X13297Y155626D02*X14059Y156388D01*
X14516Y156579D02*X14707Y156769D01*
X15088D01*
X15278Y156579D01*
Y155436D01*
X15088Y155245D02*X15278Y155436D01*
X14707Y155245D02*X15088D01*
X14516Y155436D02*X14707Y155245D01*
Y156007D02*X15278D01*
X15735Y156769D02*X16497D01*
X15735D02*Y156007D01*
X15926Y156198D01*
X16307D01*
X16497Y156007D01*
Y155436D01*
X16307Y155245D02*X16497Y155436D01*
X15926Y155245D02*X16307D01*
X15735Y155436D02*X15926Y155245D01*
X147035Y39885D02*X147645Y39275D01*
X147035D02*X147645Y39885D01*
X147035Y44965D02*X147645Y44355D01*
X147035D02*X147645Y44965D01*
X3505Y160312D02*X4115Y159703D01*
X3505D02*X4115Y160312D01*
X34290Y160579D02*Y160389D01*
X34671Y160008D01*
X35052Y160389D01*
Y160579D02*Y160389D01*
X34671Y160008D02*Y159055D01*
X35509Y159817D02*X36081D01*
X35509Y159055D02*X36271D01*
X35509Y160579D02*Y159055D01*
Y160579D02*X36271D01*
X37490D02*X37681Y160389D01*
X36919Y160579D02*X37490D01*
X36728Y160389D02*X36919Y160579D01*
X36728Y160389D02*Y160008D01*
X36919Y159817D01*
X37490D01*
X37681Y159627D01*
Y159246D01*
X37490Y159055D02*X37681Y159246D01*
X36919Y159055D02*X37490D01*
X36728Y159246D02*X36919Y159055D01*
X24892Y160389D02*X25082Y160579D01*
X25654D01*
X25844Y160389D01*
Y160008D01*
X24892Y159055D02*X25844Y160008D01*
X24892Y159055D02*X25844D01*
X11430Y159246D02*X11620Y159055D01*
X11430Y160389D02*Y159246D01*
Y160389D02*X11620Y160579D01*
X12002D01*
X12192Y160389D01*
Y159246D01*
X12002Y159055D02*X12192Y159246D01*
X11620Y159055D02*X12002D01*
X11430Y159436D02*X12192Y160198D01*
X12649Y159055D02*X12840D01*
X13297Y159246D02*X13487Y159055D01*
X13297Y160389D02*Y159246D01*
Y160389D02*X13487Y160579D01*
X13868D01*
X14059Y160389D01*
Y159246D01*
X13868Y159055D02*X14059Y159246D01*
X13487Y159055D02*X13868D01*
X13297Y159436D02*X14059Y160198D01*
X14516Y160389D02*X14707Y160579D01*
X15088D01*
X15278Y160389D01*
Y159246D01*
X15088Y159055D02*X15278Y159246D01*
X14707Y159055D02*X15088D01*
X14516Y159246D02*X14707Y159055D01*
Y159817D02*X15278D01*
X15735Y159246D02*X15926Y159055D01*
X15735Y160389D02*Y159246D01*
Y160389D02*X15926Y160579D01*
X16307D01*
X16497Y160389D01*
Y159246D01*
X16307Y159055D02*X16497Y159246D01*
X15926Y159055D02*X16307D01*
X15735Y159436D02*X16497Y160198D01*
X85541Y23524D02*Y22712D01*
X85135Y23118D02*X85948D01*
X85541Y22254D02*Y21442D01*
X85135Y21848D02*X85948D01*
X86811Y23524D02*Y22712D01*
X86405Y23118D02*X87218D01*
X86811Y22254D02*Y21442D01*
X86405Y21848D02*X87218D01*
X88081Y23524D02*Y22712D01*
X87675Y23118D02*X88488D01*
X88081Y22254D02*Y21442D01*
X87675Y21848D02*X88488D01*
X89351Y23524D02*Y22712D01*
X88945Y23118D02*X89758D01*
X89351Y22254D02*Y21442D01*
X88945Y21848D02*X89758D01*
X90621Y23524D02*Y22712D01*
X90215Y23118D02*X91028D01*
X90621Y22254D02*Y21442D01*
X90215Y21848D02*X91028D01*
X91891Y23524D02*Y22712D01*
X91485Y23118D02*X92298D01*
X91891Y22254D02*Y21442D01*
X91485Y21848D02*X92298D01*
X93161Y23524D02*Y22712D01*
X92755Y23118D02*X93568D01*
X93161Y22254D02*Y21442D01*
X92755Y21848D02*X93568D01*
X94431Y23524D02*Y22712D01*
X94025Y23118D02*X94838D01*
X94431Y22254D02*Y21442D01*
X94025Y21848D02*X94838D01*
X95701Y23524D02*Y22712D01*
X95295Y23118D02*X96108D01*
X95701Y22254D02*Y21442D01*
X95295Y21848D02*X96108D01*
X96971Y23524D02*Y22712D01*
X96565Y23118D02*X97378D01*
X96971Y22254D02*Y21442D01*
X96565Y21848D02*X97378D01*
X85541Y27970D02*Y27157D01*
X85135Y27563D02*X85948D01*
X85541Y26700D02*Y25887D01*
X85135Y26293D02*X85948D01*
X86811Y27970D02*Y27157D01*
X86405Y27563D02*X87218D01*
X86811Y26700D02*Y25887D01*
X86405Y26293D02*X87218D01*
X88081Y27970D02*Y27157D01*
X87675Y27563D02*X88488D01*
X88081Y26700D02*Y25887D01*
X87675Y26293D02*X88488D01*
X89351Y27970D02*Y27157D01*
X88945Y27563D02*X89758D01*
X89351Y26700D02*Y25887D01*
X88945Y26293D02*X89758D01*
X90621Y27970D02*Y27157D01*
X90215Y27563D02*X91028D01*
X90621Y26700D02*Y25887D01*
X90215Y26293D02*X91028D01*
X91891Y27970D02*Y27157D01*
X91485Y27563D02*X92298D01*
X91891Y26700D02*Y25887D01*
X91485Y26293D02*X92298D01*
X93161Y27970D02*Y27157D01*
X92755Y27563D02*X93568D01*
X93161Y26700D02*Y25887D01*
X92755Y26293D02*X93568D01*
X94431Y27970D02*Y27157D01*
X94025Y27563D02*X94838D01*
X94431Y26700D02*Y25887D01*
X94025Y26293D02*X94838D01*
X95701Y27970D02*Y27157D01*
X95295Y27563D02*X96108D01*
X95701Y26700D02*Y25887D01*
X95295Y26293D02*X96108D01*
X96971Y27970D02*Y27157D01*
X96565Y27563D02*X97378D01*
X96971Y26700D02*Y25887D01*
X96565Y26293D02*X97378D01*
X3810Y164224D02*Y163411D01*
X3404Y163818D02*X4216D01*
X34290Y164389D02*Y164199D01*
X34671Y163818D01*
X35052Y164199D01*
Y164389D02*Y164199D01*
X34671Y163818D02*Y162865D01*
X35509Y163627D02*X36081D01*
X35509Y162865D02*X36271D01*
X35509Y164389D02*Y162865D01*
Y164389D02*X36271D01*
X37490D02*X37681Y164199D01*
X36919Y164389D02*X37490D01*
X36728Y164199D02*X36919Y164389D01*
X36728Y164199D02*Y163818D01*
X36919Y163627D01*
X37490D01*
X37681Y163437D01*
Y163056D01*
X37490Y162865D02*X37681Y163056D01*
X36919Y162865D02*X37490D01*
X36728Y163056D02*X36919Y162865D01*
X24892Y163627D02*X25654Y164389D01*
X24892Y163627D02*X25844D01*
X25654Y164389D02*Y162865D01*
X26302Y163056D02*X26492Y162865D01*
X26302Y164199D02*Y163056D01*
Y164199D02*X26492Y164389D01*
X26873D01*
X27064Y164199D01*
Y163056D01*
X26873Y162865D02*X27064Y163056D01*
X26492Y162865D02*X26873D01*
X26302Y163246D02*X27064Y164008D01*
X11430Y163056D02*X11620Y162865D01*
X11430Y164199D02*Y163056D01*
Y164199D02*X11620Y164389D01*
X12002D01*
X12192Y164199D01*
Y163056D01*
X12002Y162865D02*X12192Y163056D01*
X11620Y162865D02*X12002D01*
X11430Y163246D02*X12192Y164008D01*
X12649Y162865D02*X12840D01*
X13297Y163056D02*X13487Y162865D01*
X13297Y164199D02*Y163056D01*
Y164199D02*X13487Y164389D01*
X13868D01*
X14059Y164199D01*
Y163056D01*
X13868Y162865D02*X14059Y163056D01*
X13487Y162865D02*X13868D01*
X13297Y163246D02*X14059Y164008D01*
X14516Y164199D02*X14707Y164389D01*
X15278D01*
X15469Y164199D01*
Y163818D01*
X14516Y162865D02*X15469Y163818D01*
X14516Y162865D02*X15469D01*
X16497Y164389D02*X16688Y164199D01*
X16116Y164389D02*X16497D01*
X15926Y164199D02*X16116Y164389D01*
X15926Y164199D02*Y163056D01*
X16116Y162865D01*
X16497Y163627D02*X16688Y163437D01*
X15926Y163627D02*X16497D01*
X16116Y162865D02*X16497D01*
X16688Y163056D01*
Y163437D02*Y163056D01*
X81500Y34100D02*Y33694D01*
Y34100D02*X81852Y34303D01*
X81500Y34100D02*X81148Y34303D01*
X83100Y34400D02*Y33994D01*
Y34400D02*X83452Y34604D01*
X83100Y34400D02*X82748Y34604D01*
X83100Y35500D02*Y35094D01*
Y35500D02*X83452Y35703D01*
X83100Y35500D02*X82748Y35703D01*
X84000Y32000D02*Y31594D01*
Y32000D02*X84352Y32203D01*
X84000Y32000D02*X83648Y32203D01*
X74400Y28000D02*Y27594D01*
Y28000D02*X74752Y28203D01*
X74400Y28000D02*X74048Y28203D01*
X73600Y35200D02*Y34794D01*
Y35200D02*X73952Y35403D01*
X73600Y35200D02*X73248Y35403D01*
X71400Y30600D02*Y30194D01*
Y30600D02*X71752Y30803D01*
X71400Y30600D02*X71048Y30803D01*
X68200Y30600D02*Y30194D01*
Y30600D02*X68552Y30803D01*
X68200Y30600D02*X67848Y30803D01*
X70500Y31600D02*Y31194D01*
Y31600D02*X70852Y31803D01*
X70500Y31600D02*X70148Y31803D01*
X65000Y31600D02*Y31194D01*
Y31600D02*X65352Y31803D01*
X65000Y31600D02*X64648Y31803D01*
X87600Y30600D02*Y30194D01*
Y30600D02*X87952Y30803D01*
X87600Y30600D02*X87248Y30803D01*
X88300Y29100D02*Y28694D01*
Y29100D02*X88652Y29304D01*
X88300Y29100D02*X87948Y29304D01*
X89300Y31800D02*Y31394D01*
Y31800D02*X89652Y32003D01*
X89300Y31800D02*X88948Y32003D01*
X99800Y26300D02*Y25894D01*
Y26300D02*X100152Y26503D01*
X99800Y26300D02*X99448Y26503D01*
X95900Y30200D02*Y29794D01*
Y30200D02*X96252Y30403D01*
X95900Y30200D02*X95548Y30403D01*
X69300Y29500D02*Y29094D01*
Y29500D02*X69652Y29703D01*
X69300Y29500D02*X68948Y29703D01*
X94900Y30900D02*Y30494D01*
Y30900D02*X95252Y31103D01*
X94900Y30900D02*X94548Y31103D01*
X69400Y32600D02*Y32194D01*
Y32600D02*X69752Y32803D01*
X69400Y32600D02*X69048Y32803D01*
X97800Y32300D02*Y31894D01*
Y32300D02*X98152Y32503D01*
X97800Y32300D02*X97448Y32503D01*
X94600Y32300D02*Y31894D01*
Y32300D02*X94952Y32503D01*
X94600Y32300D02*X94248Y32503D01*
X96900Y33400D02*Y32994D01*
Y33400D02*X97252Y33604D01*
X96900Y33400D02*X96548Y33604D01*
X69500Y37100D02*Y36694D01*
Y37100D02*X69852Y37304D01*
X69500Y37100D02*X69148Y37304D01*
X96000Y34300D02*Y33894D01*
Y34300D02*X96352Y34503D01*
X96000Y34300D02*X95648Y34503D01*
X63500Y37900D02*Y37494D01*
Y37900D02*X63852Y38103D01*
X63500Y37900D02*X63148Y38103D01*
X95100Y35200D02*Y34794D01*
Y35200D02*X95452Y35403D01*
X95100Y35200D02*X94748Y35403D01*
X70700Y39000D02*Y38594D01*
Y39000D02*X71052Y39203D01*
X70700Y39000D02*X70348Y39203D01*
X94200Y36200D02*Y35794D01*
Y36200D02*X94552Y36403D01*
X94200Y36200D02*X93848Y36403D01*
X65800Y39600D02*Y39194D01*
Y39600D02*X66152Y39803D01*
X65800Y39600D02*X65448Y39803D01*
X93300Y37100D02*Y36694D01*
Y37100D02*X93652Y37304D01*
X93300Y37100D02*X92948Y37304D01*
X78500Y39800D02*Y39394D01*
Y39800D02*X78852Y40003D01*
X78500Y39800D02*X78148Y40003D01*
X92400Y38000D02*Y37594D01*
Y38000D02*X92752Y38203D01*
X92400Y38000D02*X92048Y38203D01*
X75600Y40600D02*Y40194D01*
Y40600D02*X75952Y40803D01*
X75600Y40600D02*X75248Y40803D01*
X91500Y38800D02*Y38394D01*
Y38800D02*X91852Y39004D01*
X91500Y38800D02*X91148Y39004D01*
X71900Y41500D02*Y41094D01*
Y41500D02*X72252Y41703D01*
X71900Y41500D02*X71548Y41703D01*
X68000Y33500D02*Y33094D01*
Y33500D02*X68352Y33703D01*
X68000Y33500D02*X67648Y33703D01*
X59600Y33800D02*Y33394D01*
Y33800D02*X59952Y34003D01*
X59600Y33800D02*X59248Y34003D01*
X35600Y73900D02*Y73494D01*
Y73900D02*X35952Y74104D01*
X35600Y73900D02*X35248Y74104D01*
X156200Y15500D02*Y15094D01*
Y15500D02*X156552Y15703D01*
X156200Y15500D02*X155848Y15703D01*
X161300Y12400D02*Y11994D01*
Y12400D02*X161652Y12603D01*
X161300Y12400D02*X160948Y12603D01*
X162300Y15300D02*Y14894D01*
Y15300D02*X162652Y15503D01*
X162300Y15300D02*X161948Y15503D01*
X161300Y14400D02*Y13994D01*
Y14400D02*X161652Y14603D01*
X161300Y14400D02*X160948Y14603D01*
X156700Y16600D02*Y16194D01*
Y16600D02*X157052Y16803D01*
X156700Y16600D02*X156348Y16803D01*
X162300Y13400D02*Y12994D01*
Y13400D02*X162652Y13603D01*
X162300Y13400D02*X161948Y13603D01*
X152900Y15800D02*Y15394D01*
Y15800D02*X153252Y16003D01*
X152900Y15800D02*X152548Y16003D01*
X152900Y14800D02*Y14394D01*
Y14800D02*X153252Y15003D01*
X152900Y14800D02*X152548Y15003D01*
X152900Y13800D02*Y13394D01*
Y13800D02*X153252Y14003D01*
X152900Y13800D02*X152548Y14003D01*
X151900Y14800D02*Y14394D01*
Y14800D02*X152252Y15003D01*
X151900Y14800D02*X151548Y15003D01*
X151900Y13800D02*Y13394D01*
Y13800D02*X152252Y14003D01*
X151900Y13800D02*X151548Y14003D01*
X151900Y12800D02*Y12394D01*
Y12800D02*X152252Y13003D01*
X151900Y12800D02*X151548Y13003D01*
X152900Y12800D02*Y12394D01*
Y12800D02*X153252Y13003D01*
X152900Y12800D02*X152548Y13003D01*
X152900Y11800D02*Y11394D01*
Y11800D02*X153252Y12003D01*
X152900Y11800D02*X152548Y12003D01*
X150900Y12200D02*Y11794D01*
Y12200D02*X151252Y12403D01*
X150900Y12200D02*X150548Y12403D01*
X150300Y13000D02*Y12594D01*
Y13000D02*X150652Y13204D01*
X150300Y13000D02*X149948Y13204D01*
X151900Y11800D02*Y11394D01*
Y11800D02*X152252Y12003D01*
X151900Y11800D02*X151548Y12003D01*
X150900Y13800D02*Y13394D01*
Y13800D02*X151252Y14003D01*
X150900Y13800D02*X150548Y14003D01*
X155700Y17600D02*Y17194D01*
Y17600D02*X156052Y17803D01*
X155700Y17600D02*X155348Y17803D01*
X157700Y17600D02*Y17194D01*
Y17600D02*X158052Y17803D01*
X157700Y17600D02*X157348Y17803D01*
X154100Y17000D02*Y16594D01*
Y17000D02*X154452Y17204D01*
X154100Y17000D02*X153748Y17204D01*
X156700Y18600D02*Y18194D01*
Y18600D02*X157052Y18803D01*
X156700Y18600D02*X156348Y18803D01*
X160700Y18600D02*Y18194D01*
Y18600D02*X161052Y18803D01*
X160700Y18600D02*X160348Y18803D01*
X158700Y18600D02*Y18194D01*
Y18600D02*X159052Y18803D01*
X158700Y18600D02*X158348Y18803D01*
X159700Y19600D02*Y19194D01*
Y19600D02*X160052Y19803D01*
X159700Y19600D02*X159348Y19803D01*
X157700Y19600D02*Y19194D01*
Y19600D02*X158052Y19803D01*
X157700Y19600D02*X157348Y19803D01*
X160700Y16600D02*Y16194D01*
Y16600D02*X161052Y16803D01*
X160700Y16600D02*X160348Y16803D01*
X159700Y21600D02*Y21194D01*
Y21600D02*X160052Y21803D01*
X159700Y21600D02*X159348Y21803D01*
X161700Y17600D02*Y17194D01*
Y17600D02*X162052Y17803D01*
X161700Y17600D02*X161348Y17803D01*
X158700Y20600D02*Y20194D01*
Y20600D02*X159052Y20803D01*
X158700Y20600D02*X158348Y20803D01*
X160700Y20600D02*Y20194D01*
Y20600D02*X161052Y20803D01*
X160700Y20600D02*X160348Y20803D01*
X159700Y17600D02*Y17194D01*
Y17600D02*X160052Y17803D01*
X159700Y17600D02*X159348Y17803D01*
X161700Y19600D02*Y19194D01*
Y19600D02*X162052Y19803D01*
X161700Y19600D02*X161348Y19803D01*
X161700Y21600D02*Y21194D01*
Y21600D02*X162052Y21803D01*
X161700Y21600D02*X161348Y21803D01*
X161700Y23600D02*Y23194D01*
Y23600D02*X162052Y23803D01*
X161700Y23600D02*X161348Y23803D01*
X161600Y9050D02*Y8644D01*
Y9050D02*X161952Y9254D01*
X161600Y9050D02*X161248Y9254D01*
X161600Y7050D02*Y6644D01*
Y7050D02*X161952Y7254D01*
X161600Y7050D02*X161248Y7254D01*
X161600Y6050D02*Y5644D01*
Y6050D02*X161952Y6254D01*
X161600Y6050D02*X161248Y6254D01*
X161600Y5050D02*Y4644D01*
Y5050D02*X161952Y5254D01*
X161600Y5050D02*X161248Y5254D01*
X161600Y4050D02*Y3644D01*
Y4050D02*X161952Y4254D01*
X161600Y4050D02*X161248Y4254D01*
X152100Y4050D02*Y3644D01*
Y4050D02*X152452Y4254D01*
X152100Y4050D02*X151748Y4254D01*
X152100Y5050D02*Y4644D01*
Y5050D02*X152452Y5254D01*
X152100Y5050D02*X151748Y5254D01*
X152100Y6050D02*Y5644D01*
Y6050D02*X152452Y6254D01*
X152100Y6050D02*X151748Y6254D01*
X152100Y7050D02*Y6644D01*
Y7050D02*X152452Y7254D01*
X152100Y7050D02*X151748Y7254D01*
X152100Y8050D02*Y7644D01*
Y8050D02*X152452Y8254D01*
X152100Y8050D02*X151748Y8254D01*
X151100Y7050D02*Y6644D01*
Y7050D02*X151452Y7254D01*
X151100Y7050D02*X150748Y7254D01*
X152100Y9050D02*Y8644D01*
Y9050D02*X152452Y9254D01*
X152100Y9050D02*X151748Y9254D01*
X151100Y4050D02*Y3644D01*
Y4050D02*X151452Y4254D01*
X151100Y4050D02*X150748Y4254D01*
X151100Y5050D02*Y4644D01*
Y5050D02*X151452Y5254D01*
X151100Y5050D02*X150748Y5254D01*
X151100Y6050D02*Y5644D01*
Y6050D02*X151452Y6254D01*
X151100Y6050D02*X150748Y6254D01*
X151100Y9050D02*Y8644D01*
Y9050D02*X151452Y9254D01*
X151100Y9050D02*X150748Y9254D01*
X150100Y5050D02*Y4644D01*
Y5050D02*X150452Y5254D01*
X150100Y5050D02*X149748Y5254D01*
X150100Y4050D02*Y3644D01*
Y4050D02*X150452Y4254D01*
X150100Y4050D02*X149748Y4254D01*
X151100Y8050D02*Y7644D01*
Y8050D02*X151452Y8254D01*
X151100Y8050D02*X150748Y8254D01*
X150100Y6050D02*Y5644D01*
Y6050D02*X150452Y6254D01*
X150100Y6050D02*X149748Y6254D01*
X150100Y7050D02*Y6644D01*
Y7050D02*X150452Y7254D01*
X150100Y7050D02*X149748Y7254D01*
X150100Y8050D02*Y7644D01*
Y8050D02*X150452Y8254D01*
X150100Y8050D02*X149748Y8254D01*
X150100Y9050D02*Y8644D01*
Y9050D02*X150452Y9254D01*
X150100Y9050D02*X149748Y9254D01*
X149100Y4050D02*Y3644D01*
Y4050D02*X149452Y4254D01*
X149100Y4050D02*X148748Y4254D01*
X149100Y5050D02*Y4644D01*
Y5050D02*X149452Y5254D01*
X149100Y5050D02*X148748Y5254D01*
X149100Y6050D02*Y5644D01*
Y6050D02*X149452Y6254D01*
X149100Y6050D02*X148748Y6254D01*
X149100Y7050D02*Y6644D01*
Y7050D02*X149452Y7254D01*
X149100Y7050D02*X148748Y7254D01*
X45500Y33800D02*Y33394D01*
Y33800D02*X45852Y34004D01*
X45500Y33800D02*X45148Y34004D01*
X161600Y8050D02*Y7644D01*
Y8050D02*X161952Y8254D01*
X161600Y8050D02*X161248Y8254D01*
X127350Y22300D02*Y21894D01*
Y22300D02*X127702Y22503D01*
X127350Y22300D02*X126998Y22503D01*
X128350Y18300D02*Y17894D01*
Y18300D02*X128702Y18503D01*
X128350Y18300D02*X127998Y18503D01*
X127350Y18300D02*Y17894D01*
Y18300D02*X127702Y18503D01*
X127350Y18300D02*X126998Y18503D01*
X127350Y19300D02*Y18894D01*
Y19300D02*X127702Y19503D01*
X127350Y19300D02*X126998Y19503D01*
X128350Y19300D02*Y18894D01*
Y19300D02*X128702Y19503D01*
X128350Y19300D02*X127998Y19503D01*
X128350Y20300D02*Y19894D01*
Y20300D02*X128702Y20503D01*
X128350Y20300D02*X127998Y20503D01*
X127350Y20300D02*Y19894D01*
Y20300D02*X127702Y20503D01*
X127350Y20300D02*X126998Y20503D01*
X127350Y21300D02*Y20894D01*
Y21300D02*X127702Y21503D01*
X127350Y21300D02*X126998Y21503D01*
X128350Y21300D02*Y20894D01*
Y21300D02*X128702Y21503D01*
X128350Y21300D02*X127998Y21503D01*
X128350Y22300D02*Y21894D01*
Y22300D02*X128702Y22503D01*
X128350Y22300D02*X127998Y22503D01*
X128350Y23300D02*Y22894D01*
Y23300D02*X128702Y23503D01*
X128350Y23300D02*X127998Y23503D01*
X127350Y23300D02*Y22894D01*
Y23300D02*X127702Y23503D01*
X127350Y23300D02*X126998Y23503D01*
X128350Y24300D02*Y23894D01*
Y24300D02*X128702Y24503D01*
X128350Y24300D02*X127998Y24503D01*
X127350Y24300D02*Y23894D01*
Y24300D02*X127702Y24503D01*
X127350Y24300D02*X126998Y24503D01*
X128350Y25300D02*Y24894D01*
Y25300D02*X128702Y25503D01*
X128350Y25300D02*X127998Y25503D01*
X127350Y25300D02*Y24894D01*
Y25300D02*X127702Y25503D01*
X127350Y25300D02*X126998Y25503D01*
X136350Y26300D02*Y25894D01*
Y26300D02*X136702Y26503D01*
X136350Y26300D02*X135998Y26503D01*
X128350Y26300D02*Y25894D01*
Y26300D02*X128702Y26503D01*
X128350Y26300D02*X127998Y26503D01*
X129350Y25300D02*Y24894D01*
Y25300D02*X129702Y25503D01*
X129350Y25300D02*X128998Y25503D01*
X129350Y26300D02*Y25894D01*
Y26300D02*X129702Y26503D01*
X129350Y26300D02*X128998Y26503D01*
X130350Y25300D02*Y24894D01*
Y25300D02*X130702Y25503D01*
X130350Y25300D02*X129998Y25503D01*
X130350Y26300D02*Y25894D01*
Y26300D02*X130702Y26503D01*
X130350Y26300D02*X129998Y26503D01*
X131350Y25300D02*Y24894D01*
Y25300D02*X131702Y25503D01*
X131350Y25300D02*X130998Y25503D01*
X131350Y26300D02*Y25894D01*
Y26300D02*X131702Y26503D01*
X131350Y26300D02*X130998Y26503D01*
X132350Y25300D02*Y24894D01*
Y25300D02*X132702Y25503D01*
X132350Y25300D02*X131998Y25503D01*
X132350Y26300D02*Y25894D01*
Y26300D02*X132702Y26503D01*
X132350Y26300D02*X131998Y26503D01*
X133350Y25300D02*Y24894D01*
Y25300D02*X133702Y25503D01*
X133350Y25300D02*X132998Y25503D01*
X133350Y26300D02*Y25894D01*
Y26300D02*X133702Y26503D01*
X133350Y26300D02*X132998Y26503D01*
X134350Y25300D02*Y24894D01*
Y25300D02*X134702Y25503D01*
X134350Y25300D02*X133998Y25503D01*
X134350Y26300D02*Y25894D01*
Y26300D02*X134702Y26503D01*
X134350Y26300D02*X133998Y26503D01*
X135350Y25300D02*Y24894D01*
Y25300D02*X135702Y25503D01*
X135350Y25300D02*X134998Y25503D01*
X135350Y26300D02*Y25894D01*
Y26300D02*X135702Y26503D01*
X135350Y26300D02*X134998Y26503D01*
X136350Y25300D02*Y24894D01*
Y25300D02*X136702Y25503D01*
X136350Y25300D02*X135998Y25503D01*
X136350Y27300D02*Y26894D01*
Y27300D02*X136702Y27503D01*
X136350Y27300D02*X135998Y27503D01*
X135350Y27300D02*Y26894D01*
Y27300D02*X135702Y27503D01*
X135350Y27300D02*X134998Y27503D01*
X134350Y27300D02*Y26894D01*
Y27300D02*X134702Y27503D01*
X134350Y27300D02*X133998Y27503D01*
X133350Y27300D02*Y26894D01*
Y27300D02*X133702Y27503D01*
X133350Y27300D02*X132998Y27503D01*
X132350Y27300D02*Y26894D01*
Y27300D02*X132702Y27503D01*
X132350Y27300D02*X131998Y27503D01*
X131350Y27300D02*Y26894D01*
Y27300D02*X131702Y27503D01*
X131350Y27300D02*X130998Y27503D01*
X130350Y27300D02*Y26894D01*
Y27300D02*X130702Y27503D01*
X130350Y27300D02*X129998Y27503D01*
X109900Y35000D02*Y34594D01*
Y35000D02*X110252Y35203D01*
X109900Y35000D02*X109548Y35203D01*
X134100Y32300D02*Y31894D01*
Y32300D02*X134452Y32503D01*
X134100Y32300D02*X133748Y32503D01*
X134100Y31300D02*Y30894D01*
Y31300D02*X134452Y31503D01*
X134100Y31300D02*X133748Y31503D01*
X134100Y30300D02*Y29894D01*
Y30300D02*X134452Y30503D01*
X134100Y30300D02*X133748Y30503D01*
X134100Y29300D02*Y28894D01*
Y29300D02*X134452Y29503D01*
X134100Y29300D02*X133748Y29503D01*
X133100Y31300D02*Y30894D01*
Y31300D02*X133452Y31503D01*
X133100Y31300D02*X132748Y31503D01*
X133100Y30300D02*Y29894D01*
Y30300D02*X133452Y30503D01*
X133100Y30300D02*X132748Y30503D01*
X133100Y29300D02*Y28894D01*
Y29300D02*X133452Y29503D01*
X133100Y29300D02*X132748Y29503D01*
X161900Y39900D02*Y39494D01*
Y39900D02*X162252Y40103D01*
X161900Y39900D02*X161548Y40103D01*
X75900Y13600D02*Y13194D01*
Y13600D02*X76252Y13803D01*
X75900Y13600D02*X75548Y13803D01*
X53800Y43200D02*Y42794D01*
Y43200D02*X54152Y43403D01*
X53800Y43200D02*X53448Y43403D01*
X57100Y40000D02*Y39594D01*
Y40000D02*X57452Y40203D01*
X57100Y40000D02*X56748Y40203D01*
X55900Y45400D02*Y44994D01*
Y45400D02*X56252Y45603D01*
X55900Y45400D02*X55548Y45603D01*
X59200Y42100D02*Y41694D01*
Y42100D02*X59552Y42304D01*
X59200Y42100D02*X58848Y42304D01*
X61000Y43900D02*Y43494D01*
Y43900D02*X61352Y44103D01*
X61000Y43900D02*X60648Y44103D01*
X57700Y47200D02*Y46794D01*
Y47200D02*X58052Y47403D01*
X57700Y47200D02*X57348Y47403D01*
X59800Y49300D02*Y48894D01*
Y49300D02*X60152Y49503D01*
X59800Y49300D02*X59448Y49503D01*
X63100Y46000D02*Y45594D01*
Y46000D02*X63452Y46203D01*
X63100Y46000D02*X62748Y46203D01*
X63000Y52500D02*Y52094D01*
Y52500D02*X63352Y52704D01*
X63000Y52500D02*X62648Y52704D01*
X66300Y49200D02*Y48794D01*
Y49200D02*X66652Y49403D01*
X66300Y49200D02*X65948Y49403D01*
X68400Y51400D02*Y50994D01*
Y51400D02*X68752Y51603D01*
X68400Y51400D02*X68048Y51603D01*
X70200Y53100D02*Y52694D01*
Y53100D02*X70552Y53304D01*
X70200Y53100D02*X69848Y53304D01*
X65100Y54600D02*Y54194D01*
Y54600D02*X65452Y54803D01*
X65100Y54600D02*X64748Y54803D01*
X66900Y56400D02*Y55994D01*
Y56400D02*X67252Y56603D01*
X66900Y56400D02*X66548Y56603D01*
X69000Y58500D02*Y58094D01*
Y58500D02*X69352Y58704D01*
X69000Y58500D02*X68648Y58704D01*
X72300Y55300D02*Y54894D01*
Y55300D02*X72652Y55503D01*
X72300Y55300D02*X71948Y55503D01*
X35100Y67600D02*Y67194D01*
Y67600D02*X35452Y67803D01*
X35100Y67600D02*X34748Y67803D01*
X53600Y67600D02*Y67194D01*
Y67600D02*X53952Y67803D01*
X53600Y67600D02*X53248Y67803D01*
X48600Y70400D02*Y69994D01*
Y70400D02*X48952Y70603D01*
X48600Y70400D02*X48248Y70603D01*
X54900Y44400D02*Y43994D01*
Y44400D02*X55252Y44604D01*
X54900Y44400D02*X54548Y44604D01*
X58700Y48300D02*Y47894D01*
Y48300D02*X59052Y48503D01*
X58700Y48300D02*X58348Y48503D01*
X64100Y53600D02*Y53194D01*
Y53600D02*X64452Y53803D01*
X64100Y53600D02*X63748Y53803D01*
X67900Y57500D02*Y57094D01*
Y57500D02*X68252Y57704D01*
X67900Y57500D02*X67548Y57704D01*
X48200Y44700D02*Y44294D01*
Y44700D02*X48552Y44903D01*
X48200Y44700D02*X47848Y44903D01*
X48200Y43100D02*Y42694D01*
Y43100D02*X48552Y43304D01*
X48200Y43100D02*X47848Y43304D01*
X90100Y40500D02*Y40094D01*
Y40500D02*X90452Y40703D01*
X90100Y40500D02*X89748Y40703D01*
X65300Y68400D02*Y67994D01*
Y68400D02*X65652Y68603D01*
X65300Y68400D02*X64948Y68603D01*
X65300Y69600D02*Y69194D01*
Y69600D02*X65652Y69803D01*
X65300Y69600D02*X64948Y69803D01*
X61200Y72300D02*Y71894D01*
Y72300D02*X61552Y72503D01*
X61200Y72300D02*X60848Y72503D01*
X30400Y74000D02*Y73594D01*
Y74000D02*X30752Y74203D01*
X30400Y74000D02*X30048Y74203D01*
X37200Y71900D02*Y71494D01*
Y71900D02*X37552Y72103D01*
X37200Y71900D02*X36848Y72103D01*
X33200Y72100D02*Y71694D01*
Y72100D02*X33552Y72303D01*
X33200Y72100D02*X32848Y72303D01*
X49100Y32500D02*Y32094D01*
Y32500D02*X49452Y32703D01*
X49100Y32500D02*X48748Y32703D01*
X49600Y77700D02*Y77294D01*
Y77700D02*X49952Y77903D01*
X49600Y77700D02*X49248Y77903D01*
X20100Y43200D02*Y42794D01*
Y43200D02*X20452Y43403D01*
X20100Y43200D02*X19748Y43403D01*
X11400Y42200D02*Y41794D01*
Y42200D02*X11752Y42403D01*
X11400Y42200D02*X11048Y42403D01*
X16300Y42200D02*Y41794D01*
Y42200D02*X16652Y42403D01*
X16300Y42200D02*X15948Y42403D01*
X22100Y28900D02*Y28494D01*
Y28900D02*X22452Y29103D01*
X22100Y28900D02*X21748Y29103D01*
X22100Y24500D02*Y24094D01*
Y24500D02*X22452Y24703D01*
X22100Y24500D02*X21748Y24703D01*
X11200Y61400D02*Y60994D01*
Y61400D02*X11552Y61603D01*
X11200Y61400D02*X10848Y61603D01*
X16000Y61400D02*Y60994D01*
Y61400D02*X16352Y61603D01*
X16000Y61400D02*X15648Y61603D01*
X22200Y33500D02*Y33094D01*
Y33500D02*X22552Y33703D01*
X22200Y33500D02*X21848Y33703D01*
X22200Y32100D02*Y31694D01*
Y32100D02*X22552Y32304D01*
X22200Y32100D02*X21848Y32304D01*
X19200Y35200D02*Y34794D01*
Y35200D02*X19552Y35403D01*
X19200Y35200D02*X18848Y35403D01*
X149100Y8050D02*Y7644D01*
Y8050D02*X149452Y8254D01*
X149100Y8050D02*X148748Y8254D01*
X44800Y87800D02*Y87394D01*
Y87800D02*X45152Y88003D01*
X44800Y87800D02*X44448Y88003D01*
X46200Y87800D02*Y87394D01*
Y87800D02*X46552Y88003D01*
X46200Y87800D02*X45848Y88003D01*
X25500Y44100D02*Y43694D01*
Y44100D02*X25852Y44304D01*
X25500Y44100D02*X25148Y44304D01*
X30500Y41500D02*Y41094D01*
Y41500D02*X30852Y41703D01*
X30500Y41500D02*X30148Y41703D01*
X76100Y87700D02*Y87294D01*
Y87700D02*X76452Y87903D01*
X76100Y87700D02*X75748Y87903D01*
X76100Y83200D02*Y82794D01*
Y83200D02*X76452Y83403D01*
X76100Y83200D02*X75748Y83403D01*
X71000Y80900D02*Y80494D01*
Y80900D02*X71352Y81104D01*
X71000Y80900D02*X70648Y81104D01*
X69800Y80900D02*Y80494D01*
Y80900D02*X70152Y81104D01*
X69800Y80900D02*X69448Y81104D01*
X48300Y88500D02*Y88094D01*
Y88500D02*X48652Y88703D01*
X48300Y88500D02*X47948Y88703D01*
X49600Y88500D02*Y88094D01*
Y88500D02*X49952Y88703D01*
X49600Y88500D02*X49248Y88703D01*
X48300Y80100D02*Y79694D01*
Y80100D02*X48652Y80303D01*
X48300Y80100D02*X47948Y80303D01*
X44800Y80100D02*Y79694D01*
Y80100D02*X45152Y80303D01*
X44800Y80100D02*X44448Y80303D01*
X46200Y79100D02*Y78694D01*
Y79100D02*X46552Y79303D01*
X46200Y79100D02*X45848Y79303D01*
X39500Y32500D02*Y32094D01*
Y32500D02*X39852Y32703D01*
X39500Y32500D02*X39148Y32703D01*
X82100Y79500D02*Y79094D01*
Y79500D02*X82452Y79703D01*
X82100Y79500D02*X81748Y79703D01*
X121900Y93400D02*Y92994D01*
Y93400D02*X122252Y93603D01*
X121900Y93400D02*X121548Y93603D01*
X116400Y72700D02*Y72294D01*
Y72700D02*X116752Y72903D01*
X116400Y72700D02*X116048Y72903D01*
X98200Y85700D02*Y85294D01*
Y85700D02*X98552Y85903D01*
X98200Y85700D02*X97848Y85903D01*
X78600Y87700D02*Y87294D01*
Y87700D02*X78952Y87903D01*
X78600Y87700D02*X78248Y87903D01*
X78600Y80700D02*Y80294D01*
Y80700D02*X78952Y80903D01*
X78600Y80700D02*X78248Y80903D01*
X50700Y89500D02*Y89094D01*
Y89500D02*X51052Y89703D01*
X50700Y89500D02*X50348Y89703D01*
X77400Y87700D02*Y87294D01*
Y87700D02*X77752Y87903D01*
X77400Y87700D02*X77048Y87903D01*
X77400Y81500D02*Y81094D01*
Y81500D02*X77752Y81703D01*
X77400Y81500D02*X77048Y81703D01*
X84400Y77300D02*Y76894D01*
Y77300D02*X84752Y77503D01*
X84400Y77300D02*X84048Y77503D01*
X143500Y42700D02*Y42294D01*
Y42700D02*X143852Y42903D01*
X143500Y42700D02*X143148Y42903D01*
X79800Y77300D02*Y76894D01*
Y77300D02*X80152Y77503D01*
X79800Y77300D02*X79448Y77503D01*
X124400Y26900D02*Y26494D01*
Y26900D02*X124752Y27103D01*
X124400Y26900D02*X124048Y27103D01*
X118500Y37500D02*Y37094D01*
Y37500D02*X118852Y37703D01*
X118500Y37500D02*X118148Y37703D01*
X121500Y32700D02*Y32294D01*
Y32700D02*X121852Y32903D01*
X121500Y32700D02*X121148Y32903D01*
X119000Y18700D02*Y18294D01*
Y18700D02*X119352Y18904D01*
X119000Y18700D02*X118648Y18904D01*
X71000Y69600D02*Y69194D01*
Y69600D02*X71352Y69803D01*
X71000Y69600D02*X70648Y69803D01*
X74100Y66200D02*Y65794D01*
Y66200D02*X74452Y66404D01*
X74100Y66200D02*X73748Y66404D01*
X71000Y66200D02*Y65794D01*
Y66200D02*X71352Y66404D01*
X71000Y66200D02*X70648Y66404D01*
X67900Y66200D02*Y65794D01*
Y66200D02*X68252Y66404D01*
X67900Y66200D02*X67548Y66404D01*
X80200Y73100D02*Y72694D01*
Y73100D02*X80552Y73303D01*
X80200Y73100D02*X79848Y73303D01*
X81300Y72800D02*Y72394D01*
Y72800D02*X81652Y73004D01*
X81300Y72800D02*X80948Y73004D01*
X82400Y73100D02*Y72694D01*
Y73100D02*X82752Y73303D01*
X82400Y73100D02*X82048Y73303D01*
X75400Y59700D02*Y59294D01*
Y59700D02*X75752Y59903D01*
X75400Y59700D02*X75048Y59903D01*
X75400Y61000D02*Y60594D01*
Y61000D02*X75752Y61203D01*
X75400Y61000D02*X75048Y61203D01*
X84200Y68900D02*Y68494D01*
Y68900D02*X84552Y69103D01*
X84200Y68900D02*X83848Y69103D01*
X84200Y67700D02*Y67294D01*
Y67700D02*X84552Y67903D01*
X84200Y67700D02*X83848Y67903D01*
X71500Y61600D02*Y61194D01*
Y61600D02*X71852Y61803D01*
X71500Y61600D02*X71148Y61803D01*
X77000Y63100D02*Y62694D01*
Y63100D02*X77352Y63303D01*
X77000Y63100D02*X76648Y63303D01*
X15300Y88100D02*Y87694D01*
Y88100D02*X15652Y88303D01*
X15300Y88100D02*X14948Y88303D01*
X21700Y81100D02*Y80694D01*
Y81100D02*X22052Y81303D01*
X21700Y81100D02*X21348Y81303D01*
X70800Y71900D02*Y71494D01*
Y71900D02*X71152Y72103D01*
X70800Y71900D02*X70448Y72103D01*
X73200Y72900D02*Y72494D01*
Y72900D02*X73552Y73103D01*
X73200Y72900D02*X72848Y73103D01*
X88700Y77000D02*Y76594D01*
Y77000D02*X89052Y77203D01*
X88700Y77000D02*X88348Y77203D01*
X68900Y90400D02*Y89994D01*
Y90400D02*X69252Y90603D01*
X68900Y90400D02*X68548Y90603D01*
X135100Y39600D02*Y39194D01*
Y39600D02*X135452Y39803D01*
X135100Y39600D02*X134748Y39803D01*
X101300Y73600D02*Y73194D01*
Y73600D02*X101652Y73803D01*
X101300Y73600D02*X100948Y73803D01*
X101300Y72300D02*Y71894D01*
Y72300D02*X101652Y72503D01*
X101300Y72300D02*X100948Y72503D01*
X101300Y74900D02*Y74494D01*
Y74900D02*X101652Y75104D01*
X101300Y74900D02*X100948Y75104D01*
X120900Y56300D02*Y55894D01*
Y56300D02*X121252Y56503D01*
X120900Y56300D02*X120548Y56503D01*
X82100Y75100D02*Y74694D01*
Y75100D02*X82452Y75303D01*
X82100Y75100D02*X81748Y75303D01*
X88300Y78800D02*Y78394D01*
Y78800D02*X88652Y79003D01*
X88300Y78800D02*X87948Y79003D01*
X95500Y76200D02*Y75794D01*
Y76200D02*X95852Y76404D01*
X95500Y76200D02*X95148Y76404D01*
X110100Y73900D02*Y73494D01*
Y73900D02*X110452Y74104D01*
X110100Y73900D02*X109748Y74104D01*
X111300Y70700D02*Y70294D01*
Y70700D02*X111652Y70903D01*
X111300Y70700D02*X110948Y70903D01*
X124300Y66750D02*Y66344D01*
Y66750D02*X124652Y66953D01*
X124300Y66750D02*X123948Y66953D01*
X56000Y18600D02*Y18194D01*
Y18600D02*X56352Y18803D01*
X56000Y18600D02*X55648Y18803D01*
X105800Y26800D02*Y26394D01*
Y26800D02*X106152Y27003D01*
X105800Y26800D02*X105448Y27003D01*
X107400Y29200D02*Y28794D01*
Y29200D02*X107752Y29403D01*
X107400Y29200D02*X107048Y29403D01*
X83000Y62300D02*Y61894D01*
Y62300D02*X83352Y62503D01*
X83000Y62300D02*X82648Y62503D01*
X85100Y64400D02*Y63994D01*
Y64400D02*X85452Y64603D01*
X85100Y64400D02*X84748Y64603D01*
X106600Y25900D02*Y25494D01*
Y25900D02*X106952Y26103D01*
X106600Y25900D02*X106248Y26103D01*
X108300Y28300D02*Y27894D01*
Y28300D02*X108652Y28503D01*
X108300Y28300D02*X107948Y28503D01*
X107400Y25000D02*Y24594D01*
Y25000D02*X107752Y25204D01*
X107400Y25000D02*X107048Y25204D01*
X109100Y27500D02*Y27094D01*
Y27500D02*X109452Y27703D01*
X109100Y27500D02*X108748Y27703D01*
X82600Y60500D02*Y60094D01*
Y60500D02*X82952Y60704D01*
X82600Y60500D02*X82248Y60704D01*
X90700Y65000D02*Y64594D01*
Y65000D02*X91052Y65203D01*
X90700Y65000D02*X90348Y65203D01*
X88100Y73100D02*Y72694D01*
Y73100D02*X88452Y73303D01*
X88100Y73100D02*X87748Y73303D01*
X92600Y73100D02*Y72694D01*
Y73100D02*X92952Y73303D01*
X92600Y73100D02*X92248Y73303D01*
X93600Y72200D02*Y71794D01*
Y72200D02*X93952Y72404D01*
X93600Y72200D02*X93248Y72404D01*
X97800Y65700D02*Y65294D01*
Y65700D02*X98152Y65903D01*
X97800Y65700D02*X97448Y65903D01*
X99000Y65700D02*Y65294D01*
Y65700D02*X99352Y65903D01*
X99000Y65700D02*X98648Y65903D01*
X135100Y37200D02*Y36794D01*
Y37200D02*X135452Y37403D01*
X135100Y37200D02*X134748Y37403D01*
X128200Y51000D02*Y50594D01*
Y51000D02*X128552Y51203D01*
X128200Y51000D02*X127848Y51203D01*
X105200Y70800D02*Y70394D01*
Y70800D02*X105552Y71003D01*
X105200Y70800D02*X104848Y71003D01*
X92100Y69200D02*Y68794D01*
Y69200D02*X92452Y69404D01*
X92100Y69200D02*X91748Y69404D01*
X93600Y71000D02*Y70594D01*
Y71000D02*X93952Y71203D01*
X93600Y71000D02*X93248Y71203D01*
X143700Y34800D02*Y34394D01*
Y34800D02*X144052Y35004D01*
X143700Y34800D02*X143348Y35004D01*
X102500Y74900D02*Y74494D01*
Y74900D02*X102852Y75104D01*
X102500Y74900D02*X102148Y75104D01*
X93400Y69200D02*Y68794D01*
Y69200D02*X93752Y69404D01*
X93400Y69200D02*X93048Y69404D01*
X109500Y70600D02*Y70194D01*
Y70600D02*X109852Y70803D01*
X109500Y70600D02*X109148Y70803D01*
X96700Y70700D02*Y70294D01*
Y70700D02*X97052Y70903D01*
X96700Y70700D02*X96348Y70903D01*
X120900Y23500D02*Y23094D01*
Y23500D02*X121252Y23703D01*
X120900Y23500D02*X120548Y23703D01*
X116500Y27000D02*Y26594D01*
Y27000D02*X116852Y27203D01*
X116500Y27000D02*X116148Y27203D01*
X94500Y61800D02*Y61394D01*
Y61800D02*X94852Y62004D01*
X94500Y61800D02*X94148Y62004D01*
X42800Y81500D02*Y81094D01*
Y81500D02*X43152Y81703D01*
X42800Y81500D02*X42448Y81703D01*
X81000Y67800D02*Y67394D01*
Y67800D02*X81352Y68003D01*
X81000Y67800D02*X80648Y68003D01*
X88500Y65800D02*Y65394D01*
Y65800D02*X88852Y66003D01*
X88500Y65800D02*X88148Y66003D01*
X72700Y90100D02*Y89694D01*
Y90100D02*X73052Y90303D01*
X72700Y90100D02*X72348Y90303D01*
X84700Y71000D02*Y70594D01*
Y71000D02*X85052Y71203D01*
X84700Y71000D02*X84348Y71203D01*
X27900Y15200D02*Y14794D01*
Y15200D02*X28252Y15403D01*
X27900Y15200D02*X27548Y15403D01*
X114800Y23400D02*Y22994D01*
Y23400D02*X115152Y23603D01*
X114800Y23400D02*X114448Y23603D01*
X30800Y9900D02*Y9494D01*
Y9900D02*X31152Y10103D01*
X30800Y9900D02*X30448Y10103D01*
X25800Y14400D02*Y13994D01*
Y14400D02*X26152Y14603D01*
X25800Y14400D02*X25448Y14603D01*
X23200Y50500D02*Y50094D01*
Y50500D02*X23552Y50703D01*
X23200Y50500D02*X22848Y50703D01*
X18100Y59300D02*Y58894D01*
Y59300D02*X18452Y59503D01*
X18100Y59300D02*X17748Y59503D01*
X84900Y78800D02*Y78394D01*
Y78800D02*X85252Y79003D01*
X84900Y78800D02*X84548Y79003D01*
X84800Y34400D02*Y33994D01*
Y34400D02*X85152Y34603D01*
X84800Y34400D02*X84448Y34603D01*
X79000Y18600D02*Y18194D01*
Y18600D02*X79352Y18803D01*
X79000Y18600D02*X78648Y18803D01*
X62600Y21500D02*Y21094D01*
Y21500D02*X62952Y21703D01*
X62600Y21500D02*X62248Y21703D01*
X69300Y21500D02*Y21094D01*
Y21500D02*X69652Y21703D01*
X69300Y21500D02*X68948Y21703D01*
X11600Y36300D02*Y35894D01*
Y36300D02*X11952Y36503D01*
X11600Y36300D02*X11248Y36503D01*
X5500Y36400D02*Y35994D01*
Y36400D02*X5852Y36603D01*
X5500Y36400D02*X5148Y36603D01*
X13500Y56800D02*Y56394D01*
Y56800D02*X13852Y57003D01*
X13500Y56800D02*X13148Y57003D01*
X48200Y91900D02*Y91494D01*
Y91900D02*X48552Y92103D01*
X48200Y91900D02*X47848Y92103D01*
X58100Y92300D02*Y91894D01*
Y92300D02*X58452Y92503D01*
X58100Y92300D02*X57748Y92503D01*
X63400Y92300D02*Y91894D01*
Y92300D02*X63752Y92503D01*
X63400Y92300D02*X63048Y92503D01*
X92700Y89400D02*Y88994D01*
Y89400D02*X93052Y89603D01*
X92700Y89400D02*X92348Y89603D01*
X98200Y82100D02*Y81694D01*
Y82100D02*X98552Y82303D01*
X98200Y82100D02*X97848Y82303D01*
X98200Y94100D02*Y93694D01*
Y94100D02*X98552Y94303D01*
X98200Y94100D02*X97848Y94303D01*
X87800Y89400D02*Y88994D01*
Y89400D02*X88152Y89603D01*
X87800Y89400D02*X87448Y89603D01*
X45800Y27500D02*Y27094D01*
Y27500D02*X46152Y27703D01*
X45800Y27500D02*X45448Y27703D01*
X51500Y22300D02*Y21894D01*
Y22300D02*X51852Y22503D01*
X51500Y22300D02*X51148Y22503D01*
X53900Y27500D02*Y27094D01*
Y27500D02*X54252Y27703D01*
X53900Y27500D02*X53548Y27703D01*
X63300Y73500D02*Y73094D01*
Y73500D02*X63652Y73703D01*
X63300Y73500D02*X62948Y73703D01*
X63400Y60100D02*Y59694D01*
Y60100D02*X63752Y60303D01*
X63400Y60100D02*X63048Y60303D01*
X56900Y55400D02*Y54994D01*
Y55400D02*X57252Y55603D01*
X56900Y55400D02*X56548Y55603D01*
X60400Y79700D02*Y79294D01*
Y79700D02*X60752Y79903D01*
X60400Y79700D02*X60048Y79903D01*
X52600Y76700D02*Y76294D01*
Y76700D02*X52952Y76903D01*
X52600Y76700D02*X52248Y76903D01*
X108650Y35800D02*Y35394D01*
Y35800D02*X109002Y36003D01*
X108650Y35800D02*X108298Y36003D01*
X103900Y43950D02*Y43544D01*
Y43950D02*X104252Y44153D01*
X103900Y43950D02*X103548Y44153D01*
X99400Y44550D02*Y44144D01*
Y44550D02*X99752Y44753D01*
X99400Y44550D02*X99048Y44753D01*
X91450Y47150D02*Y46744D01*
Y47150D02*X91802Y47353D01*
X91450Y47150D02*X91098Y47353D01*
X87100Y57150D02*Y56744D01*
Y57150D02*X87452Y57353D01*
X87100Y57150D02*X86748Y57353D01*
X113900Y47600D02*Y47194D01*
Y47600D02*X114252Y47803D01*
X113900Y47600D02*X113548Y47803D01*
X94500Y45450D02*Y45044D01*
Y45450D02*X94852Y45653D01*
X94500Y45450D02*X94148Y45653D01*
X86950Y51850D02*Y51444D01*
Y51850D02*X87302Y52053D01*
X86950Y51850D02*X86598Y52053D01*
X88600Y51850D02*Y51444D01*
Y51850D02*X88952Y52053D01*
X88600Y51850D02*X88248Y52053D01*
X87000Y58500D02*Y58094D01*
Y58500D02*X87352Y58703D01*
X87000Y58500D02*X86648Y58703D01*
X79600Y57000D02*Y56594D01*
Y57000D02*X79952Y57203D01*
X79600Y57000D02*X79248Y57203D01*
X82900Y55950D02*Y55544D01*
Y55950D02*X83252Y56153D01*
X82900Y55950D02*X82548Y56153D01*
X91650Y60450D02*Y60044D01*
Y60450D02*X92002Y60653D01*
X91650Y60450D02*X91298Y60653D01*
X108550Y41650D02*Y41244D01*
Y41650D02*X108902Y41853D01*
X108550Y41650D02*X108198Y41853D01*
X117900Y42000D02*Y41594D01*
Y42000D02*X118252Y42203D01*
X117900Y42000D02*X117548Y42203D01*
X123200Y66500D02*Y66094D01*
Y66500D02*X123552Y66703D01*
X123200Y66500D02*X122848Y66703D01*
X101300Y54200D02*Y53794D01*
Y54200D02*X101652Y54403D01*
X101300Y54200D02*X100948Y54403D01*
X101300Y55900D02*Y55494D01*
Y55900D02*X101652Y56103D01*
X101300Y55900D02*X100948Y56103D01*
X101300Y57600D02*Y57194D01*
Y57600D02*X101652Y57803D01*
X101300Y57600D02*X100948Y57803D01*
X105300Y57600D02*Y57194D01*
Y57600D02*X105652Y57803D01*
X105300Y57600D02*X104948Y57803D01*
X105300Y55900D02*Y55494D01*
Y55900D02*X105652Y56103D01*
X105300Y55900D02*X104948Y56103D01*
X105300Y54200D02*Y53794D01*
Y54200D02*X105652Y54403D01*
X105300Y54200D02*X104948Y54403D01*
X103300Y52600D02*Y52194D01*
Y52600D02*X103652Y52803D01*
X103300Y52600D02*X102948Y52803D01*
X103300Y58700D02*Y58294D01*
Y58700D02*X103652Y58903D01*
X103300Y58700D02*X102948Y58903D01*
X110500Y58700D02*Y58294D01*
Y58700D02*X110852Y58903D01*
X110500Y58700D02*X110148Y58903D01*
X110500Y52600D02*Y52194D01*
Y52600D02*X110852Y52803D01*
X110500Y52600D02*X110148Y52803D01*
X96400Y56400D02*Y55994D01*
Y56400D02*X96752Y56603D01*
X96400Y56400D02*X96048Y56603D01*
X96400Y54600D02*Y54194D01*
Y54600D02*X96752Y54803D01*
X96400Y54600D02*X96048Y54803D01*
X96400Y52900D02*Y52494D01*
Y52900D02*X96752Y53103D01*
X96400Y52900D02*X96048Y53103D01*
X94800Y52000D02*Y51594D01*
Y52000D02*X95152Y52203D01*
X94800Y52000D02*X94448Y52203D01*
X96400Y51100D02*Y50694D01*
Y51100D02*X96752Y51303D01*
X96400Y51100D02*X96048Y51303D01*
X68600Y43700D02*Y43294D01*
Y43700D02*X68952Y43903D01*
X68600Y43700D02*X68248Y43903D01*
X64400Y47900D02*Y47494D01*
Y47900D02*X64752Y48103D01*
X64400Y47900D02*X64048Y48103D01*
X73800Y49200D02*Y48794D01*
Y49200D02*X74152Y49403D01*
X73800Y49200D02*X73448Y49403D01*
X80100Y43600D02*Y43194D01*
Y43600D02*X80452Y43803D01*
X80100Y43600D02*X79748Y43803D01*
X77500Y35700D02*Y35294D01*
Y35700D02*X77852Y35903D01*
X77500Y35700D02*X77148Y35903D01*
X58700Y35000D02*Y34594D01*
Y35000D02*X59052Y35203D01*
X58700Y35000D02*X58348Y35203D01*
X56000Y36800D02*Y36394D01*
Y36800D02*X56352Y37003D01*
X56000Y36800D02*X55648Y37003D01*
X54000Y34300D02*Y33894D01*
Y34300D02*X54352Y34503D01*
X54000Y34300D02*X53648Y34503D01*
X40100Y47400D02*Y46994D01*
Y47400D02*X40452Y47603D01*
X40100Y47400D02*X39748Y47603D01*
X43400Y47400D02*Y46994D01*
Y47400D02*X43752Y47603D01*
X43400Y47400D02*X43048Y47603D01*
X40100Y44100D02*Y43694D01*
Y44100D02*X40452Y44303D01*
X40100Y44100D02*X39748Y44303D01*
X43400Y44000D02*Y43594D01*
Y44000D02*X43752Y44203D01*
X43400Y44000D02*X43048Y44203D01*
X43400Y40800D02*Y40394D01*
Y40800D02*X43752Y41003D01*
X43400Y40800D02*X43048Y41003D01*
X39200Y39300D02*Y38894D01*
Y39300D02*X39552Y39503D01*
X39200Y39300D02*X38848Y39503D01*
X41700Y36600D02*Y36194D01*
Y36600D02*X42052Y36803D01*
X41700Y36600D02*X41348Y36803D01*
X43900Y34500D02*Y34094D01*
Y34500D02*X44252Y34703D01*
X43900Y34500D02*X43548Y34703D01*
X38200Y36000D02*Y35594D01*
Y36000D02*X38552Y36203D01*
X38200Y36000D02*X37848Y36203D01*
X40200Y34000D02*Y33594D01*
Y34000D02*X40552Y34203D01*
X40200Y34000D02*X39848Y34203D01*
X40100Y51000D02*Y50594D01*
Y51000D02*X40452Y51203D01*
X40100Y51000D02*X39748Y51203D01*
X34400Y63800D02*Y63394D01*
Y63800D02*X34752Y64003D01*
X34400Y63800D02*X34048Y64003D01*
X30300Y67600D02*Y67194D01*
Y67600D02*X30652Y67803D01*
X30300Y67600D02*X29948Y67803D01*
X32200Y69000D02*Y68594D01*
Y69000D02*X32552Y69203D01*
X32200Y69000D02*X31848Y69203D01*
X23900Y73600D02*Y73194D01*
Y73600D02*X24252Y73803D01*
X23900Y73600D02*X23548Y73803D01*
X23900Y75800D02*Y75394D01*
Y75800D02*X24252Y76003D01*
X23900Y75800D02*X23548Y76003D01*
X23900Y78000D02*Y77594D01*
Y78000D02*X24252Y78203D01*
X23900Y78000D02*X23548Y78203D01*
X37100Y78600D02*Y78194D01*
Y78600D02*X37452Y78803D01*
X37100Y78600D02*X36748Y78803D01*
X42800Y76200D02*Y75794D01*
Y76200D02*X43152Y76403D01*
X42800Y76200D02*X42448Y76403D01*
X40400Y72800D02*Y72394D01*
Y72800D02*X40752Y73003D01*
X40400Y72800D02*X40048Y73003D01*
X45300Y72100D02*Y71694D01*
Y72100D02*X45652Y72303D01*
X45300Y72100D02*X44948Y72303D01*
X51600Y40800D02*Y40394D01*
Y40800D02*X51952Y41003D01*
X51600Y40800D02*X51248Y41003D01*
X52600Y35700D02*Y35294D01*
Y35700D02*X52952Y35903D01*
X52600Y35700D02*X52248Y35903D01*
X50900Y19900D02*Y19494D01*
Y19900D02*X51252Y20103D01*
X50900Y19900D02*X50548Y20103D01*
X47200Y19900D02*Y19494D01*
Y19900D02*X47552Y20103D01*
X47200Y19900D02*X46848Y20103D01*
X43900Y19900D02*Y19494D01*
Y19900D02*X44252Y20103D01*
X43900Y19900D02*X43548Y20103D01*
X43900Y22100D02*Y21694D01*
Y22100D02*X44252Y22303D01*
X43900Y22100D02*X43548Y22303D01*
X37100Y19900D02*Y19494D01*
Y19900D02*X37452Y20103D01*
X37100Y19900D02*X36748Y20103D01*
X37100Y22100D02*Y21694D01*
Y22100D02*X37452Y22303D01*
X37100Y22100D02*X36748Y22303D01*
X37100Y26600D02*Y26194D01*
Y26600D02*X37452Y26803D01*
X37100Y26600D02*X36748Y26803D01*
X39800Y26800D02*Y26394D01*
Y26800D02*X40152Y27003D01*
X39800Y26800D02*X39448Y27003D01*
X34200Y18200D02*Y17794D01*
Y18200D02*X34552Y18403D01*
X34200Y18200D02*X33848Y18403D01*
X34200Y15800D02*Y15394D01*
Y15800D02*X34552Y16003D01*
X34200Y15800D02*X33848Y16003D01*
X31500Y15800D02*Y15394D01*
Y15800D02*X31852Y16003D01*
X31500Y15800D02*X31148Y16003D01*
X105600Y19400D02*Y18994D01*
Y19400D02*X105952Y19603D01*
X105600Y19400D02*X105248Y19603D01*
X108900Y19400D02*Y18994D01*
Y19400D02*X109252Y19603D01*
X108900Y19400D02*X108548Y19603D01*
X111900Y19400D02*Y18994D01*
Y19400D02*X112252Y19603D01*
X111900Y19400D02*X111548Y19603D01*
X112500Y21400D02*Y20994D01*
Y21400D02*X112852Y21603D01*
X112500Y21400D02*X112148Y21603D01*
X116100Y19200D02*Y18794D01*
Y19200D02*X116452Y19403D01*
X116100Y19200D02*X115748Y19403D01*
X40000Y16100D02*Y15694D01*
Y16100D02*X40352Y16303D01*
X40000Y16100D02*X39648Y16303D01*
X40000Y14200D02*Y13794D01*
Y14200D02*X40352Y14403D01*
X40000Y14200D02*X39648Y14403D01*
X40000Y18000D02*Y17594D01*
Y18000D02*X40352Y18203D01*
X40000Y18000D02*X39648Y18203D01*
X21300Y9600D02*Y9194D01*
Y9600D02*X21652Y9803D01*
X21300Y9600D02*X20948Y9803D01*
X21300Y6800D02*Y6394D01*
Y6800D02*X21652Y7003D01*
X21300Y6800D02*X20948Y7003D01*
X21300Y4000D02*Y3594D01*
Y4000D02*X21652Y4203D01*
X21300Y4000D02*X20948Y4203D01*
X24300Y4000D02*Y3594D01*
Y4000D02*X24652Y4203D01*
X24300Y4000D02*X23948Y4203D01*
X27100Y4000D02*Y3594D01*
Y4000D02*X27452Y4203D01*
X27100Y4000D02*X26748Y4203D01*
X30100Y4000D02*Y3594D01*
Y4000D02*X30452Y4203D01*
X30100Y4000D02*X29748Y4203D01*
X33000Y4000D02*Y3594D01*
Y4000D02*X33352Y4203D01*
X33000Y4000D02*X32648Y4203D01*
X18200Y4000D02*Y3594D01*
Y4000D02*X18552Y4203D01*
X18200Y4000D02*X17848Y4203D01*
X15200Y4000D02*Y3594D01*
Y4000D02*X15552Y4203D01*
X15200Y4000D02*X14848Y4203D01*
X12400Y4000D02*Y3594D01*
Y4000D02*X12752Y4203D01*
X12400Y4000D02*X12048Y4203D01*
X12000Y9500D02*Y9094D01*
Y9500D02*X12352Y9703D01*
X12000Y9500D02*X11648Y9703D01*
X14900Y11500D02*Y11094D01*
Y11500D02*X15252Y11703D01*
X14900Y11500D02*X14548Y11703D01*
X14800Y15000D02*Y14594D01*
Y15000D02*X15152Y15203D01*
X14800Y15000D02*X14448Y15203D01*
X121900Y91100D02*Y90694D01*
Y91100D02*X122252Y91303D01*
X121900Y91100D02*X121548Y91303D01*
X116800Y93400D02*Y92994D01*
Y93400D02*X117152Y93603D01*
X116800Y93400D02*X116448Y93603D01*
X119400Y93400D02*Y92994D01*
Y93400D02*X119752Y93603D01*
X119400Y93400D02*X119048Y93603D01*
X5400Y22500D02*Y22094D01*
Y22500D02*X5752Y22703D01*
X5400Y22500D02*X5048Y22703D01*
X8500Y17000D02*Y16594D01*
Y17000D02*X8852Y17203D01*
X8500Y17000D02*X8148Y17203D01*
X7800Y23600D02*Y23194D01*
Y23600D02*X8152Y23803D01*
X7800Y23600D02*X7448Y23803D01*
X20800Y20300D02*Y19894D01*
Y20300D02*X21152Y20503D01*
X20800Y20300D02*X20448Y20503D01*
X23900Y20300D02*Y19894D01*
Y20300D02*X24252Y20503D01*
X23900Y20300D02*X23548Y20503D01*
X23900Y23600D02*Y23194D01*
Y23600D02*X24252Y23803D01*
X23900Y23600D02*X23548Y23803D01*
X27400Y20300D02*Y19894D01*
Y20300D02*X27752Y20503D01*
X27400Y20300D02*X27048Y20503D01*
X30300Y20300D02*Y19894D01*
Y20300D02*X30652Y20503D01*
X30300Y20300D02*X29948Y20503D01*
X28900Y22200D02*Y21794D01*
Y22200D02*X29252Y22403D01*
X28900Y22200D02*X28548Y22403D01*
X32100Y22200D02*Y21794D01*
Y22200D02*X32452Y22403D01*
X32100Y22200D02*X31748Y22403D01*
X32800Y25100D02*Y24694D01*
Y25100D02*X33152Y25303D01*
X32800Y25100D02*X32448Y25303D01*
X23900Y27000D02*Y26594D01*
Y27000D02*X24252Y27203D01*
X23900Y27000D02*X23548Y27203D01*
X27000Y25200D02*Y24794D01*
Y25200D02*X27352Y25403D01*
X27000Y25200D02*X26648Y25403D01*
X20600Y16400D02*Y15994D01*
Y16400D02*X20952Y16603D01*
X20600Y16400D02*X20248Y16603D01*
X23600Y16400D02*Y15994D01*
Y16400D02*X23952Y16603D01*
X23600Y16400D02*X23248Y16603D01*
X23800Y13400D02*Y12994D01*
Y13400D02*X24152Y13603D01*
X23800Y13400D02*X23448Y13603D01*
X22400Y46700D02*Y46294D01*
Y46700D02*X22752Y46903D01*
X22400Y46700D02*X22048Y46903D01*
X24900Y49200D02*Y48794D01*
Y49200D02*X25252Y49403D01*
X24900Y49200D02*X24548Y49403D01*
X24900Y52100D02*Y51694D01*
Y52100D02*X25252Y52303D01*
X24900Y52100D02*X24548Y52303D01*
X24900Y55200D02*Y54794D01*
Y55200D02*X25252Y55403D01*
X24900Y55200D02*X24548Y55403D01*
X13200Y63200D02*Y62794D01*
Y63200D02*X13552Y63403D01*
X13200Y63200D02*X12848Y63403D01*
X8700Y61900D02*Y61494D01*
Y61900D02*X9052Y62103D01*
X8700Y61900D02*X8348Y62103D01*
X6300Y66700D02*Y66294D01*
Y66700D02*X6652Y66903D01*
X6300Y66700D02*X5948Y66903D01*
X6300Y69700D02*Y69294D01*
Y69700D02*X6652Y69903D01*
X6300Y69700D02*X5948Y69903D01*
X9600Y69700D02*Y69294D01*
Y69700D02*X9952Y69903D01*
X9600Y69700D02*X9248Y69903D01*
X9600Y66700D02*Y66294D01*
Y66700D02*X9952Y66903D01*
X9600Y66700D02*X9248Y66903D01*
X8600Y72800D02*Y72394D01*
Y72800D02*X8952Y73003D01*
X8600Y72800D02*X8248Y73003D01*
X6400Y76100D02*Y75694D01*
Y76100D02*X6752Y76303D01*
X6400Y76100D02*X6048Y76303D01*
X10000Y82100D02*Y81694D01*
Y82100D02*X10352Y82303D01*
X10000Y82100D02*X9648Y82303D01*
X6400Y83300D02*Y82894D01*
Y83300D02*X6752Y83503D01*
X6400Y83300D02*X6048Y83503D01*
X6400Y86200D02*Y85794D01*
Y86200D02*X6752Y86403D01*
X6400Y86200D02*X6048Y86403D01*
X8500Y85600D02*Y85194D01*
Y85600D02*X8852Y85803D01*
X8500Y85600D02*X8148Y85803D01*
X13800Y91500D02*Y91094D01*
Y91500D02*X14152Y91703D01*
X13800Y91500D02*X13448Y91703D01*
X121900Y76800D02*Y76394D01*
Y76800D02*X122252Y77003D01*
X121900Y76800D02*X121548Y77003D01*
X17100Y91500D02*Y91094D01*
Y91500D02*X17452Y91703D01*
X17100Y91500D02*X16748Y91703D01*
X121900Y79200D02*Y78794D01*
Y79200D02*X122252Y79403D01*
X121900Y79200D02*X121548Y79403D01*
X20300Y91500D02*Y91094D01*
Y91500D02*X20652Y91703D01*
X20300Y91500D02*X19948Y91703D01*
X121900Y81600D02*Y81194D01*
Y81600D02*X122252Y81803D01*
X121900Y81600D02*X121548Y81803D01*
X23600Y91500D02*Y91094D01*
Y91500D02*X23952Y91703D01*
X23600Y91500D02*X23248Y91703D01*
X121900Y84000D02*Y83594D01*
Y84000D02*X122252Y84203D01*
X121900Y84000D02*X121548Y84203D01*
X26900Y91500D02*Y91094D01*
Y91500D02*X27252Y91703D01*
X26900Y91500D02*X26548Y91703D01*
X121900Y86300D02*Y85894D01*
Y86300D02*X122252Y86503D01*
X121900Y86300D02*X121548Y86503D01*
X30100Y91500D02*Y91094D01*
Y91500D02*X30452Y91703D01*
X30100Y91500D02*X29748Y91703D01*
X121900Y88800D02*Y88394D01*
Y88800D02*X122252Y89003D01*
X121900Y88800D02*X121548Y89003D01*
X33900Y91500D02*Y91094D01*
Y91500D02*X34252Y91703D01*
X33900Y91500D02*X33548Y91703D01*
X119400Y91100D02*Y90694D01*
Y91100D02*X119752Y91303D01*
X119400Y91100D02*X119048Y91303D01*
X50500Y94400D02*Y93994D01*
Y94400D02*X50852Y94603D01*
X50500Y94400D02*X50148Y94603D01*
X47300Y94400D02*Y93994D01*
Y94400D02*X47652Y94603D01*
X47300Y94400D02*X46948Y94603D01*
X67300Y81800D02*Y81394D01*
Y81800D02*X67652Y82003D01*
X67300Y81800D02*X66948Y82003D01*
X87900Y82400D02*Y81994D01*
Y82400D02*X88252Y82603D01*
X87900Y82400D02*X87548Y82603D01*
X89400Y80800D02*Y80394D01*
Y80800D02*X89752Y81003D01*
X89400Y80800D02*X89048Y81003D01*
X89200Y71400D02*Y70994D01*
Y71400D02*X89552Y71603D01*
X89200Y71400D02*X88848Y71603D01*
X89200Y69300D02*Y68894D01*
Y69300D02*X89552Y69503D01*
X89200Y69300D02*X88848Y69503D01*
X87600Y70500D02*Y70094D01*
Y70500D02*X87952Y70703D01*
X87600Y70500D02*X87248Y70703D01*
X82600Y22600D02*Y22194D01*
Y22600D02*X82952Y22803D01*
X82600Y22600D02*X82248Y22803D01*
X84300Y20500D02*Y20094D01*
Y20500D02*X84652Y20703D01*
X84300Y20500D02*X83948Y20703D01*
X85500Y19100D02*Y18694D01*
Y19100D02*X85852Y19303D01*
X85500Y19100D02*X85148Y19303D01*
X87500Y19100D02*Y18694D01*
Y19100D02*X87852Y19303D01*
X87500Y19100D02*X87148Y19303D01*
X75200Y20100D02*Y19694D01*
Y20100D02*X75552Y20303D01*
X75200Y20100D02*X74848Y20303D01*
X77000Y46600D02*Y46194D01*
Y46600D02*X77352Y46803D01*
X77000Y46600D02*X76648Y46803D01*
X124900Y37500D02*Y37094D01*
Y37500D02*X125252Y37703D01*
X124900Y37500D02*X124548Y37703D01*
X124900Y45300D02*Y44894D01*
Y45300D02*X125252Y45503D01*
X124900Y45300D02*X124548Y45503D01*
X119700Y17200D02*Y16794D01*
Y17200D02*X120052Y17403D01*
X119700Y17200D02*X119348Y17403D01*
X121600Y17200D02*Y16794D01*
Y17200D02*X121952Y17403D01*
X121600Y17200D02*X121248Y17403D01*
X123400Y17200D02*Y16794D01*
Y17200D02*X123752Y17403D01*
X123400Y17200D02*X123048Y17403D01*
X83300Y58700D02*Y58294D01*
Y58700D02*X83652Y58903D01*
X83300Y58700D02*X82948Y58903D01*
X85400Y58700D02*Y58294D01*
Y58700D02*X85752Y58903D01*
X85400Y58700D02*X85048Y58903D01*
X100400Y42800D02*Y42394D01*
Y42800D02*X100752Y43003D01*
X100400Y42800D02*X100048Y43003D01*
X102700Y42800D02*Y42394D01*
Y42800D02*X103052Y43003D01*
X102700Y42800D02*X102348Y43003D01*
X106300Y42800D02*Y42394D01*
Y42800D02*X106652Y43003D01*
X106300Y42800D02*X105948Y43003D01*
X113500Y60600D02*Y60194D01*
Y60600D02*X113852Y60803D01*
X113500Y60600D02*X113148Y60803D01*
X113500Y58200D02*Y57794D01*
Y58200D02*X113852Y58403D01*
X113500Y58200D02*X113148Y58403D01*
X113500Y53500D02*Y53094D01*
Y53500D02*X113852Y53703D01*
X113500Y53500D02*X113148Y53703D01*
X113500Y52200D02*Y51794D01*
Y52200D02*X113852Y52403D01*
X113500Y52200D02*X113148Y52403D01*
X116400Y58800D02*Y58394D01*
Y58800D02*X116752Y59003D01*
X116400Y58800D02*X116048Y59003D01*
X116400Y56100D02*Y55694D01*
Y56100D02*X116752Y56303D01*
X116400Y56100D02*X116048Y56303D01*
X116400Y53500D02*Y53094D01*
Y53500D02*X116752Y53703D01*
X116400Y53500D02*X116048Y53703D01*
X116400Y50800D02*Y50394D01*
Y50800D02*X116752Y51003D01*
X116400Y50800D02*X116048Y51003D01*
X116400Y47700D02*Y47294D01*
Y47700D02*X116752Y47903D01*
X116400Y47700D02*X116048Y47903D01*
X116400Y45000D02*Y44594D01*
Y45000D02*X116752Y45203D01*
X116400Y45000D02*X116048Y45203D01*
X119400Y54700D02*Y54294D01*
Y54700D02*X119752Y54903D01*
X119400Y54700D02*X119048Y54903D01*
X124600Y76800D02*Y76394D01*
Y76800D02*X124952Y77003D01*
X124600Y76800D02*X124248Y77003D01*
X124600Y79200D02*Y78794D01*
Y79200D02*X124952Y79403D01*
X124600Y79200D02*X124248Y79403D01*
X124600Y81600D02*Y81194D01*
Y81600D02*X124952Y81803D01*
X124600Y81600D02*X124248Y81803D01*
X124600Y84000D02*Y83594D01*
Y84000D02*X124952Y84203D01*
X124600Y84000D02*X124248Y84203D01*
X124600Y86300D02*Y85894D01*
Y86300D02*X124952Y86503D01*
X124600Y86300D02*X124248Y86503D01*
X124600Y88800D02*Y88394D01*
Y88800D02*X124952Y89003D01*
X124600Y88800D02*X124248Y89003D01*
X124600Y91100D02*Y90694D01*
Y91100D02*X124952Y91303D01*
X124600Y91100D02*X124248Y91303D01*
X124600Y93400D02*Y92994D01*
Y93400D02*X124952Y93603D01*
X124600Y93400D02*X124248Y93603D01*
X124600Y95800D02*Y95394D01*
Y95800D02*X124952Y96003D01*
X124600Y95800D02*X124248Y96003D01*
X121900Y95800D02*Y95394D01*
Y95800D02*X122252Y96003D01*
X121900Y95800D02*X121548Y96003D01*
X119400Y95800D02*Y95394D01*
Y95800D02*X119752Y96003D01*
X119400Y95800D02*X119048Y96003D01*
X116800Y95800D02*Y95394D01*
Y95800D02*X117152Y96003D01*
X116800Y95800D02*X116448Y96003D01*
X114200Y95800D02*Y95394D01*
Y95800D02*X114552Y96003D01*
X114200Y95800D02*X113848Y96003D01*
X136900Y36600D02*Y36194D01*
Y36600D02*X137252Y36803D01*
X136900Y36600D02*X136548Y36803D01*
X143700Y38200D02*Y37794D01*
Y38200D02*X144052Y38403D01*
X143700Y38200D02*X143348Y38403D01*
X85400Y68300D02*Y67894D01*
Y68300D02*X85752Y68503D01*
X85400Y68300D02*X85048Y68503D01*
X130400Y57200D02*Y56794D01*
Y57200D02*X130752Y57403D01*
X130400Y57200D02*X130048Y57403D01*
X128200Y16000D02*Y15594D01*
Y16000D02*X128552Y16203D01*
X128200Y16000D02*X127848Y16203D01*
X126100Y24600D02*Y24194D01*
Y24600D02*X126452Y24803D01*
X126100Y24600D02*X125748Y24803D01*
X138800Y41500D02*Y41094D01*
Y41500D02*X139152Y41703D01*
X138800Y41500D02*X138448Y41703D01*
X160700Y22600D02*Y22194D01*
Y22600D02*X161052Y22803D01*
X160700Y22600D02*X160348Y22803D01*
X157000Y13100D02*Y12694D01*
Y13100D02*X157352Y13303D01*
X157000Y13100D02*X156648Y13303D01*
X154200Y12000D02*Y11594D01*
Y12000D02*X154552Y12203D01*
X154200Y12000D02*X153848Y12203D01*
X159300Y12000D02*Y11594D01*
Y12000D02*X159652Y12203D01*
X159300Y12000D02*X158948Y12203D01*
X155800Y12000D02*Y11594D01*
Y12000D02*X156152Y12203D01*
X155800Y12000D02*X155448Y12203D01*
X157700Y12000D02*Y11594D01*
Y12000D02*X158052Y12203D01*
X157700Y12000D02*X157348Y12203D01*
X156200Y13900D02*Y13494D01*
Y13900D02*X156552Y14103D01*
X156200Y13900D02*X155848Y14103D01*
X157000Y14700D02*Y14294D01*
Y14700D02*X157352Y14903D01*
X157000Y14700D02*X156648Y14903D01*
X134300Y38400D02*Y37994D01*
Y38400D02*X134652Y38603D01*
X134300Y38400D02*X133948Y38603D01*
X3810Y167628D02*Y167221D01*
Y167628D02*X4162Y167831D01*
X3810Y167628D02*X3458Y167831D01*
X34290Y168199D02*Y168009D01*
X34671Y167628D01*
X35052Y168009D01*
Y168199D02*Y168009D01*
X34671Y167628D02*Y166675D01*
X35509Y167437D02*X36081D01*
X35509Y166675D02*X36271D01*
X35509Y168199D02*Y166675D01*
Y168199D02*X36271D01*
X37490D02*X37681Y168009D01*
X36919Y168199D02*X37490D01*
X36728Y168009D02*X36919Y168199D01*
X36728Y168009D02*Y167628D01*
X36919Y167437D01*
X37490D01*
X37681Y167247D01*
Y166866D01*
X37490Y166675D02*X37681Y166866D01*
X36919Y166675D02*X37490D01*
X36728Y166866D02*X36919Y166675D01*
X24892Y168199D02*X25654D01*
X24892D02*Y167437D01*
X25082Y167628D01*
X25464D01*
X25654Y167437D01*
Y166866D01*
X25464Y166675D02*X25654Y166866D01*
X25082Y166675D02*X25464D01*
X24892Y166866D02*X25082Y166675D01*
X26111Y168009D02*X26302Y168199D01*
X26873D01*
X27064Y168009D01*
Y167628D01*
X26111Y166675D02*X27064Y167628D01*
X26111Y166675D02*X27064D01*
X28092Y168199D02*X28283Y168009D01*
X27711Y168199D02*X28092D01*
X27521Y168009D02*X27711Y168199D01*
X27521Y168009D02*Y166866D01*
X27711Y166675D01*
X28092Y167437D02*X28283Y167247D01*
X27521Y167437D02*X28092D01*
X27711Y166675D02*X28092D01*
X28283Y166866D01*
Y167247D02*Y166866D01*
X11430D02*X11620Y166675D01*
X11430Y168009D02*Y166866D01*
Y168009D02*X11620Y168199D01*
X12002D01*
X12192Y168009D01*
Y166866D01*
X12002Y166675D02*X12192Y166866D01*
X11620Y166675D02*X12002D01*
X11430Y167056D02*X12192Y167818D01*
X12649Y166675D02*X12840D01*
X13297Y166866D02*X13487Y166675D01*
X13297Y168009D02*Y166866D01*
Y168009D02*X13487Y168199D01*
X13868D01*
X14059Y168009D01*
Y166866D01*
X13868Y166675D02*X14059Y166866D01*
X13487Y166675D02*X13868D01*
X13297Y167056D02*X14059Y167818D01*
X14516Y168009D02*X14707Y168199D01*
X15278D01*
X15469Y168009D01*
Y167628D01*
X14516Y166675D02*X15469Y167628D01*
X14516Y166675D02*X15469D01*
X15926Y166866D02*X16116Y166675D01*
X15926Y168009D02*Y166866D01*
Y168009D02*X16116Y168199D01*
X16497D01*
X16688Y168009D01*
Y166866D01*
X16497Y166675D02*X16688Y166866D01*
X16116Y166675D02*X16497D01*
X15926Y167056D02*X16688Y167818D01*
X762Y172009D02*X952Y171819D01*
X190Y172009D02*X762D01*
X0Y171819D02*X190Y172009D01*
X0Y171819D02*Y171438D01*
X190Y171247D01*
X762D01*
X952Y171057D01*
Y170676D01*
X762Y170485D02*X952Y170676D01*
X190Y170485D02*X762D01*
X0Y170676D02*X190Y170485D01*
X1410Y171247D02*Y170676D01*
X1600Y170485D01*
X2172Y171247D02*Y170104D01*
X1981Y169914D02*X2172Y170104D01*
X1600Y169914D02*X1981D01*
X1410Y170104D02*X1600Y169914D01*
Y170485D02*X1981D01*
X2172Y170676D01*
X2819Y171057D02*Y170485D01*
Y171057D02*X3010Y171247D01*
X3200D01*
X3391Y171057D01*
Y170485D01*
Y171057D02*X3581Y171247D01*
X3772D01*
X3962Y171057D01*
Y170485D01*
X2629Y171247D02*X2819Y171057D01*
X4420Y172009D02*Y170485D01*
Y170676D02*X4610Y170485D01*
X4991D01*
X5182Y170676D01*
Y171057D02*Y170676D01*
X4991Y171247D02*X5182Y171057D01*
X4610Y171247D02*X4991D01*
X4420Y171057D02*X4610Y171247D01*
X5639Y171057D02*Y170676D01*
Y171057D02*X5829Y171247D01*
X6210D01*
X6401Y171057D01*
Y170676D01*
X6210Y170485D02*X6401Y170676D01*
X5829Y170485D02*X6210D01*
X5639Y170676D02*X5829Y170485D01*
X6858Y172009D02*Y170676D01*
X7049Y170485D01*
X0Y169660D02*X7430D01*
X10604Y172009D02*Y170485D01*
X11176Y172009D02*X11366Y171819D01*
Y170676D01*
X11176Y170485D02*X11366Y170676D01*
X10414Y170485D02*X11176D01*
X10414Y172009D02*X11176D01*
X11824Y171628D02*Y171438D01*
Y171057D02*Y170485D01*
X12776Y171247D02*X12967Y171057D01*
X12395Y171247D02*X12776D01*
X12205Y171057D02*X12395Y171247D01*
X12205Y171057D02*Y170676D01*
X12395Y170485D01*
X12967Y171247D02*Y170676D01*
X13157Y170485D01*
X12395D02*X12776D01*
X12967Y170676D01*
X13805Y171057D02*Y170485D01*
Y171057D02*X13995Y171247D01*
X14186D01*
X14376Y171057D01*
Y170485D01*
Y171057D02*X14567Y171247D01*
X14757D01*
X14948Y171057D01*
Y170485D01*
X13614Y171247D02*X13805Y171057D01*
X15405Y170485D02*X15596D01*
X16739Y170676D02*X16929Y170485D01*
X16739Y171819D02*X16929Y172009D01*
X16739Y171819D02*Y170676D01*
X17386Y172009D02*X17767D01*
X17577D02*Y170485D01*
X17386D02*X17767D01*
X18415Y171057D02*Y170485D01*
Y171057D02*X18606Y171247D01*
X18796D01*
X18987Y171057D01*
Y170485D01*
X18225Y171247D02*X18415Y171057D01*
X19634Y171247D02*X20206D01*
X19444Y171057D02*X19634Y171247D01*
X19444Y171057D02*Y170676D01*
X19634Y170485D01*
X20206D01*
X20663Y172009D02*Y170485D01*
Y171057D02*X20853Y171247D01*
X21234D01*
X21425Y171057D01*
Y170485D01*
X21882Y172009D02*X22073Y171819D01*
Y170676D01*
X21882Y170485D02*X22073Y170676D01*
X10414Y169660D02*X22530D01*
X24320Y170485D02*X24892D01*
X24130Y170676D02*X24320Y170485D01*
X24130Y171819D02*Y170676D01*
Y171819D02*X24320Y172009D01*
X24892D01*
X25349Y171057D02*Y170676D01*
Y171057D02*X25540Y171247D01*
X25921D01*
X26111Y171057D01*
Y170676D01*
X25921Y170485D02*X26111Y170676D01*
X25540Y170485D02*X25921D01*
X25349Y170676D02*X25540Y170485D01*
X26568Y171247D02*Y170676D01*
X26759Y170485D01*
X27140D01*
X27330Y170676D01*
Y171247D02*Y170676D01*
X27978Y171057D02*Y170485D01*
Y171057D02*X28169Y171247D01*
X28359D01*
X28550Y171057D01*
Y170485D01*
X27788Y171247D02*X27978Y171057D01*
X29197Y172009D02*Y170676D01*
X29388Y170485D01*
X29007Y171438D02*X29388D01*
X24130Y169660D02*X29769D01*
X33210Y172009D02*Y170485D01*
X33020Y172009D02*X33782D01*
X33972Y171819D01*
Y171438D01*
X33782Y171247D02*X33972Y171438D01*
X33210Y171247D02*X33782D01*
X34430Y172009D02*Y170676D01*
X34620Y170485D01*
X35573Y171247D02*X35763Y171057D01*
X35192Y171247D02*X35573D01*
X35001Y171057D02*X35192Y171247D01*
X35001Y171057D02*Y170676D01*
X35192Y170485D01*
X35763Y171247D02*Y170676D01*
X35954Y170485D01*
X35192D02*X35573D01*
X35763Y170676D01*
X36601Y172009D02*Y170676D01*
X36792Y170485D01*
X36411Y171438D02*X36792D01*
X37363Y170485D02*X37935D01*
X37173Y170676D02*X37363Y170485D01*
X37173Y171057D02*Y170676D01*
Y171057D02*X37363Y171247D01*
X37744D01*
X37935Y171057D01*
X37173Y170866D02*X37935D01*
Y171057D02*Y170866D01*
X39154Y172009D02*Y170485D01*
X38964D02*X39154Y170676D01*
X38583Y170485D02*X38964D01*
X38392Y170676D02*X38583Y170485D01*
X38392Y171057D02*Y170676D01*
Y171057D02*X38583Y171247D01*
X38964D01*
X39154Y171057D01*
X39992Y171247D02*Y171057D01*
Y170676D02*Y170485D01*
X39611Y171819D02*Y171628D01*
Y171819D02*X39802Y172009D01*
X40183D01*
X40373Y171819D01*
Y171628D01*
X39992Y171247D02*X40373Y171628D01*
X33020Y169660D02*X40831D01*
X0Y175819D02*X762D01*
X381D02*Y174295D01*
X1219Y175819D02*Y174295D01*
Y174867D02*X1410Y175057D01*
X1791D01*
X1981Y174867D01*
Y174295D01*
X2629D02*X3200D01*
X2438Y174486D02*X2629Y174295D01*
X2438Y174867D02*Y174486D01*
Y174867D02*X2629Y175057D01*
X3010D01*
X3200Y174867D01*
X2438Y174676D02*X3200D01*
Y174867D02*Y174676D01*
X3848Y174867D02*Y174295D01*
Y174867D02*X4039Y175057D01*
X4420D01*
X3658D02*X3848Y174867D01*
X5067Y174295D02*X5639D01*
X4877Y174486D02*X5067Y174295D01*
X4877Y174867D02*Y174486D01*
Y174867D02*X5067Y175057D01*
X5448D01*
X5639Y174867D01*
X4877Y174676D02*X5639D01*
Y174867D02*Y174676D01*
X7353Y175057D02*X7544Y174867D01*
X6972Y175057D02*X7353D01*
X6782Y174867D02*X6972Y175057D01*
X6782Y174867D02*Y174486D01*
X6972Y174295D01*
X7544Y175057D02*Y174486D01*
X7734Y174295D01*
X6972D02*X7353D01*
X7544Y174486D01*
X8382Y174867D02*Y174295D01*
Y174867D02*X8573Y175057D01*
X8954D01*
X8192D02*X8382Y174867D01*
X9601Y174295D02*X10173D01*
X9411Y174486D02*X9601Y174295D01*
X9411Y174867D02*Y174486D01*
Y174867D02*X9601Y175057D01*
X9982D01*
X10173Y174867D01*
X9411Y174676D02*X10173D01*
Y174867D02*Y174676D01*
X11506Y174295D02*X11887D01*
X11697Y175819D02*Y174295D01*
X11316Y175438D02*X11697Y175819D01*
X12344Y174486D02*X12535Y174295D01*
X12344Y174867D02*Y174486D01*
Y174867D02*X12535Y175057D01*
X12916D01*
X13106Y174867D01*
Y174486D01*
X12916Y174295D02*X13106Y174486D01*
X12535Y174295D02*X12916D01*
X12344Y175248D02*X12535Y175057D01*
X12344Y175629D02*Y175248D01*
Y175629D02*X12535Y175819D01*
X12916D01*
X13106Y175629D01*
Y175248D01*
X12916Y175057D02*X13106Y175248D01*
X15011Y175819D02*Y174295D01*
X14821D02*X15011Y174486D01*
X14440Y174295D02*X14821D01*
X14249Y174486D02*X14440Y174295D01*
X14249Y174867D02*Y174486D01*
Y174867D02*X14440Y175057D01*
X14821D01*
X15011Y174867D01*
X15469Y175438D02*Y175248D01*
Y174867D02*Y174295D01*
X16040Y175629D02*Y174295D01*
Y175629D02*X16231Y175819D01*
X16421D01*
X15850Y175057D02*X16231D01*
X16993Y175629D02*Y174295D01*
Y175629D02*X17183Y175819D01*
X17374D01*
X16802Y175057D02*X17183D01*
X17945Y174295D02*X18517D01*
X17755Y174486D02*X17945Y174295D01*
X17755Y174867D02*Y174486D01*
Y174867D02*X17945Y175057D01*
X18326D01*
X18517Y174867D01*
X17755Y174676D02*X18517D01*
Y174867D02*Y174676D01*
X19164Y174867D02*Y174295D01*
Y174867D02*X19355Y175057D01*
X19736D01*
X18974D02*X19164Y174867D01*
X20384Y174295D02*X20955D01*
X20193Y174486D02*X20384Y174295D01*
X20193Y174867D02*Y174486D01*
Y174867D02*X20384Y175057D01*
X20765D01*
X20955Y174867D01*
X20193Y174676D02*X20955D01*
Y174867D02*Y174676D01*
X21603Y174867D02*Y174295D01*
Y174867D02*X21793Y175057D01*
X21984D01*
X22174Y174867D01*
Y174295D01*
X21412Y175057D02*X21603Y174867D01*
X22822Y175819D02*Y174486D01*
X23012Y174295D01*
X22631Y175248D02*X23012D01*
X24841Y175819D02*Y174295D01*
X24651D02*X24841Y174486D01*
X24270Y174295D02*X24651D01*
X24079Y174486D02*X24270Y174295D01*
X24079Y174867D02*Y174486D01*
Y174867D02*X24270Y175057D01*
X24651D01*
X24841Y174867D01*
X25489D02*Y174295D01*
Y174867D02*X25679Y175057D01*
X26060D01*
X25298D02*X25489Y174867D01*
X26518Y175438D02*Y175248D01*
Y174867D02*Y174295D01*
X26899Y175819D02*Y174486D01*
X27089Y174295D01*
X27470Y175819D02*Y174486D01*
X27661Y174295D01*
X28918D02*X29489D01*
X29680Y174486D01*
X29489Y174676D02*X29680Y174486D01*
X28918Y174676D02*X29489D01*
X28727Y174867D02*X28918Y174676D01*
X28727Y174867D02*X28918Y175057D01*
X29489D01*
X29680Y174867D01*
X28727Y174486D02*X28918Y174295D01*
X30137Y175438D02*Y175248D01*
Y174867D02*Y174295D01*
X30518Y175057D02*X31280D01*
X30518Y174295D02*X31280Y175057D01*
X30518Y174295D02*X31280D01*
X31928D02*X32499D01*
X31737Y174486D02*X31928Y174295D01*
X31737Y174867D02*Y174486D01*
Y174867D02*X31928Y175057D01*
X32309D01*
X32499Y174867D01*
X31737Y174676D02*X32499D01*
Y174867D02*Y174676D01*
X33147Y174295D02*X33719D01*
X33909Y174486D01*
X33719Y174676D02*X33909Y174486D01*
X33147Y174676D02*X33719D01*
X32957Y174867D02*X33147Y174676D01*
X32957Y174867D02*X33147Y175057D01*
X33719D01*
X33909Y174867D01*
X32957Y174486D02*X33147Y174295D01*
X35052Y175057D02*Y174486D01*
X35243Y174295D01*
X35624D01*
X35814Y174486D01*
Y175057D02*Y174486D01*
X36462Y174295D02*X37033D01*
X37224Y174486D01*
X37033Y174676D02*X37224Y174486D01*
X36462Y174676D02*X37033D01*
X36271Y174867D02*X36462Y174676D01*
X36271Y174867D02*X36462Y175057D01*
X37033D01*
X37224Y174867D01*
X36271Y174486D02*X36462Y174295D01*
X37871D02*X38443D01*
X37681Y174486D02*X37871Y174295D01*
X37681Y174867D02*Y174486D01*
Y174867D02*X37871Y175057D01*
X38252D01*
X38443Y174867D01*
X37681Y174676D02*X38443D01*
Y174867D02*Y174676D01*
X39662Y175819D02*Y174295D01*
X39472D02*X39662Y174486D01*
X39091Y174295D02*X39472D01*
X38900Y174486D02*X39091Y174295D01*
X38900Y174867D02*Y174486D01*
Y174867D02*X39091Y175057D01*
X39472D01*
X39662Y174867D01*
X40805Y175438D02*Y175248D01*
Y174867D02*Y174295D01*
X41377Y174867D02*Y174295D01*
Y174867D02*X41567Y175057D01*
X41758D01*
X41948Y174867D01*
Y174295D01*
X41186Y175057D02*X41377Y174867D01*
X43282Y175819D02*Y174486D01*
X43472Y174295D01*
X43091Y175248D02*X43472D01*
X43853Y175819D02*Y174295D01*
Y174867D02*X44044Y175057D01*
X44425D01*
X44615Y174867D01*
Y174295D01*
X45072Y175438D02*Y175248D01*
Y174867D02*Y174295D01*
X45644D02*X46215D01*
X46406Y174486D01*
X46215Y174676D02*X46406Y174486D01*
X45644Y174676D02*X46215D01*
X45453Y174867D02*X45644Y174676D01*
X45453Y174867D02*X45644Y175057D01*
X46215D01*
X46406Y174867D01*
X45453Y174486D02*X45644Y174295D01*
X47549Y175819D02*Y174486D01*
X47739Y174295D01*
X48692Y175057D02*X48882Y174867D01*
X48311Y175057D02*X48692D01*
X48120Y174867D02*X48311Y175057D01*
X48120Y174867D02*Y174486D01*
X48311Y174295D01*
X48882Y175057D02*Y174486D01*
X49073Y174295D01*
X48311D02*X48692D01*
X48882Y174486D01*
X49530Y175057D02*Y174486D01*
X49721Y174295D01*
X50292Y175057D02*Y173914D01*
X50102Y173724D02*X50292Y173914D01*
X49721Y173724D02*X50102D01*
X49530Y173914D02*X49721Y173724D01*
Y174295D02*X50102D01*
X50292Y174486D01*
X50749Y174867D02*Y174486D01*
Y174867D02*X50940Y175057D01*
X51321D01*
X51511Y174867D01*
Y174486D01*
X51321Y174295D02*X51511Y174486D01*
X50940Y174295D02*X51321D01*
X50749Y174486D02*X50940Y174295D01*
X51968Y175057D02*Y174486D01*
X52159Y174295D01*
X52540D01*
X52730Y174486D01*
Y175057D02*Y174486D01*
X53378Y175819D02*Y174486D01*
X53569Y174295D01*
X53188Y175248D02*X53569D01*
X53950Y173914D02*X54331Y174295D01*
X56045Y175819D02*X56236Y175629D01*
X55664Y175819D02*X56045D01*
X55474Y175629D02*X55664Y175819D01*
X55474Y175629D02*Y174486D01*
X55664Y174295D01*
X56045Y175057D02*X56236Y174867D01*
X55474Y175057D02*X56045D01*
X55664Y174295D02*X56045D01*
X56236Y174486D01*
Y174867D02*Y174486D01*
X56693Y174295D02*X57455Y175057D01*
Y175629D02*Y175057D01*
X57264Y175819D02*X57455Y175629D01*
X56883Y175819D02*X57264D01*
X56693Y175629D02*X56883Y175819D01*
X56693Y175629D02*Y175248D01*
X56883Y175057D01*
X57455D01*
X57912Y175629D02*X58103Y175819D01*
X58674D01*
X58865Y175629D01*
Y175248D01*
X57912Y174295D02*X58865Y175248D01*
X57912Y174295D02*X58865D01*
X60008Y175819D02*Y174295D01*
Y174867D02*X60198Y175057D01*
X60579D01*
X60770Y174867D01*
Y174295D01*
X61227Y174867D02*Y174486D01*
Y174867D02*X61417Y175057D01*
X61798D01*
X61989Y174867D01*
Y174486D01*
X61798Y174295D02*X61989Y174486D01*
X61417Y174295D02*X61798D01*
X61227Y174486D02*X61417Y174295D01*
X62446Y175819D02*Y174486D01*
X62636Y174295D01*
X63208D02*X63779D01*
X63017Y174486D02*X63208Y174295D01*
X63017Y174867D02*Y174486D01*
Y174867D02*X63208Y175057D01*
X63589D01*
X63779Y174867D01*
X63017Y174676D02*X63779D01*
Y174867D02*Y174676D01*
X64427Y174295D02*X64999D01*
X65189Y174486D01*
X64999Y174676D02*X65189Y174486D01*
X64427Y174676D02*X64999D01*
X64237Y174867D02*X64427Y174676D01*
X64237Y174867D02*X64427Y175057D01*
X64999D01*
X65189Y174867D01*
X64237Y174486D02*X64427Y174295D01*
X66523Y175819D02*Y174486D01*
X66713Y174295D01*
X66332Y175248D02*X66713D01*
X67094Y174867D02*Y174486D01*
Y174867D02*X67285Y175057D01*
X67666D01*
X67856Y174867D01*
Y174486D01*
X67666Y174295D02*X67856Y174486D01*
X67285Y174295D02*X67666D01*
X67094Y174486D02*X67285Y174295D01*
X68504Y175819D02*Y174486D01*
X68694Y174295D01*
X68313Y175248D02*X68694D01*
X69647Y175057D02*X69837Y174867D01*
X69266Y175057D02*X69647D01*
X69075Y174867D02*X69266Y175057D01*
X69075Y174867D02*Y174486D01*
X69266Y174295D01*
X69837Y175057D02*Y174486D01*
X70028Y174295D01*
X69266D02*X69647D01*
X69837Y174486D01*
X70485Y175819D02*Y174486D01*
X70676Y174295D01*
G54D284*X3100Y97550D02*X126600D01*
Y76550D01*
X135350Y65050D02*X163100Y65050D01*
X3100Y2550D02*Y97550D01*
X163100Y2550D02*X3100D01*
X163100Y65050D02*Y2550D01*
X139100Y83150D02*Y67050D01*
X126600Y73550D02*Y65050D01*
X128600Y73550D02*Y67050D01*
X139100D02*X135350D01*
X132350D02*X128600D01*
X126600Y65050D02*X132350D01*
X128600Y83150D02*X139100D01*
X128600Y76550D02*Y83150D01*
X126600Y76550D02*G75*G03X127600Y75550I1000J0D01*G01*
G75*G03X128600Y76550I0J1000D01*G01*
X126600Y73550D02*G75*G02X127600Y74550I1000J0D01*G01*
G75*G02X128600Y73550I0J-1000D01*G01*
X132350Y67050D02*G75*G02X133350Y66050I0J-1000D01*G01*
G75*G02X132350Y65050I-1000J0D01*G01*
X135350Y67050D02*G75*G03X134350Y66050I0J-1000D01*G01*
G75*G03X135350Y65050I1000J0D01*G01*
G54D283*X61073Y-2413D02*X61835D01*
X62026Y-2222D01*
Y-1842D02*Y-2222D01*
X61835Y-1651D02*X62026Y-1842D01*
X61264Y-1651D02*X61835D01*
X61264Y-889D02*Y-2413D01*
X61073Y-889D02*X61835D01*
X62026Y-1080D01*
Y-1460D01*
X61835Y-1651D02*X62026Y-1460D01*
X62483Y-1842D02*Y-2222D01*
Y-1842D02*X62674Y-1651D01*
X63055D01*
X63245Y-1842D01*
Y-2222D01*
X63055Y-2413D02*X63245Y-2222D01*
X62674Y-2413D02*X63055D01*
X62483Y-2222D02*X62674Y-2413D01*
X64274Y-1651D02*X64464Y-1842D01*
X63893Y-1651D02*X64274D01*
X63702Y-1842D02*X63893Y-1651D01*
X63702Y-1842D02*Y-2222D01*
X63893Y-2413D01*
X64464Y-1651D02*Y-2222D01*
X64655Y-2413D01*
X63893D02*X64274D01*
X64464Y-2222D01*
X65302Y-1842D02*Y-2413D01*
Y-1842D02*X65493Y-1651D01*
X65874D01*
X65112D02*X65302Y-1842D01*
X67093Y-889D02*Y-2413D01*
X66903D02*X67093Y-2222D01*
X66522Y-2413D02*X66903D01*
X66331Y-2222D02*X66522Y-2413D01*
X66331Y-1842D02*Y-2222D01*
Y-1842D02*X66522Y-1651D01*
X66903D01*
X67093Y-1842D01*
X68236D02*Y-2222D01*
Y-1842D02*X68427Y-1651D01*
X68808D01*
X68998Y-1842D01*
Y-2222D01*
X68808Y-2413D02*X68998Y-2222D01*
X68427Y-2413D02*X68808D01*
X68236Y-2222D02*X68427Y-2413D01*
X69455Y-1651D02*Y-2222D01*
X69646Y-2413D01*
X70027D01*
X70217Y-2222D01*
Y-1651D02*Y-2222D01*
X70865Y-889D02*Y-2222D01*
X71056Y-2413D01*
X70675Y-1460D02*X71056D01*
X71437Y-889D02*Y-2222D01*
X71627Y-2413D01*
X72008Y-1270D02*Y-1460D01*
Y-1842D02*Y-2413D01*
X72580Y-1842D02*Y-2413D01*
Y-1842D02*X72770Y-1651D01*
X72961D01*
X73151Y-1842D01*
Y-2413D01*
X72389Y-1651D02*X72580Y-1842D01*
X73799Y-2413D02*X74370D01*
X73608Y-2222D02*X73799Y-2413D01*
X73608Y-1842D02*Y-2222D01*
Y-1842D02*X73799Y-1651D01*
X74180D01*
X74370Y-1842D01*
X73608Y-2032D02*X74370D01*
Y-1842D02*Y-2032D01*
X75513Y-1270D02*Y-1460D01*
Y-1842D02*Y-2413D01*
X76085D02*X76656D01*
X76847Y-2222D01*
X76656Y-2032D02*X76847Y-2222D01*
X76085Y-2032D02*X76656D01*
X75894Y-1842D02*X76085Y-2032D01*
X75894Y-1842D02*X76085Y-1651D01*
X76656D01*
X76847Y-1842D01*
X75894Y-2222D02*X76085Y-2413D01*
X78180Y-889D02*Y-2222D01*
X78371Y-2413D01*
X77990Y-1460D02*X78371D01*
X78752Y-889D02*Y-2413D01*
Y-1842D02*X78942Y-1651D01*
X79323D01*
X79514Y-1842D01*
Y-2413D01*
X80161D02*X80733D01*
X79971Y-2222D02*X80161Y-2413D01*
X79971Y-1842D02*Y-2222D01*
Y-1842D02*X80161Y-1651D01*
X80542D01*
X80733Y-1842D01*
X79971Y-2032D02*X80733D01*
Y-1842D02*Y-2032D01*
X82066Y-1651D02*X82638D01*
X81876Y-1842D02*X82066Y-1651D01*
X81876Y-1842D02*Y-2222D01*
X82066Y-2413D01*
X82638D01*
X83286D02*X83857D01*
X83095Y-2222D02*X83286Y-2413D01*
X83095Y-1842D02*Y-2222D01*
Y-1842D02*X83286Y-1651D01*
X83667D01*
X83857Y-1842D01*
X83095Y-2032D02*X83857D01*
Y-1842D02*Y-2032D01*
X84505Y-1842D02*Y-2413D01*
Y-1842D02*X84695Y-1651D01*
X84886D01*
X85076Y-1842D01*
Y-2413D01*
X84314Y-1651D02*X84505Y-1842D01*
X85724Y-889D02*Y-2222D01*
X85915Y-2413D01*
X85534Y-1460D02*X85915D01*
X86486Y-2413D02*X87058D01*
X86296Y-2222D02*X86486Y-2413D01*
X86296Y-1842D02*Y-2222D01*
Y-1842D02*X86486Y-1651D01*
X86867D01*
X87058Y-1842D01*
X86296Y-2032D02*X87058D01*
Y-1842D02*Y-2032D01*
X87705Y-1842D02*Y-2413D01*
Y-1842D02*X87896Y-1651D01*
X88277D01*
X87515D02*X87705Y-1842D01*
X88734Y-889D02*Y-2222D01*
X88925Y-2413D01*
X89306Y-1270D02*Y-1460D01*
Y-1842D02*Y-2413D01*
X89877Y-1842D02*Y-2413D01*
Y-1842D02*X90068Y-1651D01*
X90258D01*
X90449Y-1842D01*
Y-2413D01*
X89687Y-1651D02*X89877Y-1842D01*
X91096Y-2413D02*X91668D01*
X90906Y-2222D02*X91096Y-2413D01*
X90906Y-1842D02*Y-2222D01*
Y-1842D02*X91096Y-1651D01*
X91477D01*
X91668Y-1842D01*
X90906Y-2032D02*X91668D01*
Y-1842D02*Y-2032D01*
X92811Y-1842D02*Y-2222D01*
Y-1842D02*X93001Y-1651D01*
X93382D01*
X93573Y-1842D01*
Y-2222D01*
X93382Y-2413D02*X93573Y-2222D01*
X93001Y-2413D02*X93382D01*
X92811Y-2222D02*X93001Y-2413D01*
X94220Y-1080D02*Y-2413D01*
Y-1080D02*X94411Y-889D01*
X94601D01*
X94030Y-1651D02*X94411D01*
X95859Y-889D02*Y-2222D01*
X96049Y-2413D01*
X95668Y-1460D02*X96049D01*
X96430Y-889D02*Y-2413D01*
Y-1842D02*X96621Y-1651D01*
X97002D01*
X97192Y-1842D01*
Y-2413D01*
X97649Y-1270D02*Y-1460D01*
Y-1842D02*Y-2413D01*
X98221D02*X98792D01*
X98983Y-2222D01*
X98792Y-2032D02*X98983Y-2222D01*
X98221Y-2032D02*X98792D01*
X98030Y-1842D02*X98221Y-2032D01*
X98030Y-1842D02*X98221Y-1651D01*
X98792D01*
X98983Y-1842D01*
X98030Y-2222D02*X98221Y-2413D01*
X100316Y-1842D02*Y-2984D01*
X100126Y-1651D02*X100316Y-1842D01*
X100507Y-1651D01*
X100888D01*
X101078Y-1842D01*
Y-2222D01*
X100888Y-2413D02*X101078Y-2222D01*
X100507Y-2413D02*X100888D01*
X100316Y-2222D02*X100507Y-2413D01*
X102107Y-1651D02*X102298Y-1842D01*
X101726Y-1651D02*X102107D01*
X101536Y-1842D02*X101726Y-1651D01*
X101536Y-1842D02*Y-2222D01*
X101726Y-2413D01*
X102298Y-1651D02*Y-2222D01*
X102488Y-2413D01*
X101726D02*X102107D01*
X102298Y-2222D01*
X103136Y-889D02*Y-2222D01*
X103326Y-2413D01*
X102945Y-1460D02*X103326D01*
X103707Y-889D02*Y-2413D01*
Y-1842D02*X103898Y-1651D01*
X104279D01*
X104469Y-1842D01*
Y-2413D01*
X50990Y107239D02*Y105715D01*
X51562Y107239D02*X51752Y107049D01*
Y105906D01*
X51562Y105715D02*X51752Y105906D01*
X50800Y105715D02*X51562D01*
X50800Y107239D02*X51562D01*
X52781Y106477D02*X52972Y106287D01*
X52400Y106477D02*X52781D01*
X52210Y106287D02*X52400Y106477D01*
X52210Y106287D02*Y105906D01*
X52400Y105715D01*
X52972Y106477D02*Y105906D01*
X53162Y105715D01*
X52400D02*X52781D01*
X52972Y105906D01*
X53810Y107239D02*Y105906D01*
X54000Y105715D01*
X53619Y106668D02*X54000D01*
X54572Y105715D02*X55143D01*
X54381Y105906D02*X54572Y105715D01*
X54381Y106287D02*Y105906D01*
Y106287D02*X54572Y106477D01*
X54953D01*
X55143Y106287D01*
X54381Y106096D02*X55143D01*
Y106287D02*Y106096D01*
X55601Y106668D02*X55791D01*
X55601Y106287D02*X55791D01*
X57696Y107239D02*X57887Y107049D01*
X57125Y107239D02*X57696D01*
X56934Y107049D02*X57125Y107239D01*
X56934Y107049D02*Y106668D01*
X57125Y106477D01*
X57696D01*
X57887Y106287D01*
Y105906D01*
X57696Y105715D02*X57887Y105906D01*
X57125Y105715D02*X57696D01*
X56934Y105906D02*X57125Y105715D01*
X58344Y106477D02*Y105906D01*
X58534Y105715D01*
X58915D01*
X59106Y105906D01*
Y106477D02*Y105906D01*
X59754Y106287D02*Y105715D01*
Y106287D02*X59944Y106477D01*
X60135D01*
X60325Y106287D01*
Y105715D01*
X59563Y106477D02*X59754Y106287D01*
X61468Y107049D02*X61659Y107239D01*
X62230D01*
X62421Y107049D01*
Y106668D01*
X61468Y105715D02*X62421Y106668D01*
X61468Y105715D02*X62421D01*
X62878Y105906D02*X63068Y105715D01*
X62878Y106287D02*Y105906D01*
Y106287D02*X63068Y106477D01*
X63449D01*
X63640Y106287D01*
Y105906D01*
X63449Y105715D02*X63640Y105906D01*
X63068Y105715D02*X63449D01*
X62878Y106668D02*X63068Y106477D01*
X62878Y107049D02*Y106668D01*
Y107049D02*X63068Y107239D01*
X63449D01*
X63640Y107049D01*
Y106668D01*
X63449Y106477D02*X63640Y106668D01*
X64783Y107239D02*X65354D01*
Y105906D01*
X65164Y105715D02*X65354Y105906D01*
X64973Y105715D02*X65164D01*
X64783Y105906D02*X64973Y105715D01*
X65811Y106477D02*Y105906D01*
X66002Y105715D01*
X66383D01*
X66573Y105906D01*
Y106477D02*Y105906D01*
X67031Y107239D02*Y105906D01*
X67221Y105715D01*
X68288Y107049D02*X68478Y107239D01*
X69050D01*
X69240Y107049D01*
Y106668D01*
X68288Y105715D02*X69240Y106668D01*
X68288Y105715D02*X69240D01*
X69698Y105906D02*X69888Y105715D01*
X69698Y107049D02*Y105906D01*
Y107049D02*X69888Y107239D01*
X70269D01*
X70460Y107049D01*
Y105906D01*
X70269Y105715D02*X70460Y105906D01*
X69888Y105715D02*X70269D01*
X69698Y106096D02*X70460Y106858D01*
X71107Y105715D02*X71488D01*
X71298Y107239D02*Y105715D01*
X70917Y106858D02*X71298Y107239D01*
X71946Y107049D02*X72136Y107239D01*
X72517D01*
X72708Y107049D01*
Y105906D01*
X72517Y105715D02*X72708Y105906D01*
X72136Y105715D02*X72517D01*
X71946Y105906D02*X72136Y105715D01*
Y106477D02*X72708D01*
X73851Y107049D02*X74041Y107239D01*
X74613D01*
X74803Y107049D01*
Y106668D01*
X73851Y105715D02*X74803Y106668D01*
X73851Y105715D02*X74803D01*
X75260Y105906D02*X75451Y105715D01*
X75260Y107049D02*Y105906D01*
Y107049D02*X75451Y107239D01*
X75832D01*
X76022Y107049D01*
Y105906D01*
X75832Y105715D02*X76022Y105906D01*
X75451Y105715D02*X75832D01*
X75260Y106096D02*X76022Y106858D01*
X76479Y106668D02*X76670D01*
X76479Y106287D02*X76670D01*
X77318Y105715D02*X77699D01*
X77508Y107239D02*Y105715D01*
X77127Y106858D02*X77508Y107239D01*
X78156Y106477D02*X78918Y107239D01*
X78156Y106477D02*X79108D01*
X78918Y107239D02*Y105715D01*
X79566Y106668D02*X79756D01*
X79566Y106287D02*X79756D01*
X80213Y107239D02*X80975D01*
X80213D02*Y106477D01*
X80404Y106668D01*
X80785D01*
X80975Y106477D01*
Y105906D01*
X80785Y105715D02*X80975Y105906D01*
X80404Y105715D02*X80785D01*
X80213Y105906D02*X80404Y105715D01*
X81432Y107049D02*X81623Y107239D01*
X82004D01*
X82194Y107049D01*
Y105906D01*
X82004Y105715D02*X82194Y105906D01*
X81623Y105715D02*X82004D01*
X81432Y105906D02*X81623Y105715D01*
Y106477D02*X82194D01*
X84099Y107239D02*X84290Y107049D01*
X83528Y107239D02*X84099D01*
X83337Y107049D02*X83528Y107239D01*
X83337Y107049D02*Y105906D01*
X83528Y105715D01*
X84099D01*
X84290Y105906D01*
Y106287D02*Y105906D01*
X84099Y106477D02*X84290Y106287D01*
X83718Y106477D02*X84099D01*
X84747Y107239D02*Y105715D01*
Y107239D02*X85319Y106668D01*
X85890Y107239D01*
Y105715D01*
X86347Y107239D02*X87109D01*
X86728D02*Y105715D01*
X88252Y107239D02*Y105906D01*
X88443Y105715D01*
X88824D01*
X89014Y105906D01*
Y107239D02*Y105906D01*
X89472Y107239D02*X90234D01*
X89853D02*Y105715D01*
X90881D02*X91453D01*
X90691Y105906D02*X90881Y105715D01*
X90691Y107049D02*Y105906D01*
Y107049D02*X90881Y107239D01*
X91453D01*
X50800Y110859D02*Y109525D01*
Y110859D02*X50990Y111049D01*
X51562D01*
X51752Y110859D01*
Y109525D01*
X50800Y110287D02*X51752D01*
X52210D02*Y109716D01*
X52400Y109525D01*
X52781D01*
X52972Y109716D01*
Y110287D02*Y109716D01*
X53619Y111049D02*Y109716D01*
X53810Y109525D01*
X53429Y110478D02*X53810D01*
X54191Y111049D02*Y109525D01*
Y110097D02*X54381Y110287D01*
X54762D01*
X54953Y110097D01*
Y109525D01*
X55410Y110097D02*Y109716D01*
Y110097D02*X55601Y110287D01*
X55982D01*
X56172Y110097D01*
Y109716D01*
X55982Y109525D02*X56172Y109716D01*
X55601Y109525D02*X55982D01*
X55410Y109716D02*X55601Y109525D01*
X56820Y110097D02*Y109525D01*
Y110097D02*X57010Y110287D01*
X57391D01*
X56629D02*X56820Y110097D01*
X57849Y110478D02*X58039D01*
X57849Y110097D02*X58039D01*
X59182Y111049D02*X59944D01*
X60135Y110859D01*
Y110478D01*
X59944Y110287D02*X60135Y110478D01*
X59373Y110287D02*X59944D01*
X59373Y111049D02*Y109525D01*
Y110287D02*X60135Y109525D01*
X60592Y110668D02*Y110478D01*
Y110097D02*Y109525D01*
X61163Y110287D02*X61735D01*
X60973Y110097D02*X61163Y110287D01*
X60973Y110097D02*Y109716D01*
X61163Y109525D01*
X61735D01*
X62192Y111049D02*Y109525D01*
Y110097D02*X62382Y110287D01*
X62763D01*
X62954Y110097D01*
Y109525D01*
X63983Y110287D02*X64173Y110097D01*
X63602Y110287D02*X63983D01*
X63411Y110097D02*X63602Y110287D01*
X63411Y110097D02*Y109716D01*
X63602Y109525D01*
X64173Y110287D02*Y109716D01*
X64364Y109525D01*
X63602D02*X63983D01*
X64173Y109716D01*
X65011Y110097D02*Y109525D01*
Y110097D02*X65202Y110287D01*
X65583D01*
X64821D02*X65011Y110097D01*
X66802Y111049D02*Y109525D01*
X66612D02*X66802Y109716D01*
X66231Y109525D02*X66612D01*
X66040Y109716D02*X66231Y109525D01*
X66040Y110097D02*Y109716D01*
Y110097D02*X66231Y110287D01*
X66612D01*
X66802Y110097D01*
X67945Y109525D02*X68707D01*
X68898Y109716D01*
Y110097D02*Y109716D01*
X68707Y110287D02*X68898Y110097D01*
X68136Y110287D02*X68707D01*
X68136Y111049D02*Y109525D01*
X67945Y111049D02*X68707D01*
X68898Y110859D01*
Y110478D01*
X68707Y110287D02*X68898Y110478D01*
X69926Y110287D02*X70117Y110097D01*
X69545Y110287D02*X69926D01*
X69355Y110097D02*X69545Y110287D01*
X69355Y110097D02*Y109716D01*
X69545Y109525D01*
X70117Y110287D02*Y109716D01*
X70307Y109525D01*
X69545D02*X69926D01*
X70117Y109716D01*
X70955Y110097D02*Y109525D01*
Y110097D02*X71145Y110287D01*
X71526D01*
X70764D02*X70955Y110097D01*
X71984Y111049D02*Y109716D01*
X72174Y109525D01*
X72555Y110097D02*Y109716D01*
Y110097D02*X72746Y110287D01*
X73127D01*
X73317Y110097D01*
Y109716D01*
X73127Y109525D02*X73317Y109716D01*
X72746Y109525D02*X73127D01*
X72555Y109716D02*X72746Y109525D01*
X73774Y110287D02*Y109716D01*
X73965Y109525D01*
X74155D01*
X74346Y109716D01*
Y110287D02*Y109716D01*
X74536Y109525D01*
X74727D01*
X74917Y109716D01*
Y110287D02*Y109716D01*
X50800Y114859D02*X51562D01*
X51181D02*Y113335D01*
X52019Y114478D02*Y114288D01*
Y113907D02*Y113335D01*
X52591Y114859D02*Y113526D01*
X52781Y113335D01*
X52400Y114288D02*X52781D01*
X53162Y114859D02*Y113526D01*
X53353Y113335D01*
X53924D02*X54496D01*
X53734Y113526D02*X53924Y113335D01*
X53734Y113907D02*Y113526D01*
Y113907D02*X53924Y114097D01*
X54305D01*
X54496Y113907D01*
X53734Y113716D02*X54496D01*
Y113907D02*Y113716D01*
X54953Y114288D02*X55143D01*
X54953Y113907D02*X55143D01*
X56477Y114859D02*Y113335D01*
X56286Y114859D02*X57048D01*
X57239Y114669D01*
Y114288D01*
X57048Y114097D02*X57239Y114288D01*
X56477Y114097D02*X57048D01*
X57696Y113907D02*Y113526D01*
Y113907D02*X57887Y114097D01*
X58268D01*
X58458Y113907D01*
Y113526D01*
X58268Y113335D02*X58458Y113526D01*
X57887Y113335D02*X58268D01*
X57696Y113526D02*X57887Y113335D01*
X58915Y114097D02*Y113526D01*
X59106Y113335D01*
X59296D01*
X59487Y113526D01*
Y114097D02*Y113526D01*
X59677Y113335D01*
X59868D01*
X60058Y113526D01*
Y114097D02*Y113526D01*
X60706Y113335D02*X61278D01*
X60516Y113526D02*X60706Y113335D01*
X60516Y113907D02*Y113526D01*
Y113907D02*X60706Y114097D01*
X61087D01*
X61278Y113907D01*
X60516Y113716D02*X61278D01*
Y113907D02*Y113716D01*
X61925Y113907D02*Y113335D01*
Y113907D02*X62116Y114097D01*
X62497D01*
X61735D02*X61925Y113907D01*
X63640Y113335D02*X64402D01*
X64592Y113526D01*
Y113907D02*Y113526D01*
X64402Y114097D02*X64592Y113907D01*
X63830Y114097D02*X64402D01*
X63830Y114859D02*Y113335D01*
X63640Y114859D02*X64402D01*
X64592Y114669D01*
Y114288D01*
X64402Y114097D02*X64592Y114288D01*
X65049Y113907D02*Y113526D01*
Y113907D02*X65240Y114097D01*
X65621D01*
X65811Y113907D01*
Y113526D01*
X65621Y113335D02*X65811Y113526D01*
X65240Y113335D02*X65621D01*
X65049Y113526D02*X65240Y113335D01*
X66840Y114097D02*X67031Y113907D01*
X66459Y114097D02*X66840D01*
X66269Y113907D02*X66459Y114097D01*
X66269Y113907D02*Y113526D01*
X66459Y113335D01*
X67031Y114097D02*Y113526D01*
X67221Y113335D01*
X66459D02*X66840D01*
X67031Y113526D01*
X67869Y113907D02*Y113335D01*
Y113907D02*X68059Y114097D01*
X68440D01*
X67678D02*X67869Y113907D01*
X69660Y114859D02*Y113335D01*
X69469D02*X69660Y113526D01*
X69088Y113335D02*X69469D01*
X68898Y113526D02*X69088Y113335D01*
X68898Y113907D02*Y113526D01*
Y113907D02*X69088Y114097D01*
X69469D01*
X69660Y113907D01*
X70803Y114097D02*X71565D01*
X72708Y114859D02*Y113335D01*
Y114859D02*X73470D01*
X72708Y114097D02*X73279D01*
X74498D02*X74689Y113907D01*
X74117Y114097D02*X74498D01*
X73927Y113907D02*X74117Y114097D01*
X73927Y113907D02*Y113526D01*
X74117Y113335D01*
X74689Y114097D02*Y113526D01*
X74879Y113335D01*
X74117D02*X74498D01*
X74689Y113526D01*
X75336Y114859D02*Y113335D01*
Y113526D02*X75527Y113335D01*
X75908D01*
X76098Y113526D01*
Y113907D02*Y113526D01*
X75908Y114097D02*X76098Y113907D01*
X75527Y114097D02*X75908D01*
X75336Y113907D02*X75527Y114097D01*
X76746Y113907D02*Y113335D01*
Y113907D02*X76937Y114097D01*
X77318D01*
X76556D02*X76746Y113907D01*
X77775Y114478D02*Y114288D01*
Y113907D02*Y113335D01*
X78346Y114097D02*X78918D01*
X78156Y113907D02*X78346Y114097D01*
X78156Y113907D02*Y113526D01*
X78346Y113335D01*
X78918D01*
X79947Y114097D02*X80137Y113907D01*
X79566Y114097D02*X79947D01*
X79375Y113907D02*X79566Y114097D01*
X79375Y113907D02*Y113526D01*
X79566Y113335D01*
X80137Y114097D02*Y113526D01*
X80328Y113335D01*
X79566D02*X79947D01*
X80137Y113526D01*
X80975Y114859D02*Y113526D01*
X81166Y113335D01*
X80785Y114288D02*X81166D01*
X81547Y114478D02*Y114288D01*
Y113907D02*Y113335D01*
X81928Y113907D02*Y113526D01*
Y113907D02*X82118Y114097D01*
X82499D01*
X82690Y113907D01*
Y113526D01*
X82499Y113335D02*X82690Y113526D01*
X82118Y113335D02*X82499D01*
X81928Y113526D02*X82118Y113335D01*
X83337Y113907D02*Y113335D01*
Y113907D02*X83528Y114097D01*
X83718D01*
X83909Y113907D01*
Y113335D01*
X83147Y114097D02*X83337Y113907D01*
X85242Y114859D02*Y113335D01*
X85814Y114859D02*X86004Y114669D01*
Y113526D01*
X85814Y113335D02*X86004Y113526D01*
X85052Y113335D02*X85814D01*
X85052Y114859D02*X85814D01*
X86652Y113907D02*Y113335D01*
Y113907D02*X86843Y114097D01*
X87224D01*
X86462D02*X86652Y113907D01*
X88252Y114097D02*X88443Y113907D01*
X87871Y114097D02*X88252D01*
X87681Y113907D02*X87871Y114097D01*
X87681Y113907D02*Y113526D01*
X87871Y113335D01*
X88443Y114097D02*Y113526D01*
X88633Y113335D01*
X87871D02*X88252D01*
X88443Y113526D01*
X89091Y114097D02*Y113526D01*
X89281Y113335D01*
X89472D01*
X89662Y113526D01*
Y114097D02*Y113526D01*
X89853Y113335D01*
X90043D01*
X90234Y113526D01*
Y114097D02*Y113526D01*
X90691Y114478D02*Y114288D01*
Y113907D02*Y113335D01*
X91262Y113907D02*Y113335D01*
Y113907D02*X91453Y114097D01*
X91643D01*
X91834Y113907D01*
Y113335D01*
X91072Y114097D02*X91262Y113907D01*
X92862Y114097D02*X93053Y113907D01*
X92481Y114097D02*X92862D01*
X92291Y113907D02*X92481Y114097D01*
X92291Y113907D02*Y113526D01*
X92481Y113335D01*
X92862D01*
X93053Y113526D01*
X92291Y112954D02*X92481Y112764D01*
X92862D01*
X93053Y112954D01*
Y114097D02*Y112954D01*
M02*
