G04 start of page 10 for group -4078 idx -4078 *
G04 Title: Power Board, bottomsilk *
G04 Creator: pcb 1.99z *
G04 CreationDate: Sun 28 Jul 2013 20:14:53 GMT UTC *
G04 For: rbarlow *
G04 Format: Gerber/RS-274X *
G04 PCB-Dimensions (mm): 166.00 100.00 *
G04 PCB-Coordinate-Origin: lower left *
%MOMM*%
%FSLAX43Y43*%
%LNBOTTOMSILK*%
%ADD241C,0.200*%
%ADD240C,0.508*%
%ADD239C,0.203*%
%ADD238C,0.254*%
%ADD237C,0.250*%
%ADD236C,0.303*%
%ADD235C,0.280*%
%ADD234C,0.200*%
G54D234*X94850Y39700D02*X96850Y37700D01*
X89350Y39700D02*X94850D01*
X97200Y36200D02*X103650D01*
Y39200D01*
X97200D01*
Y36200D01*
X82250Y37100D02*X89050D01*
Y41150D01*
X82250D01*
Y37100D01*
G54D235*X18552Y34000D02*X20655D01*
X18552D02*X18201Y33650D01*
Y32949D02*Y33650D01*
Y32949D02*X18552Y32598D01*
X20655D01*
X21005Y32949D02*X20655Y32598D01*
X21005Y32949D02*Y33650D01*
X20655Y34000D02*X21005Y33650D01*
X18201Y31757D02*X20655D01*
X21005Y31406D01*
Y30705D02*Y31406D01*
Y30705D02*X20655Y30355D01*
X18201D02*X20655D01*
X18201Y28111D02*Y29513D01*
Y28812D02*X21005D01*
G54D236*X10807Y64993D02*Y65750D01*
Y65372D02*X13835D01*
Y64993D02*Y65750D01*
X10807Y64085D02*X13835D01*
X10807D02*X11185D01*
X13078Y62193D01*
X10807D02*X13835D01*
G54D237*X33970Y44265D02*Y18835D01*
X25170Y44265D02*Y18835D01*
Y44265D02*X33970D01*
X25170Y18835D02*X33970D01*
X32820Y33701D02*X33970D01*
X32820Y29400D02*X33970D01*
X32820Y33701D02*Y29400D01*
G54D238*X5489Y66526D02*X9020D01*
Y63274D01*
X5489D02*X9020D01*
X5489Y66526D02*Y63274D01*
G54D239*X13700Y70750D02*X14700D01*
X13700Y73450D02*X14700D01*
G54D238*X3407Y59983D02*X17320D01*
Y43727D01*
X3407D02*X17320D01*
X22470Y50450D02*Y47910D01*
X19930Y50450D02*X22470D01*
Y47910D02*X19930D01*
X22470Y58070D02*Y47910D01*
X19930Y58070D02*X22470D01*
X19930Y47910D02*Y58070D01*
X4706Y22135D02*X8237D01*
Y18884D01*
X4706D02*X8237D01*
X4706Y22135D02*Y18884D01*
X3407Y40694D02*X17320D01*
Y24438D01*
X3407D02*X17320D01*
G54D237*X22490Y8100D02*X31500D01*
Y2900D01*
X22490Y8100D02*Y2900D01*
X137790Y20911D02*X162790D01*
X137790Y5690D02*X162790D01*
X137790D02*Y20911D01*
G54D239*X138000Y38800D02*X138200D01*
X138000Y40200D02*X138200D01*
G54D234*X138100Y44817D02*X138500D01*
X138100Y45583D02*X138500D01*
G54D238*X151912Y38564D02*Y37548D01*
X151404Y38056D02*X152420D01*
X151912Y46438D02*Y45422D01*
X147340Y37040D02*G75*G03X147340Y37040I0J5080D01*G01*
G54D240*X146025Y32368D02*Y30232D01*
G54D238*Y32368D02*X147803Y32800D01*
X153975D01*
Y29800D01*
X147803D02*X153975D01*
X146025Y30232D02*X147803Y29800D01*
G54D234*X138100Y43017D02*X138500D01*
X138100Y43783D02*X138500D01*
G54D237*X131440Y60430D02*X139360D01*
X131440D02*Y73770D01*
X139360Y60430D02*Y73770D01*
X131440Y65050D02*X133024D01*
X134608D02*X136192D01*
X137776D02*X139360D01*
X133420Y56550D02*Y60430D01*
X137380Y56550D02*Y60430D01*
G54D234*X123950Y50500D02*X128650D01*
X123950Y45100D02*X128650D01*
X123950Y41900D02*X128650D01*
X123950Y36500D02*X128650D01*
G54D238*X131470Y80150D02*Y69990D01*
X128930D02*X131470D01*
X128930Y80150D02*Y69990D01*
Y80150D02*X131470D01*
X128930Y77610D02*X131470D01*
X128930Y80150D02*Y77610D01*
G54D241*X125717Y22700D02*Y22300D01*
X126483Y22700D02*Y22300D01*
X128750Y17533D02*X129150D01*
X128750Y16767D02*X129150D01*
G54D238*X104344Y33393D02*X114859D01*
X104344Y40632D02*Y33393D01*
Y40632D02*X114859D01*
Y33393D01*
G54D234*X100083Y37941D02*Y37541D01*
X99317Y37941D02*Y37541D01*
G54D238*X100387Y39506D02*X103410D01*
X100387Y41894D02*Y39506D01*
Y41894D02*X103410D01*
Y39506D01*
G54D234*X99383Y40900D02*Y40500D01*
X98617Y40900D02*Y40500D01*
X103183Y37941D02*Y37541D01*
X102417Y37941D02*Y37541D01*
X101583Y37941D02*Y37541D01*
X100817Y37941D02*Y37541D01*
X97717Y37941D02*Y37541D01*
X98483Y37941D02*Y37541D01*
G54D238*X99980Y32675D02*X103511D01*
X99980Y35926D02*Y32675D01*
Y35926D02*X103511D01*
Y32675D01*
G54D237*X139940Y54100D02*X148340D01*
X139940D02*Y58500D01*
X148340D01*
Y54100D02*Y58500D01*
G54D239*X111900Y46650D02*X112900D01*
X111900Y43950D02*X112900D01*
X111900Y51250D02*X112900D01*
X111900Y48550D02*X112900D01*
G54D238*X104805Y52616D02*Y49365D01*
X108336D01*
Y52616D02*Y49365D01*
X104805Y52616D02*X108336D01*
X113100Y97540D02*Y18800D01*
X36900Y97540D02*X113100D01*
X36900D02*Y18800D01*
X113100D01*
X46425Y27055D02*Y21975D01*
Y27055D02*X81985D01*
Y21975D01*
X46425D02*X81985D01*
X46425Y24515D02*X48965D01*
Y21975D01*
X84271Y24388D02*Y20578D01*
Y24388D02*X98241D01*
Y20578D01*
X84271D02*X98241D01*
X84271Y28833D02*Y25023D01*
Y28833D02*X98241D01*
Y25023D01*
X84271D02*X98241D01*
G54D239*X83550Y56100D02*Y55100D01*
X86250Y56100D02*Y55100D01*
G54D238*X102104Y45531D02*X99485D01*
X95596D02*X98215D01*
X102104Y48319D02*Y45531D01*
X95596Y48319D02*X102104D01*
X95596Y45531D02*Y48319D01*
X99485Y45531D02*G75*G03X98215Y45531I-635J0D01*G01*
G54D234*X92267Y51059D02*Y50659D01*
X93033Y51059D02*Y50659D01*
X87209Y49867D02*X87609D01*
X87209Y50633D02*X87609D01*
X61759Y57383D02*X62159D01*
X61759Y56617D02*X62159D01*
G54D237*X3420Y75400D02*X13420D01*
X3420Y88600D02*X13420D01*
Y75400D02*Y88600D01*
G54D234*X51883Y46741D02*Y46341D01*
X51117Y46741D02*Y46341D01*
G54D238*X54350Y10850D02*Y2850D01*
X69351Y10850D02*Y2850D01*
X54350Y10850D02*X69351D01*
X90350Y10850D02*Y2850D01*
X105350Y10850D02*Y2850D01*
X90350Y10850D02*X105350D01*
G54D237*X103800Y58600D02*X101800Y60600D01*
X103800Y58600D02*Y52600D01*
X101800Y50600D02*X103800Y52600D01*
X95800Y50600D02*X101800D01*
X93800Y52600D02*X95800Y50600D01*
X93800Y58600D02*Y52600D01*
X95800Y60600D02*X93800Y58600D01*
X95800Y60600D02*X101800D01*
G54D238*X36350Y10851D02*Y2851D01*
X51351Y10851D02*Y2851D01*
X36350Y10851D02*X51351D01*
X72350Y10850D02*Y2850D01*
X87350Y10850D02*Y2850D01*
X72350Y10850D02*X87350D01*
G54D237*X108700Y77425D02*Y65825D01*
X103700D02*X108700D01*
X103700Y77425D02*Y65825D01*
Y77425D02*X108700D01*
G54D234*X105417Y47541D02*Y47141D01*
X106183Y47541D02*Y47141D01*
X107317Y47541D02*Y47141D01*
X108083Y47541D02*Y47141D01*
X103517Y46059D02*Y45659D01*
X104283Y46059D02*Y45659D01*
G54D238*X107775Y54532D02*X109553Y54100D01*
X115725D02*X109553D01*
X115725Y57100D02*Y54100D01*
X109553Y57100D02*X115725D01*
X107775Y56668D02*X109553Y57100D01*
G54D240*X107775Y54532D02*Y56668D01*
G54D239*X88000Y56100D02*Y55100D01*
X90700Y56100D02*Y55100D01*
G54D234*X90633Y48109D02*Y47709D01*
X89867Y48109D02*Y47709D01*
X93033Y48159D02*Y47759D01*
X92267Y48159D02*Y47759D01*
X91183Y51059D02*Y50659D01*
X90417Y51059D02*Y50659D01*
G54D238*X85762Y49129D02*Y46741D01*
X88785D01*
Y49129D02*Y46741D01*
X85762Y49129D02*X88785D01*
G54D234*X83220Y58993D02*Y59374D01*
X83093Y59501D02*X83220Y59374D01*
X82331Y59501D02*X83093D01*
X82331D02*X82204Y59374D01*
Y58993D02*Y59374D01*
X82331Y58688D02*X82204Y58561D01*
Y58307D02*Y58561D01*
Y58307D02*X82331Y58180D01*
X83093D01*
X83220Y58307D02*X83093Y58180D01*
X83220Y58307D02*Y58561D01*
X83093Y58688D02*X83220Y58561D01*
X82712Y58180D02*Y58561D01*
X83220Y57494D02*Y57748D01*
X82204Y57621D02*X83220D01*
X82458Y57875D02*X82204Y57621D01*
X82331Y57189D02*X82204Y57062D01*
Y56808D02*Y57062D01*
Y56808D02*X82331Y56681D01*
X83093D01*
X83220Y56808D02*X83093Y56681D01*
X83220Y56808D02*Y57062D01*
X83093Y57189D02*X83220Y57062D01*
X82712Y56681D02*Y57062D01*
X89704Y46019D02*Y46527D01*
Y46019D02*X89831Y45892D01*
X90085D01*
X90212Y46019D02*X90085Y45892D01*
X90212Y46019D02*Y46400D01*
X89704D02*X90720D01*
X90212D02*X90720Y45892D01*
X89831Y45587D02*X89704Y45460D01*
Y45206D02*Y45460D01*
Y45206D02*X89831Y45079D01*
X90593D01*
X90720Y45206D02*X90593Y45079D01*
X90720Y45206D02*Y45460D01*
X90593Y45587D02*X90720Y45460D01*
X90212Y45079D02*Y45460D01*
X89831Y44775D02*X89704Y44648D01*
Y44394D02*Y44648D01*
Y44394D02*X89831Y44267D01*
X90593D01*
X90720Y44394D02*X90593Y44267D01*
X90720Y44394D02*Y44648D01*
X90593Y44775D02*X90720Y44648D01*
X90212Y44267D02*Y44648D01*
X89831Y43962D02*X89704Y43835D01*
Y43454D02*Y43835D01*
Y43454D02*X89831Y43327D01*
X90085D01*
X90720Y43962D02*X90085Y43327D01*
X90720D02*Y43962D01*
X92104Y46033D02*Y46541D01*
Y46033D02*X92231Y45906D01*
X92485D01*
X92612Y46033D02*X92485Y45906D01*
X92612Y46033D02*Y46414D01*
X92104D02*X93120D01*
X92612D02*X93120Y45906D01*
X92231Y45601D02*X92104Y45474D01*
Y45220D02*Y45474D01*
Y45220D02*X92231Y45093D01*
X92993D01*
X93120Y45220D02*X92993Y45093D01*
X93120Y45220D02*Y45474D01*
X92993Y45601D02*X93120Y45474D01*
X92612Y45093D02*Y45474D01*
X92231Y44788D02*X92104Y44661D01*
Y44280D02*Y44661D01*
Y44280D02*X92231Y44153D01*
X92485D01*
X93120Y44788D02*X92485Y44153D01*
X93120D02*Y44788D01*
Y43849D02*X92612Y43341D01*
X92231D02*X92612D01*
X92104Y43468D02*X92231Y43341D01*
X92104Y43468D02*Y43722D01*
X92231Y43849D02*X92104Y43722D01*
X92231Y43849D02*X92485D01*
X92612Y43722D01*
Y43341D02*Y43722D01*
X85762Y45414D02*Y46176D01*
Y45414D02*X85889Y45287D01*
X86143D01*
X86270Y45414D01*
Y46176D01*
X86143Y46303D02*X86270Y46176D01*
X85889Y46303D02*X86143D01*
X85762Y46176D02*X85889Y46303D01*
X86016Y46049D02*X86270Y46303D01*
X86575Y45414D02*X86702Y45287D01*
X86956D01*
X87083Y45414D01*
Y46176D01*
X86956Y46303D02*X87083Y46176D01*
X86702Y46303D02*X86956D01*
X86575Y46176D02*X86702Y46303D01*
Y45795D02*X87083D01*
X87388Y46176D02*X87515Y46303D01*
X87388Y45414D02*Y46176D01*
Y45414D02*X87515Y45287D01*
X87769D01*
X87896Y45414D01*
Y46176D01*
X87769Y46303D02*X87896Y46176D01*
X87515Y46303D02*X87769D01*
X87388Y46049D02*X87896Y45541D01*
X88201Y46176D02*X88328Y46303D01*
X88201Y45922D02*Y46176D01*
Y45922D02*X88328Y45795D01*
X88582D01*
X88709Y45922D01*
Y46176D01*
X88582Y46303D02*X88709Y46176D01*
X88328Y46303D02*X88582D01*
X88201Y45668D02*X88328Y45795D01*
X88201Y45414D02*Y45668D01*
Y45414D02*X88328Y45287D01*
X88582D01*
X88709Y45414D01*
Y45668D01*
X88582Y45795D02*X88709Y45668D01*
X89226Y51839D02*Y52292D01*
Y51839D02*X89339Y51726D01*
X89565D01*
X89678Y51839D02*X89565Y51726D01*
X89678Y51839D02*Y52178D01*
X89226D02*X90130D01*
X89678D02*X90130Y51726D01*
X89339Y51455D02*X89226Y51342D01*
Y51116D02*Y51342D01*
Y51116D02*X89339Y51003D01*
X90017D01*
X90130Y51116D02*X90017Y51003D01*
X90130Y51116D02*Y51342D01*
X90017Y51455D02*X90130Y51342D01*
X89678Y51003D02*Y51342D01*
X89339Y50732D02*X89226Y50619D01*
Y50280D02*Y50619D01*
Y50280D02*X89339Y50167D01*
X89565D01*
X90130Y50732D02*X89565Y50167D01*
X90130D02*Y50732D01*
Y49895D02*X89565Y49330D01*
X89226D02*X89565D01*
X89226D02*Y49895D01*
X83268Y50770D02*X83649D01*
X83141Y50643D02*X83268Y50770D01*
X83141Y49881D02*Y50643D01*
Y49881D02*X83268Y49754D01*
X83649D01*
X83954Y49881D02*X84081Y49754D01*
X84335D01*
X84462Y49881D01*
Y50643D01*
X84335Y50770D02*X84462Y50643D01*
X84081Y50770D02*X84335D01*
X83954Y50643D02*X84081Y50770D01*
Y50262D02*X84462D01*
X84894Y50770D02*X85148D01*
X85021Y49754D02*Y50770D01*
X84767Y50008D02*X85021Y49754D01*
X85452Y50770D02*X85960Y50262D01*
Y49881D02*Y50262D01*
X85833Y49754D02*X85960Y49881D01*
X85579Y49754D02*X85833D01*
X85452Y49881D02*X85579Y49754D01*
X85452Y49881D02*Y50135D01*
X85579Y50262D01*
X85960D01*
X92020Y58942D02*Y59323D01*
X91893Y59450D02*X92020Y59323D01*
X91131Y59450D02*X91893D01*
X91131D02*X91004Y59323D01*
Y58942D02*Y59323D01*
X91131Y58637D02*X91004Y58510D01*
Y58256D02*Y58510D01*
Y58256D02*X91131Y58129D01*
X91893D01*
X92020Y58256D02*X91893Y58129D01*
X92020Y58256D02*Y58510D01*
X91893Y58637D02*X92020Y58510D01*
X91512Y58129D02*Y58510D01*
X92020Y57444D02*Y57698D01*
X91004Y57571D02*X92020D01*
X91258Y57825D02*X91004Y57571D01*
X91512Y57139D02*X91004Y56631D01*
X91512Y56504D02*Y57139D01*
X91004Y56631D02*X92020D01*
X84404Y40201D02*Y40709D01*
Y40201D02*X84531Y40074D01*
X84785D01*
X84912Y40201D02*X84785Y40074D01*
X84912Y40201D02*Y40582D01*
X84404D02*X85420D01*
X84912D02*X85420Y40074D01*
X84531Y39769D02*X84404Y39642D01*
Y39388D02*Y39642D01*
Y39388D02*X84531Y39261D01*
X85293D01*
X85420Y39388D02*X85293Y39261D01*
X85420Y39388D02*Y39642D01*
X85293Y39769D02*X85420Y39642D01*
X84912Y39261D02*Y39642D01*
X84531Y38956D02*X84404Y38829D01*
Y38448D02*Y38829D01*
Y38448D02*X84531Y38321D01*
X84785D01*
X85420Y38956D02*X84785Y38321D01*
X85420D02*Y38956D01*
X84404Y37636D02*X84531Y37509D01*
X84404Y37636D02*Y37890D01*
X84531Y38017D02*X84404Y37890D01*
X84531Y38017D02*X85293D01*
X85420Y37890D01*
X84912Y37636D02*X85039Y37509D01*
X84912Y37636D02*Y38017D01*
X85420Y37636D02*Y37890D01*
Y37636D02*X85293Y37509D01*
X85039D02*X85293D01*
X82804Y40183D02*Y40691D01*
Y40183D02*X82931Y40056D01*
X83185D01*
X83312Y40183D02*X83185Y40056D01*
X83312Y40183D02*Y40564D01*
X82804D02*X83820D01*
X83312D02*X83820Y40056D01*
X82931Y39752D02*X82804Y39625D01*
Y39371D02*Y39625D01*
Y39371D02*X82931Y39244D01*
X83693D01*
X83820Y39371D02*X83693Y39244D01*
X83820Y39371D02*Y39625D01*
X83693Y39752D02*X83820Y39625D01*
X83312Y39244D02*Y39625D01*
X82931Y38939D02*X82804Y38812D01*
Y38558D02*Y38812D01*
Y38558D02*X82931Y38431D01*
X83693D01*
X83820Y38558D02*X83693Y38431D01*
X83820Y38558D02*Y38812D01*
X83693Y38939D02*X83820Y38812D01*
X83312Y38431D02*Y38812D01*
X83693Y38126D02*X83820Y37999D01*
X82931Y38126D02*X83693D01*
X82931D02*X82804Y37999D01*
Y37745D02*Y37999D01*
Y37745D02*X82931Y37618D01*
X83693D01*
X83820Y37745D02*X83693Y37618D01*
X83820Y37745D02*Y37999D01*
X83566Y38126D02*X83058Y37618D01*
X88470Y40051D02*Y40432D01*
X88343Y40559D02*X88470Y40432D01*
X87581Y40559D02*X88343D01*
X87581D02*X87454Y40432D01*
Y40051D02*Y40432D01*
X87581Y39746D02*X87454Y39619D01*
Y39365D02*Y39619D01*
Y39365D02*X87581Y39238D01*
X88343D01*
X88470Y39365D02*X88343Y39238D01*
X88470Y39365D02*Y39619D01*
X88343Y39746D02*X88470Y39619D01*
X87962Y39238D02*Y39619D01*
X88470Y38552D02*Y38806D01*
X87454Y38679D02*X88470D01*
X87708Y38933D02*X87454Y38679D01*
X88343Y38248D02*X88470Y38121D01*
X87581Y38248D02*X88343D01*
X87581D02*X87454Y38121D01*
Y37867D02*Y38121D01*
Y37867D02*X87581Y37740D01*
X88343D01*
X88470Y37867D02*X88343Y37740D01*
X88470Y37867D02*Y38121D01*
X88216Y38248D02*X87708Y37740D01*
X85954Y40201D02*Y40709D01*
Y40201D02*X86081Y40074D01*
X86335D01*
X86462Y40201D02*X86335Y40074D01*
X86462Y40201D02*Y40582D01*
X85954D02*X86970D01*
X86462D02*X86970Y40074D01*
X86081Y39769D02*X85954Y39642D01*
Y39388D02*Y39642D01*
Y39388D02*X86081Y39261D01*
X86843D01*
X86970Y39388D02*X86843Y39261D01*
X86970Y39388D02*Y39642D01*
X86843Y39769D02*X86970Y39642D01*
X86462Y39261D02*Y39642D01*
X86081Y38956D02*X85954Y38829D01*
Y38575D02*Y38829D01*
Y38575D02*X86081Y38448D01*
X86843D01*
X86970Y38575D02*X86843Y38448D01*
X86970Y38575D02*Y38829D01*
X86843Y38956D02*X86970Y38829D01*
X86462Y38448D02*Y38829D01*
X86970Y37762D02*Y38016D01*
X85954Y37889D02*X86970D01*
X86208Y38143D02*X85954Y37889D01*
X94230Y51440D02*Y51779D01*
X94117Y51892D02*X94230Y51779D01*
X93439Y51892D02*X94117D01*
X93439D02*X93326Y51779D01*
Y51440D02*Y51779D01*
X93439Y51168D02*X93326Y51055D01*
Y50829D02*Y51055D01*
Y50829D02*X93439Y50716D01*
X94117D01*
X94230Y50829D02*X94117Y50716D01*
X94230Y50829D02*Y51055D01*
X94117Y51168D02*X94230Y51055D01*
X93778Y50716D02*Y51055D01*
X94117Y50445D02*X94230Y50332D01*
X93439Y50445D02*X94117D01*
X93439D02*X93326Y50332D01*
Y50106D02*Y50332D01*
Y50106D02*X93439Y49993D01*
X94117D01*
X94230Y50106D02*X94117Y49993D01*
X94230Y50106D02*Y50332D01*
X94004Y50445D02*X93552Y49993D01*
X94230Y49722D02*X93778Y49269D01*
X93439D02*X93778D01*
X93326Y49382D02*X93439Y49269D01*
X93326Y49382D02*Y49609D01*
X93439Y49722D02*X93326Y49609D01*
X93439Y49722D02*X93665D01*
X93778Y49609D01*
Y49269D02*Y49609D01*
X137900Y4254D02*X138281D01*
Y5143D01*
X138154Y5270D02*X138281Y5143D01*
X138027Y5270D02*X138154D01*
X137900Y5143D02*X138027Y5270D01*
X138585Y4381D02*X138712Y4254D01*
X138966D01*
X139093Y4381D01*
Y5143D01*
X138966Y5270D02*X139093Y5143D01*
X138712Y5270D02*X138966D01*
X138585Y5143D02*X138712Y5270D01*
Y4762D02*X139093D01*
X139398Y5143D02*X139525Y5270D01*
X139398Y4381D02*Y5143D01*
Y4381D02*X139525Y4254D01*
X139779D01*
X139906Y4381D01*
Y5143D01*
X139779Y5270D02*X139906Y5143D01*
X139525Y5270D02*X139779D01*
X139398Y5016D02*X139906Y4508D01*
X140211Y4381D02*X140338Y4254D01*
X140592D01*
X140719Y4381D01*
Y5143D01*
X140592Y5270D02*X140719Y5143D01*
X140338Y5270D02*X140592D01*
X140211Y5143D02*X140338Y5270D01*
Y4762D02*X140719D01*
X154541Y32673D02*X155557D01*
X154541Y32292D02*X154668Y32165D01*
X155430D01*
X155557Y32292D02*X155430Y32165D01*
X155557Y32292D02*Y32800D01*
X154541Y32292D02*Y32800D01*
X154668Y31860D02*X154541Y31733D01*
Y31479D02*Y31733D01*
Y31479D02*X154668Y31352D01*
X155430D01*
X155557Y31479D02*X155430Y31352D01*
X155557Y31479D02*Y31733D01*
X155430Y31860D02*X155557Y31733D01*
X155049Y31352D02*Y31733D01*
X155430Y31047D02*X155557Y30920D01*
X154668Y31047D02*X155430D01*
X154668D02*X154541Y30920D01*
Y30666D02*Y30920D01*
Y30666D02*X154668Y30539D01*
X155430D01*
X155557Y30666D02*X155430Y30539D01*
X155557Y30666D02*Y30920D01*
X155303Y31047D02*X154795Y30539D01*
X155049Y30235D02*X154541Y29727D01*
X155049Y29600D02*Y30235D01*
X154541Y29727D02*X155557D01*
X136600Y37454D02*X137108D01*
X137235Y37581D01*
Y37835D01*
X137108Y37962D02*X137235Y37835D01*
X136727Y37962D02*X137108D01*
X136727Y37454D02*Y38470D01*
Y37962D02*X137235Y38470D01*
X137540Y37581D02*X137667Y37454D01*
X137921D01*
X138048Y37581D01*
Y38343D01*
X137921Y38470D02*X138048Y38343D01*
X137667Y38470D02*X137921D01*
X137540Y38343D02*X137667Y38470D01*
Y37962D02*X138048D01*
X138480Y38470D02*X138734D01*
X138607Y37454D02*Y38470D01*
X138353Y37708D02*X138607Y37454D01*
X139419D02*X139546Y37581D01*
X139165Y37454D02*X139419D01*
X139038Y37581D02*X139165Y37454D01*
X139038Y37581D02*Y38343D01*
X139165Y38470D01*
X139419Y37962D02*X139546Y38089D01*
X139038Y37962D02*X139419D01*
X139165Y38470D02*X139419D01*
X139546Y38343D01*
Y38089D02*Y38343D01*
X145260Y52655D02*Y53671D01*
Y52655D02*X145768D01*
X145260Y53163D02*X145641D01*
X146073Y52782D02*X146200Y52655D01*
X146454D01*
X146581Y52782D01*
Y53544D01*
X146454Y53671D02*X146581Y53544D01*
X146200Y53671D02*X146454D01*
X146073Y53544D02*X146200Y53671D01*
Y53163D02*X146581D01*
X146886Y53544D02*X147013Y53671D01*
X146886Y52782D02*Y53544D01*
Y52782D02*X147013Y52655D01*
X147267D01*
X147394Y52782D01*
Y53544D01*
X147267Y53671D02*X147394Y53544D01*
X147013Y53671D02*X147267D01*
X146886Y53417D02*X147394Y52909D01*
X147699Y53163D02*X148207Y52655D01*
X147699Y53163D02*X148334D01*
X148207Y52655D02*Y53671D01*
X142050Y45827D02*Y46208D01*
X142177Y45700D02*X142050Y45827D01*
X142177Y45700D02*X142939D01*
X143066Y45827D01*
Y46208D01*
X142939Y46513D02*X143066Y46640D01*
Y46894D01*
X142939Y47021D01*
X142177D02*X142939D01*
X142050Y46894D02*X142177Y47021D01*
X142050Y46640D02*Y46894D01*
X142177Y46513D02*X142050Y46640D01*
X142558D02*Y47021D01*
X142939Y47326D02*X143066Y47453D01*
Y47834D01*
X142939Y47961D01*
X142685D02*X142939D01*
X142050Y47326D02*X142685Y47961D01*
X142050Y47326D02*Y47961D01*
Y48393D02*Y48647D01*
Y48520D02*X143066D01*
X142812Y48266D02*X143066Y48520D01*
X139854Y62899D02*Y63280D01*
Y62899D02*X140743D01*
X140870Y63026D02*X140743Y62899D01*
X140870Y63026D02*Y63153D01*
X140743Y63280D02*X140870Y63153D01*
X139981Y62594D02*X139854Y62467D01*
Y62213D02*Y62467D01*
Y62213D02*X139981Y62086D01*
X140743D01*
X140870Y62213D02*X140743Y62086D01*
X140870Y62213D02*Y62467D01*
X140743Y62594D02*X140870Y62467D01*
X140362Y62086D02*Y62467D01*
X140743Y61781D02*X140870Y61654D01*
X139981Y61781D02*X140743D01*
X139981D02*X139854Y61654D01*
Y61400D02*Y61654D01*
Y61400D02*X139981Y61273D01*
X140743D01*
X140870Y61400D02*X140743Y61273D01*
X140870Y61400D02*Y61654D01*
X140616Y61781D02*X140108Y61273D01*
X139854Y60587D02*X139981Y60460D01*
X139854Y60587D02*Y60841D01*
X139981Y60968D02*X139854Y60841D01*
X139981Y60968D02*X140743D01*
X140870Y60841D01*
X140362Y60587D02*X140489Y60460D01*
X140362Y60587D02*Y60968D01*
X140870Y60587D02*Y60841D01*
Y60587D02*X140743Y60460D01*
X140489D02*X140743D01*
X20010Y46460D02*X20391D01*
Y47349D01*
X20264Y47476D02*X20391Y47349D01*
X20137Y47476D02*X20264D01*
X20010Y47349D02*X20137Y47476D01*
X20696Y46587D02*X20823Y46460D01*
X21204D01*
X21331Y46587D01*
Y46841D01*
X20696Y47476D02*X21331Y46841D01*
X20696Y47476D02*X21331D01*
X21636Y47349D02*X21763Y47476D01*
X21636Y46587D02*Y47349D01*
Y46587D02*X21763Y46460D01*
X22017D01*
X22144Y46587D01*
Y47349D01*
X22017Y47476D02*X22144Y47349D01*
X21763Y47476D02*X22017D01*
X21636Y47222D02*X22144Y46714D01*
X22449Y46968D02*X22957Y46460D01*
X22449Y46968D02*X23084D01*
X22957Y46460D02*Y47476D01*
X5816Y61920D02*Y62936D01*
X6197Y61920D02*X6324Y62047D01*
Y62809D01*
X6197Y62936D02*X6324Y62809D01*
X5689Y62936D02*X6197D01*
X5689Y61920D02*X6197D01*
X6629Y62047D02*X6756Y61920D01*
X7010D01*
X7137Y62047D01*
Y62809D01*
X7010Y62936D02*X7137Y62809D01*
X6756Y62936D02*X7010D01*
X6629Y62809D02*X6756Y62936D01*
Y62428D02*X7137D01*
X7441Y62809D02*X7568Y62936D01*
X7441Y62047D02*Y62809D01*
Y62047D02*X7568Y61920D01*
X7822D01*
X7949Y62047D01*
Y62809D01*
X7822Y62936D02*X7949Y62809D01*
X7568Y62936D02*X7822D01*
X7441Y62682D02*X7949Y62174D01*
X8381Y62936D02*X8635D01*
X8508Y61920D02*Y62936D01*
X8254Y62174D02*X8508Y61920D01*
X17764Y46279D02*Y46660D01*
Y46279D02*X18653D01*
X18780Y46406D02*X18653Y46279D01*
X18780Y46406D02*Y46533D01*
X18653Y46660D02*X18780Y46533D01*
X17891Y45974D02*X17764Y45847D01*
Y45466D02*Y45847D01*
Y45466D02*X17891Y45339D01*
X18145D01*
X18780Y45974D02*X18145Y45339D01*
X18780D02*Y45974D01*
X18653Y45034D02*X18780Y44907D01*
X17891Y45034D02*X18653D01*
X17891D02*X17764Y44907D01*
Y44653D02*Y44907D01*
Y44653D02*X17891Y44526D01*
X18653D01*
X18780Y44653D02*X18653Y44526D01*
X18780Y44653D02*Y44907D01*
X18526Y45034D02*X18018Y44526D01*
X18653Y44221D02*X18780Y44094D01*
X17891Y44221D02*X18653D01*
X17891D02*X17764Y44094D01*
Y43840D02*Y44094D01*
Y43840D02*X17891Y43713D01*
X18653D01*
X18780Y43840D02*X18653Y43713D01*
X18780Y43840D02*Y44094D01*
X18526Y44221D02*X18018Y43713D01*
X17775Y26779D02*Y27160D01*
Y26779D02*X18664D01*
X18791Y26906D02*X18664Y26779D01*
X18791Y26906D02*Y27033D01*
X18664Y27160D02*X18791Y27033D01*
X17902Y26474D02*X17775Y26347D01*
Y25966D02*Y26347D01*
Y25966D02*X17902Y25839D01*
X18156D01*
X18791Y26474D02*X18156Y25839D01*
X18791D02*Y26474D01*
X18664Y25534D02*X18791Y25407D01*
X17902Y25534D02*X18664D01*
X17902D02*X17775Y25407D01*
Y25153D02*Y25407D01*
Y25153D02*X17902Y25026D01*
X18664D01*
X18791Y25153D02*X18664Y25026D01*
X18791Y25153D02*Y25407D01*
X18537Y25534D02*X18029Y25026D01*
X18791Y24340D02*Y24594D01*
X17775Y24467D02*X18791D01*
X18029Y24721D02*X17775Y24467D01*
X5033Y17430D02*Y18446D01*
X5414Y17430D02*X5541Y17557D01*
Y18319D01*
X5414Y18446D02*X5541Y18319D01*
X4906Y18446D02*X5414D01*
X4906Y17430D02*X5414D01*
X5846Y17557D02*X5973Y17430D01*
X6227D01*
X6354Y17557D01*
Y18319D01*
X6227Y18446D02*X6354Y18319D01*
X5973Y18446D02*X6227D01*
X5846Y18319D02*X5973Y18446D01*
Y17938D02*X6354D01*
X6659Y18319D02*X6786Y18446D01*
X6659Y17557D02*Y18319D01*
Y17557D02*X6786Y17430D01*
X7040D01*
X7167Y17557D01*
Y18319D01*
X7040Y18446D02*X7167Y18319D01*
X6786Y18446D02*X7040D01*
X6659Y18192D02*X7167Y17684D01*
X7472Y17557D02*X7599Y17430D01*
X7853D01*
X7980Y17557D01*
Y18319D01*
X7853Y18446D02*X7980Y18319D01*
X7599Y18446D02*X7853D01*
X7472Y18319D02*X7599Y18446D01*
Y17938D02*X7980D01*
X54350Y11304D02*X54731D01*
Y12193D01*
X54604Y12320D02*X54731Y12193D01*
X54477Y12320D02*X54604D01*
X54350Y12193D02*X54477Y12320D01*
X55035Y11431D02*X55162Y11304D01*
X55416D01*
X55543Y11431D01*
Y12193D01*
X55416Y12320D02*X55543Y12193D01*
X55162Y12320D02*X55416D01*
X55035Y12193D02*X55162Y12320D01*
Y11812D02*X55543D01*
X55848Y12193D02*X55975Y12320D01*
X55848Y11431D02*Y12193D01*
Y11431D02*X55975Y11304D01*
X56229D01*
X56356Y11431D01*
Y12193D01*
X56229Y12320D02*X56356Y12193D01*
X55975Y12320D02*X56229D01*
X55848Y12066D02*X56356Y11558D01*
X56661Y11431D02*X56788Y11304D01*
X57169D01*
X57296Y11431D01*
Y11685D01*
X56661Y12320D02*X57296Y11685D01*
X56661Y12320D02*X57296D01*
X60668Y56170D02*X61049D01*
X60541Y56043D02*X60668Y56170D01*
X60541Y55281D02*Y56043D01*
Y55281D02*X60668Y55154D01*
X61049D01*
X61480Y56170D02*X61734D01*
X61607Y55154D02*Y56170D01*
X61353Y55408D02*X61607Y55154D01*
X62039Y56043D02*X62166Y56170D01*
X62039Y55281D02*Y56043D01*
Y55281D02*X62166Y55154D01*
X62420D01*
X62547Y55281D01*
Y56043D01*
X62420Y56170D02*X62547Y56043D01*
X62166Y56170D02*X62420D01*
X62039Y55916D02*X62547Y55408D01*
X62852Y56170D02*X63360Y55662D01*
Y55281D02*Y55662D01*
X63233Y55154D02*X63360Y55281D01*
X62979Y55154D02*X63233D01*
X62852Y55281D02*X62979Y55154D01*
X62852Y55281D02*Y55535D01*
X62979Y55662D01*
X63360D01*
X53370Y47351D02*Y47732D01*
X53243Y47859D02*X53370Y47732D01*
X52481Y47859D02*X53243D01*
X52481D02*X52354Y47732D01*
Y47351D02*Y47732D01*
X53370Y46665D02*Y46919D01*
X52354Y46792D02*X53370D01*
X52608Y47046D02*X52354Y46792D01*
X53370Y45979D02*Y46233D01*
X52354Y46106D02*X53370D01*
X52608Y46360D02*X52354Y46106D01*
X53370Y45293D02*Y45547D01*
X52354Y45420D02*X53370D01*
X52608Y45674D02*X52354Y45420D01*
X36349Y11304D02*X36730D01*
Y12193D01*
X36603Y12320D02*X36730Y12193D01*
X36476Y12320D02*X36603D01*
X36349Y12193D02*X36476Y12320D01*
X37035Y11431D02*X37162Y11304D01*
X37416D01*
X37543Y11431D01*
Y12193D01*
X37416Y12320D02*X37543Y12193D01*
X37162Y12320D02*X37416D01*
X37035Y12193D02*X37162Y12320D01*
Y11812D02*X37543D01*
X37848Y12193D02*X37975Y12320D01*
X37848Y11431D02*Y12193D01*
Y11431D02*X37975Y11304D01*
X38229D01*
X38356Y11431D01*
Y12193D01*
X38229Y12320D02*X38356Y12193D01*
X37975Y12320D02*X38229D01*
X37848Y12066D02*X38356Y11558D01*
X38661Y12193D02*X38788Y12320D01*
X38661Y11431D02*Y12193D01*
Y11431D02*X38788Y11304D01*
X39042D01*
X39169Y11431D01*
Y12193D01*
X39042Y12320D02*X39169Y12193D01*
X38788Y12320D02*X39042D01*
X38661Y12066D02*X39169Y11558D01*
X25259Y15784D02*X25640D01*
Y16673D01*
X25513Y16800D02*X25640Y16673D01*
X25386Y16800D02*X25513D01*
X25259Y16673D02*X25386Y16800D01*
X25945Y15911D02*X26072Y15784D01*
X26453D01*
X26580Y15911D01*
Y16165D01*
X25945Y16800D02*X26580Y16165D01*
X25945Y16800D02*X26580D01*
X26885Y16673D02*X27012Y16800D01*
X26885Y15911D02*Y16673D01*
Y15911D02*X27012Y15784D01*
X27266D01*
X27393Y15911D01*
Y16673D01*
X27266Y16800D02*X27393Y16673D01*
X27012Y16800D02*X27266D01*
X26885Y16546D02*X27393Y16038D01*
X27698Y15911D02*X27825Y15784D01*
X28206D01*
X28333Y15911D01*
Y16165D01*
X27698Y16800D02*X28333Y16165D01*
X27698Y16800D02*X28333D01*
X22505Y8554D02*X22886D01*
Y9443D01*
X22759Y9570D02*X22886Y9443D01*
X22632Y9570D02*X22759D01*
X22505Y9443D02*X22632Y9570D01*
X23190Y8681D02*X23317Y8554D01*
X23698D01*
X23825Y8681D01*
Y8935D01*
X23190Y9570D02*X23825Y8935D01*
X23190Y9570D02*X23825D01*
X24130Y9443D02*X24257Y9570D01*
X24130Y8681D02*Y9443D01*
Y8681D02*X24257Y8554D01*
X24511D01*
X24638Y8681D01*
Y9443D01*
X24511Y9570D02*X24638Y9443D01*
X24257Y9570D02*X24511D01*
X24130Y9316D02*X24638Y8808D01*
X24943Y8681D02*X25070Y8554D01*
X25324D01*
X25451Y8681D01*
Y9443D01*
X25324Y9570D02*X25451Y9443D01*
X25070Y9570D02*X25324D01*
X24943Y9443D02*X25070Y9570D01*
Y9062D02*X25451D01*
X4200Y73954D02*X4581D01*
Y74843D01*
X4454Y74970D02*X4581Y74843D01*
X4327Y74970D02*X4454D01*
X4200Y74843D02*X4327Y74970D01*
X4886Y74081D02*X5013Y73954D01*
X5394D01*
X5521Y74081D01*
Y74335D01*
X4886Y74970D02*X5521Y74335D01*
X4886Y74970D02*X5521D01*
X5826Y74843D02*X5953Y74970D01*
X5826Y74081D02*Y74843D01*
Y74081D02*X5953Y73954D01*
X6207D01*
X6334Y74081D01*
Y74843D01*
X6207Y74970D02*X6334Y74843D01*
X5953Y74970D02*X6207D01*
X5826Y74716D02*X6334Y74208D01*
X6639Y73954D02*X7147D01*
X6639D02*Y74462D01*
X6766Y74335D01*
X7020D01*
X7147Y74462D01*
Y74843D01*
X7020Y74970D02*X7147Y74843D01*
X6766Y74970D02*X7020D01*
X6639Y74843D02*X6766Y74970D01*
X12927Y70370D02*X13308D01*
X12800Y70243D02*X12927Y70370D01*
X12800Y69481D02*Y70243D01*
Y69481D02*X12927Y69354D01*
X13308D01*
X13613Y69481D02*X13740Y69354D01*
X14121D01*
X14248Y69481D01*
Y69735D01*
X13613Y70370D02*X14248Y69735D01*
X13613Y70370D02*X14248D01*
X14679D02*X14933D01*
X14806Y69354D02*Y70370D01*
X14552Y69608D02*X14806Y69354D01*
X15238Y70243D02*X15365Y70370D01*
X15238Y69989D02*Y70243D01*
Y69989D02*X15365Y69862D01*
X15619D01*
X15746Y69989D01*
Y70243D01*
X15619Y70370D02*X15746Y70243D01*
X15365Y70370D02*X15619D01*
X15238Y69735D02*X15365Y69862D01*
X15238Y69481D02*Y69735D01*
Y69481D02*X15365Y69354D01*
X15619D01*
X15746Y69481D01*
Y69735D01*
X15619Y69862D02*X15746Y69735D01*
X109154Y68825D02*X109281D01*
X109916Y68190D01*
X110170D01*
X109916Y68825D02*X110170D01*
X109916D02*X109281Y68190D01*
X109154D02*X109281D01*
Y67886D02*X109154Y67759D01*
Y67378D02*Y67759D01*
Y67378D02*X109281Y67251D01*
X109535D01*
X110170Y67886D02*X109535Y67251D01*
X110170D02*Y67886D01*
X110043Y66946D02*X110170Y66819D01*
X109281Y66946D02*X110043D01*
X109281D02*X109154Y66819D01*
Y66565D02*Y66819D01*
Y66565D02*X109281Y66438D01*
X110043D01*
X110170Y66565D02*X110043Y66438D01*
X110170Y66565D02*Y66819D01*
X109916Y66946D02*X109408Y66438D01*
X110170Y65752D02*Y66006D01*
X109154Y65879D02*X110170D01*
X109408Y66133D02*X109154Y65879D01*
X95850Y61054D02*Y62070D01*
X96358D01*
X96663Y61181D02*X96790Y61054D01*
X97044D01*
X97171Y61181D01*
Y61943D01*
X97044Y62070D02*X97171Y61943D01*
X96790Y62070D02*X97044D01*
X96663Y61943D02*X96790Y62070D01*
Y61562D02*X97171D01*
X97476Y61943D02*X97603Y62070D01*
X97476Y61181D02*Y61943D01*
Y61181D02*X97603Y61054D01*
X97857D01*
X97984Y61181D01*
Y61943D01*
X97857Y62070D02*X97984Y61943D01*
X97603Y62070D02*X97857D01*
X97476Y61816D02*X97984Y61308D01*
X98289Y61943D02*X98416Y62070D01*
X98289Y61181D02*Y61943D01*
Y61181D02*X98416Y61054D01*
X98670D01*
X98797Y61181D01*
Y61943D01*
X98670Y62070D02*X98797Y61943D01*
X98416Y62070D02*X98670D01*
X98289Y61816D02*X98797Y61308D01*
X131910Y80150D02*X132799D01*
X132926Y80023D01*
Y79769D02*Y80023D01*
Y79769D02*X132799Y79642D01*
X131910D02*X132799D01*
X131910Y78830D02*X132037Y78703D01*
X131910Y78830D02*Y79211D01*
X132037Y79338D02*X131910Y79211D01*
X132037Y79338D02*X132291D01*
X132418Y79211D01*
Y78830D02*Y79211D01*
Y78830D02*X132545Y78703D01*
X132799D01*
X132926Y78830D02*X132799Y78703D01*
X132926Y78830D02*Y79211D01*
X132799Y79338D02*X132926Y79211D01*
Y77890D02*Y78398D01*
Y77890D02*X132799Y77763D01*
X132545D02*X132799D01*
X132418Y77890D02*X132545Y77763D01*
X132418Y77890D02*Y78271D01*
X131910D02*X132926D01*
X131910Y77890D02*Y78398D01*
Y77890D02*X132037Y77763D01*
X132291D01*
X132418Y77890D02*X132291Y77763D01*
X132418Y76950D02*Y77458D01*
X131910Y76264D02*Y76645D01*
Y76264D02*X132799D01*
X132926Y76391D02*X132799Y76264D01*
X132926Y76391D02*Y76518D01*
X132799Y76645D02*X132926Y76518D01*
Y75578D02*Y75832D01*
X131910Y75705D02*X132926D01*
X132164Y75959D02*X131910Y75705D01*
X110200Y17354D02*Y18243D01*
X110327Y18370D01*
X110581D01*
X110708Y18243D01*
Y17354D02*Y18243D01*
X111140Y18370D02*X111394D01*
X111267Y17354D02*Y18370D01*
X111013Y17608D02*X111267Y17354D01*
X111699Y18243D02*X111826Y18370D01*
X111699Y17481D02*Y18243D01*
Y17481D02*X111826Y17354D01*
X112080D01*
X112207Y17481D01*
Y18243D01*
X112080Y18370D02*X112207Y18243D01*
X111826Y18370D02*X112080D01*
X111699Y18116D02*X112207Y17608D01*
X112511Y17481D02*X112638Y17354D01*
X112892D01*
X113019Y17481D01*
Y18243D01*
X112892Y18370D02*X113019Y18243D01*
X112638Y18370D02*X112892D01*
X112511Y18243D02*X112638Y18370D01*
Y17862D02*X113019D01*
X72350Y11304D02*X72731D01*
Y12193D01*
X72604Y12320D02*X72731Y12193D01*
X72477Y12320D02*X72604D01*
X72350Y12193D02*X72477Y12320D01*
X73036Y11431D02*X73163Y11304D01*
X73417D01*
X73544Y11431D01*
Y12193D01*
X73417Y12320D02*X73544Y12193D01*
X73163Y12320D02*X73417D01*
X73036Y12193D02*X73163Y12320D01*
Y11812D02*X73544D01*
X73848Y12193D02*X73975Y12320D01*
X73848Y11431D02*Y12193D01*
Y11431D02*X73975Y11304D01*
X74229D01*
X74356Y11431D01*
Y12193D01*
X74229Y12320D02*X74356Y12193D01*
X73975Y12320D02*X74229D01*
X73848Y12066D02*X74356Y11558D01*
X74661Y11812D02*X75169Y11304D01*
X74661Y11812D02*X75296D01*
X75169Y11304D02*Y12320D01*
X90350Y11304D02*X90731D01*
Y12193D01*
X90604Y12320D02*X90731Y12193D01*
X90477Y12320D02*X90604D01*
X90350Y12193D02*X90477Y12320D01*
X91036Y11431D02*X91163Y11304D01*
X91417D01*
X91544Y11431D01*
Y12193D01*
X91417Y12320D02*X91544Y12193D01*
X91163Y12320D02*X91417D01*
X91036Y12193D02*X91163Y12320D01*
Y11812D02*X91544D01*
X91849Y12193D02*X91976Y12320D01*
X91849Y11431D02*Y12193D01*
Y11431D02*X91976Y11304D01*
X92230D01*
X92357Y11431D01*
Y12193D01*
X92230Y12320D02*X92357Y12193D01*
X91976Y12320D02*X92230D01*
X91849Y12066D02*X92357Y11558D01*
X92662Y11304D02*X93170D01*
X92662D02*Y11812D01*
X92789Y11685D01*
X93043D01*
X93170Y11812D01*
Y12193D01*
X93043Y12320D02*X93170Y12193D01*
X92789Y12320D02*X93043D01*
X92662Y12193D02*X92789Y12320D01*
X130677Y17620D02*X131058D01*
X130550Y17493D02*X130677Y17620D01*
X130550Y16731D02*Y17493D01*
Y16731D02*X130677Y16604D01*
X131058D01*
X131363Y16731D02*X131490Y16604D01*
X131744D01*
X131871Y16731D01*
Y17493D01*
X131744Y17620D02*X131871Y17493D01*
X131490Y17620D02*X131744D01*
X131363Y17493D02*X131490Y17620D01*
Y17112D02*X131871D01*
X132176Y16731D02*X132303Y16604D01*
X132684D01*
X132811Y16731D01*
Y16985D01*
X132176Y17620D02*X132811Y16985D01*
X132176Y17620D02*X132811D01*
X133115Y16731D02*X133242Y16604D01*
X133623D01*
X133750Y16731D01*
Y16985D01*
X133115Y17620D02*X133750Y16985D01*
X133115Y17620D02*X133750D01*
X133527Y43970D02*X133908D01*
X133400Y43843D02*X133527Y43970D01*
X133400Y43081D02*Y43843D01*
Y43081D02*X133527Y42954D01*
X133908D01*
X134213Y43081D02*X134340Y42954D01*
X134594D01*
X134721Y43081D01*
Y43843D01*
X134594Y43970D02*X134721Y43843D01*
X134340Y43970D02*X134594D01*
X134213Y43843D02*X134340Y43970D01*
Y43462D02*X134721D01*
X135026Y43843D02*X135153Y43970D01*
X135026Y43081D02*Y43843D01*
Y43081D02*X135153Y42954D01*
X135407D01*
X135534Y43081D01*
Y43843D01*
X135407Y43970D02*X135534Y43843D01*
X135153Y43970D02*X135407D01*
X135026Y43716D02*X135534Y43208D01*
X135838Y43462D02*X136346Y42954D01*
X135838Y43462D02*X136473D01*
X136346Y42954D02*Y43970D01*
X124500Y42254D02*Y43270D01*
Y42254D02*X125008D01*
X124500Y42762D02*X124881D01*
X125313Y42381D02*X125440Y42254D01*
X125694D01*
X125821Y42381D01*
Y43143D01*
X125694Y43270D02*X125821Y43143D01*
X125440Y43270D02*X125694D01*
X125313Y43143D02*X125440Y43270D01*
Y42762D02*X125821D01*
X126126Y43143D02*X126253Y43270D01*
X126126Y42381D02*Y43143D01*
Y42381D02*X126253Y42254D01*
X126507D01*
X126634Y42381D01*
Y43143D01*
X126507Y43270D02*X126634Y43143D01*
X126253Y43270D02*X126507D01*
X126126Y43016D02*X126634Y42508D01*
X126939Y42381D02*X127066Y42254D01*
X127447D01*
X127574Y42381D01*
Y42635D01*
X126939Y43270D02*X127574Y42635D01*
X126939Y43270D02*X127574D01*
X133300Y44754D02*X133808D01*
X133935Y44881D01*
Y45135D01*
X133808Y45262D02*X133935Y45135D01*
X133427Y45262D02*X133808D01*
X133427Y44754D02*Y45770D01*
Y45262D02*X133935Y45770D01*
X134240Y44881D02*X134367Y44754D01*
X134621D01*
X134748Y44881D01*
Y45643D01*
X134621Y45770D02*X134748Y45643D01*
X134367Y45770D02*X134621D01*
X134240Y45643D02*X134367Y45770D01*
Y45262D02*X134748D01*
X135053Y44881D02*X135180Y44754D01*
X135561D01*
X135688Y44881D01*
Y45135D01*
X135053Y45770D02*X135688Y45135D01*
X135053Y45770D02*X135688D01*
X135992Y45643D02*X136119Y45770D01*
X135992Y44881D02*Y45643D01*
Y44881D02*X136119Y44754D01*
X136373D01*
X136500Y44881D01*
Y45643D01*
X136373Y45770D02*X136500Y45643D01*
X136119Y45770D02*X136373D01*
X135992Y45516D02*X136500Y45008D01*
X124500Y50854D02*Y51870D01*
Y50854D02*X125008D01*
X124500Y51362D02*X124881D01*
X125313Y50981D02*X125440Y50854D01*
X125694D01*
X125821Y50981D01*
Y51743D01*
X125694Y51870D02*X125821Y51743D01*
X125440Y51870D02*X125694D01*
X125313Y51743D02*X125440Y51870D01*
Y51362D02*X125821D01*
X126126Y51743D02*X126253Y51870D01*
X126126Y50981D02*Y51743D01*
Y50981D02*X126253Y50854D01*
X126507D01*
X126634Y50981D01*
Y51743D01*
X126507Y51870D02*X126634Y51743D01*
X126253Y51870D02*X126507D01*
X126126Y51616D02*X126634Y51108D01*
X126938Y50981D02*X127065Y50854D01*
X127319D01*
X127446Y50981D01*
Y51743D01*
X127319Y51870D02*X127446Y51743D01*
X127065Y51870D02*X127319D01*
X126938Y51743D02*X127065Y51870D01*
Y51362D02*X127446D01*
X115441Y40610D02*X116203D01*
X115441D02*X115314Y40483D01*
Y40229D02*Y40483D01*
Y40229D02*X115441Y40102D01*
X116203D01*
X116330Y40229D02*X116203Y40102D01*
X116330Y40229D02*Y40483D01*
X116203Y40610D02*X116330Y40483D01*
X116076Y40356D02*X116330Y40102D01*
X115441Y39797D02*X115314Y39670D01*
Y39416D02*Y39670D01*
Y39416D02*X115441Y39289D01*
X116203D01*
X116330Y39416D02*X116203Y39289D01*
X116330Y39416D02*Y39670D01*
X116203Y39797D02*X116330Y39670D01*
X115822Y39289D02*Y39670D01*
X116203Y38984D02*X116330Y38857D01*
X115441Y38984D02*X116203D01*
X115441D02*X115314Y38857D01*
Y38603D02*Y38857D01*
Y38603D02*X115441Y38476D01*
X116203D01*
X116330Y38603D02*X116203Y38476D01*
X116330Y38603D02*Y38857D01*
X116076Y38984D02*X115568Y38476D01*
X115314Y37790D02*X115441Y37663D01*
X115314Y37790D02*Y38044D01*
X115441Y38171D02*X115314Y38044D01*
X115441Y38171D02*X116203D01*
X116330Y38044D01*
X115822Y37790D02*X115949Y37663D01*
X115822Y37790D02*Y38171D01*
X116330Y37790D02*Y38044D01*
Y37790D02*X116203Y37663D01*
X115949D02*X116203D01*
X115870Y46092D02*Y46473D01*
X115743Y46600D02*X115870Y46473D01*
X114981Y46600D02*X115743D01*
X114981D02*X114854Y46473D01*
Y46092D02*Y46473D01*
X114981Y45787D02*X114854Y45660D01*
Y45406D02*Y45660D01*
Y45406D02*X114981Y45279D01*
X115743D01*
X115870Y45406D02*X115743Y45279D01*
X115870Y45406D02*Y45660D01*
X115743Y45787D02*X115870Y45660D01*
X115362Y45279D02*Y45660D01*
X115743Y44975D02*X115870Y44848D01*
X114981Y44975D02*X115743D01*
X114981D02*X114854Y44848D01*
Y44594D02*Y44848D01*
Y44594D02*X114981Y44467D01*
X115743D01*
X115870Y44594D02*X115743Y44467D01*
X115870Y44594D02*Y44848D01*
X115616Y44975D02*X115108Y44467D01*
X115870Y44162D02*X115235Y43527D01*
X114854D02*X115235D01*
X114854D02*Y44162D01*
X124054Y23892D02*Y24400D01*
Y23892D02*X124181Y23765D01*
X124435D01*
X124562Y23892D02*X124435Y23765D01*
X124562Y23892D02*Y24273D01*
X124054D02*X125070D01*
X124562D02*X125070Y23765D01*
X124181Y23460D02*X124054Y23333D01*
Y23079D02*Y23333D01*
Y23079D02*X124181Y22952D01*
X124943D01*
X125070Y23079D02*X124943Y22952D01*
X125070Y23079D02*Y23333D01*
X124943Y23460D02*X125070Y23333D01*
X124562Y22952D02*Y23333D01*
X124181Y22647D02*X124054Y22520D01*
Y22266D02*Y22520D01*
Y22266D02*X124181Y22139D01*
X124943D01*
X125070Y22266D02*X124943Y22139D01*
X125070Y22266D02*Y22520D01*
X124943Y22647D02*X125070Y22520D01*
X124562Y22139D02*Y22520D01*
X124181Y21835D02*X124054Y21708D01*
Y21454D02*Y21708D01*
Y21454D02*X124181Y21327D01*
X124943D01*
X125070Y21454D02*X124943Y21327D01*
X125070Y21454D02*Y21708D01*
X124943Y21835D02*X125070Y21708D01*
X124562Y21327D02*Y21708D01*
X100166Y31270D02*Y32286D01*
X100547Y31270D02*X100674Y31397D01*
Y32159D01*
X100547Y32286D02*X100674Y32159D01*
X100039Y32286D02*X100547D01*
X100039Y31270D02*X100547D01*
X100979Y31397D02*X101106Y31270D01*
X101360D01*
X101487Y31397D01*
Y32159D01*
X101360Y32286D02*X101487Y32159D01*
X101106Y32286D02*X101360D01*
X100979Y32159D02*X101106Y32286D01*
Y31778D02*X101487D01*
X101792Y32159D02*X101919Y32286D01*
X101792Y31397D02*Y32159D01*
Y31397D02*X101919Y31270D01*
X102173D01*
X102300Y31397D01*
Y32159D01*
X102173Y32286D02*X102300Y32159D01*
X101919Y32286D02*X102173D01*
X101792Y32032D02*X102300Y31524D01*
X102604Y31270D02*X103112D01*
X102604D02*Y31778D01*
X102731Y31651D01*
X102985D01*
X103112Y31778D01*
Y32159D01*
X102985Y32286D02*X103112Y32159D01*
X102731Y32286D02*X102985D01*
X102604Y32159D02*X102731Y32286D01*
X105354Y45433D02*Y45941D01*
Y45433D02*X105481Y45306D01*
X105735D01*
X105862Y45433D02*X105735Y45306D01*
X105862Y45433D02*Y45814D01*
X105354D02*X106370D01*
X105862D02*X106370Y45306D01*
X105481Y45001D02*X105354Y44874D01*
Y44620D02*Y44874D01*
Y44620D02*X105481Y44493D01*
X106243D01*
X106370Y44620D02*X106243Y44493D01*
X106370Y44620D02*Y44874D01*
X106243Y45001D02*X106370Y44874D01*
X105862Y44493D02*Y44874D01*
X105481Y44188D02*X105354Y44061D01*
Y43680D02*Y44061D01*
Y43680D02*X105481Y43553D01*
X105735D01*
X106370Y44188D02*X105735Y43553D01*
X106370D02*Y44188D01*
X105354Y42741D02*Y43249D01*
X105862D01*
X105735Y43122D01*
Y42868D02*Y43122D01*
Y42868D02*X105862Y42741D01*
X106243D01*
X106370Y42868D02*X106243Y42741D01*
X106370Y42868D02*Y43122D01*
X106243Y43249D02*X106370Y43122D01*
X108320Y45383D02*Y45764D01*
X108193Y45891D02*X108320Y45764D01*
X107431Y45891D02*X108193D01*
X107431D02*X107304Y45764D01*
Y45383D02*Y45764D01*
X107431Y45078D02*X107304Y44951D01*
Y44697D02*Y44951D01*
Y44697D02*X107431Y44570D01*
X108193D01*
X108320Y44697D02*X108193Y44570D01*
X108320Y44697D02*Y44951D01*
X108193Y45078D02*X108320Y44951D01*
X107812Y44570D02*Y44951D01*
X108193Y44265D02*X108320Y44138D01*
X107431Y44265D02*X108193D01*
X107431D02*X107304Y44138D01*
Y43884D02*Y44138D01*
Y43884D02*X107431Y43757D01*
X108193D01*
X108320Y43884D02*X108193Y43757D01*
X108320Y43884D02*Y44138D01*
X108066Y44265D02*X107558Y43757D01*
X108193Y43453D02*X108320Y43326D01*
X107939Y43453D02*X108193D01*
X107939D02*X107812Y43326D01*
Y43072D02*Y43326D01*
Y43072D02*X107939Y42945D01*
X108193D01*
X108320Y43072D02*X108193Y42945D01*
X108320Y43072D02*Y43326D01*
X107685Y43453D02*X107812Y43326D01*
X107431Y43453D02*X107685D01*
X107431D02*X107304Y43326D01*
Y43072D02*Y43326D01*
Y43072D02*X107431Y42945D01*
X107685D01*
X107812Y43072D02*X107685Y42945D01*
X100340Y42429D02*Y43191D01*
Y42429D02*X100467Y42302D01*
X100721D01*
X100848Y42429D01*
Y43191D01*
X100721Y43318D02*X100848Y43191D01*
X100467Y43318D02*X100721D01*
X100340Y43191D02*X100467Y43318D01*
X100594Y43064D02*X100848Y43318D01*
X101153Y42429D02*X101280Y42302D01*
X101534D01*
X101661Y42429D01*
Y43191D01*
X101534Y43318D02*X101661Y43191D01*
X101280Y43318D02*X101534D01*
X101153Y43191D02*X101280Y43318D01*
Y42810D02*X101661D01*
X101966Y43191D02*X102093Y43318D01*
X101966Y42429D02*Y43191D01*
Y42429D02*X102093Y42302D01*
X102347D01*
X102474Y42429D01*
Y43191D01*
X102347Y43318D02*X102474Y43191D01*
X102093Y43318D02*X102347D01*
X101966Y43064D02*X102474Y42556D01*
X102779Y42302D02*X103287D01*
X102779D02*Y42810D01*
X102906Y42683D01*
X103160D01*
X103287Y42810D01*
Y43191D01*
X103160Y43318D02*X103287Y43191D01*
X102906Y43318D02*X103160D01*
X102779Y43191D02*X102906Y43318D01*
X97104Y42492D02*Y43000D01*
Y42492D02*X97231Y42365D01*
X97485D01*
X97612Y42492D02*X97485Y42365D01*
X97612Y42492D02*Y42873D01*
X97104D02*X98120D01*
X97612D02*X98120Y42365D01*
X97231Y42060D02*X97104Y41933D01*
Y41679D02*Y41933D01*
Y41679D02*X97231Y41552D01*
X97993D01*
X98120Y41679D02*X97993Y41552D01*
X98120Y41679D02*Y41933D01*
X97993Y42060D02*X98120Y41933D01*
X97612Y41552D02*Y41933D01*
X97231Y41248D02*X97104Y41121D01*
Y40740D02*Y41121D01*
Y40740D02*X97231Y40613D01*
X97485D01*
X98120Y41248D02*X97485Y40613D01*
X98120D02*Y41248D01*
X97612Y40308D02*X97104Y39800D01*
X97612Y39673D02*Y40308D01*
X97104Y39800D02*X98120D01*
X95592Y48705D02*Y49594D01*
X95719Y49721D01*
X95973D01*
X96100Y49594D01*
Y48705D02*Y49594D01*
X96405Y48832D02*X96532Y48705D01*
X96786D01*
X96913Y48832D01*
Y49594D01*
X96786Y49721D02*X96913Y49594D01*
X96532Y49721D02*X96786D01*
X96405Y49594D02*X96532Y49721D01*
Y49213D02*X96913D01*
X97217Y49594D02*X97344Y49721D01*
X97217Y48832D02*Y49594D01*
Y48832D02*X97344Y48705D01*
X97598D01*
X97725Y48832D01*
Y49594D01*
X97598Y49721D02*X97725Y49594D01*
X97344Y49721D02*X97598D01*
X97217Y49467D02*X97725Y48959D01*
X98030Y48832D02*X98157Y48705D01*
X98538D01*
X98665Y48832D01*
Y49086D01*
X98030Y49721D02*X98665Y49086D01*
X98030Y49721D02*X98665D01*
X108838Y52645D02*X109600D01*
X108838D02*X108711Y52518D01*
Y52264D02*Y52518D01*
Y52264D02*X108838Y52137D01*
X109600D01*
X109727Y52264D02*X109600Y52137D01*
X109727Y52264D02*Y52518D01*
X109600Y52645D02*X109727Y52518D01*
X109473Y52391D02*X109727Y52137D01*
X108838Y51832D02*X108711Y51705D01*
Y51451D02*Y51705D01*
Y51451D02*X108838Y51324D01*
X109600D01*
X109727Y51451D02*X109600Y51324D01*
X109727Y51451D02*Y51705D01*
X109600Y51832D02*X109727Y51705D01*
X109219Y51324D02*Y51705D01*
X109600Y51019D02*X109727Y50892D01*
X108838Y51019D02*X109600D01*
X108838D02*X108711Y50892D01*
Y50638D02*Y50892D01*
Y50638D02*X108838Y50511D01*
X109600D01*
X109727Y50638D02*X109600Y50511D01*
X109727Y50638D02*Y50892D01*
X109473Y51019D02*X108965Y50511D01*
X109727Y50206D02*X109092Y49571D01*
X108711D02*X109092D01*
X108711D02*Y50206D01*
X104170Y49683D02*Y50064D01*
X104043Y50191D02*X104170Y50064D01*
X103281Y50191D02*X104043D01*
X103281D02*X103154Y50064D01*
Y49683D02*Y50064D01*
X103281Y49378D02*X103154Y49251D01*
Y48997D02*Y49251D01*
Y48997D02*X103281Y48870D01*
X104043D01*
X104170Y48997D02*X104043Y48870D01*
X104170Y48997D02*Y49251D01*
X104043Y49378D02*X104170Y49251D01*
X103662Y48870D02*Y49251D01*
X104170Y48184D02*Y48438D01*
X103154Y48311D02*X104170D01*
X103408Y48565D02*X103154Y48311D01*
X104170Y47880D02*X103535Y47245D01*
X103154D02*X103535D01*
X103154D02*Y47880D01*
X116190Y57023D02*X117206D01*
X116190Y56642D02*X116317Y56515D01*
X117079D01*
X117206Y56642D02*X117079Y56515D01*
X117206Y56642D02*Y57150D01*
X116190Y56642D02*Y57150D01*
X116317Y56210D02*X116190Y56083D01*
Y55829D02*Y56083D01*
Y55829D02*X116317Y55702D01*
X117079D01*
X117206Y55829D02*X117079Y55702D01*
X117206Y55829D02*Y56083D01*
X117079Y56210D02*X117206Y56083D01*
X116698Y55702D02*Y56083D01*
X117079Y55398D02*X117206Y55271D01*
X116317Y55398D02*X117079D01*
X116317D02*X116190Y55271D01*
Y55017D02*Y55271D01*
Y55017D02*X116317Y54890D01*
X117079D01*
X117206Y55017D02*X117079Y54890D01*
X117206Y55017D02*Y55271D01*
X116952Y55398D02*X116444Y54890D01*
X116317Y54585D02*X116190Y54458D01*
Y54077D02*Y54458D01*
Y54077D02*X116317Y53950D01*
X116571D01*
X117206Y54585D02*X116571Y53950D01*
X117206D02*Y54585D01*
X115870Y50642D02*Y51023D01*
X115743Y51150D02*X115870Y51023D01*
X114981Y51150D02*X115743D01*
X114981D02*X114854Y51023D01*
Y50642D02*Y51023D01*
X114981Y50337D02*X114854Y50210D01*
Y49956D02*Y50210D01*
Y49956D02*X114981Y49829D01*
X115743D01*
X115870Y49956D02*X115743Y49829D01*
X115870Y49956D02*Y50210D01*
X115743Y50337D02*X115870Y50210D01*
X115362Y49829D02*Y50210D01*
X115743Y49524D02*X115870Y49397D01*
X114981Y49524D02*X115743D01*
X114981D02*X114854Y49397D01*
Y49143D02*Y49397D01*
Y49143D02*X114981Y49016D01*
X115743D01*
X115870Y49143D02*X115743Y49016D01*
X115870Y49143D02*Y49397D01*
X115616Y49524D02*X115108Y49016D01*
X114854Y48331D02*X114981Y48204D01*
X114854Y48331D02*Y48585D01*
X114981Y48712D02*X114854Y48585D01*
X114981Y48712D02*X115743D01*
X115870Y48585D01*
X115362Y48331D02*X115489Y48204D01*
X115362Y48331D02*Y48712D01*
X115870Y48331D02*Y48585D01*
Y48331D02*X115743Y48204D01*
X115489D02*X115743D01*
M02*
