M48
INCH
T129C0.020
T128C0.020
T127C0.047
T126C0.060
T125C0.060
T124C0.091
T123C0.038
T122C0.035
T121C0.030
T120C0.106
T119C0.039
T118C0.067
T117C0.026
T116C0.040
%
T129
X023465Y013307
X028110Y012047
X026850Y012047
X027756Y012441
X025591Y012441
X027284Y011614
X027323Y012835
X026772Y013189
X027362Y014606
X027835Y015354
X030906Y015669
X029764Y015984
X028307Y016339
X025000Y014921
X025906Y015591
X014016Y029095
X029291Y011024
X034764Y011457
X039291Y010354
X032087Y013425
X032717Y013543
X032717Y013976
X028976Y013858
X033071Y012599
X034488Y012047
X035157Y012520
X037756Y011890
X037362Y012165
X038504Y012717
X037244Y012717
X038150Y013150
X037795Y013504
X037441Y013858
X037087Y014252
X036732Y014606
X036378Y014961
X036024Y015276
T128
X017913Y013307
X019331Y012795
X021221Y010827
X023110Y013780
X021260Y013504
X018976Y017599
X018031Y010827
X022047Y007323
X024646Y008465
X027284Y008465
X020276Y008780
X020315Y016063
X020709Y014055
X020039Y007835
X018583Y007835
X029055Y019370
X030315Y018347
X030512Y014055
X032520Y008898
X033189Y008071
X029606Y007913
X027953Y027402
X029173Y026063
X027953Y026063
X026732Y026063
X029685Y023504
X029685Y024016
X028150Y024252
X030315Y024843
X032795Y023110
X027874Y028307
X028819Y028701
X024921Y028937
X024961Y023661
X022402Y021811
X023779Y031378
X020709Y030197
X027008Y017205
X021181Y017008
X022008Y017874
X021614Y017480
X022717Y018583
X025354Y018858
X022480Y015748
X023307Y016575
X024016Y017284
X022047Y014488
X021102Y026614
X019134Y027717
X025709Y026929
X019528Y030591
X019016Y031536
X017638Y031536
X018189Y031142
X017835Y028386
X025709Y027402
X027953Y031851
X027480Y031851
X029961Y034528
X030945Y034528
X030472Y034528
X028622Y035473
X029961Y032756
X032323Y031299
X030945Y031772
X030472Y032087
X031417Y030433
X032323Y029567
X033228Y030433
X033150Y027126
X033346Y027953
X033425Y031024
X033150Y026654
X032677Y024528
X033504Y025354
X032520Y023819
X031890Y026693
X026496Y032205
X024094Y028465
X027126Y035591
X017638Y034567
X018189Y034567
X019016Y034843
X019528Y034843
X018976Y036181
X019961Y035236
X022874Y036339
X019882Y037165
X018622Y037165
X013819Y026614
X014646Y028307
X013071Y028386
X013543Y025118
X011929Y026614
X012677Y027165
X011969Y029134
X015906Y028661
X008543Y031929
X016850Y032087
X014606Y030945
X016850Y030000
X009409Y028976
X009803Y021732
X009409Y029843
X009409Y030709
X006024Y034685
X002520Y033937
X003346Y033701
X005433Y036024
X006732Y036024
X007992Y036024
X009291Y036024
X010591Y036024
X011850Y036024
X013346Y036024
X007126Y023347
X005315Y022362
X004410Y024173
X006299Y024173
X005197Y024882
X003425Y024370
X002480Y026260
X002480Y027441
X003780Y027441
X003780Y026260
X003386Y028661
X002520Y029961
X003937Y032323
X002520Y032795
X018976Y016969
X007913Y017008
X004488Y016614
X006417Y016614
X016417Y014410
X015787Y020079
X017284Y013583
X015827Y013386
X015039Y014173
X014606Y010473
X015669Y010551
X012913Y009882
X010630Y009921
X008819Y018386
X009803Y019370
X010039Y017362
X009803Y020512
X015551Y012795
X015433Y015473
X015787Y018661
X017087Y018661
X015787Y017362
X017087Y017323
X017087Y016063
X008701Y011378
X008740Y013189
X008740Y012638
X007559Y013858
X004567Y014291
X002165Y014331
X002126Y008858
X003071Y009291
X008701Y009646
X009134Y019882
X009409Y009291
X009409Y010630
X012008Y016339
X010984Y005984
X012126Y003898
X011850Y001575
X011929Y007992
X011378Y008740
X017284Y007835
X017284Y008701
X014606Y008701
X014606Y007835
X013465Y007165
X013465Y006221
X012402Y006221
X012638Y008740
X015748Y006339
X015748Y005591
X015748Y007087
X010157Y005669
X008386Y003780
X010787Y007992
X009291Y006457
X009370Y005276
X008386Y001575
X009567Y001575
X010669Y001575
X012992Y001575
X007165Y001575
X005984Y001575
X005866Y004528
X005827Y005906
X004882Y001575
X004724Y003740
X003346Y006693
X008386Y002677
X008189Y007992
X009409Y007992
X008110Y006457
X063504Y004882
X063898Y006024
X063504Y005669
X063898Y005276
X062717Y004724
X063268Y007323
X063268Y006535
X063661Y006929
X062874Y006929
X063661Y007717
X062480Y007323
X062480Y008110
X062874Y007717
X062874Y008504
X063268Y008110
X063661Y008504
X063661Y009291
X063268Y008898
X061496Y006102
X060197Y006221
X060669Y006693
X060197Y005827
X059803Y005827
X060709Y004724
X061496Y005472
X063622Y003563
X063622Y002776
X063622Y002382
X063622Y003169
X063622Y001988
X063622Y001595
X063740Y015709
X060197Y005433
X060197Y005039
X060197Y004646
X059803Y005433
X059803Y005039
X059409Y004803
X059173Y005118
X059803Y004646
X059409Y005433
X056496Y016811
X056575Y013701
X056575Y015039
X059882Y001595
X059882Y001988
X059882Y002382
X059882Y002776
X059882Y003169
X059488Y002776
X059882Y003563
X059488Y003563
X059488Y003169
X059488Y001595
X059094Y001595
X059488Y001988
X059488Y002382
X059094Y001988
X059094Y002382
X059094Y002776
X059094Y003169
X059094Y003563
X058701Y001595
X058701Y001988
X058701Y002382
X058701Y002776
X058701Y003169
X061693Y006535
X061299Y006929
X062087Y006929
X061693Y007323
X062087Y007717
X061811Y005158
X061339Y004724
X062087Y004724
X061811Y005787
X050138Y008780
X050138Y008386
X050531Y008386
X050531Y008780
X050531Y007205
X050138Y007205
X050138Y007599
X050531Y007599
X050531Y007992
X050138Y007992
X050531Y009173
X050138Y009173
X050531Y009567
X050138Y009567
X048976Y010591
X049646Y009685
X047598Y009252
X047126Y006772
X047874Y006772
X048583Y006772
X050472Y006299
X050531Y009961
X050531Y010354
X050925Y009961
X050925Y010354
X050138Y009961
X051319Y009961
X051319Y010354
X051713Y009961
X051713Y010354
X041654Y010551
X045866Y010630
X041969Y010197
X042284Y009843
X053681Y010354
X053287Y010354
X053681Y010748
X053287Y010748
X052106Y009961
X052500Y009961
X052894Y009961
X053287Y009961
X053681Y009961
X052106Y010354
X052500Y010354
X052894Y010354
X043268Y013780
X047835Y012874
X042284Y011496
X042638Y011142
X042953Y010827
X029882Y005354
X033386Y013543
X031102Y007323
X033661Y007520
X034449Y007520
X046850Y007362
X041575Y007638
X042874Y007638
X044055Y007638
X045709Y007559
X045197Y009213
X044291Y008425
X052894Y010748
X052500Y010748
X052106Y010748
X051713Y010748
X051319Y010748
X052795Y012717
X052795Y012323
X052795Y011929
X052795Y011536
X052402Y011929
X052402Y011536
X035472Y015945
X039528Y016850
X040433Y016850
X041850Y016850
X042776Y014095
X042736Y016398
X052402Y012323
X046654Y014764
X046417Y016536
X049173Y014764
X053189Y015591
X053189Y014646
X053898Y014410
X054646Y016339
X052874Y015118
X023543Y019410
X026102Y019370
X023110Y019016
X045827Y018780
X045827Y017717
X024842Y018110
X024803Y020669
X026929Y020236
X027638Y020906
X025236Y021102
X045827Y021063
X045827Y020000
X047008Y021536
X028465Y021772
X034291Y022500
X031339Y022441
X032638Y022028
X025630Y021496
X026339Y022205
X027165Y023032
X026732Y022638
X034232Y020413
X034882Y020413
X034252Y023032
X031535Y017165
X033622Y023110
X034921Y030315
X034764Y031024
X039882Y029488
X037598Y030000
X036260Y027244
X036850Y027953
X036772Y027244
X038071Y027835
X037205Y024331
X036083Y023799
X035709Y025591
X034842Y025906
X035118Y028110
X035118Y027284
X034488Y027756
X033622Y026890
X031575Y028780
X032008Y028662
X032441Y028780
X034685Y028780
X036457Y028780
X036850Y028425
X040354Y029488
X047992Y030236
X047992Y031181
X047992Y032126
X024961Y036339
X036496Y035197
X034567Y035197
X034606Y032441
X035197Y031811
X038661Y032323
X038661Y037047
X038661Y033740
X047992Y033071
X047992Y033976
X047992Y034961
X047992Y036772
X047992Y035866
X045984Y036772
X047008Y036772
X047008Y035866
X049055Y033976
X049055Y034961
X049055Y035866
X049055Y036772
X049055Y037717
X047992Y037717
X047008Y037717
X045984Y037717
X044961Y037717
X047598Y022165
X050473Y020079
X049173Y017835
X043504Y023110
X044685Y023858
X044685Y022913
X045827Y023150
X045827Y022087
X051339Y022520
X039882Y028976
X038504Y025866
X038976Y025866
X041417Y027874
X045827Y028622
X039882Y028465
X043346Y029095
X043819Y027835
X048937Y026280
X043110Y027795
X048504Y026181
X049055Y030236
X049055Y031181
X049055Y032126
X049055Y033071
X040906Y017303
X039134Y017539
X036004Y018563
X044843Y018740
X037205Y017894
X039882Y021339
X040669Y020709
X043504Y020709
X044685Y021063
X044685Y020551
X039882Y022008
X037953Y022205
X037953Y021496
X037953Y020827
X037323Y020473
X037953Y020118
X039882Y022677
X040669Y023110
X041457Y022677
X041457Y022008
X041457Y021339
T117
X038178Y010852
X038178Y010352
X033678Y009102
X034178Y009102
X034678Y009102
X033678Y010852
X033678Y010352
X034178Y010852
X034178Y010352
X035178Y009102
X035678Y009102
X036178Y009102
X036678Y009102
X035178Y008602
X035678Y008602
X036178Y008602
X036678Y008602
X037178Y009102
X037678Y009102
X038178Y009102
X037178Y008602
X037678Y008602
X038178Y008602
X034678Y010852
X034678Y010352
X035178Y010352
X035678Y010352
X035178Y010852
X035678Y010852
X036178Y010852
X036678Y010852
X037178Y010852
X037678Y010852
X036178Y010352
X036678Y010352
X037178Y010352
X037678Y010352
X033678Y008602
X034178Y008602
X034678Y008602
T121
X058008Y015583
X058008Y017583
T122
X005319Y014071
X005319Y012071
X005319Y013071
X005319Y011071
X006319Y014571
X006319Y012571
X006319Y011571
X006319Y013571
X005319Y021666
X005319Y019666
X005319Y020666
X005319Y018666
X006319Y022166
X006319Y020166
X006319Y019166
X006319Y021166
T123
X008346Y019362
X008346Y020362
X008346Y021362
X008346Y022362
T119
X057748Y022165
X055748Y022165
X012142Y015421
X011142Y015421
X011142Y014421
X011142Y013421
X012142Y014421
X012142Y013421
X012142Y012421
X012142Y011421
X012142Y010421
X012142Y009421
X011142Y012421
X011142Y011421
X011142Y010421
X011142Y009421
X047382Y008189
X048366Y008189
X046398Y008189
X048366Y002480
X046398Y002480
X006044Y008189
X007028Y008189
X005059Y008189
X007028Y002480
X005059Y002480
T116
X018778Y010152
X019778Y010152
X020778Y010152
X019778Y009152
X020778Y009152
X021778Y009152
X022778Y009152
X023778Y009152
X024778Y009152
X025778Y009152
X025778Y010152
X026778Y010152
X027778Y010152
X018778Y009152
X021778Y010152
X022778Y010152
X023778Y010152
X024778Y010152
X026778Y009152
X027778Y009152
X028778Y009152
X029778Y009152
X030778Y009152
X031778Y009152
X028778Y010152
X029778Y010152
X030778Y010152
X031778Y010152
T127
X011378Y002717
X009878Y002717
T125
X055036Y006736
X058036Y006736
X055036Y003736
X058036Y003736
T126
X040000Y003484
X032913Y003484
X029961Y003484
X037047Y003484
X025827Y003484
X022874Y003484
X018740Y003485
X015788Y003485
T118
X052528Y021673
X054087Y021673
T124
X003819Y029697
X003819Y034870
X049587Y005236
X045177Y005236
X008248Y005236
X003839Y005236
T120
X057323Y009961
X055354Y009961
X060866Y009961
X058898Y009961
M30
