G04 start of page 12 for group -4014 idx -4014 *
G04 Title: Power Board, bottompaste *
G04 Creator: pcb 20110918 *
G04 CreationDate: Wed 12 Sep 2012 10:37:05 PM GMT UTC *
G04 For: rob *
G04 Format: Gerber/RS-274X *
G04 PCB-Dimensions: 653543 393701 *
G04 PCB-Coordinate-Origin: lower left *
%MOIN*%
%FSLAX25Y25*%
%LNBOTTOMPASTE*%
%ADD259R,0.0283X0.0283*%
%ADD258R,0.0130X0.0130*%
%ADD257R,0.0689X0.0689*%
%ADD256R,0.0290X0.0290*%
%ADD255R,0.1220X0.1220*%
%ADD254R,0.0560X0.0560*%
%ADD253R,0.0807X0.0807*%
%ADD252R,0.0441X0.0441*%
%ADD251R,0.0709X0.0709*%
%ADD250R,0.0906X0.0906*%
%ADD249R,0.0512X0.0512*%
%ADD248R,0.0340X0.0340*%
%ADD247R,0.0283X0.0283*%
G54D247*X541571Y171351D02*Y170383D01*
X547405Y171351D02*Y170383D01*
G54D248*X29228Y84646D02*X29828D01*
X29228Y76846D02*X29828D01*
X21028Y80746D02*X21628D01*
X32310Y259412D02*X32910D01*
X32310Y251612D02*X32910D01*
X24110Y255512D02*X24710D01*
G54D247*X246851Y224894D02*Y223926D01*
X241017Y224894D02*Y223926D01*
G54D249*X540157Y155905D02*Y155119D01*
X547243Y155905D02*Y155119D01*
G54D250*X511811Y194686D02*Y181694D01*
X482677Y194686D02*Y181694D01*
G54D247*X202272Y180316D02*X203240D01*
X202272Y186150D02*X203240D01*
G54D250*X511811Y160827D02*Y147835D01*
X482677Y160827D02*Y147835D01*
G54D251*X406693Y222441D02*Y215355D01*
X371259Y222441D02*Y215355D01*
G54D252*X48819Y309055D02*X55748D01*
X48819Y318898D02*X55748D01*
X48819Y326772D02*X55748D01*
X48819Y336615D02*X55748D01*
G54D253*X418111Y307678D02*Y293898D01*
Y270080D02*Y256300D01*
G54D247*X354831Y185702D02*X355799D01*
X354831Y191536D02*X355799D01*
X392036Y145670D02*X393004D01*
X392036Y151504D02*X393004D01*
X385736D02*X386704D01*
X385736Y145670D02*X386704D01*
X364280Y185899D02*X365248D01*
X364280Y191733D02*X365248D01*
X416051Y189299D02*X417019D01*
X416051Y183465D02*X417019D01*
G54D248*X396224Y131140D02*X396824D01*
X396224Y138940D02*X396824D01*
X404424Y135040D02*X405024D01*
G54D254*X416001Y136670D02*X422601D01*
X416001Y145670D02*X422601D01*
X416001Y154770D02*X422601D01*
G54D255*X443701Y150170D02*Y141170D01*
G54D247*X356996Y197316D02*X357964D01*
X356996Y203150D02*X357964D01*
X423532Y189299D02*X424500D01*
X423532Y183465D02*X424500D01*
G54D256*X397424Y157636D02*X398024D01*
X397424Y162736D02*X398024D01*
X404424Y160236D02*X405024D01*
G54D247*X389280Y157319D02*X390248D01*
X389280Y163153D02*X390248D01*
X404240Y145670D02*X405208D01*
X404240Y151504D02*X405208D01*
X397941Y145670D02*X398909D01*
X397941Y151504D02*X398909D01*
G54D249*X61811Y286613D02*Y281103D01*
X50001Y286613D02*Y281103D01*
G54D247*X408571Y177631D02*X409539D01*
X408571Y183465D02*X409539D01*
G54D257*X429725Y218898D02*X433268D01*
X446654D02*X450197D01*
G54D249*X349017Y212992D02*X354527D01*
X349017Y224802D02*X354527D01*
G54D256*X346747Y191321D02*X347347D01*
X346747Y186221D02*X347347D01*
X339747Y188721D02*X340347D01*
G54D249*X436615Y199212D02*Y193702D01*
X448425Y199212D02*Y193702D01*
X436615Y181102D02*Y175592D01*
X448425Y181102D02*Y175592D01*
X331497Y212992D02*X337007D01*
X331497Y224802D02*X337007D01*
G54D258*X378012Y180906D02*X382618D01*
X378012Y183465D02*X382618D01*
X378012Y186023D02*X382618D01*
X378012Y188582D02*X382618D01*
X395728D02*X400334D01*
X395728Y186023D02*X400334D01*
X395728Y183465D02*X400334D01*
X395728Y180906D02*X400334D01*
G54D247*X364280Y197316D02*X365248D01*
X364280Y203150D02*X365248D01*
G54D248*X423320Y204650D02*X423920D01*
X423320Y196850D02*X423920D01*
X415120Y200750D02*X415720D01*
G54D247*X347047Y198319D02*Y197351D01*
X341213Y198319D02*Y197351D01*
G54D259*X495972Y91500D02*X496941D01*
X495972Y85666D02*X496941D01*
G54D257*X580315Y123229D02*X583858D01*
X597244D02*X600787D01*
G54D247*X541571Y178437D02*Y177469D01*
X547405Y178437D02*Y177469D01*
M02*
